G04 #@! TF.GenerationSoftware,KiCad,Pcbnew,(5.1.4-0-10_14)*
G04 #@! TF.CreationDate,2020-02-28T18:01:43+01:00*
G04 #@! TF.ProjectId,circuit,63697263-7569-4742-9e6b-696361645f70,rev?*
G04 #@! TF.SameCoordinates,Original*
G04 #@! TF.FileFunction,Copper,L2,Bot*
G04 #@! TF.FilePolarity,Positive*
%FSLAX46Y46*%
G04 Gerber Fmt 4.6, Leading zero omitted, Abs format (unit mm)*
G04 Created by KiCad (PCBNEW (5.1.4-0-10_14)) date 2020-02-28 18:01:43*
%MOMM*%
%LPD*%
G04 APERTURE LIST*
%ADD10O,1.400000X1.400000*%
%ADD11C,1.400000*%
%ADD12O,1.700000X1.700000*%
%ADD13R,1.700000X1.700000*%
%ADD14C,1.600000*%
%ADD15O,1.600000X1.600000*%
%ADD16R,1.600000X1.600000*%
%ADD17R,1.524000X1.524000*%
%ADD18C,3.048000*%
%ADD19C,1.524000*%
%ADD20R,1.050000X1.500000*%
%ADD21O,1.050000X1.500000*%
%ADD22O,1.950000X1.700000*%
%ADD23C,0.100000*%
%ADD24C,1.700000*%
%ADD25C,1.500000*%
%ADD26R,2.000000X2.000000*%
%ADD27C,2.000000*%
%ADD28R,2.000000X3.200000*%
%ADD29C,1.397000*%
%ADD30O,2.000000X1.905000*%
%ADD31R,2.000000X1.905000*%
%ADD32O,3.600000X2.080000*%
%ADD33C,2.080000*%
%ADD34O,3.500000X2.000000*%
%ADD35O,2.000000X3.300000*%
%ADD36R,2.000000X4.000000*%
%ADD37O,3.600000X2.000000*%
%ADD38O,2.240000X2.240000*%
%ADD39R,2.240000X2.240000*%
%ADD40C,2.000000*%
%ADD41C,1.000000*%
%ADD42C,0.500000*%
G04 APERTURE END LIST*
D10*
X263749800Y-132282640D03*
D11*
X256129800Y-132282640D03*
D12*
X266279800Y-125862640D03*
X266279800Y-123322640D03*
D13*
X266279800Y-120782640D03*
D12*
X261629800Y-125862640D03*
X261629800Y-123322640D03*
D13*
X261629800Y-120782640D03*
D12*
X256979800Y-128402640D03*
X256979800Y-125862640D03*
X256979800Y-123322640D03*
D13*
X256979800Y-120782640D03*
D14*
X275179800Y-123632640D03*
X270179800Y-123632640D03*
X271799800Y-129882640D03*
X266799800Y-129882640D03*
X275179800Y-120182640D03*
X270179800Y-120182640D03*
D15*
X210063080Y-116027200D03*
X202443080Y-108407200D03*
X207523080Y-116027200D03*
X204983080Y-108407200D03*
X204983080Y-116027200D03*
X207523080Y-108407200D03*
X202443080Y-116027200D03*
D16*
X210063080Y-108407200D03*
D17*
X262691880Y-64856360D03*
D18*
X261421880Y-54061360D03*
X261421880Y-93431360D03*
X210621880Y-93431360D03*
X210621880Y-54061360D03*
D19*
X262691880Y-67396360D03*
X262691880Y-69936360D03*
X262691880Y-72476360D03*
X262691880Y-75016360D03*
X262691880Y-77556360D03*
X262691880Y-80096360D03*
X262691880Y-82636360D03*
D20*
X200990200Y-23820120D03*
D21*
X203530200Y-23820120D03*
X202260200Y-23820120D03*
D19*
X209362040Y-69306440D03*
X209362040Y-71846440D03*
X209362040Y-74386440D03*
X209362040Y-76926440D03*
X209362040Y-79466440D03*
X209362040Y-82006440D03*
X209362040Y-84546440D03*
D18*
X210632040Y-62956440D03*
X210632040Y-93436440D03*
X261432040Y-93436440D03*
X261432040Y-62956440D03*
D17*
X209362040Y-87086440D03*
D22*
X190627000Y-74806160D03*
X190627000Y-77306160D03*
X190627000Y-79806160D03*
D23*
G36*
X191376504Y-81457364D02*
G01*
X191400773Y-81460964D01*
X191424571Y-81466925D01*
X191447671Y-81475190D01*
X191469849Y-81485680D01*
X191490893Y-81498293D01*
X191510598Y-81512907D01*
X191528777Y-81529383D01*
X191545253Y-81547562D01*
X191559867Y-81567267D01*
X191572480Y-81588311D01*
X191582970Y-81610489D01*
X191591235Y-81633589D01*
X191597196Y-81657387D01*
X191600796Y-81681656D01*
X191602000Y-81706160D01*
X191602000Y-82906160D01*
X191600796Y-82930664D01*
X191597196Y-82954933D01*
X191591235Y-82978731D01*
X191582970Y-83001831D01*
X191572480Y-83024009D01*
X191559867Y-83045053D01*
X191545253Y-83064758D01*
X191528777Y-83082937D01*
X191510598Y-83099413D01*
X191490893Y-83114027D01*
X191469849Y-83126640D01*
X191447671Y-83137130D01*
X191424571Y-83145395D01*
X191400773Y-83151356D01*
X191376504Y-83154956D01*
X191352000Y-83156160D01*
X189902000Y-83156160D01*
X189877496Y-83154956D01*
X189853227Y-83151356D01*
X189829429Y-83145395D01*
X189806329Y-83137130D01*
X189784151Y-83126640D01*
X189763107Y-83114027D01*
X189743402Y-83099413D01*
X189725223Y-83082937D01*
X189708747Y-83064758D01*
X189694133Y-83045053D01*
X189681520Y-83024009D01*
X189671030Y-83001831D01*
X189662765Y-82978731D01*
X189656804Y-82954933D01*
X189653204Y-82930664D01*
X189652000Y-82906160D01*
X189652000Y-81706160D01*
X189653204Y-81681656D01*
X189656804Y-81657387D01*
X189662765Y-81633589D01*
X189671030Y-81610489D01*
X189681520Y-81588311D01*
X189694133Y-81567267D01*
X189708747Y-81547562D01*
X189725223Y-81529383D01*
X189743402Y-81512907D01*
X189763107Y-81498293D01*
X189784151Y-81485680D01*
X189806329Y-81475190D01*
X189829429Y-81466925D01*
X189853227Y-81460964D01*
X189877496Y-81457364D01*
X189902000Y-81456160D01*
X191352000Y-81456160D01*
X191376504Y-81457364D01*
X191376504Y-81457364D01*
G37*
D24*
X190627000Y-82306160D03*
D25*
X242577280Y-93360240D03*
X247477280Y-93360240D03*
D20*
X214868760Y-47249080D03*
D21*
X217408760Y-47249080D03*
X216138760Y-47249080D03*
D26*
X272399760Y-79502000D03*
D27*
X274899760Y-79502000D03*
X277399760Y-79502000D03*
D28*
X269299760Y-72002000D03*
X280499760Y-72002000D03*
D27*
X272399760Y-65002000D03*
X277399760Y-65002000D03*
D29*
X215153240Y-103698040D03*
X215153240Y-98618040D03*
X222773240Y-103698040D03*
X222773240Y-98618040D03*
X229351840Y-103609140D03*
X229351840Y-98529140D03*
X236971840Y-103609140D03*
X236971840Y-98529140D03*
X243182140Y-103698040D03*
X243182140Y-98618040D03*
X250802140Y-103698040D03*
X250802140Y-98618040D03*
D10*
X195767960Y-85064600D03*
D11*
X203387960Y-85064600D03*
D10*
X237302040Y-75580240D03*
D11*
X229682040Y-75580240D03*
D10*
X195742560Y-77236320D03*
D11*
X203362560Y-77236320D03*
D10*
X195742560Y-79822040D03*
D11*
X203362560Y-79822040D03*
D10*
X195742560Y-82301080D03*
D11*
X203362560Y-82301080D03*
D10*
X209778600Y-47249080D03*
D11*
X202158600Y-47249080D03*
D10*
X211231480Y-33939480D03*
D11*
X211231480Y-41559480D03*
D10*
X214167720Y-44221400D03*
D11*
X206547720Y-44221400D03*
D10*
X206507080Y-34142680D03*
D11*
X206507080Y-41762680D03*
D30*
X255478280Y-29083000D03*
X255478280Y-26543000D03*
D31*
X255478280Y-24003000D03*
D30*
X232704640Y-29210000D03*
X232704640Y-26670000D03*
D31*
X232704640Y-24130000D03*
D12*
X193085720Y-94686120D03*
X190545720Y-94686120D03*
X193085720Y-92146120D03*
X190545720Y-92146120D03*
X193085720Y-89606120D03*
D13*
X190545720Y-89606120D03*
D32*
X192948560Y-53914040D03*
D23*
G36*
X194523065Y-47795244D02*
G01*
X194547333Y-47798844D01*
X194571132Y-47804805D01*
X194594231Y-47813070D01*
X194616410Y-47823560D01*
X194637453Y-47836172D01*
X194657159Y-47850787D01*
X194675337Y-47867263D01*
X194691813Y-47885441D01*
X194706428Y-47905147D01*
X194719040Y-47926190D01*
X194729530Y-47948369D01*
X194737795Y-47971468D01*
X194743756Y-47995267D01*
X194747356Y-48019535D01*
X194748560Y-48044039D01*
X194748560Y-49624041D01*
X194747356Y-49648545D01*
X194743756Y-49672813D01*
X194737795Y-49696612D01*
X194729530Y-49719711D01*
X194719040Y-49741890D01*
X194706428Y-49762933D01*
X194691813Y-49782639D01*
X194675337Y-49800817D01*
X194657159Y-49817293D01*
X194637453Y-49831908D01*
X194616410Y-49844520D01*
X194594231Y-49855010D01*
X194571132Y-49863275D01*
X194547333Y-49869236D01*
X194523065Y-49872836D01*
X194498561Y-49874040D01*
X191398559Y-49874040D01*
X191374055Y-49872836D01*
X191349787Y-49869236D01*
X191325988Y-49863275D01*
X191302889Y-49855010D01*
X191280710Y-49844520D01*
X191259667Y-49831908D01*
X191239961Y-49817293D01*
X191221783Y-49800817D01*
X191205307Y-49782639D01*
X191190692Y-49762933D01*
X191178080Y-49741890D01*
X191167590Y-49719711D01*
X191159325Y-49696612D01*
X191153364Y-49672813D01*
X191149764Y-49648545D01*
X191148560Y-49624041D01*
X191148560Y-48044039D01*
X191149764Y-48019535D01*
X191153364Y-47995267D01*
X191159325Y-47971468D01*
X191167590Y-47948369D01*
X191178080Y-47926190D01*
X191190692Y-47905147D01*
X191205307Y-47885441D01*
X191221783Y-47867263D01*
X191239961Y-47850787D01*
X191259667Y-47836172D01*
X191280710Y-47823560D01*
X191302889Y-47813070D01*
X191325988Y-47804805D01*
X191349787Y-47798844D01*
X191374055Y-47795244D01*
X191398559Y-47794040D01*
X194498561Y-47794040D01*
X194523065Y-47795244D01*
X194523065Y-47795244D01*
G37*
D33*
X192948560Y-48834040D03*
D34*
X194198480Y-69315720D03*
X194198480Y-60315720D03*
D35*
X195198480Y-64815720D03*
D36*
X201198480Y-64815720D03*
D37*
X192826640Y-40217120D03*
X192826640Y-35217120D03*
X192826640Y-30217120D03*
D23*
G36*
X194401144Y-24218324D02*
G01*
X194425413Y-24221924D01*
X194449211Y-24227885D01*
X194472311Y-24236150D01*
X194494489Y-24246640D01*
X194515533Y-24259253D01*
X194535238Y-24273867D01*
X194553417Y-24290343D01*
X194569893Y-24308522D01*
X194584507Y-24328227D01*
X194597120Y-24349271D01*
X194607610Y-24371449D01*
X194615875Y-24394549D01*
X194621836Y-24418347D01*
X194625436Y-24442616D01*
X194626640Y-24467120D01*
X194626640Y-25967120D01*
X194625436Y-25991624D01*
X194621836Y-26015893D01*
X194615875Y-26039691D01*
X194607610Y-26062791D01*
X194597120Y-26084969D01*
X194584507Y-26106013D01*
X194569893Y-26125718D01*
X194553417Y-26143897D01*
X194535238Y-26160373D01*
X194515533Y-26174987D01*
X194494489Y-26187600D01*
X194472311Y-26198090D01*
X194449211Y-26206355D01*
X194425413Y-26212316D01*
X194401144Y-26215916D01*
X194376640Y-26217120D01*
X191276640Y-26217120D01*
X191252136Y-26215916D01*
X191227867Y-26212316D01*
X191204069Y-26206355D01*
X191180969Y-26198090D01*
X191158791Y-26187600D01*
X191137747Y-26174987D01*
X191118042Y-26160373D01*
X191099863Y-26143897D01*
X191083387Y-26125718D01*
X191068773Y-26106013D01*
X191056160Y-26084969D01*
X191045670Y-26062791D01*
X191037405Y-26039691D01*
X191031444Y-26015893D01*
X191027844Y-25991624D01*
X191026640Y-25967120D01*
X191026640Y-24467120D01*
X191027844Y-24442616D01*
X191031444Y-24418347D01*
X191037405Y-24394549D01*
X191045670Y-24371449D01*
X191056160Y-24349271D01*
X191068773Y-24328227D01*
X191083387Y-24308522D01*
X191099863Y-24290343D01*
X191118042Y-24273867D01*
X191137747Y-24259253D01*
X191158791Y-24246640D01*
X191180969Y-24236150D01*
X191204069Y-24227885D01*
X191227867Y-24221924D01*
X191252136Y-24218324D01*
X191276640Y-24217120D01*
X194376640Y-24217120D01*
X194401144Y-24218324D01*
X194401144Y-24218324D01*
G37*
D27*
X192826640Y-25217120D03*
D15*
X226441000Y-35996880D03*
X234061000Y-43616880D03*
X228981000Y-35996880D03*
X231521000Y-43616880D03*
X231521000Y-35996880D03*
X228981000Y-43616880D03*
X234061000Y-35996880D03*
D16*
X226441000Y-43616880D03*
D14*
X253224040Y-46141640D03*
X248224040Y-46141640D03*
X236587040Y-46944280D03*
X231587040Y-46944280D03*
D15*
X222092520Y-81163160D03*
X255112520Y-88783160D03*
X224632520Y-81163160D03*
X252572520Y-88783160D03*
X227172520Y-81163160D03*
X250032520Y-88783160D03*
X229712520Y-81163160D03*
X247492520Y-88783160D03*
X232252520Y-81163160D03*
X244952520Y-88783160D03*
X234792520Y-81163160D03*
X242412520Y-88783160D03*
X237332520Y-81163160D03*
X239872520Y-88783160D03*
X239872520Y-81163160D03*
X237332520Y-88783160D03*
X242412520Y-81163160D03*
X234792520Y-88783160D03*
X244952520Y-81163160D03*
X232252520Y-88783160D03*
X247492520Y-81163160D03*
X229712520Y-88783160D03*
X250032520Y-81163160D03*
X227172520Y-88783160D03*
X252572520Y-81163160D03*
X224632520Y-88783160D03*
X255112520Y-81163160D03*
D16*
X222092520Y-88783160D03*
D15*
X226217480Y-59232800D03*
X243997480Y-66852800D03*
X228757480Y-59232800D03*
X241457480Y-66852800D03*
X231297480Y-59232800D03*
X238917480Y-66852800D03*
X233837480Y-59232800D03*
X236377480Y-66852800D03*
X236377480Y-59232800D03*
X233837480Y-66852800D03*
X238917480Y-59232800D03*
X231297480Y-66852800D03*
X241457480Y-59232800D03*
X228757480Y-66852800D03*
X243997480Y-59232800D03*
D16*
X226217480Y-66852800D03*
D10*
X258231640Y-86883240D03*
D11*
X265851640Y-86883240D03*
D10*
X282458160Y-23977600D03*
D11*
X282458160Y-31597600D03*
D10*
X279161240Y-31602680D03*
D11*
X279161240Y-23982680D03*
D10*
X206507080Y-23870920D03*
D11*
X206507080Y-31490920D03*
D10*
X240375440Y-35849560D03*
D11*
X240375440Y-43469560D03*
D10*
X244469920Y-35808920D03*
D11*
X244469920Y-43428920D03*
D10*
X228793040Y-49423320D03*
D11*
X236413040Y-49423320D03*
D30*
X210464400Y-29154120D03*
X210464400Y-26614120D03*
D31*
X210464400Y-24074120D03*
D38*
X270906240Y-61147960D03*
D39*
X270906240Y-58607960D03*
D16*
X110286800Y-42240200D03*
D15*
X125526800Y-75260200D03*
X110286800Y-44780200D03*
X125526800Y-72720200D03*
X110286800Y-47320200D03*
X125526800Y-70180200D03*
X110286800Y-49860200D03*
X125526800Y-67640200D03*
X110286800Y-52400200D03*
X125526800Y-65100200D03*
X110286800Y-54940200D03*
X125526800Y-62560200D03*
X110286800Y-57480200D03*
X125526800Y-60020200D03*
X110286800Y-60020200D03*
X125526800Y-57480200D03*
X110286800Y-62560200D03*
X125526800Y-54940200D03*
X110286800Y-65100200D03*
X125526800Y-52400200D03*
X110286800Y-67640200D03*
X125526800Y-49860200D03*
X110286800Y-70180200D03*
X125526800Y-47320200D03*
X110286800Y-72720200D03*
X125526800Y-44780200D03*
X110286800Y-75260200D03*
X125526800Y-42240200D03*
X110286800Y-77800200D03*
X125526800Y-77800200D03*
D40*
X201198480Y-60815720D02*
X201833480Y-60180720D01*
X201833480Y-38414960D02*
X201833480Y-39949120D01*
X201198480Y-64815720D02*
X201198480Y-60815720D01*
X201289920Y-48834040D02*
X201833480Y-48290480D01*
X192948560Y-48834040D02*
X201289920Y-48834040D01*
X201833480Y-48290480D02*
X201833480Y-38414960D01*
X201833480Y-60180720D02*
X201833480Y-48290480D01*
X192948560Y-48834040D02*
X195143120Y-48834040D01*
X195143120Y-48834040D02*
X197098920Y-46878240D01*
X197098920Y-46878240D02*
X200558400Y-46878240D01*
X200558400Y-46878240D02*
X200558400Y-43545760D01*
X200558400Y-43545760D02*
X198506080Y-45598080D01*
X201198480Y-47518320D02*
X200558400Y-46878240D01*
X201198480Y-64815720D02*
X201198480Y-47518320D01*
X199461120Y-42321480D02*
X192948560Y-48834040D01*
X201127360Y-40655240D02*
X199461120Y-42321480D01*
X201833480Y-39949120D02*
X201127360Y-40655240D01*
X229704640Y-24130000D02*
X232704640Y-24130000D01*
X218488520Y-24130000D02*
X229704640Y-24130000D01*
X210464400Y-29154120D02*
X213464400Y-29154120D01*
X255351280Y-24130000D02*
X255478280Y-24003000D01*
X232704640Y-24130000D02*
X255351280Y-24130000D01*
X201833480Y-38414960D02*
X211602320Y-38414960D01*
X215662640Y-34354640D02*
X215662640Y-26955880D01*
X215662640Y-26955880D02*
X218488520Y-24130000D01*
X213464400Y-29154120D02*
X215662640Y-26955880D01*
X208843880Y-29154120D02*
X206507080Y-31490920D01*
X210464400Y-29154120D02*
X208843880Y-29154120D01*
X196549000Y-33939480D02*
X211231480Y-33939480D01*
X192826640Y-30217120D02*
X196549000Y-33939480D01*
X194223640Y-26614120D02*
X192826640Y-25217120D01*
X201833480Y-26614120D02*
X194223640Y-26614120D01*
X201833480Y-26614120D02*
X210464400Y-26614120D01*
X206710280Y-24074120D02*
X206507080Y-23870920D01*
X210464400Y-24074120D02*
X206710280Y-24074120D01*
D41*
X206456280Y-23820120D02*
X206507080Y-23870920D01*
X203530200Y-23820120D02*
X206456280Y-23820120D01*
X202260200Y-23132695D02*
X202219560Y-23092055D01*
X202260200Y-23820120D02*
X202260200Y-23132695D01*
X278461241Y-23282681D02*
X279161240Y-23982680D01*
X204163575Y-21148040D02*
X276326600Y-21148040D01*
X276326600Y-21148040D02*
X278461241Y-23282681D01*
X202219560Y-23092055D02*
X204163575Y-21148040D01*
X282453080Y-23982680D02*
X282458160Y-23977600D01*
X279161240Y-23982680D02*
X282453080Y-23982680D01*
X195672720Y-77306160D02*
X195742560Y-77236320D01*
X190627000Y-77306160D02*
X195672720Y-77306160D01*
X195726680Y-79806160D02*
X195742560Y-79822040D01*
X190627000Y-79806160D02*
X195726680Y-79806160D01*
X195737480Y-82306160D02*
X195742560Y-82301080D01*
X190627000Y-82306160D02*
X195737480Y-82306160D01*
D40*
X188095750Y-40274240D02*
X188152870Y-40217120D01*
X188152870Y-40217120D02*
X192826640Y-40217120D01*
X188188600Y-53858160D02*
X188095750Y-53765310D01*
X192132680Y-53858160D02*
X188188600Y-53858160D01*
X188095750Y-53765310D02*
X188095750Y-40274240D01*
X192188560Y-53914040D02*
X192132680Y-53858160D01*
X192948560Y-53914040D02*
X192188560Y-53914040D01*
X189148560Y-53914040D02*
X192948560Y-53914040D01*
X188095750Y-54966850D02*
X189148560Y-53914040D01*
X188095750Y-65942070D02*
X188095750Y-54966850D01*
X188969401Y-66815721D02*
X188095750Y-65942070D01*
X193198479Y-66815721D02*
X188969401Y-66815721D01*
X195198480Y-64815720D02*
X193198479Y-66815721D01*
X195198480Y-64815720D02*
X195198480Y-65465720D01*
X232831640Y-26543000D02*
X232704640Y-26670000D01*
X189182360Y-74806160D02*
X189148720Y-74772520D01*
X190627000Y-74806160D02*
X189182360Y-74806160D01*
X188166360Y-74806160D02*
X188095750Y-74735550D01*
X190627000Y-74806160D02*
X188166360Y-74806160D01*
X188095750Y-74735550D02*
X188095750Y-52242720D01*
D41*
X200990200Y-22070120D02*
X200489760Y-21569680D01*
X200990200Y-23820120D02*
X200990200Y-22070120D01*
D40*
X188095750Y-22602330D02*
X189128400Y-21569680D01*
X188095750Y-40274240D02*
X188095750Y-22602330D01*
X189128400Y-21569680D02*
X200489760Y-21569680D01*
D41*
X274101560Y-26543000D02*
X279161240Y-31602680D01*
X255478280Y-26543000D02*
X274101560Y-26543000D01*
D42*
X189201990Y-95266392D02*
X189921719Y-95986121D01*
X189201990Y-76106170D02*
X189201990Y-95266392D01*
X190502000Y-74806160D02*
X189201990Y-76106170D01*
X194778011Y-85064600D02*
X195767960Y-85064600D01*
X191070474Y-85064600D02*
X194778011Y-85064600D01*
X189152000Y-83146126D02*
X191070474Y-85064600D01*
X190502000Y-74806160D02*
X189152000Y-76156160D01*
X189152000Y-76156160D02*
X189152000Y-83146126D01*
X190627000Y-74806160D02*
X190502000Y-74806160D01*
D40*
X238795560Y-26543000D02*
X232831640Y-26543000D01*
X255478280Y-26543000D02*
X238795560Y-26543000D01*
D42*
X229262940Y-98618040D02*
X229351840Y-98529140D01*
X222773240Y-98618040D02*
X229262940Y-98618040D01*
X243093240Y-98529140D02*
X243182140Y-98618040D01*
X236971840Y-98529140D02*
X243093240Y-98529140D01*
X254100340Y-101916240D02*
X278241760Y-101916240D01*
X250802140Y-98618040D02*
X254100340Y-101916240D01*
X259090160Y-97840800D02*
X250032520Y-88783160D01*
X259090160Y-99278440D02*
X259090160Y-97840800D01*
M02*
