%FSLAX45Y45*%
G04 Gerber Fmt 4.5, Leading zero omitted, Abs format (unit mm)*
G04 Created by KiCad (PCBNEW (5.1.4-0-10_14)) date 2020-02-28 18:02:05*
%MOMM*%
%LPD*%
G04 APERTURE LIST*
%ADD10C,0.200000*%
%ADD11C,0.300000*%
G04 APERTURE END LIST*
D10*
X20180860Y-4689908D02*
X20250860Y-4759908D01*
X20250860Y-4689908D02*
X20180860Y-4759908D01*
X20942860Y-4689908D02*
X21012860Y-4759908D01*
X21012860Y-4689908D02*
X20942860Y-4759908D01*
X21088148Y-3358948D02*
X21158148Y-3428948D01*
X21158148Y-3358948D02*
X21088148Y-3428948D01*
X21088148Y-4120948D02*
X21158148Y-4190948D01*
X21158148Y-4120948D02*
X21088148Y-4190948D01*
X20619772Y-4387140D02*
X20689772Y-4457140D01*
X20689772Y-4387140D02*
X20619772Y-4457140D01*
X21381772Y-4387140D02*
X21451772Y-4457140D01*
X21451772Y-4387140D02*
X21381772Y-4457140D01*
X20615708Y-3379268D02*
X20685708Y-3449268D01*
X20685708Y-3379268D02*
X20615708Y-3449268D01*
X20615708Y-4141268D02*
X20685708Y-4211268D01*
X20685708Y-4141268D02*
X20615708Y-4211268D01*
X28210816Y-2362760D02*
X28280816Y-2432760D01*
X28280816Y-2362760D02*
X28210816Y-2432760D01*
X28210816Y-3124760D02*
X28280816Y-3194760D01*
X28280816Y-3124760D02*
X28210816Y-3194760D01*
X22844304Y-4907332D02*
X22914304Y-4977332D01*
X22914304Y-4907332D02*
X22844304Y-4977332D01*
X23606304Y-4907332D02*
X23676304Y-4977332D01*
X23676304Y-4907332D02*
X23606304Y-4977332D01*
X25788164Y-8653324D02*
X25858164Y-8723324D01*
X25858164Y-8653324D02*
X25788164Y-8723324D01*
X26550164Y-8653324D02*
X26620164Y-8723324D01*
X26620164Y-8653324D02*
X26550164Y-8723324D01*
X20615708Y-2352092D02*
X20685708Y-2422092D01*
X20685708Y-2352092D02*
X20615708Y-2422092D01*
X20615708Y-3114092D02*
X20685708Y-3184092D01*
X20685708Y-3114092D02*
X20615708Y-3184092D01*
X24002544Y-3549956D02*
X24072544Y-3619956D01*
X24072544Y-3549956D02*
X24002544Y-3619956D01*
X24002544Y-4311956D02*
X24072544Y-4381956D01*
X24072544Y-4311956D02*
X24002544Y-4381956D01*
X24411992Y-3545892D02*
X24481992Y-3615892D01*
X24481992Y-3545892D02*
X24411992Y-3615892D01*
X24411992Y-4307892D02*
X24481992Y-4377892D01*
X24481992Y-4307892D02*
X24411992Y-4377892D01*
X19539256Y-8195108D02*
X19609256Y-8265108D01*
X19609256Y-8195108D02*
X19539256Y-8265108D01*
X20301256Y-8195108D02*
X20371256Y-8265108D01*
X20371256Y-8195108D02*
X20301256Y-8265108D01*
X25577980Y-13193264D02*
X25647980Y-13263264D01*
X25647980Y-13193264D02*
X25577980Y-13263264D01*
X26339980Y-13193264D02*
X26409980Y-13263264D01*
X26409980Y-13193264D02*
X26339980Y-13263264D01*
X19539256Y-7688632D02*
X19609256Y-7758632D01*
X19609256Y-7688632D02*
X19539256Y-7758632D01*
X20301256Y-7947204D02*
X20371256Y-8017204D01*
X20371256Y-7947204D02*
X20301256Y-8017204D01*
X20301256Y-7688632D02*
X20371256Y-7758632D01*
X20371256Y-7688632D02*
X20301256Y-7758632D01*
X19539256Y-7947204D02*
X19609256Y-8017204D01*
X19609256Y-7947204D02*
X19539256Y-8017204D01*
X27881124Y-2363268D02*
X27951124Y-2433268D01*
X27951124Y-2363268D02*
X27881124Y-2433268D01*
X22933204Y-7523024D02*
X23003204Y-7593024D01*
X23003204Y-7523024D02*
X22933204Y-7593024D01*
X23695204Y-7523024D02*
X23765204Y-7593024D01*
X23765204Y-7523024D02*
X23695204Y-7593024D01*
X19541796Y-8471460D02*
X19611796Y-8541460D01*
X19611796Y-8471460D02*
X19541796Y-8541460D01*
X20303796Y-8471460D02*
X20373796Y-8541460D01*
X20373796Y-8471460D02*
X20303796Y-8541460D01*
X27881124Y-3125268D02*
X27951124Y-3195268D01*
X27951124Y-3125268D02*
X27881124Y-3195268D01*
X20136520Y-2382012D02*
G75*
G03X20136520Y-2382012I-37500J0D01*
G01*
X20263520Y-2382012D02*
G75*
G03X20263520Y-2382012I-37500J0D01*
G01*
X20390520Y-2382012D02*
G75*
G03X20390520Y-2382012I-37500J0D01*
G01*
X21524376Y-4724908D02*
G75*
G03X21524376Y-4724908I-37500J0D01*
G01*
X21651376Y-4724908D02*
G75*
G03X21651376Y-4724908I-37500J0D01*
G01*
X21778376Y-4724908D02*
G75*
G03X21778376Y-4724908I-37500J0D01*
G01*
X20936204Y-6892544D02*
X20936204Y-6968744D01*
X20898104Y-6930644D02*
X20974304Y-6930644D01*
X20936204Y-7146544D02*
X20936204Y-7222744D01*
X20898104Y-7184644D02*
X20974304Y-7184644D01*
X20936204Y-7400544D02*
X20936204Y-7476744D01*
X20898104Y-7438644D02*
X20974304Y-7438644D01*
X20936204Y-7654544D02*
X20936204Y-7730744D01*
X20898104Y-7692644D02*
X20974304Y-7692644D01*
X20936204Y-7908544D02*
X20936204Y-7984744D01*
X20898104Y-7946644D02*
X20974304Y-7946644D01*
X20936204Y-8162544D02*
X20936204Y-8238744D01*
X20898104Y-8200644D02*
X20974304Y-8200644D01*
X20936204Y-8416544D02*
X20936204Y-8492744D01*
X20898104Y-8454644D02*
X20974304Y-8454644D01*
X20936204Y-8670544D02*
X20936204Y-8746744D01*
X20898104Y-8708644D02*
X20974304Y-8708644D01*
X26269188Y-6447536D02*
X26269188Y-6523736D01*
X26231088Y-6485636D02*
X26307288Y-6485636D01*
X26269188Y-6701536D02*
X26269188Y-6777736D01*
X26231088Y-6739636D02*
X26307288Y-6739636D01*
X26269188Y-6955536D02*
X26269188Y-7031736D01*
X26231088Y-6993636D02*
X26307288Y-6993636D01*
X26269188Y-7209536D02*
X26269188Y-7285736D01*
X26231088Y-7247636D02*
X26307288Y-7247636D01*
X26269188Y-7463536D02*
X26269188Y-7539736D01*
X26231088Y-7501636D02*
X26307288Y-7501636D01*
X26269188Y-7717536D02*
X26269188Y-7793736D01*
X26231088Y-7755636D02*
X26307288Y-7755636D01*
X26269188Y-7971536D02*
X26269188Y-8047736D01*
X26231088Y-8009636D02*
X26307288Y-8009636D01*
X26269188Y-8225536D02*
X26269188Y-8301736D01*
X26231088Y-8263636D02*
X26307288Y-8263636D01*
X24286012Y-9364309D02*
X24286012Y-9307740D01*
X24229443Y-9307740D01*
X24229443Y-9364309D01*
X24286012Y-9364309D01*
X24776012Y-9364309D02*
X24776012Y-9307740D01*
X24719443Y-9307740D01*
X24719443Y-9364309D01*
X24776012Y-9364309D01*
X27046264Y-12391548D02*
X27046264Y-12334979D01*
X26989695Y-12334979D01*
X26989695Y-12391548D01*
X27046264Y-12391548D01*
X27546264Y-12391548D02*
X27546264Y-12334979D01*
X27489695Y-12334979D01*
X27489695Y-12391548D01*
X27546264Y-12391548D01*
X27046264Y-12046548D02*
X27046264Y-11989979D01*
X26989695Y-11989979D01*
X26989695Y-12046548D01*
X27046264Y-12046548D01*
X27546264Y-12046548D02*
X27546264Y-11989979D01*
X27489695Y-11989979D01*
X27489695Y-12046548D01*
X27546264Y-12046548D01*
X11056965Y-4252305D02*
X11056965Y-4195736D01*
X11000396Y-4195736D01*
X11000396Y-4252305D01*
X11056965Y-4252305D01*
X11056965Y-4506305D02*
X11056965Y-4449736D01*
X11000396Y-4449736D01*
X11000396Y-4506305D01*
X11056965Y-4506305D01*
X11056965Y-4760305D02*
X11056965Y-4703736D01*
X11000396Y-4703736D01*
X11000396Y-4760305D01*
X11056965Y-4760305D01*
X11056965Y-5014305D02*
X11056965Y-4957736D01*
X11000396Y-4957736D01*
X11000396Y-5014305D01*
X11056965Y-5014305D01*
X11056965Y-5268305D02*
X11056965Y-5211736D01*
X11000396Y-5211736D01*
X11000396Y-5268305D01*
X11056965Y-5268305D01*
X11056965Y-5522305D02*
X11056965Y-5465736D01*
X11000396Y-5465736D01*
X11000396Y-5522305D01*
X11056965Y-5522305D01*
X11056965Y-5776304D02*
X11056965Y-5719735D01*
X11000396Y-5719735D01*
X11000396Y-5776304D01*
X11056965Y-5776304D01*
X11056965Y-6030304D02*
X11056965Y-5973735D01*
X11000396Y-5973735D01*
X11000396Y-6030304D01*
X11056965Y-6030304D01*
X11056965Y-6284304D02*
X11056965Y-6227735D01*
X11000396Y-6227735D01*
X11000396Y-6284304D01*
X11056965Y-6284304D01*
X11056965Y-6538304D02*
X11056965Y-6481735D01*
X11000396Y-6481735D01*
X11000396Y-6538304D01*
X11056965Y-6538304D01*
X11056965Y-6792304D02*
X11056965Y-6735735D01*
X11000396Y-6735735D01*
X11000396Y-6792304D01*
X11056965Y-6792304D01*
X11056965Y-7046304D02*
X11056965Y-6989735D01*
X11000396Y-6989735D01*
X11000396Y-7046304D01*
X11056965Y-7046304D01*
X11056965Y-7300304D02*
X11056965Y-7243735D01*
X11000396Y-7243735D01*
X11000396Y-7300304D01*
X11056965Y-7300304D01*
X11056965Y-7554304D02*
X11056965Y-7497735D01*
X11000396Y-7497735D01*
X11000396Y-7554304D01*
X11056965Y-7554304D01*
X11056965Y-7808304D02*
X11056965Y-7751735D01*
X11000396Y-7751735D01*
X11000396Y-7808304D01*
X11056965Y-7808304D01*
X12580964Y-4252305D02*
X12580964Y-4195736D01*
X12524395Y-4195736D01*
X12524395Y-4252305D01*
X12580964Y-4252305D01*
X12580964Y-4506305D02*
X12580964Y-4449736D01*
X12524395Y-4449736D01*
X12524395Y-4506305D01*
X12580964Y-4506305D01*
X12580964Y-4760305D02*
X12580964Y-4703736D01*
X12524395Y-4703736D01*
X12524395Y-4760305D01*
X12580964Y-4760305D01*
X12580964Y-5014305D02*
X12580964Y-4957736D01*
X12524395Y-4957736D01*
X12524395Y-5014305D01*
X12580964Y-5014305D01*
X12580964Y-5268305D02*
X12580964Y-5211736D01*
X12524395Y-5211736D01*
X12524395Y-5268305D01*
X12580964Y-5268305D01*
X12580964Y-5522305D02*
X12580964Y-5465736D01*
X12524395Y-5465736D01*
X12524395Y-5522305D01*
X12580964Y-5522305D01*
X12580964Y-5776304D02*
X12580964Y-5719735D01*
X12524395Y-5719735D01*
X12524395Y-5776304D01*
X12580964Y-5776304D01*
X12580964Y-6030304D02*
X12580964Y-5973735D01*
X12524395Y-5973735D01*
X12524395Y-6030304D01*
X12580964Y-6030304D01*
X12580964Y-6284304D02*
X12580964Y-6227735D01*
X12524395Y-6227735D01*
X12524395Y-6284304D01*
X12580964Y-6284304D01*
X12580964Y-6538304D02*
X12580964Y-6481735D01*
X12524395Y-6481735D01*
X12524395Y-6538304D01*
X12580964Y-6538304D01*
X12580964Y-6792304D02*
X12580964Y-6735735D01*
X12524395Y-6735735D01*
X12524395Y-6792304D01*
X12580964Y-6792304D01*
X12580964Y-7046304D02*
X12580964Y-6989735D01*
X12524395Y-6989735D01*
X12524395Y-7046304D01*
X12580964Y-7046304D01*
X12580964Y-7300304D02*
X12580964Y-7243735D01*
X12524395Y-7243735D01*
X12524395Y-7300304D01*
X12580964Y-7300304D01*
X12580964Y-7554304D02*
X12580964Y-7497735D01*
X12524395Y-7497735D01*
X12524395Y-7554304D01*
X12580964Y-7554304D01*
X12580964Y-7808304D02*
X12580964Y-7751735D01*
X12524395Y-7751735D01*
X12524395Y-7808304D01*
X12580964Y-7808304D01*
X26708264Y-13016548D02*
X26708264Y-12959979D01*
X26651695Y-12959979D01*
X26651695Y-13016548D01*
X26708264Y-13016548D01*
X27208264Y-13016548D02*
X27208264Y-12959979D01*
X27151695Y-12959979D01*
X27151695Y-13016548D01*
X27208264Y-13016548D01*
X22672384Y-3627972D02*
X22672384Y-3571403D01*
X22615815Y-3571403D01*
X22615815Y-3627972D01*
X22672384Y-3627972D01*
X22672384Y-4389973D02*
X22672384Y-4333404D01*
X22615815Y-4333404D01*
X22615815Y-4389973D01*
X22672384Y-4389973D01*
X22926384Y-3627972D02*
X22926384Y-3571403D01*
X22869815Y-3571403D01*
X22869815Y-3627972D01*
X22926384Y-3627972D01*
X22926384Y-4389973D02*
X22926384Y-4333404D01*
X22869815Y-4333404D01*
X22869815Y-4389973D01*
X22926384Y-4389973D01*
X23180384Y-3627972D02*
X23180384Y-3571403D01*
X23123815Y-3571403D01*
X23123815Y-3627972D01*
X23180384Y-3627972D01*
X23180384Y-4389973D02*
X23180384Y-4333404D01*
X23123815Y-4333404D01*
X23123815Y-4389973D01*
X23180384Y-4389973D01*
X23434384Y-3627972D02*
X23434384Y-3571403D01*
X23377815Y-3571403D01*
X23377815Y-3627972D01*
X23434384Y-3627972D01*
X23434384Y-4389973D02*
X23434384Y-4333404D01*
X23377815Y-4333404D01*
X23377815Y-4389973D01*
X23434384Y-4389973D01*
X24850688Y-4642449D02*
X24850688Y-4585880D01*
X24794119Y-4585880D01*
X24794119Y-4642449D01*
X24850688Y-4642449D01*
X22650032Y-5951564D02*
X22650032Y-5894995D01*
X22593463Y-5894995D01*
X22593463Y-5951564D01*
X22650032Y-5951564D01*
X22650032Y-6713564D02*
X22650032Y-6656995D01*
X22593463Y-6656995D01*
X22593463Y-6713564D01*
X22650032Y-6713564D01*
X22904032Y-5951564D02*
X22904032Y-5894995D01*
X22847463Y-5894995D01*
X22847463Y-5951564D01*
X22904032Y-5951564D01*
X22904032Y-6713564D02*
X22904032Y-6656995D01*
X22847463Y-6656995D01*
X22847463Y-6713564D01*
X22904032Y-6713564D01*
X23158032Y-5951564D02*
X23158032Y-5894995D01*
X23101463Y-5894995D01*
X23101463Y-5951564D01*
X23158032Y-5951564D01*
X23158032Y-6713564D02*
X23158032Y-6656995D01*
X23101463Y-6656995D01*
X23101463Y-6713564D01*
X23158032Y-6713564D01*
X23412032Y-5951564D02*
X23412032Y-5894995D01*
X23355463Y-5894995D01*
X23355463Y-5951564D01*
X23412032Y-5951564D01*
X23412032Y-6713564D02*
X23412032Y-6656995D01*
X23355463Y-6656995D01*
X23355463Y-6713564D01*
X23412032Y-6713564D01*
X23666032Y-5951564D02*
X23666032Y-5894995D01*
X23609463Y-5894995D01*
X23609463Y-5951564D01*
X23666032Y-5951564D01*
X23666032Y-6713564D02*
X23666032Y-6656995D01*
X23609463Y-6656995D01*
X23609463Y-6713564D01*
X23666032Y-6713564D01*
X22237537Y-8144600D02*
X22237537Y-8088031D01*
X22180968Y-8088031D01*
X22180968Y-8144600D01*
X22237537Y-8144600D01*
X22237537Y-8906601D02*
X22237537Y-8850032D01*
X22180968Y-8850032D01*
X22180968Y-8906601D01*
X22237537Y-8906601D01*
X22491536Y-8144600D02*
X22491536Y-8088031D01*
X22434967Y-8088031D01*
X22434967Y-8144600D01*
X22491536Y-8144600D01*
X22491536Y-8906601D02*
X22491536Y-8850032D01*
X22434967Y-8850032D01*
X22434967Y-8906601D01*
X22491536Y-8906601D01*
X22745536Y-8144600D02*
X22745536Y-8088031D01*
X22688967Y-8088031D01*
X22688967Y-8144600D01*
X22745536Y-8144600D01*
X22745536Y-8906601D02*
X22745536Y-8850032D01*
X22688967Y-8850032D01*
X22688967Y-8906601D01*
X22745536Y-8906601D01*
X22999536Y-8144600D02*
X22999536Y-8088031D01*
X22942967Y-8088031D01*
X22942967Y-8144600D01*
X22999536Y-8144600D01*
X22999536Y-8906601D02*
X22999536Y-8850032D01*
X22942967Y-8850032D01*
X22942967Y-8906601D01*
X22999536Y-8906601D01*
X23253536Y-8144600D02*
X23253536Y-8088031D01*
X23196967Y-8088031D01*
X23196967Y-8144600D01*
X23253536Y-8144600D01*
X23253536Y-8906601D02*
X23253536Y-8850032D01*
X23196967Y-8850032D01*
X23196967Y-8906601D01*
X23253536Y-8906601D01*
X23507536Y-8144600D02*
X23507536Y-8088031D01*
X23450967Y-8088031D01*
X23450967Y-8144600D01*
X23507536Y-8144600D01*
X23507536Y-8906601D02*
X23507536Y-8850032D01*
X23450967Y-8850032D01*
X23450967Y-8906601D01*
X23507536Y-8906601D01*
X23761536Y-8144600D02*
X23761536Y-8088031D01*
X23704967Y-8088031D01*
X23704967Y-8144600D01*
X23761536Y-8144600D01*
X23761536Y-8906601D02*
X23761536Y-8850032D01*
X23704967Y-8850032D01*
X23704967Y-8906601D01*
X23761536Y-8906601D01*
X24015536Y-8144600D02*
X24015536Y-8088031D01*
X23958967Y-8088031D01*
X23958967Y-8144600D01*
X24015536Y-8144600D01*
X24015536Y-8906601D02*
X24015536Y-8850032D01*
X23958967Y-8850032D01*
X23958967Y-8906601D01*
X24015536Y-8906601D01*
X24269536Y-8144600D02*
X24269536Y-8088031D01*
X24212967Y-8088031D01*
X24212967Y-8144600D01*
X24269536Y-8144600D01*
X24269536Y-8906601D02*
X24269536Y-8850032D01*
X24212967Y-8850032D01*
X24212967Y-8906601D01*
X24269536Y-8906601D01*
X24523536Y-8144600D02*
X24523536Y-8088031D01*
X24466967Y-8088031D01*
X24466967Y-8144600D01*
X24523536Y-8144600D01*
X24523536Y-8906601D02*
X24523536Y-8850032D01*
X24466967Y-8850032D01*
X24466967Y-8906601D01*
X24523536Y-8906601D01*
X24777536Y-8144600D02*
X24777536Y-8088031D01*
X24720967Y-8088031D01*
X24720967Y-8144600D01*
X24777536Y-8144600D01*
X24777536Y-8906601D02*
X24777536Y-8850032D01*
X24720967Y-8850032D01*
X24720967Y-8906601D01*
X24777536Y-8906601D01*
X25031536Y-8144600D02*
X25031536Y-8088031D01*
X24974967Y-8088031D01*
X24974967Y-8144600D01*
X25031536Y-8144600D01*
X23920032Y-6713564D02*
X23920032Y-6656995D01*
X23863463Y-6656995D01*
X23863463Y-6713564D01*
X23920032Y-6713564D01*
X24428032Y-5951564D02*
X24428032Y-5894995D01*
X24371463Y-5894995D01*
X24371463Y-5951564D01*
X24428032Y-5951564D01*
X25031536Y-8906601D02*
X25031536Y-8850032D01*
X24974967Y-8850032D01*
X24974967Y-8906601D01*
X25031536Y-8906601D01*
X25285536Y-8906601D02*
X25285536Y-8850032D01*
X25228967Y-8850032D01*
X25228967Y-8906601D01*
X25285536Y-8906601D01*
X24174032Y-5951564D02*
X24174032Y-5894995D01*
X24117463Y-5894995D01*
X24117463Y-5951564D01*
X24174032Y-5951564D01*
X23186988Y-4722713D02*
X23186988Y-4666144D01*
X23130419Y-4666144D01*
X23130419Y-4722713D01*
X23186988Y-4722713D01*
X23686988Y-4722713D02*
X23686988Y-4666144D01*
X23630419Y-4666144D01*
X23630419Y-4722713D01*
X23686988Y-4722713D01*
X25350688Y-4642449D02*
X25350688Y-4585880D01*
X25294119Y-4585880D01*
X25294119Y-4642449D01*
X25350688Y-4642449D01*
X25285536Y-8144600D02*
X25285536Y-8088031D01*
X25228967Y-8088031D01*
X25228967Y-8144600D01*
X25285536Y-8144600D01*
X25539536Y-8144600D02*
X25539536Y-8088031D01*
X25482967Y-8088031D01*
X25482967Y-8144600D01*
X25539536Y-8144600D01*
X23920032Y-5951564D02*
X23920032Y-5894995D01*
X23863463Y-5894995D01*
X23863463Y-5951564D01*
X23920032Y-5951564D01*
X24174032Y-6713564D02*
X24174032Y-6656995D01*
X24117463Y-6656995D01*
X24117463Y-6713564D01*
X24174032Y-6713564D01*
X24428032Y-6713564D02*
X24428032Y-6656995D01*
X24371463Y-6656995D01*
X24371463Y-6713564D01*
X24428032Y-6713564D01*
X25539536Y-8906601D02*
X25539536Y-8850032D01*
X25482967Y-8850032D01*
X25482967Y-8906601D01*
X25539536Y-8906601D01*
X20272593Y-10869005D02*
X20272593Y-10812436D01*
X20216024Y-10812436D01*
X20216024Y-10869005D01*
X20272593Y-10869005D01*
X20272593Y-11631004D02*
X20272593Y-11574435D01*
X20216024Y-11574435D01*
X20216024Y-11631004D01*
X20272593Y-11631004D01*
X20526593Y-10869005D02*
X20526593Y-10812436D01*
X20470024Y-10812436D01*
X20470024Y-10869005D01*
X20526593Y-10869005D01*
X20526593Y-11631004D02*
X20526593Y-11574435D01*
X20470024Y-11574435D01*
X20470024Y-11631004D01*
X20526593Y-11631004D01*
X20780593Y-10869005D02*
X20780593Y-10812436D01*
X20724024Y-10812436D01*
X20724024Y-10869005D01*
X20780593Y-10869005D01*
X20780593Y-11631004D02*
X20780593Y-11574435D01*
X20724024Y-11574435D01*
X20724024Y-11631004D01*
X20780593Y-11631004D01*
X21034593Y-10869005D02*
X21034593Y-10812436D01*
X20978024Y-10812436D01*
X20978024Y-10869005D01*
X21034593Y-10869005D01*
X21034593Y-11631004D02*
X21034593Y-11574435D01*
X20978024Y-11574435D01*
X20978024Y-11631004D01*
X21034593Y-11631004D01*
X21515324Y-9902444D02*
X21555964Y-9861804D01*
X21515324Y-9821164D01*
X21474684Y-9861804D01*
X21515324Y-9902444D01*
X21515324Y-10410444D02*
X21555964Y-10369804D01*
X21515324Y-10329164D01*
X21474684Y-10369804D01*
X21515324Y-10410444D01*
X24318214Y-9902444D02*
X24358854Y-9861804D01*
X24318214Y-9821164D01*
X24277574Y-9861804D01*
X24318214Y-9902444D01*
X24318214Y-10410444D02*
X24358854Y-10369804D01*
X24318214Y-10329164D01*
X24277574Y-10369804D01*
X24318214Y-10410444D01*
X22277324Y-9902444D02*
X22317964Y-9861804D01*
X22277324Y-9821164D01*
X22236684Y-9861804D01*
X22277324Y-9902444D01*
X22277324Y-10410444D02*
X22317964Y-10369804D01*
X22277324Y-10329164D01*
X22236684Y-10369804D01*
X22277324Y-10410444D01*
X22935184Y-9893554D02*
X22975824Y-9852914D01*
X22935184Y-9812274D01*
X22894544Y-9852914D01*
X22935184Y-9893554D01*
X22935184Y-10401554D02*
X22975824Y-10360914D01*
X22935184Y-10320274D01*
X22894544Y-10360914D01*
X22935184Y-10401554D01*
X23697184Y-9893554D02*
X23737824Y-9852914D01*
X23697184Y-9812274D01*
X23656544Y-9852914D01*
X23697184Y-9893554D01*
X23697184Y-10401554D02*
X23737824Y-10360914D01*
X23697184Y-10320274D01*
X23656544Y-10360914D01*
X23697184Y-10401554D01*
X25080214Y-9902444D02*
X25120854Y-9861804D01*
X25080214Y-9821164D01*
X25039574Y-9861804D01*
X25080214Y-9902444D01*
X25080214Y-10410444D02*
X25120854Y-10369804D01*
X25080214Y-10329164D01*
X25039574Y-10369804D01*
X25080214Y-10410444D01*
X19015200Y-7433116D02*
X19110200Y-7528116D01*
X19110200Y-7433116D02*
X19015200Y-7528116D01*
X19110200Y-7480616D02*
G75*
G03X19110200Y-7480616I-47500J0D01*
G01*
X19015200Y-7683116D02*
X19110200Y-7778116D01*
X19110200Y-7683116D02*
X19015200Y-7778116D01*
X19110200Y-7730616D02*
G75*
G03X19110200Y-7730616I-47500J0D01*
G01*
X19015200Y-7933116D02*
X19110200Y-8028116D01*
X19110200Y-7933116D02*
X19015200Y-8028116D01*
X19110200Y-7980616D02*
G75*
G03X19110200Y-7980616I-47500J0D01*
G01*
X19015200Y-8183116D02*
X19110200Y-8278116D01*
X19110200Y-8183116D02*
X19015200Y-8278116D01*
X19110200Y-8230616D02*
G75*
G03X19110200Y-8230616I-47500J0D01*
G01*
X26577980Y-12028264D02*
X26677980Y-12128264D01*
X26677980Y-12028264D02*
X26577980Y-12128264D01*
X26627980Y-12028264D02*
X26627980Y-12128264D01*
X26577980Y-12078264D02*
X26677980Y-12078264D01*
X26577980Y-12282264D02*
X26677980Y-12382264D01*
X26677980Y-12282264D02*
X26577980Y-12382264D01*
X26627980Y-12282264D02*
X26627980Y-12382264D01*
X26577980Y-12332264D02*
X26677980Y-12332264D01*
X26577980Y-12536264D02*
X26677980Y-12636264D01*
X26677980Y-12536264D02*
X26577980Y-12636264D01*
X26627980Y-12536264D02*
X26627980Y-12636264D01*
X26577980Y-12586264D02*
X26677980Y-12586264D01*
X19369848Y-5981572D02*
X19469848Y-6081572D01*
X19469848Y-5981572D02*
X19369848Y-6081572D01*
X19419848Y-5981572D02*
X19419848Y-6081572D01*
X19369848Y-6031572D02*
X19469848Y-6031572D01*
X19494848Y-5991572D02*
X19344848Y-5991572D01*
X19494848Y-6071572D02*
X19344848Y-6071572D01*
X19344848Y-5991572D02*
G75*
G03X19344848Y-6071572I0J-40000D01*
G01*
X19494848Y-6071572D02*
G75*
G03X19494848Y-5991572I0J40000D01*
G01*
X19369848Y-6881572D02*
X19469848Y-6981572D01*
X19469848Y-6881572D02*
X19369848Y-6981572D01*
X19419848Y-6881572D02*
X19419848Y-6981572D01*
X19369848Y-6931572D02*
X19469848Y-6931572D01*
X19494848Y-6891572D02*
X19344848Y-6891572D01*
X19494848Y-6971572D02*
X19344848Y-6971572D01*
X19344848Y-6891572D02*
G75*
G03X19344848Y-6971572I0J-40000D01*
G01*
X19494848Y-6971572D02*
G75*
G03X19494848Y-6891572I0J40000D01*
G01*
X19469848Y-6431572D02*
X19569848Y-6531572D01*
X19569848Y-6431572D02*
X19469848Y-6531572D01*
X19519848Y-6431572D02*
X19519848Y-6531572D01*
X19469848Y-6481572D02*
X19569848Y-6481572D01*
X19479848Y-6416572D02*
X19479848Y-6546572D01*
X19559848Y-6416572D02*
X19559848Y-6546572D01*
X19479848Y-6546572D02*
G75*
G03X19559848Y-6546572I40000J0D01*
G01*
X19559848Y-6416572D02*
G75*
G03X19479848Y-6416572I-40000J0D01*
G01*
X20069848Y-6431572D02*
X20169848Y-6531572D01*
X20169848Y-6431572D02*
X20069848Y-6531572D01*
X20119848Y-6431572D02*
X20119848Y-6531572D01*
X20069848Y-6481572D02*
X20169848Y-6481572D01*
X20079848Y-6381572D02*
X20079848Y-6581572D01*
X20159848Y-6381572D02*
X20159848Y-6581572D01*
X20079848Y-6581572D02*
G75*
G03X20159848Y-6581572I40000J0D01*
G01*
X20159848Y-6381572D02*
G75*
G03X20079848Y-6381572I-40000J0D01*
G01*
X19004572Y-8910612D02*
X19104572Y-9010612D01*
X19104572Y-8910612D02*
X19004572Y-9010612D01*
X19054572Y-8910612D02*
X19054572Y-9010612D01*
X19004572Y-8960612D02*
X19104572Y-8960612D01*
X19004572Y-9418612D02*
X19104572Y-9518612D01*
X19104572Y-9418612D02*
X19004572Y-9518612D01*
X19054572Y-9418612D02*
X19054572Y-9518612D01*
X19004572Y-9468612D02*
X19104572Y-9468612D01*
X19258572Y-8910612D02*
X19358572Y-9010612D01*
X19358572Y-8910612D02*
X19258572Y-9010612D01*
X19308572Y-8910612D02*
X19308572Y-9010612D01*
X19258572Y-8960612D02*
X19358572Y-8960612D01*
X19258572Y-9418612D02*
X19358572Y-9518612D01*
X19358572Y-9418612D02*
X19258572Y-9518612D01*
X19308572Y-9418612D02*
X19308572Y-9518612D01*
X19258572Y-9468612D02*
X19358572Y-9468612D01*
X26112980Y-12028264D02*
X26212980Y-12128264D01*
X26212980Y-12028264D02*
X26112980Y-12128264D01*
X26162980Y-12028264D02*
X26162980Y-12128264D01*
X26112980Y-12078264D02*
X26212980Y-12078264D01*
X26112980Y-12282264D02*
X26212980Y-12382264D01*
X26212980Y-12282264D02*
X26112980Y-12382264D01*
X26162980Y-12282264D02*
X26162980Y-12382264D01*
X26112980Y-12332264D02*
X26212980Y-12332264D01*
X26112980Y-12536264D02*
X26212980Y-12636264D01*
X26212980Y-12536264D02*
X26112980Y-12636264D01*
X26162980Y-12536264D02*
X26162980Y-12636264D01*
X26112980Y-12586264D02*
X26212980Y-12586264D01*
X19004572Y-9164612D02*
X19104572Y-9264612D01*
X19104572Y-9164612D02*
X19004572Y-9264612D01*
X19054572Y-9164612D02*
X19054572Y-9264612D01*
X19004572Y-9214612D02*
X19104572Y-9214612D01*
X19258572Y-9164612D02*
X19358572Y-9264612D01*
X19358572Y-9164612D02*
X19258572Y-9264612D01*
X19308572Y-9164612D02*
X19308572Y-9264612D01*
X19258572Y-9214612D02*
X19358572Y-9214612D01*
X27189976Y-6450200D02*
X27289976Y-6550200D01*
X27289976Y-6450200D02*
X27189976Y-6550200D01*
X27239976Y-6450200D02*
X27239976Y-6550200D01*
X27189976Y-6500200D02*
X27289976Y-6500200D01*
X27189976Y-7900200D02*
X27289976Y-8000200D01*
X27289976Y-7900200D02*
X27189976Y-8000200D01*
X27239976Y-7900200D02*
X27239976Y-8000200D01*
X27189976Y-7950200D02*
X27289976Y-7950200D01*
X27439976Y-7900200D02*
X27539976Y-8000200D01*
X27539976Y-7900200D02*
X27439976Y-8000200D01*
X27489976Y-7900200D02*
X27489976Y-8000200D01*
X27439976Y-7950200D02*
X27539976Y-7950200D01*
X27689976Y-6450200D02*
X27789976Y-6550200D01*
X27789976Y-6450200D02*
X27689976Y-6550200D01*
X27739976Y-6450200D02*
X27739976Y-6550200D01*
X27689976Y-6500200D02*
X27789976Y-6500200D01*
X27689976Y-7900200D02*
X27789976Y-8000200D01*
X27789976Y-7900200D02*
X27689976Y-8000200D01*
X27739976Y-7900200D02*
X27739976Y-8000200D01*
X27689976Y-7950200D02*
X27789976Y-7950200D01*
X25647980Y-12028264D02*
X25747980Y-12128264D01*
X25747980Y-12028264D02*
X25647980Y-12128264D01*
X25697980Y-12028264D02*
X25697980Y-12128264D01*
X25647980Y-12078264D02*
X25747980Y-12078264D01*
X25647980Y-12282264D02*
X25747980Y-12382264D01*
X25747980Y-12282264D02*
X25647980Y-12382264D01*
X25697980Y-12282264D02*
X25697980Y-12382264D01*
X25647980Y-12332264D02*
X25747980Y-12332264D01*
X25647980Y-12536264D02*
X25747980Y-12636264D01*
X25747980Y-12536264D02*
X25647980Y-12636264D01*
X25697980Y-12536264D02*
X25697980Y-12636264D01*
X25647980Y-12586264D02*
X25747980Y-12586264D01*
X25647980Y-12790264D02*
X25747980Y-12890264D01*
X25747980Y-12790264D02*
X25647980Y-12890264D01*
X25697980Y-12790264D02*
X25697980Y-12890264D01*
X25647980Y-12840264D02*
X25747980Y-12840264D01*
X25492828Y-2345300D02*
X25602828Y-2455300D01*
X25602828Y-2345300D02*
X25492828Y-2455300D01*
X25586719Y-2439191D02*
X25586719Y-2361409D01*
X25508937Y-2361409D01*
X25508937Y-2439191D01*
X25586719Y-2439191D01*
X25492828Y-2599300D02*
X25602828Y-2709300D01*
X25602828Y-2599300D02*
X25492828Y-2709300D01*
X25586719Y-2693191D02*
X25586719Y-2615409D01*
X25508937Y-2615409D01*
X25508937Y-2693191D01*
X25586719Y-2693191D01*
X25492828Y-2853300D02*
X25602828Y-2963300D01*
X25602828Y-2853300D02*
X25492828Y-2963300D01*
X25586719Y-2947191D02*
X25586719Y-2869409D01*
X25508937Y-2869409D01*
X25508937Y-2947191D01*
X25586719Y-2947191D01*
X20991440Y-2352412D02*
X21101440Y-2462412D01*
X21101440Y-2352412D02*
X20991440Y-2462412D01*
X21085331Y-2446303D02*
X21085331Y-2368521D01*
X21007549Y-2368521D01*
X21007549Y-2446303D01*
X21085331Y-2446303D01*
X20991440Y-2606412D02*
X21101440Y-2716412D01*
X21101440Y-2606412D02*
X20991440Y-2716412D01*
X21085331Y-2700303D02*
X21085331Y-2622521D01*
X21007549Y-2622521D01*
X21007549Y-2700303D01*
X21085331Y-2700303D01*
X20991440Y-2860412D02*
X21101440Y-2970412D01*
X21101440Y-2860412D02*
X20991440Y-2970412D01*
X21085331Y-2954303D02*
X21085331Y-2876521D01*
X21007549Y-2876521D01*
X21007549Y-2954303D01*
X21085331Y-2954303D01*
X23215464Y-2358000D02*
X23325464Y-2468000D01*
X23325464Y-2358000D02*
X23215464Y-2468000D01*
X23309355Y-2451891D02*
X23309355Y-2374109D01*
X23231573Y-2374109D01*
X23231573Y-2451891D01*
X23309355Y-2451891D01*
X23215464Y-2612000D02*
X23325464Y-2722000D01*
X23325464Y-2612000D02*
X23215464Y-2722000D01*
X23309355Y-2705891D02*
X23309355Y-2628109D01*
X23231573Y-2628109D01*
X23231573Y-2705891D01*
X23309355Y-2705891D01*
X23215464Y-2866000D02*
X23325464Y-2976000D01*
X23325464Y-2866000D02*
X23215464Y-2976000D01*
X23309355Y-2959891D02*
X23309355Y-2882109D01*
X23231573Y-2882109D01*
X23231573Y-2959891D01*
X23309355Y-2959891D01*
X27030624Y-5800796D02*
X27150624Y-5920796D01*
X27150624Y-5800796D02*
X27030624Y-5920796D01*
X27090624Y-5920796D02*
X27150624Y-5860796D01*
X27090624Y-5800796D01*
X27030624Y-5860796D01*
X27090624Y-5920796D01*
X27030624Y-6054796D02*
X27150624Y-6174796D01*
X27150624Y-6054796D02*
X27030624Y-6174796D01*
X27090624Y-6174796D02*
X27150624Y-6114796D01*
X27090624Y-6054796D01*
X27030624Y-6114796D01*
X27090624Y-6174796D01*
X19294856Y-4813404D02*
X19294856Y-4953404D01*
X19224856Y-4883404D02*
X19364856Y-4883404D01*
X19364856Y-4883404D02*
G75*
G03X19364856Y-4883404I-70000J0D01*
G01*
X19294856Y-5321404D02*
X19294856Y-5461404D01*
X19224856Y-5391404D02*
X19364856Y-5391404D01*
X19364856Y-5391404D02*
G75*
G03X19364856Y-5391404I-70000J0D01*
G01*
X19282664Y-2451712D02*
X19282664Y-2591712D01*
X19212664Y-2521712D02*
X19352664Y-2521712D01*
X19352664Y-2521712D02*
G75*
G03X19352664Y-2521712I-70000J0D01*
G01*
X19282664Y-2951712D02*
X19282664Y-3091712D01*
X19212664Y-3021712D02*
X19352664Y-3021712D01*
X19352664Y-3021712D02*
G75*
G03X19352664Y-3021712I-70000J0D01*
G01*
X19282664Y-3451712D02*
X19282664Y-3591712D01*
X19212664Y-3521712D02*
X19352664Y-3521712D01*
X19352664Y-3521712D02*
G75*
G03X19352664Y-3521712I-70000J0D01*
G01*
X19282664Y-3951712D02*
X19282664Y-4091712D01*
X19212664Y-4021712D02*
X19352664Y-4021712D01*
X19352664Y-4021712D02*
G75*
G03X19352664Y-4021712I-70000J0D01*
G01*
X26983009Y-7253233D02*
X26983009Y-7147166D01*
X26876942Y-7147166D01*
X26876942Y-7253233D01*
X26983009Y-7253233D01*
X27004976Y-7200200D02*
G75*
G03X27004976Y-7200200I-75000J0D01*
G01*
X26994976Y-7265200D02*
X26994976Y-7135200D01*
X26864976Y-7265200D02*
X26864976Y-7135200D01*
X26994976Y-7135200D02*
G75*
G03X26864976Y-7135200I-65000J0D01*
G01*
X26864976Y-7265200D02*
G75*
G03X26994976Y-7265200I65000J0D01*
G01*
X28103009Y-7253233D02*
X28103009Y-7147166D01*
X27996942Y-7147166D01*
X27996942Y-7253233D01*
X28103009Y-7253233D01*
X28124976Y-7200200D02*
G75*
G03X28124976Y-7200200I-75000J0D01*
G01*
X28114976Y-7265200D02*
X28114976Y-7135200D01*
X27984976Y-7265200D02*
X27984976Y-7135200D01*
X28114976Y-7135200D02*
G75*
G03X27984976Y-7135200I-65000J0D01*
G01*
X27984976Y-7265200D02*
G75*
G03X28114976Y-7265200I65000J0D01*
G01*
X21063204Y-6395644D02*
X21163204Y-6295644D01*
X21063204Y-6195644D01*
X20963204Y-6295644D01*
X21063204Y-6395644D01*
X21163204Y-6295644D02*
G75*
G03X21163204Y-6295644I-100000J0D01*
G01*
X21063204Y-9443644D02*
X21163204Y-9343644D01*
X21063204Y-9243644D01*
X20963204Y-9343644D01*
X21063204Y-9443644D01*
X21163204Y-9343644D02*
G75*
G03X21163204Y-9343644I-100000J0D01*
G01*
X26143204Y-6395644D02*
X26243204Y-6295644D01*
X26143204Y-6195644D01*
X26043204Y-6295644D01*
X26143204Y-6395644D01*
X26243204Y-6295644D02*
G75*
G03X26243204Y-6295644I-100000J0D01*
G01*
X26143204Y-9443644D02*
X26243204Y-9343644D01*
X26143204Y-9243644D01*
X26043204Y-9343644D01*
X26143204Y-9443644D01*
X26243204Y-9343644D02*
G75*
G03X26243204Y-9343644I-100000J0D01*
G01*
X21062188Y-5506136D02*
X21162188Y-5406136D01*
X21062188Y-5306136D01*
X20962188Y-5406136D01*
X21062188Y-5506136D01*
X21162188Y-5406136D02*
G75*
G03X21162188Y-5406136I-100000J0D01*
G01*
X21062188Y-9443136D02*
X21162188Y-9343136D01*
X21062188Y-9243136D01*
X20962188Y-9343136D01*
X21062188Y-9443136D01*
X21162188Y-9343136D02*
G75*
G03X21162188Y-9343136I-100000J0D01*
G01*
X26142188Y-5506136D02*
X26242188Y-5406136D01*
X26142188Y-5306136D01*
X26042188Y-5406136D01*
X26142188Y-5506136D01*
X26242188Y-5406136D02*
G75*
G03X26242188Y-5406136I-100000J0D01*
G01*
X26142188Y-9443136D02*
X26242188Y-9343136D01*
X26142188Y-9243136D01*
X26042188Y-9343136D01*
X26142188Y-9443136D01*
X26242188Y-9343136D02*
G75*
G03X26242188Y-9343136I-100000J0D01*
G01*
D11*
X286429Y-465714D02*
X286429Y-165714D01*
X357857Y-165714D01*
X400714Y-180000D01*
X429286Y-208571D01*
X443571Y-237143D01*
X457857Y-294286D01*
X457857Y-337143D01*
X443571Y-394286D01*
X429286Y-422857D01*
X400714Y-451428D01*
X357857Y-465714D01*
X286429Y-465714D01*
X586429Y-465714D02*
X586429Y-265714D01*
X586429Y-322857D02*
X600714Y-294286D01*
X615000Y-280000D01*
X643571Y-265714D01*
X672143Y-265714D01*
X772143Y-465714D02*
X772143Y-265714D01*
X772143Y-165714D02*
X757857Y-180000D01*
X772143Y-194286D01*
X786428Y-180000D01*
X772143Y-165714D01*
X772143Y-194286D01*
X957857Y-465714D02*
X929286Y-451428D01*
X915000Y-422857D01*
X915000Y-165714D01*
X1115000Y-465714D02*
X1086429Y-451428D01*
X1072143Y-422857D01*
X1072143Y-165714D01*
X1457857Y-465714D02*
X1457857Y-165714D01*
X1557857Y-380000D01*
X1657857Y-165714D01*
X1657857Y-465714D01*
X1929286Y-465714D02*
X1929286Y-308571D01*
X1915000Y-280000D01*
X1886428Y-265714D01*
X1829286Y-265714D01*
X1800714Y-280000D01*
X1929286Y-451428D02*
X1900714Y-465714D01*
X1829286Y-465714D01*
X1800714Y-451428D01*
X1786428Y-422857D01*
X1786428Y-394286D01*
X1800714Y-365714D01*
X1829286Y-351428D01*
X1900714Y-351428D01*
X1929286Y-337143D01*
X2072143Y-265714D02*
X2072143Y-565714D01*
X2072143Y-280000D02*
X2100714Y-265714D01*
X2157857Y-265714D01*
X2186429Y-280000D01*
X2200714Y-294286D01*
X2215000Y-322857D01*
X2215000Y-408571D01*
X2200714Y-437143D01*
X2186429Y-451428D01*
X2157857Y-465714D01*
X2100714Y-465714D01*
X2072143Y-451428D01*
X2343571Y-437143D02*
X2357857Y-451428D01*
X2343571Y-465714D01*
X2329286Y-451428D01*
X2343571Y-437143D01*
X2343571Y-465714D01*
X2343571Y-280000D02*
X2357857Y-294286D01*
X2343571Y-308571D01*
X2329286Y-294286D01*
X2343571Y-280000D01*
X2343571Y-308571D01*
X-70000Y-925000D02*
X0Y-995000D01*
X0Y-925000D02*
X-70000Y-995000D01*
X343571Y-795714D02*
X372143Y-795714D01*
X400714Y-810000D01*
X415000Y-824286D01*
X429286Y-852857D01*
X443571Y-910000D01*
X443571Y-981428D01*
X429286Y-1038571D01*
X415000Y-1067143D01*
X400714Y-1081429D01*
X372143Y-1095714D01*
X343571Y-1095714D01*
X315000Y-1081429D01*
X300714Y-1067143D01*
X286429Y-1038571D01*
X272143Y-981428D01*
X272143Y-910000D01*
X286429Y-852857D01*
X300714Y-824286D01*
X315000Y-810000D01*
X343571Y-795714D01*
X572143Y-1067143D02*
X586429Y-1081429D01*
X572143Y-1095714D01*
X557857Y-1081429D01*
X572143Y-1067143D01*
X572143Y-1095714D01*
X686429Y-795714D02*
X886428Y-795714D01*
X757857Y-1095714D01*
X1057857Y-795714D02*
X1086429Y-795714D01*
X1115000Y-810000D01*
X1129286Y-824286D01*
X1143571Y-852857D01*
X1157857Y-910000D01*
X1157857Y-981428D01*
X1143571Y-1038571D01*
X1129286Y-1067143D01*
X1115000Y-1081429D01*
X1086429Y-1095714D01*
X1057857Y-1095714D01*
X1029286Y-1081429D01*
X1015000Y-1067143D01*
X1000714Y-1038571D01*
X986428Y-981428D01*
X986428Y-910000D01*
X1000714Y-852857D01*
X1015000Y-824286D01*
X1029286Y-810000D01*
X1057857Y-795714D01*
X1286429Y-1095714D02*
X1286429Y-895714D01*
X1286429Y-924286D02*
X1300714Y-910000D01*
X1329286Y-895714D01*
X1372143Y-895714D01*
X1400714Y-910000D01*
X1415000Y-938571D01*
X1415000Y-1095714D01*
X1415000Y-938571D02*
X1429286Y-910000D01*
X1457857Y-895714D01*
X1500714Y-895714D01*
X1529286Y-910000D01*
X1543571Y-938571D01*
X1543571Y-1095714D01*
X1686428Y-1095714D02*
X1686428Y-895714D01*
X1686428Y-924286D02*
X1700714Y-910000D01*
X1729286Y-895714D01*
X1772143Y-895714D01*
X1800714Y-910000D01*
X1815000Y-938571D01*
X1815000Y-1095714D01*
X1815000Y-938571D02*
X1829286Y-910000D01*
X1857857Y-895714D01*
X1900714Y-895714D01*
X1929286Y-910000D01*
X1943571Y-938571D01*
X1943571Y-1095714D01*
X2529286Y-781428D02*
X2272143Y-1167143D01*
X2915000Y-795714D02*
X2943571Y-795714D01*
X2972143Y-810000D01*
X2986428Y-824286D01*
X3000714Y-852857D01*
X3015000Y-910000D01*
X3015000Y-981428D01*
X3000714Y-1038571D01*
X2986428Y-1067143D01*
X2972143Y-1081429D01*
X2943571Y-1095714D01*
X2915000Y-1095714D01*
X2886428Y-1081429D01*
X2872143Y-1067143D01*
X2857857Y-1038571D01*
X2843571Y-981428D01*
X2843571Y-910000D01*
X2857857Y-852857D01*
X2872143Y-824286D01*
X2886428Y-810000D01*
X2915000Y-795714D01*
X3143571Y-1067143D02*
X3157857Y-1081429D01*
X3143571Y-1095714D01*
X3129286Y-1081429D01*
X3143571Y-1067143D01*
X3143571Y-1095714D01*
X3343571Y-795714D02*
X3372143Y-795714D01*
X3400714Y-810000D01*
X3415000Y-824286D01*
X3429286Y-852857D01*
X3443571Y-910000D01*
X3443571Y-981428D01*
X3429286Y-1038571D01*
X3415000Y-1067143D01*
X3400714Y-1081429D01*
X3372143Y-1095714D01*
X3343571Y-1095714D01*
X3315000Y-1081429D01*
X3300714Y-1067143D01*
X3286428Y-1038571D01*
X3272143Y-981428D01*
X3272143Y-910000D01*
X3286428Y-852857D01*
X3300714Y-824286D01*
X3315000Y-810000D01*
X3343571Y-795714D01*
X3557857Y-824286D02*
X3572143Y-810000D01*
X3600714Y-795714D01*
X3672143Y-795714D01*
X3700714Y-810000D01*
X3715000Y-824286D01*
X3729286Y-852857D01*
X3729286Y-881428D01*
X3715000Y-924286D01*
X3543571Y-1095714D01*
X3729286Y-1095714D01*
X3900714Y-924286D02*
X3872143Y-910000D01*
X3857857Y-895714D01*
X3843571Y-867143D01*
X3843571Y-852857D01*
X3857857Y-824286D01*
X3872143Y-810000D01*
X3900714Y-795714D01*
X3957857Y-795714D01*
X3986428Y-810000D01*
X4000714Y-824286D01*
X4015000Y-852857D01*
X4015000Y-867143D01*
X4000714Y-895714D01*
X3986428Y-910000D01*
X3957857Y-924286D01*
X3900714Y-924286D01*
X3872143Y-938571D01*
X3857857Y-952857D01*
X3843571Y-981428D01*
X3843571Y-1038571D01*
X3857857Y-1067143D01*
X3872143Y-1081429D01*
X3900714Y-1095714D01*
X3957857Y-1095714D01*
X3986428Y-1081429D01*
X4000714Y-1067143D01*
X4015000Y-1038571D01*
X4015000Y-981428D01*
X4000714Y-952857D01*
X3986428Y-938571D01*
X3957857Y-924286D01*
X4129286Y-795714D02*
X4129286Y-852857D01*
X4243571Y-795714D02*
X4243571Y-852857D01*
X4686429Y-1210000D02*
X4672143Y-1195714D01*
X4643571Y-1152857D01*
X4629286Y-1124286D01*
X4615000Y-1081429D01*
X4600714Y-1010000D01*
X4600714Y-952857D01*
X4615000Y-881428D01*
X4629286Y-838571D01*
X4643571Y-810000D01*
X4672143Y-767143D01*
X4686429Y-752857D01*
X4772143Y-795714D02*
X4957857Y-795714D01*
X4857857Y-910000D01*
X4900714Y-910000D01*
X4929286Y-924286D01*
X4943571Y-938571D01*
X4957857Y-967143D01*
X4957857Y-1038571D01*
X4943571Y-1067143D01*
X4929286Y-1081429D01*
X4900714Y-1095714D01*
X4815000Y-1095714D01*
X4786429Y-1081429D01*
X4772143Y-1067143D01*
X5215000Y-895714D02*
X5215000Y-1095714D01*
X5143571Y-781428D02*
X5072143Y-995714D01*
X5257857Y-995714D01*
X5600714Y-1095714D02*
X5600714Y-795714D01*
X5729286Y-1095714D02*
X5729286Y-938571D01*
X5715000Y-910000D01*
X5686428Y-895714D01*
X5643571Y-895714D01*
X5615000Y-910000D01*
X5600714Y-924286D01*
X5915000Y-1095714D02*
X5886428Y-1081429D01*
X5872143Y-1067143D01*
X5857857Y-1038571D01*
X5857857Y-952857D01*
X5872143Y-924286D01*
X5886428Y-910000D01*
X5915000Y-895714D01*
X5957857Y-895714D01*
X5986428Y-910000D01*
X6000714Y-924286D01*
X6015000Y-952857D01*
X6015000Y-1038571D01*
X6000714Y-1067143D01*
X5986428Y-1081429D01*
X5957857Y-1095714D01*
X5915000Y-1095714D01*
X6186428Y-1095714D02*
X6157857Y-1081429D01*
X6143571Y-1052857D01*
X6143571Y-795714D01*
X6415000Y-1081429D02*
X6386428Y-1095714D01*
X6329286Y-1095714D01*
X6300714Y-1081429D01*
X6286428Y-1052857D01*
X6286428Y-938571D01*
X6300714Y-910000D01*
X6329286Y-895714D01*
X6386428Y-895714D01*
X6415000Y-910000D01*
X6429286Y-938571D01*
X6429286Y-967143D01*
X6286428Y-995714D01*
X6543571Y-1081429D02*
X6572143Y-1095714D01*
X6629286Y-1095714D01*
X6657857Y-1081429D01*
X6672143Y-1052857D01*
X6672143Y-1038571D01*
X6657857Y-1010000D01*
X6629286Y-995714D01*
X6586428Y-995714D01*
X6557857Y-981428D01*
X6543571Y-952857D01*
X6543571Y-938571D01*
X6557857Y-910000D01*
X6586428Y-895714D01*
X6629286Y-895714D01*
X6657857Y-910000D01*
X6772143Y-1210000D02*
X6786428Y-1195714D01*
X6815000Y-1152857D01*
X6829286Y-1124286D01*
X6843571Y-1081429D01*
X6857857Y-1010000D01*
X6857857Y-952857D01*
X6843571Y-881428D01*
X6829286Y-838571D01*
X6815000Y-810000D01*
X6786428Y-767143D01*
X6772143Y-752857D01*
X0Y-1356000D02*
G75*
G03X0Y-1356000I-37500J0D01*
G01*
X343571Y-1191714D02*
X372143Y-1191714D01*
X400714Y-1206000D01*
X415000Y-1220286D01*
X429286Y-1248857D01*
X443571Y-1306000D01*
X443571Y-1377429D01*
X429286Y-1434571D01*
X415000Y-1463143D01*
X400714Y-1477428D01*
X372143Y-1491714D01*
X343571Y-1491714D01*
X315000Y-1477428D01*
X300714Y-1463143D01*
X286429Y-1434571D01*
X272143Y-1377429D01*
X272143Y-1306000D01*
X286429Y-1248857D01*
X300714Y-1220286D01*
X315000Y-1206000D01*
X343571Y-1191714D01*
X572143Y-1463143D02*
X586429Y-1477428D01*
X572143Y-1491714D01*
X557857Y-1477428D01*
X572143Y-1463143D01*
X572143Y-1491714D01*
X686429Y-1191714D02*
X886428Y-1191714D01*
X757857Y-1491714D01*
X1143571Y-1191714D02*
X1000714Y-1191714D01*
X986428Y-1334571D01*
X1000714Y-1320286D01*
X1029286Y-1306000D01*
X1100714Y-1306000D01*
X1129286Y-1320286D01*
X1143571Y-1334571D01*
X1157857Y-1363143D01*
X1157857Y-1434571D01*
X1143571Y-1463143D01*
X1129286Y-1477428D01*
X1100714Y-1491714D01*
X1029286Y-1491714D01*
X1000714Y-1477428D01*
X986428Y-1463143D01*
X1286429Y-1491714D02*
X1286429Y-1291714D01*
X1286429Y-1320286D02*
X1300714Y-1306000D01*
X1329286Y-1291714D01*
X1372143Y-1291714D01*
X1400714Y-1306000D01*
X1415000Y-1334571D01*
X1415000Y-1491714D01*
X1415000Y-1334571D02*
X1429286Y-1306000D01*
X1457857Y-1291714D01*
X1500714Y-1291714D01*
X1529286Y-1306000D01*
X1543571Y-1334571D01*
X1543571Y-1491714D01*
X1686428Y-1491714D02*
X1686428Y-1291714D01*
X1686428Y-1320286D02*
X1700714Y-1306000D01*
X1729286Y-1291714D01*
X1772143Y-1291714D01*
X1800714Y-1306000D01*
X1815000Y-1334571D01*
X1815000Y-1491714D01*
X1815000Y-1334571D02*
X1829286Y-1306000D01*
X1857857Y-1291714D01*
X1900714Y-1291714D01*
X1929286Y-1306000D01*
X1943571Y-1334571D01*
X1943571Y-1491714D01*
X2529286Y-1177429D02*
X2272143Y-1563143D01*
X2915000Y-1191714D02*
X2943571Y-1191714D01*
X2972143Y-1206000D01*
X2986428Y-1220286D01*
X3000714Y-1248857D01*
X3015000Y-1306000D01*
X3015000Y-1377429D01*
X3000714Y-1434571D01*
X2986428Y-1463143D01*
X2972143Y-1477428D01*
X2943571Y-1491714D01*
X2915000Y-1491714D01*
X2886428Y-1477428D01*
X2872143Y-1463143D01*
X2857857Y-1434571D01*
X2843571Y-1377429D01*
X2843571Y-1306000D01*
X2857857Y-1248857D01*
X2872143Y-1220286D01*
X2886428Y-1206000D01*
X2915000Y-1191714D01*
X3143571Y-1463143D02*
X3157857Y-1477428D01*
X3143571Y-1491714D01*
X3129286Y-1477428D01*
X3143571Y-1463143D01*
X3143571Y-1491714D01*
X3343571Y-1191714D02*
X3372143Y-1191714D01*
X3400714Y-1206000D01*
X3415000Y-1220286D01*
X3429286Y-1248857D01*
X3443571Y-1306000D01*
X3443571Y-1377429D01*
X3429286Y-1434571D01*
X3415000Y-1463143D01*
X3400714Y-1477428D01*
X3372143Y-1491714D01*
X3343571Y-1491714D01*
X3315000Y-1477428D01*
X3300714Y-1463143D01*
X3286428Y-1434571D01*
X3272143Y-1377429D01*
X3272143Y-1306000D01*
X3286428Y-1248857D01*
X3300714Y-1220286D01*
X3315000Y-1206000D01*
X3343571Y-1191714D01*
X3543571Y-1191714D02*
X3729286Y-1191714D01*
X3629286Y-1306000D01*
X3672143Y-1306000D01*
X3700714Y-1320286D01*
X3715000Y-1334571D01*
X3729286Y-1363143D01*
X3729286Y-1434571D01*
X3715000Y-1463143D01*
X3700714Y-1477428D01*
X3672143Y-1491714D01*
X3586428Y-1491714D01*
X3557857Y-1477428D01*
X3543571Y-1463143D01*
X3915000Y-1191714D02*
X3943571Y-1191714D01*
X3972143Y-1206000D01*
X3986428Y-1220286D01*
X4000714Y-1248857D01*
X4015000Y-1306000D01*
X4015000Y-1377429D01*
X4000714Y-1434571D01*
X3986428Y-1463143D01*
X3972143Y-1477428D01*
X3943571Y-1491714D01*
X3915000Y-1491714D01*
X3886428Y-1477428D01*
X3872143Y-1463143D01*
X3857857Y-1434571D01*
X3843571Y-1377429D01*
X3843571Y-1306000D01*
X3857857Y-1248857D01*
X3872143Y-1220286D01*
X3886428Y-1206000D01*
X3915000Y-1191714D01*
X4129286Y-1191714D02*
X4129286Y-1248857D01*
X4243571Y-1191714D02*
X4243571Y-1248857D01*
X4686429Y-1606000D02*
X4672143Y-1591714D01*
X4643571Y-1548857D01*
X4629286Y-1520286D01*
X4615000Y-1477428D01*
X4600714Y-1406000D01*
X4600714Y-1348857D01*
X4615000Y-1277429D01*
X4629286Y-1234571D01*
X4643571Y-1206000D01*
X4672143Y-1163143D01*
X4686429Y-1148857D01*
X4929286Y-1191714D02*
X4872143Y-1191714D01*
X4843571Y-1206000D01*
X4829286Y-1220286D01*
X4800714Y-1263143D01*
X4786429Y-1320286D01*
X4786429Y-1434571D01*
X4800714Y-1463143D01*
X4815000Y-1477428D01*
X4843571Y-1491714D01*
X4900714Y-1491714D01*
X4929286Y-1477428D01*
X4943571Y-1463143D01*
X4957857Y-1434571D01*
X4957857Y-1363143D01*
X4943571Y-1334571D01*
X4929286Y-1320286D01*
X4900714Y-1306000D01*
X4843571Y-1306000D01*
X4815000Y-1320286D01*
X4800714Y-1334571D01*
X4786429Y-1363143D01*
X5315000Y-1491714D02*
X5315000Y-1191714D01*
X5443571Y-1491714D02*
X5443571Y-1334571D01*
X5429286Y-1306000D01*
X5400714Y-1291714D01*
X5357857Y-1291714D01*
X5329286Y-1306000D01*
X5315000Y-1320286D01*
X5629286Y-1491714D02*
X5600714Y-1477428D01*
X5586429Y-1463143D01*
X5572143Y-1434571D01*
X5572143Y-1348857D01*
X5586429Y-1320286D01*
X5600714Y-1306000D01*
X5629286Y-1291714D01*
X5672143Y-1291714D01*
X5700714Y-1306000D01*
X5715000Y-1320286D01*
X5729286Y-1348857D01*
X5729286Y-1434571D01*
X5715000Y-1463143D01*
X5700714Y-1477428D01*
X5672143Y-1491714D01*
X5629286Y-1491714D01*
X5900714Y-1491714D02*
X5872143Y-1477428D01*
X5857857Y-1448857D01*
X5857857Y-1191714D01*
X6129286Y-1477428D02*
X6100714Y-1491714D01*
X6043571Y-1491714D01*
X6015000Y-1477428D01*
X6000714Y-1448857D01*
X6000714Y-1334571D01*
X6015000Y-1306000D01*
X6043571Y-1291714D01*
X6100714Y-1291714D01*
X6129286Y-1306000D01*
X6143571Y-1334571D01*
X6143571Y-1363143D01*
X6000714Y-1391714D01*
X6257857Y-1477428D02*
X6286428Y-1491714D01*
X6343571Y-1491714D01*
X6372143Y-1477428D01*
X6386428Y-1448857D01*
X6386428Y-1434571D01*
X6372143Y-1406000D01*
X6343571Y-1391714D01*
X6300714Y-1391714D01*
X6272143Y-1377429D01*
X6257857Y-1348857D01*
X6257857Y-1334571D01*
X6272143Y-1306000D01*
X6300714Y-1291714D01*
X6343571Y-1291714D01*
X6372143Y-1306000D01*
X6486428Y-1606000D02*
X6500714Y-1591714D01*
X6529286Y-1548857D01*
X6543571Y-1520286D01*
X6557857Y-1477428D01*
X6572143Y-1406000D01*
X6572143Y-1348857D01*
X6557857Y-1277429D01*
X6543571Y-1234571D01*
X6529286Y-1206000D01*
X6500714Y-1163143D01*
X6486428Y-1148857D01*
X-38100Y-1713900D02*
X-38100Y-1790100D01*
X-76200Y-1752000D02*
X0Y-1752000D01*
X343571Y-1587714D02*
X372143Y-1587714D01*
X400714Y-1602000D01*
X415000Y-1616286D01*
X429286Y-1644857D01*
X443571Y-1702000D01*
X443571Y-1773428D01*
X429286Y-1830571D01*
X415000Y-1859143D01*
X400714Y-1873428D01*
X372143Y-1887714D01*
X343571Y-1887714D01*
X315000Y-1873428D01*
X300714Y-1859143D01*
X286429Y-1830571D01*
X272143Y-1773428D01*
X272143Y-1702000D01*
X286429Y-1644857D01*
X300714Y-1616286D01*
X315000Y-1602000D01*
X343571Y-1587714D01*
X572143Y-1859143D02*
X586429Y-1873428D01*
X572143Y-1887714D01*
X557857Y-1873428D01*
X572143Y-1859143D01*
X572143Y-1887714D01*
X686429Y-1587714D02*
X886428Y-1587714D01*
X757857Y-1887714D01*
X1129286Y-1587714D02*
X1072143Y-1587714D01*
X1043571Y-1602000D01*
X1029286Y-1616286D01*
X1000714Y-1659143D01*
X986428Y-1716286D01*
X986428Y-1830571D01*
X1000714Y-1859143D01*
X1015000Y-1873428D01*
X1043571Y-1887714D01*
X1100714Y-1887714D01*
X1129286Y-1873428D01*
X1143571Y-1859143D01*
X1157857Y-1830571D01*
X1157857Y-1759143D01*
X1143571Y-1730571D01*
X1129286Y-1716286D01*
X1100714Y-1702000D01*
X1043571Y-1702000D01*
X1015000Y-1716286D01*
X1000714Y-1730571D01*
X986428Y-1759143D01*
X1286429Y-1887714D02*
X1286429Y-1687714D01*
X1286429Y-1716286D02*
X1300714Y-1702000D01*
X1329286Y-1687714D01*
X1372143Y-1687714D01*
X1400714Y-1702000D01*
X1415000Y-1730571D01*
X1415000Y-1887714D01*
X1415000Y-1730571D02*
X1429286Y-1702000D01*
X1457857Y-1687714D01*
X1500714Y-1687714D01*
X1529286Y-1702000D01*
X1543571Y-1730571D01*
X1543571Y-1887714D01*
X1686428Y-1887714D02*
X1686428Y-1687714D01*
X1686428Y-1716286D02*
X1700714Y-1702000D01*
X1729286Y-1687714D01*
X1772143Y-1687714D01*
X1800714Y-1702000D01*
X1815000Y-1730571D01*
X1815000Y-1887714D01*
X1815000Y-1730571D02*
X1829286Y-1702000D01*
X1857857Y-1687714D01*
X1900714Y-1687714D01*
X1929286Y-1702000D01*
X1943571Y-1730571D01*
X1943571Y-1887714D01*
X2529286Y-1573428D02*
X2272143Y-1959143D01*
X2915000Y-1587714D02*
X2943571Y-1587714D01*
X2972143Y-1602000D01*
X2986428Y-1616286D01*
X3000714Y-1644857D01*
X3015000Y-1702000D01*
X3015000Y-1773428D01*
X3000714Y-1830571D01*
X2986428Y-1859143D01*
X2972143Y-1873428D01*
X2943571Y-1887714D01*
X2915000Y-1887714D01*
X2886428Y-1873428D01*
X2872143Y-1859143D01*
X2857857Y-1830571D01*
X2843571Y-1773428D01*
X2843571Y-1702000D01*
X2857857Y-1644857D01*
X2872143Y-1616286D01*
X2886428Y-1602000D01*
X2915000Y-1587714D01*
X3143571Y-1859143D02*
X3157857Y-1873428D01*
X3143571Y-1887714D01*
X3129286Y-1873428D01*
X3143571Y-1859143D01*
X3143571Y-1887714D01*
X3343571Y-1587714D02*
X3372143Y-1587714D01*
X3400714Y-1602000D01*
X3415000Y-1616286D01*
X3429286Y-1644857D01*
X3443571Y-1702000D01*
X3443571Y-1773428D01*
X3429286Y-1830571D01*
X3415000Y-1859143D01*
X3400714Y-1873428D01*
X3372143Y-1887714D01*
X3343571Y-1887714D01*
X3315000Y-1873428D01*
X3300714Y-1859143D01*
X3286428Y-1830571D01*
X3272143Y-1773428D01*
X3272143Y-1702000D01*
X3286428Y-1644857D01*
X3300714Y-1616286D01*
X3315000Y-1602000D01*
X3343571Y-1587714D01*
X3543571Y-1587714D02*
X3729286Y-1587714D01*
X3629286Y-1702000D01*
X3672143Y-1702000D01*
X3700714Y-1716286D01*
X3715000Y-1730571D01*
X3729286Y-1759143D01*
X3729286Y-1830571D01*
X3715000Y-1859143D01*
X3700714Y-1873428D01*
X3672143Y-1887714D01*
X3586428Y-1887714D01*
X3557857Y-1873428D01*
X3543571Y-1859143D01*
X3915000Y-1587714D02*
X3943571Y-1587714D01*
X3972143Y-1602000D01*
X3986428Y-1616286D01*
X4000714Y-1644857D01*
X4015000Y-1702000D01*
X4015000Y-1773428D01*
X4000714Y-1830571D01*
X3986428Y-1859143D01*
X3972143Y-1873428D01*
X3943571Y-1887714D01*
X3915000Y-1887714D01*
X3886428Y-1873428D01*
X3872143Y-1859143D01*
X3857857Y-1830571D01*
X3843571Y-1773428D01*
X3843571Y-1702000D01*
X3857857Y-1644857D01*
X3872143Y-1616286D01*
X3886428Y-1602000D01*
X3915000Y-1587714D01*
X4129286Y-1587714D02*
X4129286Y-1644857D01*
X4243571Y-1587714D02*
X4243571Y-1644857D01*
X4686429Y-2002000D02*
X4672143Y-1987714D01*
X4643571Y-1944857D01*
X4629286Y-1916286D01*
X4615000Y-1873428D01*
X4600714Y-1802000D01*
X4600714Y-1744857D01*
X4615000Y-1673428D01*
X4629286Y-1630571D01*
X4643571Y-1602000D01*
X4672143Y-1559143D01*
X4686429Y-1544857D01*
X4957857Y-1887714D02*
X4786429Y-1887714D01*
X4872143Y-1887714D02*
X4872143Y-1587714D01*
X4843571Y-1630571D01*
X4815000Y-1659143D01*
X4786429Y-1673428D01*
X5215000Y-1587714D02*
X5157857Y-1587714D01*
X5129286Y-1602000D01*
X5115000Y-1616286D01*
X5086429Y-1659143D01*
X5072143Y-1716286D01*
X5072143Y-1830571D01*
X5086429Y-1859143D01*
X5100714Y-1873428D01*
X5129286Y-1887714D01*
X5186429Y-1887714D01*
X5215000Y-1873428D01*
X5229286Y-1859143D01*
X5243571Y-1830571D01*
X5243571Y-1759143D01*
X5229286Y-1730571D01*
X5215000Y-1716286D01*
X5186429Y-1702000D01*
X5129286Y-1702000D01*
X5100714Y-1716286D01*
X5086429Y-1730571D01*
X5072143Y-1759143D01*
X5600714Y-1887714D02*
X5600714Y-1587714D01*
X5729286Y-1887714D02*
X5729286Y-1730571D01*
X5715000Y-1702000D01*
X5686428Y-1687714D01*
X5643571Y-1687714D01*
X5615000Y-1702000D01*
X5600714Y-1716286D01*
X5915000Y-1887714D02*
X5886428Y-1873428D01*
X5872143Y-1859143D01*
X5857857Y-1830571D01*
X5857857Y-1744857D01*
X5872143Y-1716286D01*
X5886428Y-1702000D01*
X5915000Y-1687714D01*
X5957857Y-1687714D01*
X5986428Y-1702000D01*
X6000714Y-1716286D01*
X6015000Y-1744857D01*
X6015000Y-1830571D01*
X6000714Y-1859143D01*
X5986428Y-1873428D01*
X5957857Y-1887714D01*
X5915000Y-1887714D01*
X6186428Y-1887714D02*
X6157857Y-1873428D01*
X6143571Y-1844857D01*
X6143571Y-1587714D01*
X6415000Y-1873428D02*
X6386428Y-1887714D01*
X6329286Y-1887714D01*
X6300714Y-1873428D01*
X6286428Y-1844857D01*
X6286428Y-1730571D01*
X6300714Y-1702000D01*
X6329286Y-1687714D01*
X6386428Y-1687714D01*
X6415000Y-1702000D01*
X6429286Y-1730571D01*
X6429286Y-1759143D01*
X6286428Y-1787714D01*
X6543571Y-1873428D02*
X6572143Y-1887714D01*
X6629286Y-1887714D01*
X6657857Y-1873428D01*
X6672143Y-1844857D01*
X6672143Y-1830571D01*
X6657857Y-1802000D01*
X6629286Y-1787714D01*
X6586428Y-1787714D01*
X6557857Y-1773428D01*
X6543571Y-1744857D01*
X6543571Y-1730571D01*
X6557857Y-1702000D01*
X6586428Y-1687714D01*
X6629286Y-1687714D01*
X6657857Y-1702000D01*
X6772143Y-2002000D02*
X6786428Y-1987714D01*
X6815000Y-1944857D01*
X6829286Y-1916286D01*
X6843571Y-1873428D01*
X6857857Y-1802000D01*
X6857857Y-1744857D01*
X6843571Y-1673428D01*
X6829286Y-1630571D01*
X6815000Y-1602000D01*
X6786428Y-1559143D01*
X6772143Y-1544857D01*
X-11715Y-2176285D02*
X-11715Y-2119716D01*
X-68285Y-2119716D01*
X-68285Y-2176285D01*
X-11715Y-2176285D01*
X343571Y-1983714D02*
X372143Y-1983714D01*
X400714Y-1998000D01*
X415000Y-2012286D01*
X429286Y-2040857D01*
X443571Y-2098000D01*
X443571Y-2169429D01*
X429286Y-2226571D01*
X415000Y-2255143D01*
X400714Y-2269429D01*
X372143Y-2283714D01*
X343571Y-2283714D01*
X315000Y-2269429D01*
X300714Y-2255143D01*
X286429Y-2226571D01*
X272143Y-2169429D01*
X272143Y-2098000D01*
X286429Y-2040857D01*
X300714Y-2012286D01*
X315000Y-1998000D01*
X343571Y-1983714D01*
X572143Y-2255143D02*
X586429Y-2269429D01*
X572143Y-2283714D01*
X557857Y-2269429D01*
X572143Y-2255143D01*
X572143Y-2283714D01*
X757857Y-2112286D02*
X729286Y-2098000D01*
X715000Y-2083714D01*
X700714Y-2055143D01*
X700714Y-2040857D01*
X715000Y-2012286D01*
X729286Y-1998000D01*
X757857Y-1983714D01*
X815000Y-1983714D01*
X843571Y-1998000D01*
X857857Y-2012286D01*
X872143Y-2040857D01*
X872143Y-2055143D01*
X857857Y-2083714D01*
X843571Y-2098000D01*
X815000Y-2112286D01*
X757857Y-2112286D01*
X729286Y-2126571D01*
X715000Y-2140857D01*
X700714Y-2169429D01*
X700714Y-2226571D01*
X715000Y-2255143D01*
X729286Y-2269429D01*
X757857Y-2283714D01*
X815000Y-2283714D01*
X843571Y-2269429D01*
X857857Y-2255143D01*
X872143Y-2226571D01*
X872143Y-2169429D01*
X857857Y-2140857D01*
X843571Y-2126571D01*
X815000Y-2112286D01*
X1057857Y-1983714D02*
X1086429Y-1983714D01*
X1115000Y-1998000D01*
X1129286Y-2012286D01*
X1143571Y-2040857D01*
X1157857Y-2098000D01*
X1157857Y-2169429D01*
X1143571Y-2226571D01*
X1129286Y-2255143D01*
X1115000Y-2269429D01*
X1086429Y-2283714D01*
X1057857Y-2283714D01*
X1029286Y-2269429D01*
X1015000Y-2255143D01*
X1000714Y-2226571D01*
X986428Y-2169429D01*
X986428Y-2098000D01*
X1000714Y-2040857D01*
X1015000Y-2012286D01*
X1029286Y-1998000D01*
X1057857Y-1983714D01*
X1286429Y-2283714D02*
X1286429Y-2083714D01*
X1286429Y-2112286D02*
X1300714Y-2098000D01*
X1329286Y-2083714D01*
X1372143Y-2083714D01*
X1400714Y-2098000D01*
X1415000Y-2126571D01*
X1415000Y-2283714D01*
X1415000Y-2126571D02*
X1429286Y-2098000D01*
X1457857Y-2083714D01*
X1500714Y-2083714D01*
X1529286Y-2098000D01*
X1543571Y-2126571D01*
X1543571Y-2283714D01*
X1686428Y-2283714D02*
X1686428Y-2083714D01*
X1686428Y-2112286D02*
X1700714Y-2098000D01*
X1729286Y-2083714D01*
X1772143Y-2083714D01*
X1800714Y-2098000D01*
X1815000Y-2126571D01*
X1815000Y-2283714D01*
X1815000Y-2126571D02*
X1829286Y-2098000D01*
X1857857Y-2083714D01*
X1900714Y-2083714D01*
X1929286Y-2098000D01*
X1943571Y-2126571D01*
X1943571Y-2283714D01*
X2529286Y-1969428D02*
X2272143Y-2355143D01*
X2915000Y-1983714D02*
X2943571Y-1983714D01*
X2972143Y-1998000D01*
X2986428Y-2012286D01*
X3000714Y-2040857D01*
X3015000Y-2098000D01*
X3015000Y-2169429D01*
X3000714Y-2226571D01*
X2986428Y-2255143D01*
X2972143Y-2269429D01*
X2943571Y-2283714D01*
X2915000Y-2283714D01*
X2886428Y-2269429D01*
X2872143Y-2255143D01*
X2857857Y-2226571D01*
X2843571Y-2169429D01*
X2843571Y-2098000D01*
X2857857Y-2040857D01*
X2872143Y-2012286D01*
X2886428Y-1998000D01*
X2915000Y-1983714D01*
X3143571Y-2255143D02*
X3157857Y-2269429D01*
X3143571Y-2283714D01*
X3129286Y-2269429D01*
X3143571Y-2255143D01*
X3143571Y-2283714D01*
X3343571Y-1983714D02*
X3372143Y-1983714D01*
X3400714Y-1998000D01*
X3415000Y-2012286D01*
X3429286Y-2040857D01*
X3443571Y-2098000D01*
X3443571Y-2169429D01*
X3429286Y-2226571D01*
X3415000Y-2255143D01*
X3400714Y-2269429D01*
X3372143Y-2283714D01*
X3343571Y-2283714D01*
X3315000Y-2269429D01*
X3300714Y-2255143D01*
X3286428Y-2226571D01*
X3272143Y-2169429D01*
X3272143Y-2098000D01*
X3286428Y-2040857D01*
X3300714Y-2012286D01*
X3315000Y-1998000D01*
X3343571Y-1983714D01*
X3543571Y-1983714D02*
X3729286Y-1983714D01*
X3629286Y-2098000D01*
X3672143Y-2098000D01*
X3700714Y-2112286D01*
X3715000Y-2126571D01*
X3729286Y-2155143D01*
X3729286Y-2226571D01*
X3715000Y-2255143D01*
X3700714Y-2269429D01*
X3672143Y-2283714D01*
X3586428Y-2283714D01*
X3557857Y-2269429D01*
X3543571Y-2255143D01*
X4015000Y-2283714D02*
X3843571Y-2283714D01*
X3929286Y-2283714D02*
X3929286Y-1983714D01*
X3900714Y-2026571D01*
X3872143Y-2055143D01*
X3843571Y-2069428D01*
X4129286Y-1983714D02*
X4129286Y-2040857D01*
X4243571Y-1983714D02*
X4243571Y-2040857D01*
X4686429Y-2398000D02*
X4672143Y-2383714D01*
X4643571Y-2340857D01*
X4629286Y-2312286D01*
X4615000Y-2269429D01*
X4600714Y-2198000D01*
X4600714Y-2140857D01*
X4615000Y-2069428D01*
X4629286Y-2026571D01*
X4643571Y-1998000D01*
X4672143Y-1955143D01*
X4686429Y-1940857D01*
X4957857Y-2283714D02*
X4786429Y-2283714D01*
X4872143Y-2283714D02*
X4872143Y-1983714D01*
X4843571Y-2026571D01*
X4815000Y-2055143D01*
X4786429Y-2069428D01*
X5143571Y-1983714D02*
X5172143Y-1983714D01*
X5200714Y-1998000D01*
X5215000Y-2012286D01*
X5229286Y-2040857D01*
X5243571Y-2098000D01*
X5243571Y-2169429D01*
X5229286Y-2226571D01*
X5215000Y-2255143D01*
X5200714Y-2269429D01*
X5172143Y-2283714D01*
X5143571Y-2283714D01*
X5115000Y-2269429D01*
X5100714Y-2255143D01*
X5086429Y-2226571D01*
X5072143Y-2169429D01*
X5072143Y-2098000D01*
X5086429Y-2040857D01*
X5100714Y-2012286D01*
X5115000Y-1998000D01*
X5143571Y-1983714D01*
X5357857Y-2012286D02*
X5372143Y-1998000D01*
X5400714Y-1983714D01*
X5472143Y-1983714D01*
X5500714Y-1998000D01*
X5515000Y-2012286D01*
X5529286Y-2040857D01*
X5529286Y-2069428D01*
X5515000Y-2112286D01*
X5343571Y-2283714D01*
X5529286Y-2283714D01*
X5886428Y-2283714D02*
X5886428Y-1983714D01*
X6015000Y-2283714D02*
X6015000Y-2126571D01*
X6000714Y-2098000D01*
X5972143Y-2083714D01*
X5929286Y-2083714D01*
X5900714Y-2098000D01*
X5886428Y-2112286D01*
X6200714Y-2283714D02*
X6172143Y-2269429D01*
X6157857Y-2255143D01*
X6143571Y-2226571D01*
X6143571Y-2140857D01*
X6157857Y-2112286D01*
X6172143Y-2098000D01*
X6200714Y-2083714D01*
X6243571Y-2083714D01*
X6272143Y-2098000D01*
X6286428Y-2112286D01*
X6300714Y-2140857D01*
X6300714Y-2226571D01*
X6286428Y-2255143D01*
X6272143Y-2269429D01*
X6243571Y-2283714D01*
X6200714Y-2283714D01*
X6472143Y-2283714D02*
X6443571Y-2269429D01*
X6429286Y-2240857D01*
X6429286Y-1983714D01*
X6700714Y-2269429D02*
X6672143Y-2283714D01*
X6615000Y-2283714D01*
X6586428Y-2269429D01*
X6572143Y-2240857D01*
X6572143Y-2126571D01*
X6586428Y-2098000D01*
X6615000Y-2083714D01*
X6672143Y-2083714D01*
X6700714Y-2098000D01*
X6715000Y-2126571D01*
X6715000Y-2155143D01*
X6572143Y-2183714D01*
X6829286Y-2269429D02*
X6857857Y-2283714D01*
X6915000Y-2283714D01*
X6943571Y-2269429D01*
X6957857Y-2240857D01*
X6957857Y-2226571D01*
X6943571Y-2198000D01*
X6915000Y-2183714D01*
X6872143Y-2183714D01*
X6843571Y-2169429D01*
X6829286Y-2140857D01*
X6829286Y-2126571D01*
X6843571Y-2098000D01*
X6872143Y-2083714D01*
X6915000Y-2083714D01*
X6943571Y-2098000D01*
X7057857Y-2398000D02*
X7072143Y-2383714D01*
X7100714Y-2340857D01*
X7115000Y-2312286D01*
X7129286Y-2269429D01*
X7143571Y-2198000D01*
X7143571Y-2140857D01*
X7129286Y-2069428D01*
X7115000Y-2026571D01*
X7100714Y-1998000D01*
X7072143Y-1955143D01*
X7057857Y-1940857D01*
X-40640Y-2584640D02*
X0Y-2544000D01*
X-40640Y-2503360D01*
X-81280Y-2544000D01*
X-40640Y-2584640D01*
X343571Y-2379714D02*
X372143Y-2379714D01*
X400714Y-2394000D01*
X415000Y-2408286D01*
X429286Y-2436857D01*
X443571Y-2494000D01*
X443571Y-2565429D01*
X429286Y-2622571D01*
X415000Y-2651143D01*
X400714Y-2665429D01*
X372143Y-2679714D01*
X343571Y-2679714D01*
X315000Y-2665429D01*
X300714Y-2651143D01*
X286429Y-2622571D01*
X272143Y-2565429D01*
X272143Y-2494000D01*
X286429Y-2436857D01*
X300714Y-2408286D01*
X315000Y-2394000D01*
X343571Y-2379714D01*
X572143Y-2651143D02*
X586429Y-2665429D01*
X572143Y-2679714D01*
X557857Y-2665429D01*
X572143Y-2651143D01*
X572143Y-2679714D01*
X757857Y-2508286D02*
X729286Y-2494000D01*
X715000Y-2479714D01*
X700714Y-2451143D01*
X700714Y-2436857D01*
X715000Y-2408286D01*
X729286Y-2394000D01*
X757857Y-2379714D01*
X815000Y-2379714D01*
X843571Y-2394000D01*
X857857Y-2408286D01*
X872143Y-2436857D01*
X872143Y-2451143D01*
X857857Y-2479714D01*
X843571Y-2494000D01*
X815000Y-2508286D01*
X757857Y-2508286D01*
X729286Y-2522571D01*
X715000Y-2536857D01*
X700714Y-2565429D01*
X700714Y-2622571D01*
X715000Y-2651143D01*
X729286Y-2665429D01*
X757857Y-2679714D01*
X815000Y-2679714D01*
X843571Y-2665429D01*
X857857Y-2651143D01*
X872143Y-2622571D01*
X872143Y-2565429D01*
X857857Y-2536857D01*
X843571Y-2522571D01*
X815000Y-2508286D01*
X1157857Y-2679714D02*
X986428Y-2679714D01*
X1072143Y-2679714D02*
X1072143Y-2379714D01*
X1043571Y-2422571D01*
X1015000Y-2451143D01*
X986428Y-2465429D01*
X1286429Y-2679714D02*
X1286429Y-2479714D01*
X1286429Y-2508286D02*
X1300714Y-2494000D01*
X1329286Y-2479714D01*
X1372143Y-2479714D01*
X1400714Y-2494000D01*
X1415000Y-2522571D01*
X1415000Y-2679714D01*
X1415000Y-2522571D02*
X1429286Y-2494000D01*
X1457857Y-2479714D01*
X1500714Y-2479714D01*
X1529286Y-2494000D01*
X1543571Y-2522571D01*
X1543571Y-2679714D01*
X1686428Y-2679714D02*
X1686428Y-2479714D01*
X1686428Y-2508286D02*
X1700714Y-2494000D01*
X1729286Y-2479714D01*
X1772143Y-2479714D01*
X1800714Y-2494000D01*
X1815000Y-2522571D01*
X1815000Y-2679714D01*
X1815000Y-2522571D02*
X1829286Y-2494000D01*
X1857857Y-2479714D01*
X1900714Y-2479714D01*
X1929286Y-2494000D01*
X1943571Y-2522571D01*
X1943571Y-2679714D01*
X2529286Y-2365429D02*
X2272143Y-2751143D01*
X2915000Y-2379714D02*
X2943571Y-2379714D01*
X2972143Y-2394000D01*
X2986428Y-2408286D01*
X3000714Y-2436857D01*
X3015000Y-2494000D01*
X3015000Y-2565429D01*
X3000714Y-2622571D01*
X2986428Y-2651143D01*
X2972143Y-2665429D01*
X2943571Y-2679714D01*
X2915000Y-2679714D01*
X2886428Y-2665429D01*
X2872143Y-2651143D01*
X2857857Y-2622571D01*
X2843571Y-2565429D01*
X2843571Y-2494000D01*
X2857857Y-2436857D01*
X2872143Y-2408286D01*
X2886428Y-2394000D01*
X2915000Y-2379714D01*
X3143571Y-2651143D02*
X3157857Y-2665429D01*
X3143571Y-2679714D01*
X3129286Y-2665429D01*
X3143571Y-2651143D01*
X3143571Y-2679714D01*
X3343571Y-2379714D02*
X3372143Y-2379714D01*
X3400714Y-2394000D01*
X3415000Y-2408286D01*
X3429286Y-2436857D01*
X3443571Y-2494000D01*
X3443571Y-2565429D01*
X3429286Y-2622571D01*
X3415000Y-2651143D01*
X3400714Y-2665429D01*
X3372143Y-2679714D01*
X3343571Y-2679714D01*
X3315000Y-2665429D01*
X3300714Y-2651143D01*
X3286428Y-2622571D01*
X3272143Y-2565429D01*
X3272143Y-2494000D01*
X3286428Y-2436857D01*
X3300714Y-2408286D01*
X3315000Y-2394000D01*
X3343571Y-2379714D01*
X3543571Y-2379714D02*
X3729286Y-2379714D01*
X3629286Y-2494000D01*
X3672143Y-2494000D01*
X3700714Y-2508286D01*
X3715000Y-2522571D01*
X3729286Y-2551143D01*
X3729286Y-2622571D01*
X3715000Y-2651143D01*
X3700714Y-2665429D01*
X3672143Y-2679714D01*
X3586428Y-2679714D01*
X3557857Y-2665429D01*
X3543571Y-2651143D01*
X3843571Y-2408286D02*
X3857857Y-2394000D01*
X3886428Y-2379714D01*
X3957857Y-2379714D01*
X3986428Y-2394000D01*
X4000714Y-2408286D01*
X4015000Y-2436857D01*
X4015000Y-2465429D01*
X4000714Y-2508286D01*
X3829286Y-2679714D01*
X4015000Y-2679714D01*
X4129286Y-2379714D02*
X4129286Y-2436857D01*
X4243571Y-2379714D02*
X4243571Y-2436857D01*
X4686429Y-2794000D02*
X4672143Y-2779714D01*
X4643571Y-2736857D01*
X4629286Y-2708286D01*
X4615000Y-2665429D01*
X4600714Y-2594000D01*
X4600714Y-2536857D01*
X4615000Y-2465429D01*
X4629286Y-2422571D01*
X4643571Y-2394000D01*
X4672143Y-2351143D01*
X4686429Y-2336857D01*
X4957857Y-2679714D02*
X4786429Y-2679714D01*
X4872143Y-2679714D02*
X4872143Y-2379714D01*
X4843571Y-2422571D01*
X4815000Y-2451143D01*
X4786429Y-2465429D01*
X5072143Y-2408286D02*
X5086429Y-2394000D01*
X5115000Y-2379714D01*
X5186429Y-2379714D01*
X5215000Y-2394000D01*
X5229286Y-2408286D01*
X5243571Y-2436857D01*
X5243571Y-2465429D01*
X5229286Y-2508286D01*
X5057857Y-2679714D01*
X5243571Y-2679714D01*
X5600714Y-2679714D02*
X5600714Y-2379714D01*
X5729286Y-2679714D02*
X5729286Y-2522571D01*
X5715000Y-2494000D01*
X5686428Y-2479714D01*
X5643571Y-2479714D01*
X5615000Y-2494000D01*
X5600714Y-2508286D01*
X5915000Y-2679714D02*
X5886428Y-2665429D01*
X5872143Y-2651143D01*
X5857857Y-2622571D01*
X5857857Y-2536857D01*
X5872143Y-2508286D01*
X5886428Y-2494000D01*
X5915000Y-2479714D01*
X5957857Y-2479714D01*
X5986428Y-2494000D01*
X6000714Y-2508286D01*
X6015000Y-2536857D01*
X6015000Y-2622571D01*
X6000714Y-2651143D01*
X5986428Y-2665429D01*
X5957857Y-2679714D01*
X5915000Y-2679714D01*
X6186428Y-2679714D02*
X6157857Y-2665429D01*
X6143571Y-2636857D01*
X6143571Y-2379714D01*
X6415000Y-2665429D02*
X6386428Y-2679714D01*
X6329286Y-2679714D01*
X6300714Y-2665429D01*
X6286428Y-2636857D01*
X6286428Y-2522571D01*
X6300714Y-2494000D01*
X6329286Y-2479714D01*
X6386428Y-2479714D01*
X6415000Y-2494000D01*
X6429286Y-2522571D01*
X6429286Y-2551143D01*
X6286428Y-2579714D01*
X6543571Y-2665429D02*
X6572143Y-2679714D01*
X6629286Y-2679714D01*
X6657857Y-2665429D01*
X6672143Y-2636857D01*
X6672143Y-2622571D01*
X6657857Y-2594000D01*
X6629286Y-2579714D01*
X6586428Y-2579714D01*
X6557857Y-2565429D01*
X6543571Y-2536857D01*
X6543571Y-2522571D01*
X6557857Y-2494000D01*
X6586428Y-2479714D01*
X6629286Y-2479714D01*
X6657857Y-2494000D01*
X6772143Y-2794000D02*
X6786428Y-2779714D01*
X6815000Y-2736857D01*
X6829286Y-2708286D01*
X6843571Y-2665429D01*
X6857857Y-2594000D01*
X6857857Y-2536857D01*
X6843571Y-2465429D01*
X6829286Y-2422571D01*
X6815000Y-2394000D01*
X6786428Y-2351143D01*
X6772143Y-2336857D01*
X-95000Y-2892500D02*
X0Y-2987500D01*
X0Y-2892500D02*
X-95000Y-2987500D01*
X0Y-2940000D02*
G75*
G03X0Y-2940000I-47500J0D01*
G01*
X343571Y-2775714D02*
X372143Y-2775714D01*
X400714Y-2790000D01*
X415000Y-2804286D01*
X429286Y-2832857D01*
X443571Y-2890000D01*
X443571Y-2961428D01*
X429286Y-3018571D01*
X415000Y-3047143D01*
X400714Y-3061428D01*
X372143Y-3075714D01*
X343571Y-3075714D01*
X315000Y-3061428D01*
X300714Y-3047143D01*
X286429Y-3018571D01*
X272143Y-2961428D01*
X272143Y-2890000D01*
X286429Y-2832857D01*
X300714Y-2804286D01*
X315000Y-2790000D01*
X343571Y-2775714D01*
X572143Y-3047143D02*
X586429Y-3061428D01*
X572143Y-3075714D01*
X557857Y-3061428D01*
X572143Y-3047143D01*
X572143Y-3075714D01*
X729286Y-3075714D02*
X786428Y-3075714D01*
X815000Y-3061428D01*
X829286Y-3047143D01*
X857857Y-3004286D01*
X872143Y-2947143D01*
X872143Y-2832857D01*
X857857Y-2804286D01*
X843571Y-2790000D01*
X815000Y-2775714D01*
X757857Y-2775714D01*
X729286Y-2790000D01*
X715000Y-2804286D01*
X700714Y-2832857D01*
X700714Y-2904286D01*
X715000Y-2932857D01*
X729286Y-2947143D01*
X757857Y-2961428D01*
X815000Y-2961428D01*
X843571Y-2947143D01*
X857857Y-2932857D01*
X872143Y-2904286D01*
X1143571Y-2775714D02*
X1000714Y-2775714D01*
X986428Y-2918571D01*
X1000714Y-2904286D01*
X1029286Y-2890000D01*
X1100714Y-2890000D01*
X1129286Y-2904286D01*
X1143571Y-2918571D01*
X1157857Y-2947143D01*
X1157857Y-3018571D01*
X1143571Y-3047143D01*
X1129286Y-3061428D01*
X1100714Y-3075714D01*
X1029286Y-3075714D01*
X1000714Y-3061428D01*
X986428Y-3047143D01*
X1286429Y-3075714D02*
X1286429Y-2875714D01*
X1286429Y-2904286D02*
X1300714Y-2890000D01*
X1329286Y-2875714D01*
X1372143Y-2875714D01*
X1400714Y-2890000D01*
X1415000Y-2918571D01*
X1415000Y-3075714D01*
X1415000Y-2918571D02*
X1429286Y-2890000D01*
X1457857Y-2875714D01*
X1500714Y-2875714D01*
X1529286Y-2890000D01*
X1543571Y-2918571D01*
X1543571Y-3075714D01*
X1686428Y-3075714D02*
X1686428Y-2875714D01*
X1686428Y-2904286D02*
X1700714Y-2890000D01*
X1729286Y-2875714D01*
X1772143Y-2875714D01*
X1800714Y-2890000D01*
X1815000Y-2918571D01*
X1815000Y-3075714D01*
X1815000Y-2918571D02*
X1829286Y-2890000D01*
X1857857Y-2875714D01*
X1900714Y-2875714D01*
X1929286Y-2890000D01*
X1943571Y-2918571D01*
X1943571Y-3075714D01*
X2529286Y-2761429D02*
X2272143Y-3147143D01*
X2915000Y-2775714D02*
X2943571Y-2775714D01*
X2972143Y-2790000D01*
X2986428Y-2804286D01*
X3000714Y-2832857D01*
X3015000Y-2890000D01*
X3015000Y-2961428D01*
X3000714Y-3018571D01*
X2986428Y-3047143D01*
X2972143Y-3061428D01*
X2943571Y-3075714D01*
X2915000Y-3075714D01*
X2886428Y-3061428D01*
X2872143Y-3047143D01*
X2857857Y-3018571D01*
X2843571Y-2961428D01*
X2843571Y-2890000D01*
X2857857Y-2832857D01*
X2872143Y-2804286D01*
X2886428Y-2790000D01*
X2915000Y-2775714D01*
X3143571Y-3047143D02*
X3157857Y-3061428D01*
X3143571Y-3075714D01*
X3129286Y-3061428D01*
X3143571Y-3047143D01*
X3143571Y-3075714D01*
X3343571Y-2775714D02*
X3372143Y-2775714D01*
X3400714Y-2790000D01*
X3415000Y-2804286D01*
X3429286Y-2832857D01*
X3443571Y-2890000D01*
X3443571Y-2961428D01*
X3429286Y-3018571D01*
X3415000Y-3047143D01*
X3400714Y-3061428D01*
X3372143Y-3075714D01*
X3343571Y-3075714D01*
X3315000Y-3061428D01*
X3300714Y-3047143D01*
X3286428Y-3018571D01*
X3272143Y-2961428D01*
X3272143Y-2890000D01*
X3286428Y-2832857D01*
X3300714Y-2804286D01*
X3315000Y-2790000D01*
X3343571Y-2775714D01*
X3543571Y-2775714D02*
X3729286Y-2775714D01*
X3629286Y-2890000D01*
X3672143Y-2890000D01*
X3700714Y-2904286D01*
X3715000Y-2918571D01*
X3729286Y-2947143D01*
X3729286Y-3018571D01*
X3715000Y-3047143D01*
X3700714Y-3061428D01*
X3672143Y-3075714D01*
X3586428Y-3075714D01*
X3557857Y-3061428D01*
X3543571Y-3047143D01*
X3829286Y-2775714D02*
X4029286Y-2775714D01*
X3900714Y-3075714D01*
X4129286Y-2775714D02*
X4129286Y-2832857D01*
X4243571Y-2775714D02*
X4243571Y-2832857D01*
X4686429Y-3190000D02*
X4672143Y-3175714D01*
X4643571Y-3132857D01*
X4629286Y-3104286D01*
X4615000Y-3061428D01*
X4600714Y-2990000D01*
X4600714Y-2932857D01*
X4615000Y-2861428D01*
X4629286Y-2818571D01*
X4643571Y-2790000D01*
X4672143Y-2747143D01*
X4686429Y-2732857D01*
X4929286Y-2875714D02*
X4929286Y-3075714D01*
X4857857Y-2761429D02*
X4786429Y-2975714D01*
X4972143Y-2975714D01*
X5315000Y-3075714D02*
X5315000Y-2775714D01*
X5443571Y-3075714D02*
X5443571Y-2918571D01*
X5429286Y-2890000D01*
X5400714Y-2875714D01*
X5357857Y-2875714D01*
X5329286Y-2890000D01*
X5315000Y-2904286D01*
X5629286Y-3075714D02*
X5600714Y-3061428D01*
X5586429Y-3047143D01*
X5572143Y-3018571D01*
X5572143Y-2932857D01*
X5586429Y-2904286D01*
X5600714Y-2890000D01*
X5629286Y-2875714D01*
X5672143Y-2875714D01*
X5700714Y-2890000D01*
X5715000Y-2904286D01*
X5729286Y-2932857D01*
X5729286Y-3018571D01*
X5715000Y-3047143D01*
X5700714Y-3061428D01*
X5672143Y-3075714D01*
X5629286Y-3075714D01*
X5900714Y-3075714D02*
X5872143Y-3061428D01*
X5857857Y-3032857D01*
X5857857Y-2775714D01*
X6129286Y-3061428D02*
X6100714Y-3075714D01*
X6043571Y-3075714D01*
X6015000Y-3061428D01*
X6000714Y-3032857D01*
X6000714Y-2918571D01*
X6015000Y-2890000D01*
X6043571Y-2875714D01*
X6100714Y-2875714D01*
X6129286Y-2890000D01*
X6143571Y-2918571D01*
X6143571Y-2947143D01*
X6000714Y-2975714D01*
X6257857Y-3061428D02*
X6286428Y-3075714D01*
X6343571Y-3075714D01*
X6372143Y-3061428D01*
X6386428Y-3032857D01*
X6386428Y-3018571D01*
X6372143Y-2990000D01*
X6343571Y-2975714D01*
X6300714Y-2975714D01*
X6272143Y-2961428D01*
X6257857Y-2932857D01*
X6257857Y-2918571D01*
X6272143Y-2890000D01*
X6300714Y-2875714D01*
X6343571Y-2875714D01*
X6372143Y-2890000D01*
X6486428Y-3190000D02*
X6500714Y-3175714D01*
X6529286Y-3132857D01*
X6543571Y-3104286D01*
X6557857Y-3061428D01*
X6572143Y-2990000D01*
X6572143Y-2932857D01*
X6557857Y-2861428D01*
X6543571Y-2818571D01*
X6529286Y-2790000D01*
X6500714Y-2747143D01*
X6486428Y-2732857D01*
X-100000Y-3286000D02*
X0Y-3386000D01*
X0Y-3286000D02*
X-100000Y-3386000D01*
X-50000Y-3286000D02*
X-50000Y-3386000D01*
X-100000Y-3336000D02*
X0Y-3336000D01*
X443571Y-3471714D02*
X272143Y-3471714D01*
X357857Y-3471714D02*
X357857Y-3171714D01*
X329286Y-3214571D01*
X300714Y-3243143D01*
X272143Y-3257428D01*
X572143Y-3443143D02*
X586429Y-3457428D01*
X572143Y-3471714D01*
X557857Y-3457428D01*
X572143Y-3443143D01*
X572143Y-3471714D01*
X772143Y-3171714D02*
X800714Y-3171714D01*
X829286Y-3186000D01*
X843571Y-3200286D01*
X857857Y-3228857D01*
X872143Y-3286000D01*
X872143Y-3357428D01*
X857857Y-3414571D01*
X843571Y-3443143D01*
X829286Y-3457428D01*
X800714Y-3471714D01*
X772143Y-3471714D01*
X743571Y-3457428D01*
X729286Y-3443143D01*
X715000Y-3414571D01*
X700714Y-3357428D01*
X700714Y-3286000D01*
X715000Y-3228857D01*
X729286Y-3200286D01*
X743571Y-3186000D01*
X772143Y-3171714D01*
X1057857Y-3171714D02*
X1086429Y-3171714D01*
X1115000Y-3186000D01*
X1129286Y-3200286D01*
X1143571Y-3228857D01*
X1157857Y-3286000D01*
X1157857Y-3357428D01*
X1143571Y-3414571D01*
X1129286Y-3443143D01*
X1115000Y-3457428D01*
X1086429Y-3471714D01*
X1057857Y-3471714D01*
X1029286Y-3457428D01*
X1015000Y-3443143D01*
X1000714Y-3414571D01*
X986428Y-3357428D01*
X986428Y-3286000D01*
X1000714Y-3228857D01*
X1015000Y-3200286D01*
X1029286Y-3186000D01*
X1057857Y-3171714D01*
X1286429Y-3471714D02*
X1286429Y-3271714D01*
X1286429Y-3300286D02*
X1300714Y-3286000D01*
X1329286Y-3271714D01*
X1372143Y-3271714D01*
X1400714Y-3286000D01*
X1415000Y-3314571D01*
X1415000Y-3471714D01*
X1415000Y-3314571D02*
X1429286Y-3286000D01*
X1457857Y-3271714D01*
X1500714Y-3271714D01*
X1529286Y-3286000D01*
X1543571Y-3314571D01*
X1543571Y-3471714D01*
X1686428Y-3471714D02*
X1686428Y-3271714D01*
X1686428Y-3300286D02*
X1700714Y-3286000D01*
X1729286Y-3271714D01*
X1772143Y-3271714D01*
X1800714Y-3286000D01*
X1815000Y-3314571D01*
X1815000Y-3471714D01*
X1815000Y-3314571D02*
X1829286Y-3286000D01*
X1857857Y-3271714D01*
X1900714Y-3271714D01*
X1929286Y-3286000D01*
X1943571Y-3314571D01*
X1943571Y-3471714D01*
X2529286Y-3157428D02*
X2272143Y-3543143D01*
X2915000Y-3171714D02*
X2943571Y-3171714D01*
X2972143Y-3186000D01*
X2986428Y-3200286D01*
X3000714Y-3228857D01*
X3015000Y-3286000D01*
X3015000Y-3357428D01*
X3000714Y-3414571D01*
X2986428Y-3443143D01*
X2972143Y-3457428D01*
X2943571Y-3471714D01*
X2915000Y-3471714D01*
X2886428Y-3457428D01*
X2872143Y-3443143D01*
X2857857Y-3414571D01*
X2843571Y-3357428D01*
X2843571Y-3286000D01*
X2857857Y-3228857D01*
X2872143Y-3200286D01*
X2886428Y-3186000D01*
X2915000Y-3171714D01*
X3143571Y-3443143D02*
X3157857Y-3457428D01*
X3143571Y-3471714D01*
X3129286Y-3457428D01*
X3143571Y-3443143D01*
X3143571Y-3471714D01*
X3343571Y-3171714D02*
X3372143Y-3171714D01*
X3400714Y-3186000D01*
X3415000Y-3200286D01*
X3429286Y-3228857D01*
X3443571Y-3286000D01*
X3443571Y-3357428D01*
X3429286Y-3414571D01*
X3415000Y-3443143D01*
X3400714Y-3457428D01*
X3372143Y-3471714D01*
X3343571Y-3471714D01*
X3315000Y-3457428D01*
X3300714Y-3443143D01*
X3286428Y-3414571D01*
X3272143Y-3357428D01*
X3272143Y-3286000D01*
X3286428Y-3228857D01*
X3300714Y-3200286D01*
X3315000Y-3186000D01*
X3343571Y-3171714D01*
X3543571Y-3171714D02*
X3729286Y-3171714D01*
X3629286Y-3286000D01*
X3672143Y-3286000D01*
X3700714Y-3300286D01*
X3715000Y-3314571D01*
X3729286Y-3343143D01*
X3729286Y-3414571D01*
X3715000Y-3443143D01*
X3700714Y-3457428D01*
X3672143Y-3471714D01*
X3586428Y-3471714D01*
X3557857Y-3457428D01*
X3543571Y-3443143D01*
X3872143Y-3471714D02*
X3929286Y-3471714D01*
X3957857Y-3457428D01*
X3972143Y-3443143D01*
X4000714Y-3400286D01*
X4015000Y-3343143D01*
X4015000Y-3228857D01*
X4000714Y-3200286D01*
X3986428Y-3186000D01*
X3957857Y-3171714D01*
X3900714Y-3171714D01*
X3872143Y-3186000D01*
X3857857Y-3200286D01*
X3843571Y-3228857D01*
X3843571Y-3300286D01*
X3857857Y-3328857D01*
X3872143Y-3343143D01*
X3900714Y-3357428D01*
X3957857Y-3357428D01*
X3986428Y-3343143D01*
X4000714Y-3328857D01*
X4015000Y-3300286D01*
X4129286Y-3171714D02*
X4129286Y-3228857D01*
X4243571Y-3171714D02*
X4243571Y-3228857D01*
X4686429Y-3586000D02*
X4672143Y-3571714D01*
X4643571Y-3528857D01*
X4629286Y-3500286D01*
X4615000Y-3457428D01*
X4600714Y-3386000D01*
X4600714Y-3328857D01*
X4615000Y-3257428D01*
X4629286Y-3214571D01*
X4643571Y-3186000D01*
X4672143Y-3143143D01*
X4686429Y-3128857D01*
X4786429Y-3200286D02*
X4800714Y-3186000D01*
X4829286Y-3171714D01*
X4900714Y-3171714D01*
X4929286Y-3186000D01*
X4943571Y-3200286D01*
X4957857Y-3228857D01*
X4957857Y-3257428D01*
X4943571Y-3300286D01*
X4772143Y-3471714D01*
X4957857Y-3471714D01*
X5243571Y-3471714D02*
X5072143Y-3471714D01*
X5157857Y-3471714D02*
X5157857Y-3171714D01*
X5129286Y-3214571D01*
X5100714Y-3243143D01*
X5072143Y-3257428D01*
X5600714Y-3471714D02*
X5600714Y-3171714D01*
X5729286Y-3471714D02*
X5729286Y-3314571D01*
X5715000Y-3286000D01*
X5686428Y-3271714D01*
X5643571Y-3271714D01*
X5615000Y-3286000D01*
X5600714Y-3300286D01*
X5915000Y-3471714D02*
X5886428Y-3457428D01*
X5872143Y-3443143D01*
X5857857Y-3414571D01*
X5857857Y-3328857D01*
X5872143Y-3300286D01*
X5886428Y-3286000D01*
X5915000Y-3271714D01*
X5957857Y-3271714D01*
X5986428Y-3286000D01*
X6000714Y-3300286D01*
X6015000Y-3328857D01*
X6015000Y-3414571D01*
X6000714Y-3443143D01*
X5986428Y-3457428D01*
X5957857Y-3471714D01*
X5915000Y-3471714D01*
X6186428Y-3471714D02*
X6157857Y-3457428D01*
X6143571Y-3428857D01*
X6143571Y-3171714D01*
X6415000Y-3457428D02*
X6386428Y-3471714D01*
X6329286Y-3471714D01*
X6300714Y-3457428D01*
X6286428Y-3428857D01*
X6286428Y-3314571D01*
X6300714Y-3286000D01*
X6329286Y-3271714D01*
X6386428Y-3271714D01*
X6415000Y-3286000D01*
X6429286Y-3314571D01*
X6429286Y-3343143D01*
X6286428Y-3371714D01*
X6543571Y-3457428D02*
X6572143Y-3471714D01*
X6629286Y-3471714D01*
X6657857Y-3457428D01*
X6672143Y-3428857D01*
X6672143Y-3414571D01*
X6657857Y-3386000D01*
X6629286Y-3371714D01*
X6586428Y-3371714D01*
X6557857Y-3357428D01*
X6543571Y-3328857D01*
X6543571Y-3314571D01*
X6557857Y-3286000D01*
X6586428Y-3271714D01*
X6629286Y-3271714D01*
X6657857Y-3286000D01*
X7029286Y-3357428D02*
X7257857Y-3357428D01*
X7143571Y-3471714D02*
X7143571Y-3243143D01*
X7757857Y-3271714D02*
X7757857Y-3471714D01*
X7686428Y-3157428D02*
X7615000Y-3371714D01*
X7800714Y-3371714D01*
X8129286Y-3457428D02*
X8157857Y-3471714D01*
X8215000Y-3471714D01*
X8243571Y-3457428D01*
X8257857Y-3428857D01*
X8257857Y-3414571D01*
X8243571Y-3386000D01*
X8215000Y-3371714D01*
X8172143Y-3371714D01*
X8143571Y-3357428D01*
X8129286Y-3328857D01*
X8129286Y-3314571D01*
X8143571Y-3286000D01*
X8172143Y-3271714D01*
X8215000Y-3271714D01*
X8243571Y-3286000D01*
X8429286Y-3471714D02*
X8400714Y-3457428D01*
X8386428Y-3428857D01*
X8386428Y-3171714D01*
X8586429Y-3471714D02*
X8557857Y-3457428D01*
X8543571Y-3443143D01*
X8529286Y-3414571D01*
X8529286Y-3328857D01*
X8543571Y-3300286D01*
X8557857Y-3286000D01*
X8586429Y-3271714D01*
X8629286Y-3271714D01*
X8657857Y-3286000D01*
X8672143Y-3300286D01*
X8686429Y-3328857D01*
X8686429Y-3414571D01*
X8672143Y-3443143D01*
X8657857Y-3457428D01*
X8629286Y-3471714D01*
X8586429Y-3471714D01*
X8772143Y-3271714D02*
X8886429Y-3271714D01*
X8815000Y-3171714D02*
X8815000Y-3428857D01*
X8829286Y-3457428D01*
X8857857Y-3471714D01*
X8886429Y-3471714D01*
X8972143Y-3457428D02*
X9000714Y-3471714D01*
X9057857Y-3471714D01*
X9086429Y-3457428D01*
X9100714Y-3428857D01*
X9100714Y-3414571D01*
X9086429Y-3386000D01*
X9057857Y-3371714D01*
X9015000Y-3371714D01*
X8986429Y-3357428D01*
X8972143Y-3328857D01*
X8972143Y-3314571D01*
X8986429Y-3286000D01*
X9015000Y-3271714D01*
X9057857Y-3271714D01*
X9086429Y-3286000D01*
X9200714Y-3586000D02*
X9215000Y-3571714D01*
X9243571Y-3528857D01*
X9257857Y-3500286D01*
X9272143Y-3457428D01*
X9286429Y-3386000D01*
X9286429Y-3328857D01*
X9272143Y-3257428D01*
X9257857Y-3214571D01*
X9243571Y-3186000D01*
X9215000Y-3143143D01*
X9200714Y-3128857D01*
X-110000Y-3677000D02*
X0Y-3787000D01*
X0Y-3677000D02*
X-110000Y-3787000D01*
X-16109Y-3770891D02*
X-16109Y-3693109D01*
X-93891Y-3693109D01*
X-93891Y-3770891D01*
X-16109Y-3770891D01*
X443571Y-3867714D02*
X272143Y-3867714D01*
X357857Y-3867714D02*
X357857Y-3567714D01*
X329286Y-3610571D01*
X300714Y-3639143D01*
X272143Y-3653428D01*
X572143Y-3839143D02*
X586429Y-3853428D01*
X572143Y-3867714D01*
X557857Y-3853428D01*
X572143Y-3839143D01*
X572143Y-3867714D01*
X872143Y-3867714D02*
X700714Y-3867714D01*
X786428Y-3867714D02*
X786428Y-3567714D01*
X757857Y-3610571D01*
X729286Y-3639143D01*
X700714Y-3653428D01*
X1057857Y-3567714D02*
X1086429Y-3567714D01*
X1115000Y-3582000D01*
X1129286Y-3596286D01*
X1143571Y-3624857D01*
X1157857Y-3682000D01*
X1157857Y-3753428D01*
X1143571Y-3810571D01*
X1129286Y-3839143D01*
X1115000Y-3853428D01*
X1086429Y-3867714D01*
X1057857Y-3867714D01*
X1029286Y-3853428D01*
X1015000Y-3839143D01*
X1000714Y-3810571D01*
X986428Y-3753428D01*
X986428Y-3682000D01*
X1000714Y-3624857D01*
X1015000Y-3596286D01*
X1029286Y-3582000D01*
X1057857Y-3567714D01*
X1286429Y-3867714D02*
X1286429Y-3667714D01*
X1286429Y-3696286D02*
X1300714Y-3682000D01*
X1329286Y-3667714D01*
X1372143Y-3667714D01*
X1400714Y-3682000D01*
X1415000Y-3710571D01*
X1415000Y-3867714D01*
X1415000Y-3710571D02*
X1429286Y-3682000D01*
X1457857Y-3667714D01*
X1500714Y-3667714D01*
X1529286Y-3682000D01*
X1543571Y-3710571D01*
X1543571Y-3867714D01*
X1686428Y-3867714D02*
X1686428Y-3667714D01*
X1686428Y-3696286D02*
X1700714Y-3682000D01*
X1729286Y-3667714D01*
X1772143Y-3667714D01*
X1800714Y-3682000D01*
X1815000Y-3710571D01*
X1815000Y-3867714D01*
X1815000Y-3710571D02*
X1829286Y-3682000D01*
X1857857Y-3667714D01*
X1900714Y-3667714D01*
X1929286Y-3682000D01*
X1943571Y-3710571D01*
X1943571Y-3867714D01*
X2529286Y-3553428D02*
X2272143Y-3939143D01*
X2915000Y-3567714D02*
X2943571Y-3567714D01*
X2972143Y-3582000D01*
X2986428Y-3596286D01*
X3000714Y-3624857D01*
X3015000Y-3682000D01*
X3015000Y-3753428D01*
X3000714Y-3810571D01*
X2986428Y-3839143D01*
X2972143Y-3853428D01*
X2943571Y-3867714D01*
X2915000Y-3867714D01*
X2886428Y-3853428D01*
X2872143Y-3839143D01*
X2857857Y-3810571D01*
X2843571Y-3753428D01*
X2843571Y-3682000D01*
X2857857Y-3624857D01*
X2872143Y-3596286D01*
X2886428Y-3582000D01*
X2915000Y-3567714D01*
X3143571Y-3839143D02*
X3157857Y-3853428D01*
X3143571Y-3867714D01*
X3129286Y-3853428D01*
X3143571Y-3839143D01*
X3143571Y-3867714D01*
X3343571Y-3567714D02*
X3372143Y-3567714D01*
X3400714Y-3582000D01*
X3415000Y-3596286D01*
X3429286Y-3624857D01*
X3443571Y-3682000D01*
X3443571Y-3753428D01*
X3429286Y-3810571D01*
X3415000Y-3839143D01*
X3400714Y-3853428D01*
X3372143Y-3867714D01*
X3343571Y-3867714D01*
X3315000Y-3853428D01*
X3300714Y-3839143D01*
X3286428Y-3810571D01*
X3272143Y-3753428D01*
X3272143Y-3682000D01*
X3286428Y-3624857D01*
X3300714Y-3596286D01*
X3315000Y-3582000D01*
X3343571Y-3567714D01*
X3700714Y-3667714D02*
X3700714Y-3867714D01*
X3629286Y-3553428D02*
X3557857Y-3767714D01*
X3743571Y-3767714D01*
X3829286Y-3567714D02*
X4015000Y-3567714D01*
X3915000Y-3682000D01*
X3957857Y-3682000D01*
X3986428Y-3696286D01*
X4000714Y-3710571D01*
X4015000Y-3739143D01*
X4015000Y-3810571D01*
X4000714Y-3839143D01*
X3986428Y-3853428D01*
X3957857Y-3867714D01*
X3872143Y-3867714D01*
X3843571Y-3853428D01*
X3829286Y-3839143D01*
X4129286Y-3567714D02*
X4129286Y-3624857D01*
X4243571Y-3567714D02*
X4243571Y-3624857D01*
X4686429Y-3982000D02*
X4672143Y-3967714D01*
X4643571Y-3924857D01*
X4629286Y-3896286D01*
X4615000Y-3853428D01*
X4600714Y-3782000D01*
X4600714Y-3724857D01*
X4615000Y-3653428D01*
X4629286Y-3610571D01*
X4643571Y-3582000D01*
X4672143Y-3539143D01*
X4686429Y-3524857D01*
X4815000Y-3867714D02*
X4872143Y-3867714D01*
X4900714Y-3853428D01*
X4915000Y-3839143D01*
X4943571Y-3796286D01*
X4957857Y-3739143D01*
X4957857Y-3624857D01*
X4943571Y-3596286D01*
X4929286Y-3582000D01*
X4900714Y-3567714D01*
X4843571Y-3567714D01*
X4815000Y-3582000D01*
X4800714Y-3596286D01*
X4786429Y-3624857D01*
X4786429Y-3696286D01*
X4800714Y-3724857D01*
X4815000Y-3739143D01*
X4843571Y-3753428D01*
X4900714Y-3753428D01*
X4929286Y-3739143D01*
X4943571Y-3724857D01*
X4957857Y-3696286D01*
X5315000Y-3867714D02*
X5315000Y-3567714D01*
X5443571Y-3867714D02*
X5443571Y-3710571D01*
X5429286Y-3682000D01*
X5400714Y-3667714D01*
X5357857Y-3667714D01*
X5329286Y-3682000D01*
X5315000Y-3696286D01*
X5629286Y-3867714D02*
X5600714Y-3853428D01*
X5586429Y-3839143D01*
X5572143Y-3810571D01*
X5572143Y-3724857D01*
X5586429Y-3696286D01*
X5600714Y-3682000D01*
X5629286Y-3667714D01*
X5672143Y-3667714D01*
X5700714Y-3682000D01*
X5715000Y-3696286D01*
X5729286Y-3724857D01*
X5729286Y-3810571D01*
X5715000Y-3839143D01*
X5700714Y-3853428D01*
X5672143Y-3867714D01*
X5629286Y-3867714D01*
X5900714Y-3867714D02*
X5872143Y-3853428D01*
X5857857Y-3824857D01*
X5857857Y-3567714D01*
X6129286Y-3853428D02*
X6100714Y-3867714D01*
X6043571Y-3867714D01*
X6015000Y-3853428D01*
X6000714Y-3824857D01*
X6000714Y-3710571D01*
X6015000Y-3682000D01*
X6043571Y-3667714D01*
X6100714Y-3667714D01*
X6129286Y-3682000D01*
X6143571Y-3710571D01*
X6143571Y-3739143D01*
X6000714Y-3767714D01*
X6257857Y-3853428D02*
X6286428Y-3867714D01*
X6343571Y-3867714D01*
X6372143Y-3853428D01*
X6386428Y-3824857D01*
X6386428Y-3810571D01*
X6372143Y-3782000D01*
X6343571Y-3767714D01*
X6300714Y-3767714D01*
X6272143Y-3753428D01*
X6257857Y-3724857D01*
X6257857Y-3710571D01*
X6272143Y-3682000D01*
X6300714Y-3667714D01*
X6343571Y-3667714D01*
X6372143Y-3682000D01*
X6486428Y-3982000D02*
X6500714Y-3967714D01*
X6529286Y-3924857D01*
X6543571Y-3896286D01*
X6557857Y-3853428D01*
X6572143Y-3782000D01*
X6572143Y-3724857D01*
X6557857Y-3653428D01*
X6543571Y-3610571D01*
X6529286Y-3582000D01*
X6500714Y-3539143D01*
X6486428Y-3524857D01*
X-120000Y-4068000D02*
X0Y-4188000D01*
X0Y-4068000D02*
X-120000Y-4188000D01*
X-60000Y-4188000D02*
X0Y-4128000D01*
X-60000Y-4068000D01*
X-120000Y-4128000D01*
X-60000Y-4188000D01*
X443571Y-4263714D02*
X272143Y-4263714D01*
X357857Y-4263714D02*
X357857Y-3963714D01*
X329286Y-4006571D01*
X300714Y-4035143D01*
X272143Y-4049428D01*
X572143Y-4235143D02*
X586429Y-4249429D01*
X572143Y-4263714D01*
X557857Y-4249429D01*
X572143Y-4235143D01*
X572143Y-4263714D01*
X700714Y-3992286D02*
X715000Y-3978000D01*
X743571Y-3963714D01*
X815000Y-3963714D01*
X843571Y-3978000D01*
X857857Y-3992286D01*
X872143Y-4020857D01*
X872143Y-4049428D01*
X857857Y-4092286D01*
X686429Y-4263714D01*
X872143Y-4263714D01*
X1057857Y-3963714D02*
X1086429Y-3963714D01*
X1115000Y-3978000D01*
X1129286Y-3992286D01*
X1143571Y-4020857D01*
X1157857Y-4078000D01*
X1157857Y-4149428D01*
X1143571Y-4206571D01*
X1129286Y-4235143D01*
X1115000Y-4249429D01*
X1086429Y-4263714D01*
X1057857Y-4263714D01*
X1029286Y-4249429D01*
X1015000Y-4235143D01*
X1000714Y-4206571D01*
X986428Y-4149428D01*
X986428Y-4078000D01*
X1000714Y-4020857D01*
X1015000Y-3992286D01*
X1029286Y-3978000D01*
X1057857Y-3963714D01*
X1286429Y-4263714D02*
X1286429Y-4063714D01*
X1286429Y-4092286D02*
X1300714Y-4078000D01*
X1329286Y-4063714D01*
X1372143Y-4063714D01*
X1400714Y-4078000D01*
X1415000Y-4106571D01*
X1415000Y-4263714D01*
X1415000Y-4106571D02*
X1429286Y-4078000D01*
X1457857Y-4063714D01*
X1500714Y-4063714D01*
X1529286Y-4078000D01*
X1543571Y-4106571D01*
X1543571Y-4263714D01*
X1686428Y-4263714D02*
X1686428Y-4063714D01*
X1686428Y-4092286D02*
X1700714Y-4078000D01*
X1729286Y-4063714D01*
X1772143Y-4063714D01*
X1800714Y-4078000D01*
X1815000Y-4106571D01*
X1815000Y-4263714D01*
X1815000Y-4106571D02*
X1829286Y-4078000D01*
X1857857Y-4063714D01*
X1900714Y-4063714D01*
X1929286Y-4078000D01*
X1943571Y-4106571D01*
X1943571Y-4263714D01*
X2529286Y-3949428D02*
X2272143Y-4335143D01*
X2915000Y-3963714D02*
X2943571Y-3963714D01*
X2972143Y-3978000D01*
X2986428Y-3992286D01*
X3000714Y-4020857D01*
X3015000Y-4078000D01*
X3015000Y-4149428D01*
X3000714Y-4206571D01*
X2986428Y-4235143D01*
X2972143Y-4249429D01*
X2943571Y-4263714D01*
X2915000Y-4263714D01*
X2886428Y-4249429D01*
X2872143Y-4235143D01*
X2857857Y-4206571D01*
X2843571Y-4149428D01*
X2843571Y-4078000D01*
X2857857Y-4020857D01*
X2872143Y-3992286D01*
X2886428Y-3978000D01*
X2915000Y-3963714D01*
X3143571Y-4235143D02*
X3157857Y-4249429D01*
X3143571Y-4263714D01*
X3129286Y-4249429D01*
X3143571Y-4235143D01*
X3143571Y-4263714D01*
X3343571Y-3963714D02*
X3372143Y-3963714D01*
X3400714Y-3978000D01*
X3415000Y-3992286D01*
X3429286Y-4020857D01*
X3443571Y-4078000D01*
X3443571Y-4149428D01*
X3429286Y-4206571D01*
X3415000Y-4235143D01*
X3400714Y-4249429D01*
X3372143Y-4263714D01*
X3343571Y-4263714D01*
X3315000Y-4249429D01*
X3300714Y-4235143D01*
X3286428Y-4206571D01*
X3272143Y-4149428D01*
X3272143Y-4078000D01*
X3286428Y-4020857D01*
X3300714Y-3992286D01*
X3315000Y-3978000D01*
X3343571Y-3963714D01*
X3700714Y-4063714D02*
X3700714Y-4263714D01*
X3629286Y-3949428D02*
X3557857Y-4163714D01*
X3743571Y-4163714D01*
X3829286Y-3963714D02*
X4029286Y-3963714D01*
X3900714Y-4263714D01*
X4129286Y-3963714D02*
X4129286Y-4020857D01*
X4243571Y-3963714D02*
X4243571Y-4020857D01*
X4686429Y-4378000D02*
X4672143Y-4363714D01*
X4643571Y-4320857D01*
X4629286Y-4292286D01*
X4615000Y-4249429D01*
X4600714Y-4178000D01*
X4600714Y-4120857D01*
X4615000Y-4049428D01*
X4629286Y-4006571D01*
X4643571Y-3978000D01*
X4672143Y-3935143D01*
X4686429Y-3920857D01*
X4786429Y-3992286D02*
X4800714Y-3978000D01*
X4829286Y-3963714D01*
X4900714Y-3963714D01*
X4929286Y-3978000D01*
X4943571Y-3992286D01*
X4957857Y-4020857D01*
X4957857Y-4049428D01*
X4943571Y-4092286D01*
X4772143Y-4263714D01*
X4957857Y-4263714D01*
X5315000Y-4263714D02*
X5315000Y-3963714D01*
X5443571Y-4263714D02*
X5443571Y-4106571D01*
X5429286Y-4078000D01*
X5400714Y-4063714D01*
X5357857Y-4063714D01*
X5329286Y-4078000D01*
X5315000Y-4092286D01*
X5629286Y-4263714D02*
X5600714Y-4249429D01*
X5586429Y-4235143D01*
X5572143Y-4206571D01*
X5572143Y-4120857D01*
X5586429Y-4092286D01*
X5600714Y-4078000D01*
X5629286Y-4063714D01*
X5672143Y-4063714D01*
X5700714Y-4078000D01*
X5715000Y-4092286D01*
X5729286Y-4120857D01*
X5729286Y-4206571D01*
X5715000Y-4235143D01*
X5700714Y-4249429D01*
X5672143Y-4263714D01*
X5629286Y-4263714D01*
X5900714Y-4263714D02*
X5872143Y-4249429D01*
X5857857Y-4220857D01*
X5857857Y-3963714D01*
X6129286Y-4249429D02*
X6100714Y-4263714D01*
X6043571Y-4263714D01*
X6015000Y-4249429D01*
X6000714Y-4220857D01*
X6000714Y-4106571D01*
X6015000Y-4078000D01*
X6043571Y-4063714D01*
X6100714Y-4063714D01*
X6129286Y-4078000D01*
X6143571Y-4106571D01*
X6143571Y-4135143D01*
X6000714Y-4163714D01*
X6257857Y-4249429D02*
X6286428Y-4263714D01*
X6343571Y-4263714D01*
X6372143Y-4249429D01*
X6386428Y-4220857D01*
X6386428Y-4206571D01*
X6372143Y-4178000D01*
X6343571Y-4163714D01*
X6300714Y-4163714D01*
X6272143Y-4149428D01*
X6257857Y-4120857D01*
X6257857Y-4106571D01*
X6272143Y-4078000D01*
X6300714Y-4063714D01*
X6343571Y-4063714D01*
X6372143Y-4078000D01*
X6486428Y-4378000D02*
X6500714Y-4363714D01*
X6529286Y-4320857D01*
X6543571Y-4292286D01*
X6557857Y-4249429D01*
X6572143Y-4178000D01*
X6572143Y-4120857D01*
X6557857Y-4049428D01*
X6543571Y-4006571D01*
X6529286Y-3978000D01*
X6500714Y-3935143D01*
X6486428Y-3920857D01*
X-70000Y-4454000D02*
X-70000Y-4594000D01*
X-140000Y-4524000D02*
X0Y-4524000D01*
X0Y-4524000D02*
G75*
G03X0Y-4524000I-70000J0D01*
G01*
X443571Y-4659714D02*
X272143Y-4659714D01*
X357857Y-4659714D02*
X357857Y-4359714D01*
X329286Y-4402571D01*
X300714Y-4431143D01*
X272143Y-4445429D01*
X572143Y-4631143D02*
X586429Y-4645429D01*
X572143Y-4659714D01*
X557857Y-4645429D01*
X572143Y-4631143D01*
X572143Y-4659714D01*
X843571Y-4459714D02*
X843571Y-4659714D01*
X772143Y-4345429D02*
X700714Y-4559714D01*
X886428Y-4559714D01*
X1057857Y-4359714D02*
X1086429Y-4359714D01*
X1115000Y-4374000D01*
X1129286Y-4388286D01*
X1143571Y-4416857D01*
X1157857Y-4474000D01*
X1157857Y-4545429D01*
X1143571Y-4602571D01*
X1129286Y-4631143D01*
X1115000Y-4645429D01*
X1086429Y-4659714D01*
X1057857Y-4659714D01*
X1029286Y-4645429D01*
X1015000Y-4631143D01*
X1000714Y-4602571D01*
X986428Y-4545429D01*
X986428Y-4474000D01*
X1000714Y-4416857D01*
X1015000Y-4388286D01*
X1029286Y-4374000D01*
X1057857Y-4359714D01*
X1286429Y-4659714D02*
X1286429Y-4459714D01*
X1286429Y-4488286D02*
X1300714Y-4474000D01*
X1329286Y-4459714D01*
X1372143Y-4459714D01*
X1400714Y-4474000D01*
X1415000Y-4502571D01*
X1415000Y-4659714D01*
X1415000Y-4502571D02*
X1429286Y-4474000D01*
X1457857Y-4459714D01*
X1500714Y-4459714D01*
X1529286Y-4474000D01*
X1543571Y-4502571D01*
X1543571Y-4659714D01*
X1686428Y-4659714D02*
X1686428Y-4459714D01*
X1686428Y-4488286D02*
X1700714Y-4474000D01*
X1729286Y-4459714D01*
X1772143Y-4459714D01*
X1800714Y-4474000D01*
X1815000Y-4502571D01*
X1815000Y-4659714D01*
X1815000Y-4502571D02*
X1829286Y-4474000D01*
X1857857Y-4459714D01*
X1900714Y-4459714D01*
X1929286Y-4474000D01*
X1943571Y-4502571D01*
X1943571Y-4659714D01*
X2529286Y-4345429D02*
X2272143Y-4731143D01*
X2915000Y-4359714D02*
X2943571Y-4359714D01*
X2972143Y-4374000D01*
X2986428Y-4388286D01*
X3000714Y-4416857D01*
X3015000Y-4474000D01*
X3015000Y-4545429D01*
X3000714Y-4602571D01*
X2986428Y-4631143D01*
X2972143Y-4645429D01*
X2943571Y-4659714D01*
X2915000Y-4659714D01*
X2886428Y-4645429D01*
X2872143Y-4631143D01*
X2857857Y-4602571D01*
X2843571Y-4545429D01*
X2843571Y-4474000D01*
X2857857Y-4416857D01*
X2872143Y-4388286D01*
X2886428Y-4374000D01*
X2915000Y-4359714D01*
X3143571Y-4631143D02*
X3157857Y-4645429D01*
X3143571Y-4659714D01*
X3129286Y-4645429D01*
X3143571Y-4631143D01*
X3143571Y-4659714D01*
X3343571Y-4359714D02*
X3372143Y-4359714D01*
X3400714Y-4374000D01*
X3415000Y-4388286D01*
X3429286Y-4416857D01*
X3443571Y-4474000D01*
X3443571Y-4545429D01*
X3429286Y-4602571D01*
X3415000Y-4631143D01*
X3400714Y-4645429D01*
X3372143Y-4659714D01*
X3343571Y-4659714D01*
X3315000Y-4645429D01*
X3300714Y-4631143D01*
X3286428Y-4602571D01*
X3272143Y-4545429D01*
X3272143Y-4474000D01*
X3286428Y-4416857D01*
X3300714Y-4388286D01*
X3315000Y-4374000D01*
X3343571Y-4359714D01*
X3715000Y-4359714D02*
X3572143Y-4359714D01*
X3557857Y-4502571D01*
X3572143Y-4488286D01*
X3600714Y-4474000D01*
X3672143Y-4474000D01*
X3700714Y-4488286D01*
X3715000Y-4502571D01*
X3729286Y-4531143D01*
X3729286Y-4602571D01*
X3715000Y-4631143D01*
X3700714Y-4645429D01*
X3672143Y-4659714D01*
X3600714Y-4659714D01*
X3572143Y-4645429D01*
X3557857Y-4631143D01*
X4000714Y-4359714D02*
X3857857Y-4359714D01*
X3843571Y-4502571D01*
X3857857Y-4488286D01*
X3886428Y-4474000D01*
X3957857Y-4474000D01*
X3986428Y-4488286D01*
X4000714Y-4502571D01*
X4015000Y-4531143D01*
X4015000Y-4602571D01*
X4000714Y-4631143D01*
X3986428Y-4645429D01*
X3957857Y-4659714D01*
X3886428Y-4659714D01*
X3857857Y-4645429D01*
X3843571Y-4631143D01*
X4129286Y-4359714D02*
X4129286Y-4416857D01*
X4243571Y-4359714D02*
X4243571Y-4416857D01*
X4686429Y-4774000D02*
X4672143Y-4759714D01*
X4643571Y-4716857D01*
X4629286Y-4688286D01*
X4615000Y-4645429D01*
X4600714Y-4574000D01*
X4600714Y-4516857D01*
X4615000Y-4445429D01*
X4629286Y-4402571D01*
X4643571Y-4374000D01*
X4672143Y-4331143D01*
X4686429Y-4316857D01*
X4929286Y-4359714D02*
X4872143Y-4359714D01*
X4843571Y-4374000D01*
X4829286Y-4388286D01*
X4800714Y-4431143D01*
X4786429Y-4488286D01*
X4786429Y-4602571D01*
X4800714Y-4631143D01*
X4815000Y-4645429D01*
X4843571Y-4659714D01*
X4900714Y-4659714D01*
X4929286Y-4645429D01*
X4943571Y-4631143D01*
X4957857Y-4602571D01*
X4957857Y-4531143D01*
X4943571Y-4502571D01*
X4929286Y-4488286D01*
X4900714Y-4474000D01*
X4843571Y-4474000D01*
X4815000Y-4488286D01*
X4800714Y-4502571D01*
X4786429Y-4531143D01*
X5315000Y-4659714D02*
X5315000Y-4359714D01*
X5443571Y-4659714D02*
X5443571Y-4502571D01*
X5429286Y-4474000D01*
X5400714Y-4459714D01*
X5357857Y-4459714D01*
X5329286Y-4474000D01*
X5315000Y-4488286D01*
X5629286Y-4659714D02*
X5600714Y-4645429D01*
X5586429Y-4631143D01*
X5572143Y-4602571D01*
X5572143Y-4516857D01*
X5586429Y-4488286D01*
X5600714Y-4474000D01*
X5629286Y-4459714D01*
X5672143Y-4459714D01*
X5700714Y-4474000D01*
X5715000Y-4488286D01*
X5729286Y-4516857D01*
X5729286Y-4602571D01*
X5715000Y-4631143D01*
X5700714Y-4645429D01*
X5672143Y-4659714D01*
X5629286Y-4659714D01*
X5900714Y-4659714D02*
X5872143Y-4645429D01*
X5857857Y-4616857D01*
X5857857Y-4359714D01*
X6129286Y-4645429D02*
X6100714Y-4659714D01*
X6043571Y-4659714D01*
X6015000Y-4645429D01*
X6000714Y-4616857D01*
X6000714Y-4502571D01*
X6015000Y-4474000D01*
X6043571Y-4459714D01*
X6100714Y-4459714D01*
X6129286Y-4474000D01*
X6143571Y-4502571D01*
X6143571Y-4531143D01*
X6000714Y-4559714D01*
X6257857Y-4645429D02*
X6286428Y-4659714D01*
X6343571Y-4659714D01*
X6372143Y-4645429D01*
X6386428Y-4616857D01*
X6386428Y-4602571D01*
X6372143Y-4574000D01*
X6343571Y-4559714D01*
X6300714Y-4559714D01*
X6272143Y-4545429D01*
X6257857Y-4516857D01*
X6257857Y-4502571D01*
X6272143Y-4474000D01*
X6300714Y-4459714D01*
X6343571Y-4459714D01*
X6372143Y-4474000D01*
X6486428Y-4774000D02*
X6500714Y-4759714D01*
X6529286Y-4716857D01*
X6543571Y-4688286D01*
X6557857Y-4645429D01*
X6572143Y-4574000D01*
X6572143Y-4516857D01*
X6557857Y-4445429D01*
X6543571Y-4402571D01*
X6529286Y-4374000D01*
X6500714Y-4331143D01*
X6486428Y-4316857D01*
X-21966Y-4973034D02*
X-21966Y-4866967D01*
X-128033Y-4866967D01*
X-128033Y-4973034D01*
X-21966Y-4973034D01*
X0Y-4920000D02*
G75*
G03X0Y-4920000I-75000J0D01*
G01*
X443571Y-5055714D02*
X272143Y-5055714D01*
X357857Y-5055714D02*
X357857Y-4755714D01*
X329286Y-4798571D01*
X300714Y-4827143D01*
X272143Y-4841429D01*
X572143Y-5027143D02*
X586429Y-5041429D01*
X572143Y-5055714D01*
X557857Y-5041429D01*
X572143Y-5027143D01*
X572143Y-5055714D01*
X857857Y-4755714D02*
X715000Y-4755714D01*
X700714Y-4898571D01*
X715000Y-4884286D01*
X743571Y-4870000D01*
X815000Y-4870000D01*
X843571Y-4884286D01*
X857857Y-4898571D01*
X872143Y-4927143D01*
X872143Y-4998571D01*
X857857Y-5027143D01*
X843571Y-5041429D01*
X815000Y-5055714D01*
X743571Y-5055714D01*
X715000Y-5041429D01*
X700714Y-5027143D01*
X1057857Y-4755714D02*
X1086429Y-4755714D01*
X1115000Y-4770000D01*
X1129286Y-4784286D01*
X1143571Y-4812857D01*
X1157857Y-4870000D01*
X1157857Y-4941429D01*
X1143571Y-4998571D01*
X1129286Y-5027143D01*
X1115000Y-5041429D01*
X1086429Y-5055714D01*
X1057857Y-5055714D01*
X1029286Y-5041429D01*
X1015000Y-5027143D01*
X1000714Y-4998571D01*
X986428Y-4941429D01*
X986428Y-4870000D01*
X1000714Y-4812857D01*
X1015000Y-4784286D01*
X1029286Y-4770000D01*
X1057857Y-4755714D01*
X1286429Y-5055714D02*
X1286429Y-4855714D01*
X1286429Y-4884286D02*
X1300714Y-4870000D01*
X1329286Y-4855714D01*
X1372143Y-4855714D01*
X1400714Y-4870000D01*
X1415000Y-4898571D01*
X1415000Y-5055714D01*
X1415000Y-4898571D02*
X1429286Y-4870000D01*
X1457857Y-4855714D01*
X1500714Y-4855714D01*
X1529286Y-4870000D01*
X1543571Y-4898571D01*
X1543571Y-5055714D01*
X1686428Y-5055714D02*
X1686428Y-4855714D01*
X1686428Y-4884286D02*
X1700714Y-4870000D01*
X1729286Y-4855714D01*
X1772143Y-4855714D01*
X1800714Y-4870000D01*
X1815000Y-4898571D01*
X1815000Y-5055714D01*
X1815000Y-4898571D02*
X1829286Y-4870000D01*
X1857857Y-4855714D01*
X1900714Y-4855714D01*
X1929286Y-4870000D01*
X1943571Y-4898571D01*
X1943571Y-5055714D01*
X2529286Y-4741429D02*
X2272143Y-5127143D01*
X2915000Y-4755714D02*
X2943571Y-4755714D01*
X2972143Y-4770000D01*
X2986428Y-4784286D01*
X3000714Y-4812857D01*
X3015000Y-4870000D01*
X3015000Y-4941429D01*
X3000714Y-4998571D01*
X2986428Y-5027143D01*
X2972143Y-5041429D01*
X2943571Y-5055714D01*
X2915000Y-5055714D01*
X2886428Y-5041429D01*
X2872143Y-5027143D01*
X2857857Y-4998571D01*
X2843571Y-4941429D01*
X2843571Y-4870000D01*
X2857857Y-4812857D01*
X2872143Y-4784286D01*
X2886428Y-4770000D01*
X2915000Y-4755714D01*
X3143571Y-5027143D02*
X3157857Y-5041429D01*
X3143571Y-5055714D01*
X3129286Y-5041429D01*
X3143571Y-5027143D01*
X3143571Y-5055714D01*
X3343571Y-4755714D02*
X3372143Y-4755714D01*
X3400714Y-4770000D01*
X3415000Y-4784286D01*
X3429286Y-4812857D01*
X3443571Y-4870000D01*
X3443571Y-4941429D01*
X3429286Y-4998571D01*
X3415000Y-5027143D01*
X3400714Y-5041429D01*
X3372143Y-5055714D01*
X3343571Y-5055714D01*
X3315000Y-5041429D01*
X3300714Y-5027143D01*
X3286428Y-4998571D01*
X3272143Y-4941429D01*
X3272143Y-4870000D01*
X3286428Y-4812857D01*
X3300714Y-4784286D01*
X3315000Y-4770000D01*
X3343571Y-4755714D01*
X3715000Y-4755714D02*
X3572143Y-4755714D01*
X3557857Y-4898571D01*
X3572143Y-4884286D01*
X3600714Y-4870000D01*
X3672143Y-4870000D01*
X3700714Y-4884286D01*
X3715000Y-4898571D01*
X3729286Y-4927143D01*
X3729286Y-4998571D01*
X3715000Y-5027143D01*
X3700714Y-5041429D01*
X3672143Y-5055714D01*
X3600714Y-5055714D01*
X3572143Y-5041429D01*
X3557857Y-5027143D01*
X3872143Y-5055714D02*
X3929286Y-5055714D01*
X3957857Y-5041429D01*
X3972143Y-5027143D01*
X4000714Y-4984286D01*
X4015000Y-4927143D01*
X4015000Y-4812857D01*
X4000714Y-4784286D01*
X3986428Y-4770000D01*
X3957857Y-4755714D01*
X3900714Y-4755714D01*
X3872143Y-4770000D01*
X3857857Y-4784286D01*
X3843571Y-4812857D01*
X3843571Y-4884286D01*
X3857857Y-4912857D01*
X3872143Y-4927143D01*
X3900714Y-4941429D01*
X3957857Y-4941429D01*
X3986428Y-4927143D01*
X4000714Y-4912857D01*
X4015000Y-4884286D01*
X4129286Y-4755714D02*
X4129286Y-4812857D01*
X4243571Y-4755714D02*
X4243571Y-4812857D01*
X4686429Y-5170000D02*
X4672143Y-5155714D01*
X4643571Y-5112857D01*
X4629286Y-5084286D01*
X4615000Y-5041429D01*
X4600714Y-4970000D01*
X4600714Y-4912857D01*
X4615000Y-4841429D01*
X4629286Y-4798571D01*
X4643571Y-4770000D01*
X4672143Y-4727143D01*
X4686429Y-4712857D01*
X4857857Y-4755714D02*
X4886429Y-4755714D01*
X4915000Y-4770000D01*
X4929286Y-4784286D01*
X4943571Y-4812857D01*
X4957857Y-4870000D01*
X4957857Y-4941429D01*
X4943571Y-4998571D01*
X4929286Y-5027143D01*
X4915000Y-5041429D01*
X4886429Y-5055714D01*
X4857857Y-5055714D01*
X4829286Y-5041429D01*
X4815000Y-5027143D01*
X4800714Y-4998571D01*
X4786429Y-4941429D01*
X4786429Y-4870000D01*
X4800714Y-4812857D01*
X4815000Y-4784286D01*
X4829286Y-4770000D01*
X4857857Y-4755714D01*
X5315000Y-5055714D02*
X5315000Y-4755714D01*
X5443571Y-5055714D02*
X5443571Y-4898571D01*
X5429286Y-4870000D01*
X5400714Y-4855714D01*
X5357857Y-4855714D01*
X5329286Y-4870000D01*
X5315000Y-4884286D01*
X5629286Y-5055714D02*
X5600714Y-5041429D01*
X5586429Y-5027143D01*
X5572143Y-4998571D01*
X5572143Y-4912857D01*
X5586429Y-4884286D01*
X5600714Y-4870000D01*
X5629286Y-4855714D01*
X5672143Y-4855714D01*
X5700714Y-4870000D01*
X5715000Y-4884286D01*
X5729286Y-4912857D01*
X5729286Y-4998571D01*
X5715000Y-5027143D01*
X5700714Y-5041429D01*
X5672143Y-5055714D01*
X5629286Y-5055714D01*
X5900714Y-5055714D02*
X5872143Y-5041429D01*
X5857857Y-5012857D01*
X5857857Y-4755714D01*
X6129286Y-5041429D02*
X6100714Y-5055714D01*
X6043571Y-5055714D01*
X6015000Y-5041429D01*
X6000714Y-5012857D01*
X6000714Y-4898571D01*
X6015000Y-4870000D01*
X6043571Y-4855714D01*
X6100714Y-4855714D01*
X6129286Y-4870000D01*
X6143571Y-4898571D01*
X6143571Y-4927143D01*
X6000714Y-4955714D01*
X6257857Y-5041429D02*
X6286428Y-5055714D01*
X6343571Y-5055714D01*
X6372143Y-5041429D01*
X6386428Y-5012857D01*
X6386428Y-4998571D01*
X6372143Y-4970000D01*
X6343571Y-4955714D01*
X6300714Y-4955714D01*
X6272143Y-4941429D01*
X6257857Y-4912857D01*
X6257857Y-4898571D01*
X6272143Y-4870000D01*
X6300714Y-4855714D01*
X6343571Y-4855714D01*
X6372143Y-4870000D01*
X6743571Y-4941429D02*
X6972143Y-4941429D01*
X6857857Y-5055714D02*
X6857857Y-4827143D01*
X7329286Y-4784286D02*
X7343571Y-4770000D01*
X7372143Y-4755714D01*
X7443571Y-4755714D01*
X7472143Y-4770000D01*
X7486428Y-4784286D01*
X7500714Y-4812857D01*
X7500714Y-4841429D01*
X7486428Y-4884286D01*
X7315000Y-5055714D01*
X7500714Y-5055714D01*
X7843571Y-5041429D02*
X7872143Y-5055714D01*
X7929286Y-5055714D01*
X7957857Y-5041429D01*
X7972143Y-5012857D01*
X7972143Y-4998571D01*
X7957857Y-4970000D01*
X7929286Y-4955714D01*
X7886428Y-4955714D01*
X7857857Y-4941429D01*
X7843571Y-4912857D01*
X7843571Y-4898571D01*
X7857857Y-4870000D01*
X7886428Y-4855714D01*
X7929286Y-4855714D01*
X7957857Y-4870000D01*
X8143571Y-5055714D02*
X8115000Y-5041429D01*
X8100714Y-5012857D01*
X8100714Y-4755714D01*
X8300714Y-5055714D02*
X8272143Y-5041429D01*
X8257857Y-5027143D01*
X8243571Y-4998571D01*
X8243571Y-4912857D01*
X8257857Y-4884286D01*
X8272143Y-4870000D01*
X8300714Y-4855714D01*
X8343571Y-4855714D01*
X8372143Y-4870000D01*
X8386428Y-4884286D01*
X8400714Y-4912857D01*
X8400714Y-4998571D01*
X8386428Y-5027143D01*
X8372143Y-5041429D01*
X8343571Y-5055714D01*
X8300714Y-5055714D01*
X8486429Y-4855714D02*
X8600714Y-4855714D01*
X8529286Y-4755714D02*
X8529286Y-5012857D01*
X8543571Y-5041429D01*
X8572143Y-5055714D01*
X8600714Y-5055714D01*
X8686429Y-5041429D02*
X8715000Y-5055714D01*
X8772143Y-5055714D01*
X8800714Y-5041429D01*
X8815000Y-5012857D01*
X8815000Y-4998571D01*
X8800714Y-4970000D01*
X8772143Y-4955714D01*
X8729286Y-4955714D01*
X8700714Y-4941429D01*
X8686429Y-4912857D01*
X8686429Y-4898571D01*
X8700714Y-4870000D01*
X8729286Y-4855714D01*
X8772143Y-4855714D01*
X8800714Y-4870000D01*
X8915000Y-5170000D02*
X8929286Y-5155714D01*
X8957857Y-5112857D01*
X8972143Y-5084286D01*
X8986429Y-5041429D01*
X9000714Y-4970000D01*
X9000714Y-4912857D01*
X8986429Y-4841429D01*
X8972143Y-4798571D01*
X8957857Y-4770000D01*
X8929286Y-4727143D01*
X8915000Y-4712857D01*
X-100000Y-5416000D02*
X0Y-5316000D01*
X-100000Y-5216000D01*
X-200000Y-5316000D01*
X-100000Y-5416000D01*
X0Y-5316000D02*
G75*
G03X0Y-5316000I-100000J0D01*
G01*
X272143Y-5180286D02*
X286429Y-5166000D01*
X315000Y-5151714D01*
X386428Y-5151714D01*
X415000Y-5166000D01*
X429286Y-5180286D01*
X443571Y-5208857D01*
X443571Y-5237429D01*
X429286Y-5280286D01*
X257857Y-5451714D01*
X443571Y-5451714D01*
X572143Y-5423143D02*
X586429Y-5437429D01*
X572143Y-5451714D01*
X557857Y-5437429D01*
X572143Y-5423143D01*
X572143Y-5451714D01*
X772143Y-5151714D02*
X800714Y-5151714D01*
X829286Y-5166000D01*
X843571Y-5180286D01*
X857857Y-5208857D01*
X872143Y-5266000D01*
X872143Y-5337429D01*
X857857Y-5394571D01*
X843571Y-5423143D01*
X829286Y-5437429D01*
X800714Y-5451714D01*
X772143Y-5451714D01*
X743571Y-5437429D01*
X729286Y-5423143D01*
X715000Y-5394571D01*
X700714Y-5337429D01*
X700714Y-5266000D01*
X715000Y-5208857D01*
X729286Y-5180286D01*
X743571Y-5166000D01*
X772143Y-5151714D01*
X1057857Y-5151714D02*
X1086429Y-5151714D01*
X1115000Y-5166000D01*
X1129286Y-5180286D01*
X1143571Y-5208857D01*
X1157857Y-5266000D01*
X1157857Y-5337429D01*
X1143571Y-5394571D01*
X1129286Y-5423143D01*
X1115000Y-5437429D01*
X1086429Y-5451714D01*
X1057857Y-5451714D01*
X1029286Y-5437429D01*
X1015000Y-5423143D01*
X1000714Y-5394571D01*
X986428Y-5337429D01*
X986428Y-5266000D01*
X1000714Y-5208857D01*
X1015000Y-5180286D01*
X1029286Y-5166000D01*
X1057857Y-5151714D01*
X1286429Y-5451714D02*
X1286429Y-5251714D01*
X1286429Y-5280286D02*
X1300714Y-5266000D01*
X1329286Y-5251714D01*
X1372143Y-5251714D01*
X1400714Y-5266000D01*
X1415000Y-5294571D01*
X1415000Y-5451714D01*
X1415000Y-5294571D02*
X1429286Y-5266000D01*
X1457857Y-5251714D01*
X1500714Y-5251714D01*
X1529286Y-5266000D01*
X1543571Y-5294571D01*
X1543571Y-5451714D01*
X1686428Y-5451714D02*
X1686428Y-5251714D01*
X1686428Y-5280286D02*
X1700714Y-5266000D01*
X1729286Y-5251714D01*
X1772143Y-5251714D01*
X1800714Y-5266000D01*
X1815000Y-5294571D01*
X1815000Y-5451714D01*
X1815000Y-5294571D02*
X1829286Y-5266000D01*
X1857857Y-5251714D01*
X1900714Y-5251714D01*
X1929286Y-5266000D01*
X1943571Y-5294571D01*
X1943571Y-5451714D01*
X2529286Y-5137429D02*
X2272143Y-5523143D01*
X2915000Y-5151714D02*
X2943571Y-5151714D01*
X2972143Y-5166000D01*
X2986428Y-5180286D01*
X3000714Y-5208857D01*
X3015000Y-5266000D01*
X3015000Y-5337429D01*
X3000714Y-5394571D01*
X2986428Y-5423143D01*
X2972143Y-5437429D01*
X2943571Y-5451714D01*
X2915000Y-5451714D01*
X2886428Y-5437429D01*
X2872143Y-5423143D01*
X2857857Y-5394571D01*
X2843571Y-5337429D01*
X2843571Y-5266000D01*
X2857857Y-5208857D01*
X2872143Y-5180286D01*
X2886428Y-5166000D01*
X2915000Y-5151714D01*
X3143571Y-5423143D02*
X3157857Y-5437429D01*
X3143571Y-5451714D01*
X3129286Y-5437429D01*
X3143571Y-5423143D01*
X3143571Y-5451714D01*
X3343571Y-5151714D02*
X3372143Y-5151714D01*
X3400714Y-5166000D01*
X3415000Y-5180286D01*
X3429286Y-5208857D01*
X3443571Y-5266000D01*
X3443571Y-5337429D01*
X3429286Y-5394571D01*
X3415000Y-5423143D01*
X3400714Y-5437429D01*
X3372143Y-5451714D01*
X3343571Y-5451714D01*
X3315000Y-5437429D01*
X3300714Y-5423143D01*
X3286428Y-5394571D01*
X3272143Y-5337429D01*
X3272143Y-5266000D01*
X3286428Y-5208857D01*
X3300714Y-5180286D01*
X3315000Y-5166000D01*
X3343571Y-5151714D01*
X3543571Y-5151714D02*
X3743571Y-5151714D01*
X3615000Y-5451714D01*
X3872143Y-5451714D02*
X3929286Y-5451714D01*
X3957857Y-5437429D01*
X3972143Y-5423143D01*
X4000714Y-5380286D01*
X4015000Y-5323143D01*
X4015000Y-5208857D01*
X4000714Y-5180286D01*
X3986428Y-5166000D01*
X3957857Y-5151714D01*
X3900714Y-5151714D01*
X3872143Y-5166000D01*
X3857857Y-5180286D01*
X3843571Y-5208857D01*
X3843571Y-5280286D01*
X3857857Y-5308857D01*
X3872143Y-5323143D01*
X3900714Y-5337429D01*
X3957857Y-5337429D01*
X3986428Y-5323143D01*
X4000714Y-5308857D01*
X4015000Y-5280286D01*
X4129286Y-5151714D02*
X4129286Y-5208857D01*
X4243571Y-5151714D02*
X4243571Y-5208857D01*
X4686429Y-5566000D02*
X4672143Y-5551714D01*
X4643571Y-5508857D01*
X4629286Y-5480286D01*
X4615000Y-5437429D01*
X4600714Y-5366000D01*
X4600714Y-5308857D01*
X4615000Y-5237429D01*
X4629286Y-5194571D01*
X4643571Y-5166000D01*
X4672143Y-5123143D01*
X4686429Y-5108857D01*
X4843571Y-5280286D02*
X4815000Y-5266000D01*
X4800714Y-5251714D01*
X4786429Y-5223143D01*
X4786429Y-5208857D01*
X4800714Y-5180286D01*
X4815000Y-5166000D01*
X4843571Y-5151714D01*
X4900714Y-5151714D01*
X4929286Y-5166000D01*
X4943571Y-5180286D01*
X4957857Y-5208857D01*
X4957857Y-5223143D01*
X4943571Y-5251714D01*
X4929286Y-5266000D01*
X4900714Y-5280286D01*
X4843571Y-5280286D01*
X4815000Y-5294571D01*
X4800714Y-5308857D01*
X4786429Y-5337429D01*
X4786429Y-5394571D01*
X4800714Y-5423143D01*
X4815000Y-5437429D01*
X4843571Y-5451714D01*
X4900714Y-5451714D01*
X4929286Y-5437429D01*
X4943571Y-5423143D01*
X4957857Y-5394571D01*
X4957857Y-5337429D01*
X4943571Y-5308857D01*
X4929286Y-5294571D01*
X4900714Y-5280286D01*
X5315000Y-5451714D02*
X5315000Y-5151714D01*
X5443571Y-5451714D02*
X5443571Y-5294571D01*
X5429286Y-5266000D01*
X5400714Y-5251714D01*
X5357857Y-5251714D01*
X5329286Y-5266000D01*
X5315000Y-5280286D01*
X5629286Y-5451714D02*
X5600714Y-5437429D01*
X5586429Y-5423143D01*
X5572143Y-5394571D01*
X5572143Y-5308857D01*
X5586429Y-5280286D01*
X5600714Y-5266000D01*
X5629286Y-5251714D01*
X5672143Y-5251714D01*
X5700714Y-5266000D01*
X5715000Y-5280286D01*
X5729286Y-5308857D01*
X5729286Y-5394571D01*
X5715000Y-5423143D01*
X5700714Y-5437429D01*
X5672143Y-5451714D01*
X5629286Y-5451714D01*
X5900714Y-5451714D02*
X5872143Y-5437429D01*
X5857857Y-5408857D01*
X5857857Y-5151714D01*
X6129286Y-5437429D02*
X6100714Y-5451714D01*
X6043571Y-5451714D01*
X6015000Y-5437429D01*
X6000714Y-5408857D01*
X6000714Y-5294571D01*
X6015000Y-5266000D01*
X6043571Y-5251714D01*
X6100714Y-5251714D01*
X6129286Y-5266000D01*
X6143571Y-5294571D01*
X6143571Y-5323143D01*
X6000714Y-5351714D01*
X6257857Y-5437429D02*
X6286428Y-5451714D01*
X6343571Y-5451714D01*
X6372143Y-5437429D01*
X6386428Y-5408857D01*
X6386428Y-5394571D01*
X6372143Y-5366000D01*
X6343571Y-5351714D01*
X6300714Y-5351714D01*
X6272143Y-5337429D01*
X6257857Y-5308857D01*
X6257857Y-5294571D01*
X6272143Y-5266000D01*
X6300714Y-5251714D01*
X6343571Y-5251714D01*
X6372143Y-5266000D01*
X6486428Y-5566000D02*
X6500714Y-5551714D01*
X6529286Y-5508857D01*
X6543571Y-5480286D01*
X6557857Y-5437429D01*
X6572143Y-5366000D01*
X6572143Y-5308857D01*
X6557857Y-5237429D01*
X6543571Y-5194571D01*
X6529286Y-5166000D01*
X6500714Y-5123143D01*
X6486428Y-5108857D01*
M02*
