M48
; DRILL file {KiCad (5.1.4-0-10_14)} date 2020 February 28, Friday 18:02:04
; FORMAT={-:-/ absolute / inch / decimal}
; #@! TF.CreationDate,2020-02-28T18:02:04+01:00
; #@! TF.GenerationSoftware,Kicad,Pcbnew,(5.1.4-0-10_14)
; #@! TF.FileFunction,Plated,1,2,PTH
FMAT,2
INCH
T1C0.0276
T2C0.0295
T3C0.0300
T4C0.0315
T5C0.0320
T6C0.0374
T7C0.0394
T8C0.0433
T9C0.0472
T10C0.0551
T11C0.0591
T12C0.0787
%
G90
G05
T1
X7.959Y-1.8602
X8.259Y-1.8602
X8.3162Y-1.3362
X8.3162Y-1.6362
X8.1318Y-1.741
X8.4318Y-1.741
X8.1302Y-1.3442
X8.1302Y-1.6442
X11.1204Y-0.944
X11.1204Y-1.244
X9.0076Y-1.9458
X9.3076Y-1.9458
X10.1666Y-3.4206
X10.4666Y-3.4206
X8.1302Y-0.9398
X8.1302Y-1.2398
X9.4636Y-1.4114
X9.4636Y-1.7114
X9.6248Y-1.4098
X9.6248Y-1.7098
X7.7064Y-3.2402
X8.0064Y-3.2402
X10.0839Y-5.208
X10.3839Y-5.208
X7.7064Y-3.0408
X8.0064Y-3.1426
X8.0064Y-3.0408
X7.7064Y-3.1426
X10.9906Y-0.9442
X9.0426Y-2.9756
X9.3426Y-2.9756
X7.7074Y-3.349
X8.0074Y-3.349
X10.9906Y-1.2442
T2
X7.913Y-0.9378
X7.963Y-0.9378
X8.013Y-0.9378
X8.4594Y-1.8602
X8.5094Y-1.8602
X8.5594Y-1.8602
T3
X8.2426Y-2.7286
X8.2426Y-2.8286
X8.2426Y-2.9286
X8.2426Y-3.0286
X8.2426Y-3.1286
X8.2426Y-3.2286
X8.2426Y-3.3286
X8.2426Y-3.4286
X10.3422Y-2.5534
X10.3422Y-2.6534
X10.3422Y-2.7534
X10.3422Y-2.8534
X10.3422Y-2.9534
X10.3422Y-3.0534
X10.3422Y-3.1534
X10.3422Y-3.2534
T4
X9.5503Y-3.6756
X9.7432Y-3.6756
X10.637Y-4.8674
X10.8339Y-4.8674
X10.637Y-4.7316
X10.8339Y-4.7316
X4.342Y-1.663
X4.342Y-1.763
X4.342Y-1.863
X4.342Y-1.963
X4.342Y-2.063
X4.342Y-2.163
X4.342Y-2.263
X4.342Y-2.363
X4.342Y-2.463
X4.342Y-2.563
X4.342Y-2.663
X4.342Y-2.763
X4.342Y-2.863
X4.342Y-2.963
X4.342Y-3.063
X4.942Y-1.663
X4.942Y-1.763
X4.942Y-1.863
X4.942Y-1.963
X4.942Y-2.063
X4.942Y-2.163
X4.942Y-2.263
X4.942Y-2.363
X4.942Y-2.463
X4.942Y-2.563
X4.942Y-2.663
X4.942Y-2.763
X4.942Y-2.863
X4.942Y-2.963
X4.942Y-3.063
X10.5039Y-5.1135
X10.7008Y-5.1135
X8.915Y-1.4172
X8.915Y-1.7172
X9.015Y-1.4172
X9.015Y-1.7172
X9.115Y-1.4172
X9.115Y-1.7172
X9.215Y-1.4172
X9.215Y-1.7172
X9.7726Y-1.8166
X8.9062Y-2.332
X8.9062Y-2.632
X9.0062Y-2.332
X9.0062Y-2.632
X9.1062Y-2.332
X9.1062Y-2.632
X9.2062Y-2.332
X9.2062Y-2.632
X9.3062Y-2.332
X9.3062Y-2.632
X8.7438Y-3.1954
X8.7438Y-3.4954
X8.8438Y-3.1954
X8.8438Y-3.4954
X8.9438Y-3.1954
X8.9438Y-3.4954
X9.0438Y-3.1954
X9.0438Y-3.4954
X9.1438Y-3.1954
X9.1438Y-3.4954
X9.2438Y-3.1954
X9.2438Y-3.4954
X9.3438Y-3.1954
X9.3438Y-3.4954
X9.4438Y-3.1954
X9.4438Y-3.4954
X9.5438Y-3.1954
X9.5438Y-3.4954
X9.6438Y-3.1954
X9.6438Y-3.4954
X9.7438Y-3.1954
X9.7438Y-3.4954
X9.8438Y-3.1954
X9.4062Y-2.632
X9.6062Y-2.332
X9.8438Y-3.4954
X9.9438Y-3.4954
X9.5062Y-2.332
X9.1176Y-1.8482
X9.3145Y-1.8482
X9.9695Y-1.8166
X9.9438Y-3.1954
X10.0438Y-3.1954
X9.4062Y-2.332
X9.5062Y-2.632
X9.6062Y-2.632
X10.0438Y-3.4954
X7.9702Y-4.268
X7.9702Y-4.568
X8.0702Y-4.268
X8.0702Y-4.568
X8.1702Y-4.268
X8.1702Y-4.568
X8.2702Y-4.268
X8.2702Y-4.568
T5
X8.4706Y-3.8826
X8.4706Y-4.0826
X9.5741Y-3.8826
X9.5741Y-4.0826
X8.7706Y-3.8826
X8.7706Y-4.0826
X9.0296Y-3.8791
X9.0296Y-4.0791
X9.3296Y-3.8791
X9.3296Y-4.0791
X9.8741Y-3.8826
X9.8741Y-4.0826
T6
X7.505Y-2.9451
X7.505Y-3.0435
X7.505Y-3.142
X7.505Y-3.2404
T7
X10.4835Y-4.7552
X10.4835Y-4.8552
X10.4835Y-4.9552
X7.5018Y-3.5278
X7.5018Y-3.7278
X7.6018Y-3.5278
X7.6018Y-3.7278
X10.3004Y-4.7552
X10.3004Y-4.8552
X10.3004Y-4.9552
X7.5018Y-3.6278
X7.6018Y-3.6278
X10.7244Y-2.5591
X10.7244Y-3.13
X10.8228Y-3.13
X10.9213Y-2.5591
X10.9213Y-3.13
X10.1173Y-4.7552
X10.1173Y-4.8552
X10.1173Y-4.9552
X10.1173Y-5.0552
T8
X10.0582Y-0.945
X10.0582Y-1.045
X10.0582Y-1.145
X8.286Y-0.9478
X8.286Y-1.0478
X8.286Y-1.1478
X9.1616Y-0.95
X9.1616Y-1.05
X9.1616Y-1.15
T9
X10.6656Y-2.3074
X10.6656Y-2.4074
T10
X7.5964Y-1.9226
X7.5964Y-2.1226
X7.5916Y-0.9928
X7.5916Y-1.1897
X7.5916Y-1.3865
X7.5916Y-1.5834
T12
X8.2926Y-2.4786
X8.2926Y-3.6786
X10.2926Y-2.4786
X10.2926Y-3.6786
X8.2922Y-2.1284
X8.2922Y-3.6784
X10.2922Y-2.1284
X10.2922Y-3.6784
T7
G00X7.6751Y-2.3746
M15
G01X7.6161Y-2.3746
M16
G05
G00X7.6751Y-2.729
M15
G01X7.6161Y-2.729
M16
G05
G00X7.685Y-2.5262
M15
G01X7.685Y-2.5774
M16
G05
G00X7.9212Y-2.5124
M15
G01X7.9212Y-2.5912
M16
G05
T11
G00X10.6024Y-2.8603
M15
G01X10.6024Y-2.8091
M16
G05
G00X11.0433Y-2.8603
M15
G01X11.0433Y-2.8091
M16
G05
T0
M30
