G04 #@! TF.GenerationSoftware,KiCad,Pcbnew,(5.1.4-0-10_14)*
G04 #@! TF.CreationDate,2020-02-28T18:01:43+01:00*
G04 #@! TF.ProjectId,circuit,63697263-7569-4742-9e6b-696361645f70,rev?*
G04 #@! TF.SameCoordinates,Original*
G04 #@! TF.FileFunction,Legend,Top*
G04 #@! TF.FilePolarity,Positive*
%FSLAX46Y46*%
G04 Gerber Fmt 4.6, Leading zero omitted, Abs format (unit mm)*
G04 Created by KiCad (PCBNEW (5.1.4-0-10_14)) date 2020-02-28 18:01:43*
%MOMM*%
%LPD*%
G04 APERTURE LIST*
%ADD10C,0.150000*%
%ADD11C,0.120000*%
G04 APERTURE END LIST*
D10*
X290984842Y-55734592D02*
X290985196Y-55925068D01*
X291032992Y-56020217D01*
X291080700Y-56067747D01*
X291223734Y-56162720D01*
X291414298Y-56209984D01*
X291795250Y-56209276D01*
X291890399Y-56161480D01*
X291937930Y-56113772D01*
X291985372Y-56018446D01*
X291985017Y-55827970D01*
X291937221Y-55732821D01*
X291889514Y-55685290D01*
X291794187Y-55637848D01*
X291556092Y-55638291D01*
X291460943Y-55686087D01*
X291413413Y-55733795D01*
X291365971Y-55829121D01*
X291366325Y-56019597D01*
X291414121Y-56114746D01*
X291461829Y-56162277D01*
X291557155Y-56209719D01*
X291987408Y-57113682D02*
X291986523Y-56637492D01*
X291510245Y-56590759D01*
X291557952Y-56638289D01*
X291605748Y-56733439D01*
X291606191Y-56971534D01*
X291558749Y-57066860D01*
X291511219Y-57114568D01*
X291416069Y-57162364D01*
X291177974Y-57162806D01*
X291082648Y-57115365D01*
X291034940Y-57067834D01*
X290987144Y-56972685D01*
X290986702Y-56734590D01*
X291034143Y-56639264D01*
X291081674Y-56591556D01*
X291083534Y-57591554D02*
X291036003Y-57639262D01*
X290988296Y-57591731D01*
X291035826Y-57544024D01*
X291083534Y-57591554D01*
X290988296Y-57591731D01*
X291989977Y-58494632D02*
X291989622Y-58304156D01*
X291941826Y-58209007D01*
X291894119Y-58161476D01*
X291751085Y-58066504D01*
X291560520Y-58019239D01*
X291179569Y-58019948D01*
X291084419Y-58067744D01*
X291036889Y-58115451D01*
X290989447Y-58210778D01*
X290989801Y-58401254D01*
X291037597Y-58496403D01*
X291085305Y-58543934D01*
X291180631Y-58591375D01*
X291418726Y-58590933D01*
X291513875Y-58543137D01*
X291561406Y-58495429D01*
X291608848Y-58400103D01*
X291608493Y-58209627D01*
X291560697Y-58114477D01*
X291512990Y-58066947D01*
X291417663Y-58019505D01*
X291991305Y-59208916D02*
X291991482Y-59304154D01*
X291944040Y-59399481D01*
X291896510Y-59447188D01*
X291801360Y-59494985D01*
X291610973Y-59542958D01*
X291372878Y-59543401D01*
X291182314Y-59496136D01*
X291086987Y-59448694D01*
X291039280Y-59401164D01*
X290991484Y-59306014D01*
X290991307Y-59210776D01*
X291038748Y-59115450D01*
X291086279Y-59067742D01*
X291181428Y-59019946D01*
X291371816Y-58971973D01*
X291609910Y-58971530D01*
X291800475Y-59018795D01*
X291895801Y-59066237D01*
X291943509Y-59113767D01*
X291991305Y-59208916D01*
X291993519Y-60399391D02*
X291993165Y-60208915D01*
X291945369Y-60113765D01*
X291897661Y-60066235D01*
X291754627Y-59971263D01*
X291564063Y-59923998D01*
X291183111Y-59924706D01*
X291087961Y-59972503D01*
X291040431Y-60020210D01*
X290992989Y-60115537D01*
X290993343Y-60306012D01*
X291041140Y-60401162D01*
X291088847Y-60448692D01*
X291184174Y-60496134D01*
X291422268Y-60495691D01*
X291517418Y-60447895D01*
X291564948Y-60400188D01*
X291612390Y-60304861D01*
X291612036Y-60114385D01*
X291564240Y-60019236D01*
X291516532Y-59971706D01*
X291421206Y-59924264D01*
X290995912Y-61686962D02*
X291662577Y-61685723D01*
X291567339Y-61685900D02*
X291615047Y-61733430D01*
X291662843Y-61828579D01*
X291663109Y-61971436D01*
X291615667Y-62066763D01*
X291520517Y-62114559D01*
X290996709Y-62115533D01*
X291520517Y-62114559D02*
X291615844Y-62162001D01*
X291663640Y-62257150D01*
X291663906Y-62400007D01*
X291616464Y-62495334D01*
X291521314Y-62543130D01*
X290997506Y-62544104D01*
X290998391Y-63020293D02*
X291665057Y-63019054D01*
X291569819Y-63019231D02*
X291617526Y-63066761D01*
X291665322Y-63161911D01*
X291665588Y-63304767D01*
X291618146Y-63400094D01*
X291522997Y-63447890D01*
X290999188Y-63448864D01*
X291522997Y-63447890D02*
X291618323Y-63495332D01*
X291666119Y-63590481D01*
X291666385Y-63733338D01*
X291618943Y-63828665D01*
X291523794Y-63876461D01*
X290999985Y-63877435D01*
X290055852Y-11980981D02*
X290233652Y-107586581D01*
X285851600Y-11988800D02*
X290642271Y-11979891D01*
X286029400Y-107594400D02*
X290820071Y-107585491D01*
X290233652Y-107586581D02*
X289645137Y-106461170D01*
X290233652Y-107586581D02*
X290817977Y-106458989D01*
X290055852Y-11980981D02*
X289471527Y-13108573D01*
X290055852Y-11980981D02*
X290644367Y-13106392D01*
X349433961Y-95338680D02*
X348862532Y-95338680D01*
X349148247Y-95338680D02*
X349148247Y-94338680D01*
X349053009Y-94481538D01*
X348957770Y-94576776D01*
X348862532Y-94624395D01*
X350005390Y-94767252D02*
X349910151Y-94719633D01*
X349862532Y-94672014D01*
X349814913Y-94576776D01*
X349814913Y-94529157D01*
X349862532Y-94433919D01*
X349910151Y-94386300D01*
X350005390Y-94338680D01*
X350195866Y-94338680D01*
X350291104Y-94386300D01*
X350338723Y-94433919D01*
X350386342Y-94529157D01*
X350386342Y-94576776D01*
X350338723Y-94672014D01*
X350291104Y-94719633D01*
X350195866Y-94767252D01*
X350005390Y-94767252D01*
X349910151Y-94814871D01*
X349862532Y-94862490D01*
X349814913Y-94957728D01*
X349814913Y-95148204D01*
X349862532Y-95243442D01*
X349910151Y-95291061D01*
X350005390Y-95338680D01*
X350195866Y-95338680D01*
X350291104Y-95291061D01*
X350338723Y-95243442D01*
X350386342Y-95148204D01*
X350386342Y-94957728D01*
X350338723Y-94862490D01*
X350291104Y-94814871D01*
X350195866Y-94767252D01*
X350814913Y-95243442D02*
X350862532Y-95291061D01*
X350814913Y-95338680D01*
X350767294Y-95291061D01*
X350814913Y-95243442D01*
X350814913Y-95338680D01*
X351433961Y-94767252D02*
X351338723Y-94719633D01*
X351291104Y-94672014D01*
X351243485Y-94576776D01*
X351243485Y-94529157D01*
X351291104Y-94433919D01*
X351338723Y-94386300D01*
X351433961Y-94338680D01*
X351624437Y-94338680D01*
X351719675Y-94386300D01*
X351767294Y-94433919D01*
X351814913Y-94529157D01*
X351814913Y-94576776D01*
X351767294Y-94672014D01*
X351719675Y-94719633D01*
X351624437Y-94767252D01*
X351433961Y-94767252D01*
X351338723Y-94814871D01*
X351291104Y-94862490D01*
X351243485Y-94957728D01*
X351243485Y-95148204D01*
X351291104Y-95243442D01*
X351338723Y-95291061D01*
X351433961Y-95338680D01*
X351624437Y-95338680D01*
X351719675Y-95291061D01*
X351767294Y-95243442D01*
X351814913Y-95148204D01*
X351814913Y-94957728D01*
X351767294Y-94862490D01*
X351719675Y-94814871D01*
X351624437Y-94767252D01*
X352386342Y-94767252D02*
X352291104Y-94719633D01*
X352243485Y-94672014D01*
X352195866Y-94576776D01*
X352195866Y-94529157D01*
X352243485Y-94433919D01*
X352291104Y-94386300D01*
X352386342Y-94338680D01*
X352576818Y-94338680D01*
X352672056Y-94386300D01*
X352719675Y-94433919D01*
X352767294Y-94529157D01*
X352767294Y-94576776D01*
X352719675Y-94672014D01*
X352672056Y-94719633D01*
X352576818Y-94767252D01*
X352386342Y-94767252D01*
X352291104Y-94814871D01*
X352243485Y-94862490D01*
X352195866Y-94957728D01*
X352195866Y-95148204D01*
X352243485Y-95243442D01*
X352291104Y-95291061D01*
X352386342Y-95338680D01*
X352576818Y-95338680D01*
X352672056Y-95291061D01*
X352719675Y-95243442D01*
X352767294Y-95148204D01*
X352767294Y-94957728D01*
X352719675Y-94862490D01*
X352672056Y-94814871D01*
X352576818Y-94767252D01*
X353672056Y-94338680D02*
X353195866Y-94338680D01*
X353148247Y-94814871D01*
X353195866Y-94767252D01*
X353291104Y-94719633D01*
X353529199Y-94719633D01*
X353624437Y-94767252D01*
X353672056Y-94814871D01*
X353719675Y-94910109D01*
X353719675Y-95148204D01*
X353672056Y-95243442D01*
X353624437Y-95291061D01*
X353529199Y-95338680D01*
X353291104Y-95338680D01*
X353195866Y-95291061D01*
X353148247Y-95243442D01*
X354910151Y-95338680D02*
X354910151Y-94672014D01*
X354910151Y-94767252D02*
X354957770Y-94719633D01*
X355053009Y-94672014D01*
X355195866Y-94672014D01*
X355291104Y-94719633D01*
X355338723Y-94814871D01*
X355338723Y-95338680D01*
X355338723Y-94814871D02*
X355386342Y-94719633D01*
X355481580Y-94672014D01*
X355624437Y-94672014D01*
X355719675Y-94719633D01*
X355767294Y-94814871D01*
X355767294Y-95338680D01*
X356243485Y-95338680D02*
X356243485Y-94672014D01*
X356243485Y-94767252D02*
X356291104Y-94719633D01*
X356386342Y-94672014D01*
X356529199Y-94672014D01*
X356624437Y-94719633D01*
X356672056Y-94814871D01*
X356672056Y-95338680D01*
X356672056Y-94814871D02*
X356719675Y-94719633D01*
X356814913Y-94672014D01*
X356957770Y-94672014D01*
X357053009Y-94719633D01*
X357100628Y-94814871D01*
X357100628Y-95338680D01*
X343562940Y-93586300D02*
X362447840Y-93586300D01*
X343562940Y-76492100D02*
X343562940Y-94172721D01*
X362447840Y-76492100D02*
X362447840Y-94172721D01*
X362447840Y-93586300D02*
X361321336Y-94172721D01*
X362447840Y-93586300D02*
X361321336Y-92999879D01*
X343562940Y-93586300D02*
X344689444Y-94172721D01*
X343562940Y-93586300D02*
X344689444Y-92999879D01*
X361911153Y-75439500D02*
X362530201Y-75439500D01*
X362196868Y-75820453D01*
X362339725Y-75820453D01*
X362434963Y-75868072D01*
X362482582Y-75915691D01*
X362530201Y-76010929D01*
X362530201Y-76249024D01*
X362482582Y-76344262D01*
X362434963Y-76391881D01*
X362339725Y-76439500D01*
X362054010Y-76439500D01*
X361958772Y-76391881D01*
X361911153Y-76344262D01*
X362863534Y-75439500D02*
X363530201Y-75439500D01*
X363101630Y-76439500D01*
X363911153Y-76344262D02*
X363958772Y-76391881D01*
X363911153Y-76439500D01*
X363863534Y-76391881D01*
X363911153Y-76344262D01*
X363911153Y-76439500D01*
X364292106Y-75439500D02*
X364958772Y-75439500D01*
X364530201Y-76439500D01*
X365482582Y-75868072D02*
X365387344Y-75820453D01*
X365339725Y-75772834D01*
X365292106Y-75677596D01*
X365292106Y-75629977D01*
X365339725Y-75534739D01*
X365387344Y-75487120D01*
X365482582Y-75439500D01*
X365673058Y-75439500D01*
X365768296Y-75487120D01*
X365815915Y-75534739D01*
X365863534Y-75629977D01*
X365863534Y-75677596D01*
X365815915Y-75772834D01*
X365768296Y-75820453D01*
X365673058Y-75868072D01*
X365482582Y-75868072D01*
X365387344Y-75915691D01*
X365339725Y-75963310D01*
X365292106Y-76058548D01*
X365292106Y-76249024D01*
X365339725Y-76344262D01*
X365387344Y-76391881D01*
X365482582Y-76439500D01*
X365673058Y-76439500D01*
X365768296Y-76391881D01*
X365815915Y-76344262D01*
X365863534Y-76249024D01*
X365863534Y-76058548D01*
X365815915Y-75963310D01*
X365768296Y-75915691D01*
X365673058Y-75868072D01*
X366244487Y-75534739D02*
X366292106Y-75487120D01*
X366387344Y-75439500D01*
X366625439Y-75439500D01*
X366720677Y-75487120D01*
X366768296Y-75534739D01*
X366815915Y-75629977D01*
X366815915Y-75725215D01*
X366768296Y-75868072D01*
X366196868Y-76439500D01*
X366815915Y-76439500D01*
X368006391Y-76439500D02*
X368006391Y-75772834D01*
X368006391Y-75868072D02*
X368054010Y-75820453D01*
X368149249Y-75772834D01*
X368292106Y-75772834D01*
X368387344Y-75820453D01*
X368434963Y-75915691D01*
X368434963Y-76439500D01*
X368434963Y-75915691D02*
X368482582Y-75820453D01*
X368577820Y-75772834D01*
X368720677Y-75772834D01*
X368815915Y-75820453D01*
X368863534Y-75915691D01*
X368863534Y-76439500D01*
X369339725Y-76439500D02*
X369339725Y-75772834D01*
X369339725Y-75868072D02*
X369387344Y-75820453D01*
X369482582Y-75772834D01*
X369625439Y-75772834D01*
X369720677Y-75820453D01*
X369768296Y-75915691D01*
X369768296Y-76439500D01*
X369768296Y-75915691D02*
X369815915Y-75820453D01*
X369911153Y-75772834D01*
X370054010Y-75772834D01*
X370149249Y-75820453D01*
X370196868Y-75915691D01*
X370196868Y-76439500D01*
X347210380Y-77287120D02*
X384992880Y-77287120D01*
X347210380Y-81897220D02*
X347210380Y-76700699D01*
X384992880Y-81897220D02*
X384992880Y-76700699D01*
X384992880Y-77287120D02*
X383866376Y-77873541D01*
X384992880Y-77287120D02*
X383866376Y-76700699D01*
X347210380Y-77287120D02*
X348336884Y-77873541D01*
X347210380Y-77287120D02*
X348336884Y-76700699D01*
X389974901Y-100426300D02*
X389403472Y-100426300D01*
X389689187Y-100426300D02*
X389689187Y-99426300D01*
X389593949Y-99569158D01*
X389498710Y-99664396D01*
X389403472Y-99712015D01*
X390355853Y-99521539D02*
X390403472Y-99473920D01*
X390498710Y-99426300D01*
X390736806Y-99426300D01*
X390832044Y-99473920D01*
X390879663Y-99521539D01*
X390927282Y-99616777D01*
X390927282Y-99712015D01*
X390879663Y-99854872D01*
X390308234Y-100426300D01*
X390927282Y-100426300D01*
X391355853Y-100331062D02*
X391403472Y-100378681D01*
X391355853Y-100426300D01*
X391308234Y-100378681D01*
X391355853Y-100331062D01*
X391355853Y-100426300D01*
X392022520Y-99426300D02*
X392117758Y-99426300D01*
X392212996Y-99473920D01*
X392260615Y-99521539D01*
X392308234Y-99616777D01*
X392355853Y-99807253D01*
X392355853Y-100045348D01*
X392308234Y-100235824D01*
X392260615Y-100331062D01*
X392212996Y-100378681D01*
X392117758Y-100426300D01*
X392022520Y-100426300D01*
X391927282Y-100378681D01*
X391879663Y-100331062D01*
X391832044Y-100235824D01*
X391784425Y-100045348D01*
X391784425Y-99807253D01*
X391832044Y-99616777D01*
X391879663Y-99521539D01*
X391927282Y-99473920D01*
X392022520Y-99426300D01*
X392736806Y-99521539D02*
X392784425Y-99473920D01*
X392879663Y-99426300D01*
X393117758Y-99426300D01*
X393212996Y-99473920D01*
X393260615Y-99521539D01*
X393308234Y-99616777D01*
X393308234Y-99712015D01*
X393260615Y-99854872D01*
X392689187Y-100426300D01*
X393308234Y-100426300D01*
X393641568Y-99426300D02*
X394308234Y-99426300D01*
X393879663Y-100426300D01*
X395451091Y-100426300D02*
X395451091Y-99759634D01*
X395451091Y-99854872D02*
X395498710Y-99807253D01*
X395593949Y-99759634D01*
X395736806Y-99759634D01*
X395832044Y-99807253D01*
X395879663Y-99902491D01*
X395879663Y-100426300D01*
X395879663Y-99902491D02*
X395927282Y-99807253D01*
X396022520Y-99759634D01*
X396165377Y-99759634D01*
X396260615Y-99807253D01*
X396308234Y-99902491D01*
X396308234Y-100426300D01*
X396784425Y-100426300D02*
X396784425Y-99759634D01*
X396784425Y-99854872D02*
X396832044Y-99807253D01*
X396927282Y-99759634D01*
X397070139Y-99759634D01*
X397165377Y-99807253D01*
X397212996Y-99902491D01*
X397212996Y-100426300D01*
X397212996Y-99902491D02*
X397260615Y-99807253D01*
X397355853Y-99759634D01*
X397498710Y-99759634D01*
X397593949Y-99807253D01*
X397641568Y-99902491D01*
X397641568Y-100426300D01*
X399559780Y-98673920D02*
X387532880Y-98673920D01*
X399559780Y-64777620D02*
X399559780Y-99260341D01*
X387532880Y-64777620D02*
X387532880Y-99260341D01*
X387532880Y-98673920D02*
X388659384Y-98087499D01*
X387532880Y-98673920D02*
X388659384Y-99260341D01*
X399559780Y-98673920D02*
X398433276Y-98087499D01*
X399559780Y-98673920D02*
X398433276Y-99260341D01*
X343530953Y-98435700D02*
X343340477Y-98435700D01*
X343245239Y-98483320D01*
X343197620Y-98530939D01*
X343102382Y-98673796D01*
X343054763Y-98864272D01*
X343054763Y-99245224D01*
X343102382Y-99340462D01*
X343150001Y-99388081D01*
X343245239Y-99435700D01*
X343435715Y-99435700D01*
X343530953Y-99388081D01*
X343578572Y-99340462D01*
X343626191Y-99245224D01*
X343626191Y-99007129D01*
X343578572Y-98911891D01*
X343530953Y-98864272D01*
X343435715Y-98816653D01*
X343245239Y-98816653D01*
X343150001Y-98864272D01*
X343102382Y-98911891D01*
X343054763Y-99007129D01*
X344054763Y-99340462D02*
X344102382Y-99388081D01*
X344054763Y-99435700D01*
X344007144Y-99388081D01*
X344054763Y-99340462D01*
X344054763Y-99435700D01*
X344721430Y-98435700D02*
X344816668Y-98435700D01*
X344911906Y-98483320D01*
X344959525Y-98530939D01*
X345007144Y-98626177D01*
X345054763Y-98816653D01*
X345054763Y-99054748D01*
X345007144Y-99245224D01*
X344959525Y-99340462D01*
X344911906Y-99388081D01*
X344816668Y-99435700D01*
X344721430Y-99435700D01*
X344626191Y-99388081D01*
X344578572Y-99340462D01*
X344530953Y-99245224D01*
X344483334Y-99054748D01*
X344483334Y-98816653D01*
X344530953Y-98626177D01*
X344578572Y-98530939D01*
X344626191Y-98483320D01*
X344721430Y-98435700D01*
X345959525Y-98435700D02*
X345483334Y-98435700D01*
X345435715Y-98911891D01*
X345483334Y-98864272D01*
X345578572Y-98816653D01*
X345816668Y-98816653D01*
X345911906Y-98864272D01*
X345959525Y-98911891D01*
X346007144Y-99007129D01*
X346007144Y-99245224D01*
X345959525Y-99340462D01*
X345911906Y-99388081D01*
X345816668Y-99435700D01*
X345578572Y-99435700D01*
X345483334Y-99388081D01*
X345435715Y-99340462D01*
X346578572Y-98864272D02*
X346483334Y-98816653D01*
X346435715Y-98769034D01*
X346388096Y-98673796D01*
X346388096Y-98626177D01*
X346435715Y-98530939D01*
X346483334Y-98483320D01*
X346578572Y-98435700D01*
X346769049Y-98435700D01*
X346864287Y-98483320D01*
X346911906Y-98530939D01*
X346959525Y-98626177D01*
X346959525Y-98673796D01*
X346911906Y-98769034D01*
X346864287Y-98816653D01*
X346769049Y-98864272D01*
X346578572Y-98864272D01*
X346483334Y-98911891D01*
X346435715Y-98959510D01*
X346388096Y-99054748D01*
X346388096Y-99245224D01*
X346435715Y-99340462D01*
X346483334Y-99388081D01*
X346578572Y-99435700D01*
X346769049Y-99435700D01*
X346864287Y-99388081D01*
X346911906Y-99340462D01*
X346959525Y-99245224D01*
X346959525Y-99054748D01*
X346911906Y-98959510D01*
X346864287Y-98911891D01*
X346769049Y-98864272D01*
X348150001Y-99435700D02*
X348150001Y-98769034D01*
X348150001Y-98864272D02*
X348197620Y-98816653D01*
X348292858Y-98769034D01*
X348435715Y-98769034D01*
X348530953Y-98816653D01*
X348578572Y-98911891D01*
X348578572Y-99435700D01*
X348578572Y-98911891D02*
X348626191Y-98816653D01*
X348721430Y-98769034D01*
X348864287Y-98769034D01*
X348959525Y-98816653D01*
X349007144Y-98911891D01*
X349007144Y-99435700D01*
X349483334Y-99435700D02*
X349483334Y-98769034D01*
X349483334Y-98864272D02*
X349530953Y-98816653D01*
X349626191Y-98769034D01*
X349769049Y-98769034D01*
X349864287Y-98816653D01*
X349911906Y-98911891D01*
X349911906Y-99435700D01*
X349911906Y-98911891D02*
X349959525Y-98816653D01*
X350054763Y-98769034D01*
X350197620Y-98769034D01*
X350292858Y-98816653D01*
X350340477Y-98911891D01*
X350340477Y-99435700D01*
X343692480Y-97683320D02*
X349750380Y-97683320D01*
X343692480Y-64231520D02*
X343692480Y-98269741D01*
X349750380Y-64231520D02*
X349750380Y-98269741D01*
X349750380Y-97683320D02*
X348623876Y-98269741D01*
X349750380Y-97683320D02*
X348623876Y-97096899D01*
X343692480Y-97683320D02*
X344818984Y-98269741D01*
X343692480Y-97683320D02*
X344818984Y-97096899D01*
X365454382Y-77954100D02*
X364978191Y-77954100D01*
X364930572Y-78430291D01*
X364978191Y-78382672D01*
X365073430Y-78335053D01*
X365311525Y-78335053D01*
X365406763Y-78382672D01*
X365454382Y-78430291D01*
X365502001Y-78525529D01*
X365502001Y-78763624D01*
X365454382Y-78858862D01*
X365406763Y-78906481D01*
X365311525Y-78954100D01*
X365073430Y-78954100D01*
X364978191Y-78906481D01*
X364930572Y-78858862D01*
X366406763Y-77954100D02*
X365930572Y-77954100D01*
X365882953Y-78430291D01*
X365930572Y-78382672D01*
X366025810Y-78335053D01*
X366263906Y-78335053D01*
X366359144Y-78382672D01*
X366406763Y-78430291D01*
X366454382Y-78525529D01*
X366454382Y-78763624D01*
X366406763Y-78858862D01*
X366359144Y-78906481D01*
X366263906Y-78954100D01*
X366025810Y-78954100D01*
X365930572Y-78906481D01*
X365882953Y-78858862D01*
X366882953Y-78858862D02*
X366930572Y-78906481D01*
X366882953Y-78954100D01*
X366835334Y-78906481D01*
X366882953Y-78858862D01*
X366882953Y-78954100D01*
X367502001Y-78382672D02*
X367406763Y-78335053D01*
X367359144Y-78287434D01*
X367311525Y-78192196D01*
X367311525Y-78144577D01*
X367359144Y-78049339D01*
X367406763Y-78001720D01*
X367502001Y-77954100D01*
X367692477Y-77954100D01*
X367787715Y-78001720D01*
X367835334Y-78049339D01*
X367882953Y-78144577D01*
X367882953Y-78192196D01*
X367835334Y-78287434D01*
X367787715Y-78335053D01*
X367692477Y-78382672D01*
X367502001Y-78382672D01*
X367406763Y-78430291D01*
X367359144Y-78477910D01*
X367311525Y-78573148D01*
X367311525Y-78763624D01*
X367359144Y-78858862D01*
X367406763Y-78906481D01*
X367502001Y-78954100D01*
X367692477Y-78954100D01*
X367787715Y-78906481D01*
X367835334Y-78858862D01*
X367882953Y-78763624D01*
X367882953Y-78573148D01*
X367835334Y-78477910D01*
X367787715Y-78430291D01*
X367692477Y-78382672D01*
X368835334Y-78954100D02*
X368263906Y-78954100D01*
X368549620Y-78954100D02*
X368549620Y-77954100D01*
X368454382Y-78096958D01*
X368359144Y-78192196D01*
X368263906Y-78239815D01*
X369692477Y-77954100D02*
X369502001Y-77954100D01*
X369406763Y-78001720D01*
X369359144Y-78049339D01*
X369263906Y-78192196D01*
X369216287Y-78382672D01*
X369216287Y-78763624D01*
X369263906Y-78858862D01*
X369311525Y-78906481D01*
X369406763Y-78954100D01*
X369597239Y-78954100D01*
X369692477Y-78906481D01*
X369740096Y-78858862D01*
X369787715Y-78763624D01*
X369787715Y-78525529D01*
X369740096Y-78430291D01*
X369692477Y-78382672D01*
X369597239Y-78335053D01*
X369406763Y-78335053D01*
X369311525Y-78382672D01*
X369263906Y-78430291D01*
X369216287Y-78525529D01*
X370978191Y-78954100D02*
X370978191Y-78287434D01*
X370978191Y-78382672D02*
X371025810Y-78335053D01*
X371121049Y-78287434D01*
X371263906Y-78287434D01*
X371359144Y-78335053D01*
X371406763Y-78430291D01*
X371406763Y-78954100D01*
X371406763Y-78430291D02*
X371454382Y-78335053D01*
X371549620Y-78287434D01*
X371692477Y-78287434D01*
X371787715Y-78335053D01*
X371835334Y-78430291D01*
X371835334Y-78954100D01*
X372311525Y-78954100D02*
X372311525Y-78287434D01*
X372311525Y-78382672D02*
X372359144Y-78335053D01*
X372454382Y-78287434D01*
X372597239Y-78287434D01*
X372692477Y-78335053D01*
X372740096Y-78430291D01*
X372740096Y-78954100D01*
X372740096Y-78430291D02*
X372787715Y-78335053D01*
X372882953Y-78287434D01*
X373025810Y-78287434D01*
X373121049Y-78335053D01*
X373168668Y-78430291D01*
X373168668Y-78954100D01*
X341165180Y-79801720D02*
X396981680Y-79801720D01*
X341165180Y-84945220D02*
X341165180Y-79215299D01*
X396981680Y-84945220D02*
X396981680Y-79215299D01*
X396981680Y-79801720D02*
X395855176Y-80388141D01*
X396981680Y-79801720D02*
X395855176Y-79215299D01*
X341165180Y-79801720D02*
X342291684Y-80388141D01*
X341165180Y-79801720D02*
X342291684Y-79215299D01*
X231085260Y-5426180D02*
X230513832Y-5426180D01*
X230799546Y-5426180D02*
X230799546Y-4426180D01*
X230704308Y-4569038D01*
X230609070Y-4664276D01*
X230513832Y-4711895D01*
X231704308Y-4426180D02*
X231799546Y-4426180D01*
X231894784Y-4473800D01*
X231942403Y-4521419D01*
X231990022Y-4616657D01*
X232037641Y-4807133D01*
X232037641Y-5045228D01*
X231990022Y-5235704D01*
X231942403Y-5330942D01*
X231894784Y-5378561D01*
X231799546Y-5426180D01*
X231704308Y-5426180D01*
X231609070Y-5378561D01*
X231561451Y-5330942D01*
X231513832Y-5235704D01*
X231466213Y-5045228D01*
X231466213Y-4807133D01*
X231513832Y-4616657D01*
X231561451Y-4521419D01*
X231609070Y-4473800D01*
X231704308Y-4426180D01*
X232656689Y-4426180D02*
X232751927Y-4426180D01*
X232847165Y-4473800D01*
X232894784Y-4521419D01*
X232942403Y-4616657D01*
X232990022Y-4807133D01*
X232990022Y-5045228D01*
X232942403Y-5235704D01*
X232894784Y-5330942D01*
X232847165Y-5378561D01*
X232751927Y-5426180D01*
X232656689Y-5426180D01*
X232561451Y-5378561D01*
X232513832Y-5330942D01*
X232466213Y-5235704D01*
X232418594Y-5045228D01*
X232418594Y-4807133D01*
X232466213Y-4616657D01*
X232513832Y-4521419D01*
X232561451Y-4473800D01*
X232656689Y-4426180D01*
X233418594Y-5330942D02*
X233466213Y-5378561D01*
X233418594Y-5426180D01*
X233370975Y-5378561D01*
X233418594Y-5330942D01*
X233418594Y-5426180D01*
X234085260Y-4426180D02*
X234180499Y-4426180D01*
X234275737Y-4473800D01*
X234323356Y-4521419D01*
X234370975Y-4616657D01*
X234418594Y-4807133D01*
X234418594Y-5045228D01*
X234370975Y-5235704D01*
X234323356Y-5330942D01*
X234275737Y-5378561D01*
X234180499Y-5426180D01*
X234085260Y-5426180D01*
X233990022Y-5378561D01*
X233942403Y-5330942D01*
X233894784Y-5235704D01*
X233847165Y-5045228D01*
X233847165Y-4807133D01*
X233894784Y-4616657D01*
X233942403Y-4521419D01*
X233990022Y-4473800D01*
X234085260Y-4426180D01*
X234751927Y-4426180D02*
X235418594Y-4426180D01*
X234990022Y-5426180D01*
X236228118Y-4426180D02*
X236037641Y-4426180D01*
X235942403Y-4473800D01*
X235894784Y-4521419D01*
X235799546Y-4664276D01*
X235751927Y-4854752D01*
X235751927Y-5235704D01*
X235799546Y-5330942D01*
X235847165Y-5378561D01*
X235942403Y-5426180D01*
X236132880Y-5426180D01*
X236228118Y-5378561D01*
X236275737Y-5330942D01*
X236323356Y-5235704D01*
X236323356Y-4997609D01*
X236275737Y-4902371D01*
X236228118Y-4854752D01*
X236132880Y-4807133D01*
X235942403Y-4807133D01*
X235847165Y-4854752D01*
X235799546Y-4902371D01*
X235751927Y-4997609D01*
X237513832Y-5426180D02*
X237513832Y-4759514D01*
X237513832Y-4854752D02*
X237561451Y-4807133D01*
X237656689Y-4759514D01*
X237799546Y-4759514D01*
X237894784Y-4807133D01*
X237942403Y-4902371D01*
X237942403Y-5426180D01*
X237942403Y-4902371D02*
X237990022Y-4807133D01*
X238085260Y-4759514D01*
X238228118Y-4759514D01*
X238323356Y-4807133D01*
X238370975Y-4902371D01*
X238370975Y-5426180D01*
X238847165Y-5426180D02*
X238847165Y-4759514D01*
X238847165Y-4854752D02*
X238894784Y-4807133D01*
X238990022Y-4759514D01*
X239132880Y-4759514D01*
X239228118Y-4807133D01*
X239275737Y-4902371D01*
X239275737Y-5426180D01*
X239275737Y-4902371D02*
X239323356Y-4807133D01*
X239418594Y-4759514D01*
X239561451Y-4759514D01*
X239656689Y-4807133D01*
X239704308Y-4902371D01*
X239704308Y-5426180D01*
X285170880Y-6273800D02*
X185094880Y-6273800D01*
X285170880Y-7289800D02*
X285170880Y-5687379D01*
X185094880Y-7289800D02*
X185094880Y-5687379D01*
X185094880Y-6273800D02*
X186221384Y-5687379D01*
X185094880Y-6273800D02*
X186221384Y-6860221D01*
X285170880Y-6273800D02*
X284044376Y-5687379D01*
X285170880Y-6273800D02*
X284044376Y-6860221D01*
D11*
X262809800Y-132282640D02*
X261859800Y-132282640D01*
X257069800Y-132282640D02*
X258019800Y-132282640D01*
X261859800Y-131362640D02*
X258019800Y-131362640D01*
X261859800Y-133202640D02*
X261859800Y-131362640D01*
X258019800Y-133202640D02*
X261859800Y-133202640D01*
X258019800Y-131362640D02*
X258019800Y-133202640D01*
X264949800Y-119452640D02*
X266279800Y-119452640D01*
X264949800Y-120782640D02*
X264949800Y-119452640D01*
X264949800Y-122052640D02*
X267609800Y-122052640D01*
X267609800Y-122052640D02*
X267609800Y-127192640D01*
X264949800Y-122052640D02*
X264949800Y-127192640D01*
X264949800Y-127192640D02*
X267609800Y-127192640D01*
X260299800Y-119452640D02*
X261629800Y-119452640D01*
X260299800Y-120782640D02*
X260299800Y-119452640D01*
X260299800Y-122052640D02*
X262959800Y-122052640D01*
X262959800Y-122052640D02*
X262959800Y-127192640D01*
X260299800Y-122052640D02*
X260299800Y-127192640D01*
X260299800Y-127192640D02*
X262959800Y-127192640D01*
X255649800Y-119452640D02*
X256979800Y-119452640D01*
X255649800Y-120782640D02*
X255649800Y-119452640D01*
X255649800Y-122052640D02*
X258309800Y-122052640D01*
X258309800Y-122052640D02*
X258309800Y-129732640D01*
X255649800Y-122052640D02*
X255649800Y-129732640D01*
X255649800Y-129732640D02*
X258309800Y-129732640D01*
X274949800Y-124687640D02*
X274949800Y-124702640D01*
X274949800Y-122562640D02*
X274949800Y-122577640D01*
X270409800Y-124687640D02*
X270409800Y-124702640D01*
X270409800Y-122562640D02*
X270409800Y-122577640D01*
X270409800Y-124702640D02*
X274949800Y-124702640D01*
X270409800Y-122562640D02*
X274949800Y-122562640D01*
X271569800Y-130937640D02*
X271569800Y-130952640D01*
X271569800Y-128812640D02*
X271569800Y-128827640D01*
X267029800Y-130937640D02*
X267029800Y-130952640D01*
X267029800Y-128812640D02*
X267029800Y-128827640D01*
X267029800Y-130952640D02*
X271569800Y-130952640D01*
X267029800Y-128812640D02*
X271569800Y-128812640D01*
X274949800Y-121237640D02*
X274949800Y-121252640D01*
X274949800Y-119112640D02*
X274949800Y-119127640D01*
X270409800Y-121237640D02*
X270409800Y-121252640D01*
X270409800Y-119112640D02*
X270409800Y-119127640D01*
X270409800Y-121252640D02*
X274949800Y-121252640D01*
X270409800Y-119112640D02*
X274949800Y-119112640D01*
X211393080Y-114867200D02*
X211393080Y-113217200D01*
X201113080Y-114867200D02*
X211393080Y-114867200D01*
X201113080Y-109567200D02*
X201113080Y-114867200D01*
X211393080Y-109567200D02*
X201113080Y-109567200D01*
X211393080Y-111217200D02*
X211393080Y-109567200D01*
X211393080Y-113217200D02*
G75*
G02X211393080Y-111217200I0J1000000D01*
G01*
X208081880Y-95971360D02*
X208081880Y-51521360D01*
X263961880Y-95971360D02*
X208081880Y-95971360D01*
X263961880Y-51521360D02*
X263961880Y-95971360D01*
X208081880Y-51521360D02*
X263961880Y-51521360D01*
X204098678Y-25658598D02*
G75*
G03X202260200Y-21220120I-1838478J1838478D01*
G01*
X200421722Y-25658598D02*
G75*
G02X202260200Y-21220120I1838478J1838478D01*
G01*
X200460200Y-25670120D02*
X204060200Y-25670120D01*
X208092040Y-60416440D02*
X263972040Y-60416440D01*
X263972040Y-60416440D02*
X263972040Y-95976440D01*
X263972040Y-95976440D02*
X208092040Y-95976440D01*
X208092040Y-95976440D02*
X208092040Y-60416440D01*
X193237000Y-85216160D02*
X193237000Y-82716160D01*
X190737000Y-85216160D02*
X193237000Y-85216160D01*
X191437000Y-73196160D02*
X192937000Y-73196160D01*
X191437000Y-72196160D02*
X191437000Y-73196160D01*
X191437000Y-83916160D02*
X192937000Y-83916160D01*
X191437000Y-84916160D02*
X191437000Y-83916160D01*
X190627000Y-72696160D02*
X190627000Y-72196160D01*
X189417000Y-72696160D02*
X190627000Y-72696160D01*
X189417000Y-84416160D02*
X189417000Y-72696160D01*
X190627000Y-84416160D02*
X189417000Y-84416160D01*
X190627000Y-84916160D02*
X190627000Y-84416160D01*
X188917000Y-72196160D02*
X188917000Y-84916160D01*
X192937000Y-72196160D02*
X188917000Y-72196160D01*
X192937000Y-84916160D02*
X192937000Y-72196160D01*
X188917000Y-84916160D02*
X192937000Y-84916160D01*
X241902280Y-90835240D02*
G75*
G03X241902280Y-95885240I0J-2525000D01*
G01*
X248152280Y-90835240D02*
G75*
G02X248152280Y-95885240I0J-2525000D01*
G01*
X248152280Y-90835240D02*
X241902280Y-90835240D01*
X248152280Y-95885240D02*
X241902280Y-95885240D01*
X217977238Y-49087558D02*
G75*
G03X216138760Y-44649080I-1838478J1838478D01*
G01*
X214300282Y-49087558D02*
G75*
G02X216138760Y-44649080I1838478J1838478D01*
G01*
X214338760Y-49099080D02*
X217938760Y-49099080D01*
X277899760Y-72002000D02*
G75*
G03X277899760Y-72002000I-3000000J0D01*
G01*
X268999760Y-70002000D02*
X268999760Y-65902000D01*
X280799760Y-65902000D02*
X280799760Y-70002000D01*
X280799760Y-74002000D02*
X280799760Y-78102000D01*
X268999760Y-74002000D02*
X268999760Y-78102000D01*
X268999760Y-78102000D02*
X280799760Y-78102000D01*
X271099760Y-79502000D02*
X270799760Y-79802000D01*
X270799760Y-79802000D02*
X270799760Y-79202000D01*
X270799760Y-79202000D02*
X271099760Y-79502000D01*
X268999760Y-65902000D02*
X271399760Y-65902000D01*
X273599760Y-65902000D02*
X276199760Y-65902000D01*
X278399760Y-65902000D02*
X280799760Y-65902000D01*
X274399760Y-72002000D02*
X275399760Y-72002000D01*
X274899760Y-72502000D02*
X274899760Y-71502000D01*
X221503240Y-101158040D02*
G75*
G03X221503240Y-101158040I-2540000J0D01*
G01*
X215153240Y-104668040D02*
X215153240Y-104968040D01*
X222773240Y-104668040D02*
X222773240Y-104968040D01*
X215153240Y-99588040D02*
X215153240Y-102728040D01*
X222773240Y-99588040D02*
X222773240Y-102728040D01*
X215153240Y-97348040D02*
X215153240Y-97648040D01*
X222773240Y-104968040D02*
X215153240Y-104968040D01*
X222773240Y-97348040D02*
X222773240Y-97648040D01*
X215153240Y-97348040D02*
X222773240Y-97348040D01*
X235701840Y-101069140D02*
G75*
G03X235701840Y-101069140I-2540000J0D01*
G01*
X229351840Y-104579140D02*
X229351840Y-104879140D01*
X236971840Y-104579140D02*
X236971840Y-104879140D01*
X229351840Y-99499140D02*
X229351840Y-102639140D01*
X236971840Y-99499140D02*
X236971840Y-102639140D01*
X229351840Y-97259140D02*
X229351840Y-97559140D01*
X236971840Y-104879140D02*
X229351840Y-104879140D01*
X236971840Y-97259140D02*
X236971840Y-97559140D01*
X229351840Y-97259140D02*
X236971840Y-97259140D01*
X249532140Y-101158040D02*
G75*
G03X249532140Y-101158040I-2540000J0D01*
G01*
X243182140Y-104668040D02*
X243182140Y-104968040D01*
X250802140Y-104668040D02*
X250802140Y-104968040D01*
X243182140Y-99588040D02*
X243182140Y-102728040D01*
X250802140Y-99588040D02*
X250802140Y-102728040D01*
X243182140Y-97348040D02*
X243182140Y-97648040D01*
X250802140Y-104968040D02*
X243182140Y-104968040D01*
X250802140Y-97348040D02*
X250802140Y-97648040D01*
X243182140Y-97348040D02*
X250802140Y-97348040D01*
X196707960Y-85064600D02*
X197657960Y-85064600D01*
X202447960Y-85064600D02*
X201497960Y-85064600D01*
X197657960Y-85984600D02*
X201497960Y-85984600D01*
X197657960Y-84144600D02*
X197657960Y-85984600D01*
X201497960Y-84144600D02*
X197657960Y-84144600D01*
X201497960Y-85984600D02*
X201497960Y-84144600D01*
X236362040Y-75580240D02*
X235412040Y-75580240D01*
X230622040Y-75580240D02*
X231572040Y-75580240D01*
X235412040Y-74660240D02*
X231572040Y-74660240D01*
X235412040Y-76500240D02*
X235412040Y-74660240D01*
X231572040Y-76500240D02*
X235412040Y-76500240D01*
X231572040Y-74660240D02*
X231572040Y-76500240D01*
X196682560Y-77236320D02*
X197632560Y-77236320D01*
X202422560Y-77236320D02*
X201472560Y-77236320D01*
X197632560Y-78156320D02*
X201472560Y-78156320D01*
X197632560Y-76316320D02*
X197632560Y-78156320D01*
X201472560Y-76316320D02*
X197632560Y-76316320D01*
X201472560Y-78156320D02*
X201472560Y-76316320D01*
X196682560Y-79822040D02*
X197632560Y-79822040D01*
X202422560Y-79822040D02*
X201472560Y-79822040D01*
X197632560Y-80742040D02*
X201472560Y-80742040D01*
X197632560Y-78902040D02*
X197632560Y-80742040D01*
X201472560Y-78902040D02*
X197632560Y-78902040D01*
X201472560Y-80742040D02*
X201472560Y-78902040D01*
X196682560Y-82301080D02*
X197632560Y-82301080D01*
X202422560Y-82301080D02*
X201472560Y-82301080D01*
X197632560Y-83221080D02*
X201472560Y-83221080D01*
X197632560Y-81381080D02*
X197632560Y-83221080D01*
X201472560Y-81381080D02*
X197632560Y-81381080D01*
X201472560Y-83221080D02*
X201472560Y-81381080D01*
X208838600Y-47249080D02*
X207888600Y-47249080D01*
X203098600Y-47249080D02*
X204048600Y-47249080D01*
X207888600Y-46329080D02*
X204048600Y-46329080D01*
X207888600Y-48169080D02*
X207888600Y-46329080D01*
X204048600Y-48169080D02*
X207888600Y-48169080D01*
X204048600Y-46329080D02*
X204048600Y-48169080D01*
X211231480Y-34879480D02*
X211231480Y-35829480D01*
X211231480Y-40619480D02*
X211231480Y-39669480D01*
X210311480Y-35829480D02*
X210311480Y-39669480D01*
X212151480Y-35829480D02*
X210311480Y-35829480D01*
X212151480Y-39669480D02*
X212151480Y-35829480D01*
X210311480Y-39669480D02*
X212151480Y-39669480D01*
X213227720Y-44221400D02*
X212277720Y-44221400D01*
X207487720Y-44221400D02*
X208437720Y-44221400D01*
X212277720Y-43301400D02*
X208437720Y-43301400D01*
X212277720Y-45141400D02*
X212277720Y-43301400D01*
X208437720Y-45141400D02*
X212277720Y-45141400D01*
X208437720Y-43301400D02*
X208437720Y-45141400D01*
X206507080Y-35082680D02*
X206507080Y-36032680D01*
X206507080Y-40822680D02*
X206507080Y-39872680D01*
X205587080Y-36032680D02*
X205587080Y-39872680D01*
X207427080Y-36032680D02*
X205587080Y-36032680D01*
X207427080Y-39872680D02*
X207427080Y-36032680D01*
X205587080Y-39872680D02*
X207427080Y-39872680D01*
X258748280Y-28394000D02*
X257238280Y-28394000D01*
X258748280Y-24693000D02*
X257238280Y-24693000D01*
X257238280Y-21423000D02*
X257238280Y-31663000D01*
X258748280Y-31663000D02*
X254107280Y-31663000D01*
X258748280Y-21423000D02*
X254107280Y-21423000D01*
X254107280Y-21423000D02*
X254107280Y-31663000D01*
X258748280Y-21423000D02*
X258748280Y-31663000D01*
X235974640Y-28521000D02*
X234464640Y-28521000D01*
X235974640Y-24820000D02*
X234464640Y-24820000D01*
X234464640Y-21550000D02*
X234464640Y-31790000D01*
X235974640Y-31790000D02*
X231333640Y-31790000D01*
X235974640Y-21550000D02*
X231333640Y-21550000D01*
X231333640Y-21550000D02*
X231333640Y-31790000D01*
X235974640Y-21550000D02*
X235974640Y-31790000D01*
X189215720Y-88276120D02*
X190545720Y-88276120D01*
X189215720Y-89606120D02*
X189215720Y-88276120D01*
X191815720Y-88276120D02*
X194415720Y-88276120D01*
X191815720Y-90876120D02*
X191815720Y-88276120D01*
X189215720Y-90876120D02*
X191815720Y-90876120D01*
X194415720Y-88276120D02*
X194415720Y-96016120D01*
X189215720Y-90876120D02*
X189215720Y-96016120D01*
X189215720Y-96016120D02*
X194415720Y-96016120D01*
X198658560Y-48534040D02*
X198658560Y-49134040D01*
X198058560Y-48834040D02*
X198658560Y-48534040D01*
X198658560Y-49134040D02*
X198058560Y-48834040D01*
X190748560Y-56654040D02*
X190748560Y-55914040D01*
X196048560Y-56654040D02*
X190748560Y-56654040D01*
X196048560Y-46094040D02*
X196048560Y-56654040D01*
X190748560Y-46094040D02*
X196048560Y-46094040D01*
X190748560Y-46834040D02*
X190748560Y-46094040D01*
X190748560Y-50834040D02*
X190748560Y-51914040D01*
X196048560Y-54914040D02*
X196048560Y-52914040D01*
X197858560Y-54914040D02*
X196048560Y-54914040D01*
X197858560Y-52914040D02*
X197858560Y-54914040D01*
X196048560Y-52914040D02*
X197858560Y-52914040D01*
X196048560Y-49834040D02*
X196048560Y-47834040D01*
X197858560Y-49834040D02*
X196048560Y-49834040D01*
X197858560Y-47834040D02*
X197858560Y-49834040D01*
X196048560Y-47834040D02*
X197858560Y-47834040D01*
X197048560Y-49834040D02*
X197048560Y-52914040D01*
X197048560Y-57564040D02*
X197048560Y-55024040D01*
X197048560Y-45184040D02*
X197048560Y-47724040D01*
X197858560Y-57564040D02*
X197858560Y-45184040D01*
X189038560Y-57564040D02*
X197858560Y-57564040D01*
X189038560Y-45184040D02*
X189038560Y-57564040D01*
X197858560Y-45184040D02*
X189038560Y-45184040D01*
X190732739Y-55900881D02*
G75*
G02X190748560Y-51914040I1665821J1986841D01*
G01*
X190732739Y-50820881D02*
G75*
G02X190748560Y-46834040I1665821J1986841D01*
G01*
X202498480Y-63815720D02*
X202498480Y-65815720D01*
X189088480Y-59705720D02*
X192148480Y-59705720D01*
X189088480Y-69925720D02*
X189088480Y-59705720D01*
X192148480Y-69925720D02*
X189088480Y-69925720D01*
X202308480Y-69925720D02*
X196248480Y-69925720D01*
X202308480Y-67115720D02*
X202308480Y-69925720D01*
X202308480Y-59705720D02*
X202308480Y-62515720D01*
X196248480Y-59705720D02*
X202308480Y-59705720D01*
X198536640Y-24917120D02*
X198536640Y-25517120D01*
X197936640Y-25217120D02*
X198536640Y-24917120D01*
X198536640Y-25517120D02*
X197936640Y-25217120D01*
X190626640Y-42917120D02*
X190626640Y-42217120D01*
X195926640Y-42917120D02*
X190626640Y-42917120D01*
X195926640Y-22517120D02*
X195926640Y-42917120D01*
X190626640Y-22517120D02*
X195926640Y-22517120D01*
X190626640Y-23217120D02*
X190626640Y-22517120D01*
X190626640Y-37217120D02*
X190626640Y-38217120D01*
X190626640Y-32217120D02*
X190626640Y-33217120D01*
X190626640Y-27217120D02*
X190626640Y-28217120D01*
X195926640Y-41217120D02*
X195926640Y-39217120D01*
X197736640Y-41217120D02*
X195926640Y-41217120D01*
X197736640Y-39217120D02*
X197736640Y-41217120D01*
X195926640Y-39217120D02*
X197736640Y-39217120D01*
X195926640Y-36217120D02*
X195926640Y-34217120D01*
X197736640Y-36217120D02*
X195926640Y-36217120D01*
X197736640Y-34217120D02*
X197736640Y-36217120D01*
X195926640Y-34217120D02*
X197736640Y-34217120D01*
X195926640Y-31217120D02*
X195926640Y-29217120D01*
X197736640Y-31217120D02*
X195926640Y-31217120D01*
X197736640Y-29217120D02*
X197736640Y-31217120D01*
X195926640Y-29217120D02*
X197736640Y-29217120D01*
X195926640Y-26217120D02*
X195926640Y-24217120D01*
X197736640Y-26217120D02*
X195926640Y-26217120D01*
X197736640Y-24217120D02*
X197736640Y-26217120D01*
X195926640Y-24217120D02*
X197736640Y-24217120D01*
X196926640Y-36217120D02*
X196926640Y-39217120D01*
X196926640Y-31217120D02*
X196926640Y-34217120D01*
X196926640Y-26217120D02*
X196926640Y-29217120D01*
X196926640Y-43827120D02*
X196926640Y-41327120D01*
X196926640Y-21607120D02*
X196926640Y-24107120D01*
X197736640Y-43827120D02*
X197736640Y-21607120D01*
X188916640Y-43827120D02*
X197736640Y-43827120D01*
X188916640Y-21607120D02*
X188916640Y-43827120D01*
X197736640Y-21607120D02*
X188916640Y-21607120D01*
X190610819Y-42203961D02*
G75*
G02X190626640Y-38217120I1665821J1986841D01*
G01*
X190610819Y-37203961D02*
G75*
G02X190626640Y-33217120I1665821J1986841D01*
G01*
X190610819Y-32203961D02*
G75*
G02X190626640Y-28217120I1665821J1986841D01*
G01*
X190610819Y-27203961D02*
G75*
G02X190626640Y-23217120I1665821J1986841D01*
G01*
X225111000Y-37156880D02*
X225111000Y-38806880D01*
X235391000Y-37156880D02*
X225111000Y-37156880D01*
X235391000Y-42456880D02*
X235391000Y-37156880D01*
X225111000Y-42456880D02*
X235391000Y-42456880D01*
X225111000Y-40806880D02*
X225111000Y-42456880D01*
X225111000Y-38806880D02*
G75*
G02X225111000Y-40806880I0J-1000000D01*
G01*
X252994040Y-47196640D02*
X252994040Y-47211640D01*
X252994040Y-45071640D02*
X252994040Y-45086640D01*
X248454040Y-47196640D02*
X248454040Y-47211640D01*
X248454040Y-45071640D02*
X248454040Y-45086640D01*
X248454040Y-47211640D02*
X252994040Y-47211640D01*
X248454040Y-45071640D02*
X252994040Y-45071640D01*
X236357040Y-47999280D02*
X236357040Y-48014280D01*
X236357040Y-45874280D02*
X236357040Y-45889280D01*
X231817040Y-47999280D02*
X231817040Y-48014280D01*
X231817040Y-45874280D02*
X231817040Y-45889280D01*
X231817040Y-48014280D02*
X236357040Y-48014280D01*
X231817040Y-45874280D02*
X236357040Y-45874280D01*
X220762520Y-82323160D02*
X220762520Y-83973160D01*
X256442520Y-82323160D02*
X220762520Y-82323160D01*
X256442520Y-87623160D02*
X256442520Y-82323160D01*
X220762520Y-87623160D02*
X256442520Y-87623160D01*
X220762520Y-85973160D02*
X220762520Y-87623160D01*
X220762520Y-83973160D02*
G75*
G02X220762520Y-85973160I0J-1000000D01*
G01*
X224887480Y-60392800D02*
X224887480Y-62042800D01*
X245327480Y-60392800D02*
X224887480Y-60392800D01*
X245327480Y-65692800D02*
X245327480Y-60392800D01*
X224887480Y-65692800D02*
X245327480Y-65692800D01*
X224887480Y-64042800D02*
X224887480Y-65692800D01*
X224887480Y-62042800D02*
G75*
G02X224887480Y-64042800I0J-1000000D01*
G01*
X259171640Y-86883240D02*
X260121640Y-86883240D01*
X264911640Y-86883240D02*
X263961640Y-86883240D01*
X260121640Y-87803240D02*
X263961640Y-87803240D01*
X260121640Y-85963240D02*
X260121640Y-87803240D01*
X263961640Y-85963240D02*
X260121640Y-85963240D01*
X263961640Y-87803240D02*
X263961640Y-85963240D01*
X282458160Y-24917600D02*
X282458160Y-25867600D01*
X282458160Y-30657600D02*
X282458160Y-29707600D01*
X281538160Y-25867600D02*
X281538160Y-29707600D01*
X283378160Y-25867600D02*
X281538160Y-25867600D01*
X283378160Y-29707600D02*
X283378160Y-25867600D01*
X281538160Y-29707600D02*
X283378160Y-29707600D01*
X279161240Y-30662680D02*
X279161240Y-29712680D01*
X279161240Y-24922680D02*
X279161240Y-25872680D01*
X280081240Y-29712680D02*
X280081240Y-25872680D01*
X278241240Y-29712680D02*
X280081240Y-29712680D01*
X278241240Y-25872680D02*
X278241240Y-29712680D01*
X280081240Y-25872680D02*
X278241240Y-25872680D01*
X206507080Y-24810920D02*
X206507080Y-25760920D01*
X206507080Y-30550920D02*
X206507080Y-29600920D01*
X205587080Y-25760920D02*
X205587080Y-29600920D01*
X207427080Y-25760920D02*
X205587080Y-25760920D01*
X207427080Y-29600920D02*
X207427080Y-25760920D01*
X205587080Y-29600920D02*
X207427080Y-29600920D01*
X240375440Y-36789560D02*
X240375440Y-37739560D01*
X240375440Y-42529560D02*
X240375440Y-41579560D01*
X239455440Y-37739560D02*
X239455440Y-41579560D01*
X241295440Y-37739560D02*
X239455440Y-37739560D01*
X241295440Y-41579560D02*
X241295440Y-37739560D01*
X239455440Y-41579560D02*
X241295440Y-41579560D01*
X244469920Y-36748920D02*
X244469920Y-37698920D01*
X244469920Y-42488920D02*
X244469920Y-41538920D01*
X243549920Y-37698920D02*
X243549920Y-41538920D01*
X245389920Y-37698920D02*
X243549920Y-37698920D01*
X245389920Y-41538920D02*
X245389920Y-37698920D01*
X243549920Y-41538920D02*
X245389920Y-41538920D01*
X229733040Y-49423320D02*
X230683040Y-49423320D01*
X235473040Y-49423320D02*
X234523040Y-49423320D01*
X230683040Y-50343320D02*
X234523040Y-50343320D01*
X230683040Y-48503320D02*
X230683040Y-50343320D01*
X234523040Y-48503320D02*
X230683040Y-48503320D01*
X234523040Y-50343320D02*
X234523040Y-48503320D01*
X213734400Y-28465120D02*
X212224400Y-28465120D01*
X213734400Y-24764120D02*
X212224400Y-24764120D01*
X212224400Y-21494120D02*
X212224400Y-31734120D01*
X213734400Y-31734120D02*
X209093400Y-31734120D01*
X213734400Y-21494120D02*
X209093400Y-21494120D01*
X209093400Y-21494120D02*
X209093400Y-31734120D01*
X213734400Y-21494120D02*
X213734400Y-31734120D01*
X269711508Y-60064331D02*
G75*
G02X272026240Y-60122556I1194732J1456371D01*
G01*
X111556800Y-43510200D02*
X111556800Y-40970200D01*
X111556800Y-40970200D02*
X108886800Y-40970200D01*
X108886800Y-43510200D02*
X108886800Y-81740200D01*
X108886800Y-38300200D02*
X108886800Y-40970200D01*
X124256800Y-40970200D02*
X126926800Y-40970200D01*
X124256800Y-40970200D02*
X124256800Y-79070200D01*
X124256800Y-79070200D02*
X126926800Y-79070200D01*
X111556800Y-43510200D02*
X108886800Y-43510200D01*
X111556800Y-43510200D02*
X111556800Y-79070200D01*
X111556800Y-79070200D02*
X108886800Y-79070200D01*
X108886800Y-81740200D02*
X126926800Y-81740200D01*
X126926800Y-81740200D02*
X126926800Y-38300200D01*
X126926800Y-38300200D02*
X108886800Y-38300200D01*
D10*
X259773133Y-130815020D02*
X259439800Y-130338830D01*
X259201704Y-130815020D02*
X259201704Y-129815020D01*
X259582657Y-129815020D01*
X259677895Y-129862640D01*
X259725514Y-129910259D01*
X259773133Y-130005497D01*
X259773133Y-130148354D01*
X259725514Y-130243592D01*
X259677895Y-130291211D01*
X259582657Y-130338830D01*
X259201704Y-130338830D01*
X260249323Y-130815020D02*
X260439800Y-130815020D01*
X260535038Y-130767401D01*
X260582657Y-130719782D01*
X260677895Y-130576925D01*
X260725514Y-130386449D01*
X260725514Y-130005497D01*
X260677895Y-129910259D01*
X260630276Y-129862640D01*
X260535038Y-129815020D01*
X260344561Y-129815020D01*
X260249323Y-129862640D01*
X260201704Y-129910259D01*
X260154085Y-130005497D01*
X260154085Y-130243592D01*
X260201704Y-130338830D01*
X260249323Y-130386449D01*
X260344561Y-130434068D01*
X260535038Y-130434068D01*
X260630276Y-130386449D01*
X260677895Y-130338830D01*
X260725514Y-130243592D01*
X265446466Y-117905020D02*
X265446466Y-118619306D01*
X265398847Y-118762163D01*
X265303609Y-118857401D01*
X265160752Y-118905020D01*
X265065514Y-118905020D01*
X265922657Y-118905020D02*
X265922657Y-117905020D01*
X266303609Y-117905020D01*
X266398847Y-117952640D01*
X266446466Y-118000259D01*
X266494085Y-118095497D01*
X266494085Y-118238354D01*
X266446466Y-118333592D01*
X266398847Y-118381211D01*
X266303609Y-118428830D01*
X265922657Y-118428830D01*
X266875038Y-118000259D02*
X266922657Y-117952640D01*
X267017895Y-117905020D01*
X267255990Y-117905020D01*
X267351228Y-117952640D01*
X267398847Y-118000259D01*
X267446466Y-118095497D01*
X267446466Y-118190735D01*
X267398847Y-118333592D01*
X266827419Y-118905020D01*
X267446466Y-118905020D01*
X260796466Y-117905020D02*
X260796466Y-118619306D01*
X260748847Y-118762163D01*
X260653609Y-118857401D01*
X260510752Y-118905020D01*
X260415514Y-118905020D01*
X261272657Y-118905020D02*
X261272657Y-117905020D01*
X261653609Y-117905020D01*
X261748847Y-117952640D01*
X261796466Y-118000259D01*
X261844085Y-118095497D01*
X261844085Y-118238354D01*
X261796466Y-118333592D01*
X261748847Y-118381211D01*
X261653609Y-118428830D01*
X261272657Y-118428830D01*
X262796466Y-118905020D02*
X262225038Y-118905020D01*
X262510752Y-118905020D02*
X262510752Y-117905020D01*
X262415514Y-118047878D01*
X262320276Y-118143116D01*
X262225038Y-118190735D01*
X256646466Y-117905020D02*
X256646466Y-118619306D01*
X256598847Y-118762163D01*
X256503609Y-118857401D01*
X256360752Y-118905020D01*
X256265514Y-118905020D01*
X257265514Y-118333592D02*
X257170276Y-118285973D01*
X257122657Y-118238354D01*
X257075038Y-118143116D01*
X257075038Y-118095497D01*
X257122657Y-118000259D01*
X257170276Y-117952640D01*
X257265514Y-117905020D01*
X257455990Y-117905020D01*
X257551228Y-117952640D01*
X257598847Y-118000259D01*
X257646466Y-118095497D01*
X257646466Y-118143116D01*
X257598847Y-118238354D01*
X257551228Y-118285973D01*
X257455990Y-118333592D01*
X257265514Y-118333592D01*
X257170276Y-118381211D01*
X257122657Y-118428830D01*
X257075038Y-118524068D01*
X257075038Y-118714544D01*
X257122657Y-118809782D01*
X257170276Y-118857401D01*
X257265514Y-118905020D01*
X257455990Y-118905020D01*
X257551228Y-118857401D01*
X257598847Y-118809782D01*
X257646466Y-118714544D01*
X257646466Y-118524068D01*
X257598847Y-118428830D01*
X257551228Y-118381211D01*
X257455990Y-118333592D01*
X272513133Y-121789782D02*
X272465514Y-121837401D01*
X272322657Y-121885020D01*
X272227419Y-121885020D01*
X272084561Y-121837401D01*
X271989323Y-121742163D01*
X271941704Y-121646925D01*
X271894085Y-121456449D01*
X271894085Y-121313592D01*
X271941704Y-121123116D01*
X271989323Y-121027878D01*
X272084561Y-120932640D01*
X272227419Y-120885020D01*
X272322657Y-120885020D01*
X272465514Y-120932640D01*
X272513133Y-120980259D01*
X273417895Y-120885020D02*
X272941704Y-120885020D01*
X272894085Y-121361211D01*
X272941704Y-121313592D01*
X273036942Y-121265973D01*
X273275038Y-121265973D01*
X273370276Y-121313592D01*
X273417895Y-121361211D01*
X273465514Y-121456449D01*
X273465514Y-121694544D01*
X273417895Y-121789782D01*
X273370276Y-121837401D01*
X273275038Y-121885020D01*
X273036942Y-121885020D01*
X272941704Y-121837401D01*
X272894085Y-121789782D01*
X269133133Y-128039782D02*
X269085514Y-128087401D01*
X268942657Y-128135020D01*
X268847419Y-128135020D01*
X268704561Y-128087401D01*
X268609323Y-127992163D01*
X268561704Y-127896925D01*
X268514085Y-127706449D01*
X268514085Y-127563592D01*
X268561704Y-127373116D01*
X268609323Y-127277878D01*
X268704561Y-127182640D01*
X268847419Y-127135020D01*
X268942657Y-127135020D01*
X269085514Y-127182640D01*
X269133133Y-127230259D01*
X269990276Y-127468354D02*
X269990276Y-128135020D01*
X269752180Y-127087401D02*
X269514085Y-127801687D01*
X270133133Y-127801687D01*
X272513133Y-118339782D02*
X272465514Y-118387401D01*
X272322657Y-118435020D01*
X272227419Y-118435020D01*
X272084561Y-118387401D01*
X271989323Y-118292163D01*
X271941704Y-118196925D01*
X271894085Y-118006449D01*
X271894085Y-117863592D01*
X271941704Y-117673116D01*
X271989323Y-117577878D01*
X272084561Y-117482640D01*
X272227419Y-117435020D01*
X272322657Y-117435020D01*
X272465514Y-117482640D01*
X272513133Y-117530259D01*
X272846466Y-117435020D02*
X273465514Y-117435020D01*
X273132180Y-117815973D01*
X273275038Y-117815973D01*
X273370276Y-117863592D01*
X273417895Y-117911211D01*
X273465514Y-118006449D01*
X273465514Y-118244544D01*
X273417895Y-118339782D01*
X273370276Y-118387401D01*
X273275038Y-118435020D01*
X272989323Y-118435020D01*
X272894085Y-118387401D01*
X272846466Y-118339782D01*
X211845460Y-112979104D02*
X212654984Y-112979104D01*
X212750222Y-112931485D01*
X212797841Y-112883866D01*
X212845460Y-112788628D01*
X212845460Y-112598152D01*
X212797841Y-112502914D01*
X212750222Y-112455295D01*
X212654984Y-112407676D01*
X211845460Y-112407676D01*
X212178794Y-111502914D02*
X212845460Y-111502914D01*
X211797841Y-111741009D02*
X212512127Y-111979104D01*
X212512127Y-111360057D01*
X233148546Y-67983740D02*
X233148546Y-68698026D01*
X233100927Y-68840883D01*
X233005689Y-68936121D01*
X232862832Y-68983740D01*
X232767594Y-68983740D01*
X233577118Y-68078979D02*
X233624737Y-68031360D01*
X233719975Y-67983740D01*
X233958070Y-67983740D01*
X234053308Y-68031360D01*
X234100927Y-68078979D01*
X234148546Y-68174217D01*
X234148546Y-68269455D01*
X234100927Y-68412312D01*
X233529499Y-68983740D01*
X234148546Y-68983740D01*
X202164961Y-20807739D02*
X202069723Y-20760120D01*
X201974485Y-20664881D01*
X201831628Y-20522024D01*
X201736390Y-20474405D01*
X201641152Y-20474405D01*
X201688771Y-20712500D02*
X201593533Y-20664881D01*
X201498295Y-20569643D01*
X201450676Y-20379167D01*
X201450676Y-20045834D01*
X201498295Y-19855358D01*
X201593533Y-19760120D01*
X201688771Y-19712500D01*
X201879247Y-19712500D01*
X201974485Y-19760120D01*
X202069723Y-19855358D01*
X202117342Y-20045834D01*
X202117342Y-20379167D01*
X202069723Y-20569643D01*
X201974485Y-20664881D01*
X201879247Y-20712500D01*
X201688771Y-20712500D01*
X202498295Y-19807739D02*
X202545914Y-19760120D01*
X202641152Y-19712500D01*
X202879247Y-19712500D01*
X202974485Y-19760120D01*
X203022104Y-19807739D01*
X203069723Y-19902977D01*
X203069723Y-19998215D01*
X203022104Y-20141072D01*
X202450676Y-20712500D01*
X203069723Y-20712500D01*
X233158706Y-76878820D02*
X233158706Y-77593106D01*
X233111087Y-77735963D01*
X233015849Y-77831201D01*
X232872992Y-77878820D01*
X232777754Y-77878820D01*
X233539659Y-76878820D02*
X234158706Y-76878820D01*
X233825373Y-77259773D01*
X233968230Y-77259773D01*
X234063468Y-77307392D01*
X234111087Y-77355011D01*
X234158706Y-77450249D01*
X234158706Y-77688344D01*
X234111087Y-77783582D01*
X234063468Y-77831201D01*
X233968230Y-77878820D01*
X233682516Y-77878820D01*
X233587278Y-77831201D01*
X233539659Y-77783582D01*
X187279380Y-78889493D02*
X187993666Y-78889493D01*
X188136523Y-78937112D01*
X188231761Y-79032350D01*
X188279380Y-79175207D01*
X188279380Y-79270445D01*
X187279380Y-77984731D02*
X187279380Y-78175207D01*
X187327000Y-78270445D01*
X187374619Y-78318064D01*
X187517476Y-78413302D01*
X187707952Y-78460921D01*
X188088904Y-78460921D01*
X188184142Y-78413302D01*
X188231761Y-78365683D01*
X188279380Y-78270445D01*
X188279380Y-78079969D01*
X188231761Y-77984731D01*
X188184142Y-77937112D01*
X188088904Y-77889493D01*
X187850809Y-77889493D01*
X187755571Y-77937112D01*
X187707952Y-77984731D01*
X187660333Y-78079969D01*
X187660333Y-78270445D01*
X187707952Y-78365683D01*
X187755571Y-78413302D01*
X187850809Y-78460921D01*
X244551089Y-96861430D02*
X244551089Y-97337620D01*
X244217756Y-96337620D02*
X244551089Y-96861430D01*
X244884422Y-96337620D01*
X245741565Y-97337620D02*
X245170137Y-97337620D01*
X245455851Y-97337620D02*
X245455851Y-96337620D01*
X245360613Y-96480478D01*
X245265375Y-96575716D01*
X245170137Y-96623335D01*
X215376855Y-43141460D02*
X215376855Y-43950984D01*
X215424474Y-44046222D01*
X215472093Y-44093841D01*
X215567331Y-44141460D01*
X215757807Y-44141460D01*
X215853045Y-44093841D01*
X215900664Y-44046222D01*
X215948283Y-43950984D01*
X215948283Y-43141460D01*
X216329236Y-43141460D02*
X216948283Y-43141460D01*
X216614950Y-43522413D01*
X216757807Y-43522413D01*
X216853045Y-43570032D01*
X216900664Y-43617651D01*
X216948283Y-43712889D01*
X216948283Y-43950984D01*
X216900664Y-44046222D01*
X216853045Y-44093841D01*
X216757807Y-44141460D01*
X216472093Y-44141460D01*
X216376855Y-44093841D01*
X216329236Y-44046222D01*
X268104521Y-78035333D02*
X268152140Y-77892476D01*
X268152140Y-77654380D01*
X268104521Y-77559142D01*
X268056902Y-77511523D01*
X267961664Y-77463904D01*
X267866426Y-77463904D01*
X267771188Y-77511523D01*
X267723569Y-77559142D01*
X267675950Y-77654380D01*
X267628331Y-77844857D01*
X267580712Y-77940095D01*
X267533093Y-77987714D01*
X267437855Y-78035333D01*
X267342617Y-78035333D01*
X267247379Y-77987714D01*
X267199760Y-77940095D01*
X267152140Y-77844857D01*
X267152140Y-77606761D01*
X267199760Y-77463904D01*
X267152140Y-77130571D02*
X268152140Y-76892476D01*
X267437855Y-76702000D01*
X268152140Y-76511523D01*
X267152140Y-76273428D01*
X267152140Y-75987714D02*
X267152140Y-75321047D01*
X268152140Y-75749619D01*
X217629906Y-96942801D02*
X217772763Y-96990420D01*
X218010859Y-96990420D01*
X218106097Y-96942801D01*
X218153716Y-96895182D01*
X218201335Y-96799944D01*
X218201335Y-96704706D01*
X218153716Y-96609468D01*
X218106097Y-96561849D01*
X218010859Y-96514230D01*
X217820382Y-96466611D01*
X217725144Y-96418992D01*
X217677525Y-96371373D01*
X217629906Y-96276135D01*
X217629906Y-96180897D01*
X217677525Y-96085659D01*
X217725144Y-96038040D01*
X217820382Y-95990420D01*
X218058478Y-95990420D01*
X218201335Y-96038040D01*
X218534668Y-95990420D02*
X218772763Y-96990420D01*
X218963240Y-96276135D01*
X219153716Y-96990420D01*
X219391811Y-95990420D01*
X219677525Y-95990420D02*
X220296573Y-95990420D01*
X219963240Y-96371373D01*
X220106097Y-96371373D01*
X220201335Y-96418992D01*
X220248954Y-96466611D01*
X220296573Y-96561849D01*
X220296573Y-96799944D01*
X220248954Y-96895182D01*
X220201335Y-96942801D01*
X220106097Y-96990420D01*
X219820382Y-96990420D01*
X219725144Y-96942801D01*
X219677525Y-96895182D01*
X231828506Y-96853901D02*
X231971363Y-96901520D01*
X232209459Y-96901520D01*
X232304697Y-96853901D01*
X232352316Y-96806282D01*
X232399935Y-96711044D01*
X232399935Y-96615806D01*
X232352316Y-96520568D01*
X232304697Y-96472949D01*
X232209459Y-96425330D01*
X232018982Y-96377711D01*
X231923744Y-96330092D01*
X231876125Y-96282473D01*
X231828506Y-96187235D01*
X231828506Y-96091997D01*
X231876125Y-95996759D01*
X231923744Y-95949140D01*
X232018982Y-95901520D01*
X232257078Y-95901520D01*
X232399935Y-95949140D01*
X232733268Y-95901520D02*
X232971363Y-96901520D01*
X233161840Y-96187235D01*
X233352316Y-96901520D01*
X233590411Y-95901520D01*
X233923744Y-95996759D02*
X233971363Y-95949140D01*
X234066601Y-95901520D01*
X234304697Y-95901520D01*
X234399935Y-95949140D01*
X234447554Y-95996759D01*
X234495173Y-96091997D01*
X234495173Y-96187235D01*
X234447554Y-96330092D01*
X233876125Y-96901520D01*
X234495173Y-96901520D01*
X245658806Y-96942801D02*
X245801663Y-96990420D01*
X246039759Y-96990420D01*
X246134997Y-96942801D01*
X246182616Y-96895182D01*
X246230235Y-96799944D01*
X246230235Y-96704706D01*
X246182616Y-96609468D01*
X246134997Y-96561849D01*
X246039759Y-96514230D01*
X245849282Y-96466611D01*
X245754044Y-96418992D01*
X245706425Y-96371373D01*
X245658806Y-96276135D01*
X245658806Y-96180897D01*
X245706425Y-96085659D01*
X245754044Y-96038040D01*
X245849282Y-95990420D01*
X246087378Y-95990420D01*
X246230235Y-96038040D01*
X246563568Y-95990420D02*
X246801663Y-96990420D01*
X246992140Y-96276135D01*
X247182616Y-96990420D01*
X247420711Y-95990420D01*
X248325473Y-96990420D02*
X247754044Y-96990420D01*
X248039759Y-96990420D02*
X248039759Y-95990420D01*
X247944520Y-96133278D01*
X247849282Y-96228516D01*
X247754044Y-96276135D01*
X198935102Y-87436980D02*
X198601769Y-86960790D01*
X198363674Y-87436980D02*
X198363674Y-86436980D01*
X198744626Y-86436980D01*
X198839864Y-86484600D01*
X198887483Y-86532219D01*
X198935102Y-86627457D01*
X198935102Y-86770314D01*
X198887483Y-86865552D01*
X198839864Y-86913171D01*
X198744626Y-86960790D01*
X198363674Y-86960790D01*
X199316055Y-86532219D02*
X199363674Y-86484600D01*
X199458912Y-86436980D01*
X199697007Y-86436980D01*
X199792245Y-86484600D01*
X199839864Y-86532219D01*
X199887483Y-86627457D01*
X199887483Y-86722695D01*
X199839864Y-86865552D01*
X199268436Y-87436980D01*
X199887483Y-87436980D01*
X200792245Y-86436980D02*
X200316055Y-86436980D01*
X200268436Y-86913171D01*
X200316055Y-86865552D01*
X200411293Y-86817933D01*
X200649388Y-86817933D01*
X200744626Y-86865552D01*
X200792245Y-86913171D01*
X200839864Y-87008409D01*
X200839864Y-87246504D01*
X200792245Y-87341742D01*
X200744626Y-87389361D01*
X200649388Y-87436980D01*
X200411293Y-87436980D01*
X200316055Y-87389361D01*
X200268436Y-87341742D01*
X232849182Y-74112620D02*
X232515849Y-73636430D01*
X232277754Y-74112620D02*
X232277754Y-73112620D01*
X232658706Y-73112620D01*
X232753944Y-73160240D01*
X232801563Y-73207859D01*
X232849182Y-73303097D01*
X232849182Y-73445954D01*
X232801563Y-73541192D01*
X232753944Y-73588811D01*
X232658706Y-73636430D01*
X232277754Y-73636430D01*
X233230135Y-73207859D02*
X233277754Y-73160240D01*
X233372992Y-73112620D01*
X233611087Y-73112620D01*
X233706325Y-73160240D01*
X233753944Y-73207859D01*
X233801563Y-73303097D01*
X233801563Y-73398335D01*
X233753944Y-73541192D01*
X233182516Y-74112620D01*
X233801563Y-74112620D01*
X234658706Y-73445954D02*
X234658706Y-74112620D01*
X234420611Y-73065001D02*
X234182516Y-73779287D01*
X234801563Y-73779287D01*
X198909702Y-79608700D02*
X198576369Y-79132510D01*
X198338274Y-79608700D02*
X198338274Y-78608700D01*
X198719226Y-78608700D01*
X198814464Y-78656320D01*
X198862083Y-78703939D01*
X198909702Y-78799177D01*
X198909702Y-78942034D01*
X198862083Y-79037272D01*
X198814464Y-79084891D01*
X198719226Y-79132510D01*
X198338274Y-79132510D01*
X199290655Y-78703939D02*
X199338274Y-78656320D01*
X199433512Y-78608700D01*
X199671607Y-78608700D01*
X199766845Y-78656320D01*
X199814464Y-78703939D01*
X199862083Y-78799177D01*
X199862083Y-78894415D01*
X199814464Y-79037272D01*
X199243036Y-79608700D01*
X199862083Y-79608700D01*
X200195417Y-78608700D02*
X200814464Y-78608700D01*
X200481131Y-78989653D01*
X200623988Y-78989653D01*
X200719226Y-79037272D01*
X200766845Y-79084891D01*
X200814464Y-79180129D01*
X200814464Y-79418224D01*
X200766845Y-79513462D01*
X200719226Y-79561081D01*
X200623988Y-79608700D01*
X200338274Y-79608700D01*
X200243036Y-79561081D01*
X200195417Y-79513462D01*
X198909702Y-82194420D02*
X198576369Y-81718230D01*
X198338274Y-82194420D02*
X198338274Y-81194420D01*
X198719226Y-81194420D01*
X198814464Y-81242040D01*
X198862083Y-81289659D01*
X198909702Y-81384897D01*
X198909702Y-81527754D01*
X198862083Y-81622992D01*
X198814464Y-81670611D01*
X198719226Y-81718230D01*
X198338274Y-81718230D01*
X199290655Y-81289659D02*
X199338274Y-81242040D01*
X199433512Y-81194420D01*
X199671607Y-81194420D01*
X199766845Y-81242040D01*
X199814464Y-81289659D01*
X199862083Y-81384897D01*
X199862083Y-81480135D01*
X199814464Y-81622992D01*
X199243036Y-82194420D01*
X199862083Y-82194420D01*
X200243036Y-81289659D02*
X200290655Y-81242040D01*
X200385893Y-81194420D01*
X200623988Y-81194420D01*
X200719226Y-81242040D01*
X200766845Y-81289659D01*
X200814464Y-81384897D01*
X200814464Y-81480135D01*
X200766845Y-81622992D01*
X200195417Y-82194420D01*
X200814464Y-82194420D01*
X198909702Y-84673460D02*
X198576369Y-84197270D01*
X198338274Y-84673460D02*
X198338274Y-83673460D01*
X198719226Y-83673460D01*
X198814464Y-83721080D01*
X198862083Y-83768699D01*
X198909702Y-83863937D01*
X198909702Y-84006794D01*
X198862083Y-84102032D01*
X198814464Y-84149651D01*
X198719226Y-84197270D01*
X198338274Y-84197270D01*
X199290655Y-83768699D02*
X199338274Y-83721080D01*
X199433512Y-83673460D01*
X199671607Y-83673460D01*
X199766845Y-83721080D01*
X199814464Y-83768699D01*
X199862083Y-83863937D01*
X199862083Y-83959175D01*
X199814464Y-84102032D01*
X199243036Y-84673460D01*
X199862083Y-84673460D01*
X200814464Y-84673460D02*
X200243036Y-84673460D01*
X200528750Y-84673460D02*
X200528750Y-83673460D01*
X200433512Y-83816318D01*
X200338274Y-83911556D01*
X200243036Y-83959175D01*
X205325742Y-45781460D02*
X204992409Y-45305270D01*
X204754314Y-45781460D02*
X204754314Y-44781460D01*
X205135266Y-44781460D01*
X205230504Y-44829080D01*
X205278123Y-44876699D01*
X205325742Y-44971937D01*
X205325742Y-45114794D01*
X205278123Y-45210032D01*
X205230504Y-45257651D01*
X205135266Y-45305270D01*
X204754314Y-45305270D01*
X205706695Y-44876699D02*
X205754314Y-44829080D01*
X205849552Y-44781460D01*
X206087647Y-44781460D01*
X206182885Y-44829080D01*
X206230504Y-44876699D01*
X206278123Y-44971937D01*
X206278123Y-45067175D01*
X206230504Y-45210032D01*
X205659076Y-45781460D01*
X206278123Y-45781460D01*
X206897171Y-44781460D02*
X206992409Y-44781460D01*
X207087647Y-44829080D01*
X207135266Y-44876699D01*
X207182885Y-44971937D01*
X207230504Y-45162413D01*
X207230504Y-45400508D01*
X207182885Y-45590984D01*
X207135266Y-45686222D01*
X207087647Y-45733841D01*
X206992409Y-45781460D01*
X206897171Y-45781460D01*
X206801933Y-45733841D01*
X206754314Y-45686222D01*
X206706695Y-45590984D01*
X206659076Y-45400508D01*
X206659076Y-45162413D01*
X206706695Y-44971937D01*
X206754314Y-44876699D01*
X206801933Y-44829080D01*
X206897171Y-44781460D01*
X209763860Y-38392337D02*
X209287670Y-38725670D01*
X209763860Y-38963765D02*
X208763860Y-38963765D01*
X208763860Y-38582813D01*
X208811480Y-38487575D01*
X208859099Y-38439956D01*
X208954337Y-38392337D01*
X209097194Y-38392337D01*
X209192432Y-38439956D01*
X209240051Y-38487575D01*
X209287670Y-38582813D01*
X209287670Y-38963765D01*
X209763860Y-37439956D02*
X209763860Y-38011384D01*
X209763860Y-37725670D02*
X208763860Y-37725670D01*
X208906718Y-37820908D01*
X209001956Y-37916146D01*
X209049575Y-38011384D01*
X209097194Y-36582813D02*
X209763860Y-36582813D01*
X208716241Y-36820908D02*
X209430527Y-37059003D01*
X209430527Y-36439956D01*
X210191053Y-42753780D02*
X209857720Y-42277590D01*
X209619624Y-42753780D02*
X209619624Y-41753780D01*
X210000577Y-41753780D01*
X210095815Y-41801400D01*
X210143434Y-41849019D01*
X210191053Y-41944257D01*
X210191053Y-42087114D01*
X210143434Y-42182352D01*
X210095815Y-42229971D01*
X210000577Y-42277590D01*
X209619624Y-42277590D01*
X210572005Y-41849019D02*
X210619624Y-41801400D01*
X210714862Y-41753780D01*
X210952958Y-41753780D01*
X211048196Y-41801400D01*
X211095815Y-41849019D01*
X211143434Y-41944257D01*
X211143434Y-42039495D01*
X211095815Y-42182352D01*
X210524386Y-42753780D01*
X211143434Y-42753780D01*
X205039460Y-38119346D02*
X204563270Y-38452680D01*
X205039460Y-38690775D02*
X204039460Y-38690775D01*
X204039460Y-38309822D01*
X204087080Y-38214584D01*
X204134699Y-38166965D01*
X204229937Y-38119346D01*
X204372794Y-38119346D01*
X204468032Y-38166965D01*
X204515651Y-38214584D01*
X204563270Y-38309822D01*
X204563270Y-38690775D01*
X205039460Y-37166965D02*
X205039460Y-37738394D01*
X205039460Y-37452680D02*
X204039460Y-37452680D01*
X204182318Y-37547918D01*
X204277556Y-37643156D01*
X204325175Y-37738394D01*
X260295899Y-26638238D02*
X260248280Y-26733476D01*
X260153041Y-26828714D01*
X260010184Y-26971571D01*
X259962565Y-27066809D01*
X259962565Y-27162047D01*
X260200660Y-27114428D02*
X260153041Y-27209666D01*
X260057803Y-27304904D01*
X259867327Y-27352523D01*
X259533994Y-27352523D01*
X259343518Y-27304904D01*
X259248280Y-27209666D01*
X259200660Y-27114428D01*
X259200660Y-26923952D01*
X259248280Y-26828714D01*
X259343518Y-26733476D01*
X259533994Y-26685857D01*
X259867327Y-26685857D01*
X260057803Y-26733476D01*
X260153041Y-26828714D01*
X260200660Y-26923952D01*
X260200660Y-27114428D01*
X259533994Y-25828714D02*
X260200660Y-25828714D01*
X259153041Y-26066809D02*
X259867327Y-26304904D01*
X259867327Y-25685857D01*
X237522259Y-26765238D02*
X237474640Y-26860476D01*
X237379401Y-26955714D01*
X237236544Y-27098571D01*
X237188925Y-27193809D01*
X237188925Y-27289047D01*
X237427020Y-27241428D02*
X237379401Y-27336666D01*
X237284163Y-27431904D01*
X237093687Y-27479523D01*
X236760354Y-27479523D01*
X236569878Y-27431904D01*
X236474640Y-27336666D01*
X236427020Y-27241428D01*
X236427020Y-27050952D01*
X236474640Y-26955714D01*
X236569878Y-26860476D01*
X236760354Y-26812857D01*
X237093687Y-26812857D01*
X237284163Y-26860476D01*
X237379401Y-26955714D01*
X237427020Y-27050952D01*
X237427020Y-27241428D01*
X236427020Y-26479523D02*
X236427020Y-25860476D01*
X236807973Y-26193809D01*
X236807973Y-26050952D01*
X236855592Y-25955714D01*
X236903211Y-25908095D01*
X236998449Y-25860476D01*
X237236544Y-25860476D01*
X237331782Y-25908095D01*
X237379401Y-25955714D01*
X237427020Y-26050952D01*
X237427020Y-26336666D01*
X237379401Y-26431904D01*
X237331782Y-26479523D01*
X191482386Y-86728500D02*
X191482386Y-87442786D01*
X191434767Y-87585643D01*
X191339529Y-87680881D01*
X191196672Y-87728500D01*
X191101434Y-87728500D01*
X192006196Y-87728500D02*
X192196672Y-87728500D01*
X192291910Y-87680881D01*
X192339529Y-87633262D01*
X192434767Y-87490405D01*
X192482386Y-87299929D01*
X192482386Y-86918977D01*
X192434767Y-86823739D01*
X192387148Y-86776120D01*
X192291910Y-86728500D01*
X192101434Y-86728500D01*
X192006196Y-86776120D01*
X191958577Y-86823739D01*
X191910958Y-86918977D01*
X191910958Y-87157072D01*
X191958577Y-87252310D01*
X192006196Y-87299929D01*
X192101434Y-87347548D01*
X192291910Y-87347548D01*
X192387148Y-87299929D01*
X192434767Y-87252310D01*
X192482386Y-87157072D01*
X198400940Y-51707373D02*
X199115226Y-51707373D01*
X199258083Y-51754992D01*
X199353321Y-51850230D01*
X199400940Y-51993087D01*
X199400940Y-52088325D01*
X198400940Y-50754992D02*
X198400940Y-51231182D01*
X198877131Y-51278801D01*
X198829512Y-51231182D01*
X198781893Y-51135944D01*
X198781893Y-50897849D01*
X198829512Y-50802611D01*
X198877131Y-50754992D01*
X198972369Y-50707373D01*
X199210464Y-50707373D01*
X199305702Y-50754992D01*
X199353321Y-50802611D01*
X199400940Y-50897849D01*
X199400940Y-51135944D01*
X199353321Y-51231182D01*
X199305702Y-51278801D01*
X202950860Y-65149053D02*
X203665146Y-65149053D01*
X203808003Y-65196672D01*
X203903241Y-65291910D01*
X203950860Y-65434767D01*
X203950860Y-65530005D01*
X203284194Y-64244291D02*
X203950860Y-64244291D01*
X202903241Y-64482386D02*
X203617527Y-64720481D01*
X203617527Y-64101434D01*
X198279020Y-33050453D02*
X198993306Y-33050453D01*
X199136163Y-33098072D01*
X199231401Y-33193310D01*
X199279020Y-33336167D01*
X199279020Y-33431405D01*
X199279020Y-32050453D02*
X199279020Y-32621881D01*
X199279020Y-32336167D02*
X198279020Y-32336167D01*
X198421878Y-32431405D01*
X198517116Y-32526643D01*
X198564735Y-32621881D01*
X224563380Y-40783070D02*
X223563380Y-40783070D01*
X224468142Y-39735451D02*
X224515761Y-39783070D01*
X224563380Y-39925927D01*
X224563380Y-40021165D01*
X224515761Y-40164022D01*
X224420523Y-40259260D01*
X224325285Y-40306880D01*
X224134809Y-40354499D01*
X223991952Y-40354499D01*
X223801476Y-40306880D01*
X223706238Y-40259260D01*
X223611000Y-40164022D01*
X223563380Y-40021165D01*
X223563380Y-39925927D01*
X223611000Y-39783070D01*
X223658619Y-39735451D01*
X224563380Y-38783070D02*
X224563380Y-39354499D01*
X224563380Y-39068784D02*
X223563380Y-39068784D01*
X223706238Y-39164022D01*
X223801476Y-39259260D01*
X223849095Y-39354499D01*
X250557373Y-44298782D02*
X250509754Y-44346401D01*
X250366897Y-44394020D01*
X250271659Y-44394020D01*
X250128801Y-44346401D01*
X250033563Y-44251163D01*
X249985944Y-44155925D01*
X249938325Y-43965449D01*
X249938325Y-43822592D01*
X249985944Y-43632116D01*
X250033563Y-43536878D01*
X250128801Y-43441640D01*
X250271659Y-43394020D01*
X250366897Y-43394020D01*
X250509754Y-43441640D01*
X250557373Y-43489259D01*
X250938325Y-43489259D02*
X250985944Y-43441640D01*
X251081182Y-43394020D01*
X251319278Y-43394020D01*
X251414516Y-43441640D01*
X251462135Y-43489259D01*
X251509754Y-43584497D01*
X251509754Y-43679735D01*
X251462135Y-43822592D01*
X250890706Y-44394020D01*
X251509754Y-44394020D01*
X233920373Y-45101422D02*
X233872754Y-45149041D01*
X233729897Y-45196660D01*
X233634659Y-45196660D01*
X233491801Y-45149041D01*
X233396563Y-45053803D01*
X233348944Y-44958565D01*
X233301325Y-44768089D01*
X233301325Y-44625232D01*
X233348944Y-44434756D01*
X233396563Y-44339518D01*
X233491801Y-44244280D01*
X233634659Y-44196660D01*
X233729897Y-44196660D01*
X233872754Y-44244280D01*
X233920373Y-44291899D01*
X234872754Y-45196660D02*
X234301325Y-45196660D01*
X234587040Y-45196660D02*
X234587040Y-44196660D01*
X234491801Y-44339518D01*
X234396563Y-44434756D01*
X234301325Y-44482375D01*
X219214900Y-85735064D02*
X220024424Y-85735064D01*
X220119662Y-85687445D01*
X220167281Y-85639826D01*
X220214900Y-85544588D01*
X220214900Y-85354112D01*
X220167281Y-85258874D01*
X220119662Y-85211255D01*
X220024424Y-85163636D01*
X219214900Y-85163636D01*
X220214900Y-84163636D02*
X220214900Y-84735064D01*
X220214900Y-84449350D02*
X219214900Y-84449350D01*
X219357758Y-84544588D01*
X219452996Y-84639826D01*
X219500615Y-84735064D01*
X223339860Y-63804704D02*
X224149384Y-63804704D01*
X224244622Y-63757085D01*
X224292241Y-63709466D01*
X224339860Y-63614228D01*
X224339860Y-63423752D01*
X224292241Y-63328514D01*
X224244622Y-63280895D01*
X224149384Y-63233276D01*
X223339860Y-63233276D01*
X223435099Y-62804704D02*
X223387480Y-62757085D01*
X223339860Y-62661847D01*
X223339860Y-62423752D01*
X223387480Y-62328514D01*
X223435099Y-62280895D01*
X223530337Y-62233276D01*
X223625575Y-62233276D01*
X223768432Y-62280895D01*
X224339860Y-62852323D01*
X224339860Y-62233276D01*
X261398782Y-89255620D02*
X261065449Y-88779430D01*
X260827354Y-89255620D02*
X260827354Y-88255620D01*
X261208306Y-88255620D01*
X261303544Y-88303240D01*
X261351163Y-88350859D01*
X261398782Y-88446097D01*
X261398782Y-88588954D01*
X261351163Y-88684192D01*
X261303544Y-88731811D01*
X261208306Y-88779430D01*
X260827354Y-88779430D01*
X262351163Y-89255620D02*
X261779735Y-89255620D01*
X262065449Y-89255620D02*
X262065449Y-88255620D01*
X261970211Y-88398478D01*
X261874973Y-88493716D01*
X261779735Y-88541335D01*
X262970211Y-88255620D02*
X263065449Y-88255620D01*
X263160687Y-88303240D01*
X263208306Y-88350859D01*
X263255925Y-88446097D01*
X263303544Y-88636573D01*
X263303544Y-88874668D01*
X263255925Y-89065144D01*
X263208306Y-89160382D01*
X263160687Y-89208001D01*
X263065449Y-89255620D01*
X262970211Y-89255620D01*
X262874973Y-89208001D01*
X262827354Y-89160382D01*
X262779735Y-89065144D01*
X262732116Y-88874668D01*
X262732116Y-88636573D01*
X262779735Y-88446097D01*
X262827354Y-88350859D01*
X262874973Y-88303240D01*
X262970211Y-88255620D01*
X280990540Y-27954266D02*
X280514350Y-28287600D01*
X280990540Y-28525695D02*
X279990540Y-28525695D01*
X279990540Y-28144742D01*
X280038160Y-28049504D01*
X280085779Y-28001885D01*
X280181017Y-27954266D01*
X280323874Y-27954266D01*
X280419112Y-28001885D01*
X280466731Y-28049504D01*
X280514350Y-28144742D01*
X280514350Y-28525695D01*
X280419112Y-27382838D02*
X280371493Y-27478076D01*
X280323874Y-27525695D01*
X280228636Y-27573314D01*
X280181017Y-27573314D01*
X280085779Y-27525695D01*
X280038160Y-27478076D01*
X279990540Y-27382838D01*
X279990540Y-27192361D01*
X280038160Y-27097123D01*
X280085779Y-27049504D01*
X280181017Y-27001885D01*
X280228636Y-27001885D01*
X280323874Y-27049504D01*
X280371493Y-27097123D01*
X280419112Y-27192361D01*
X280419112Y-27382838D01*
X280466731Y-27478076D01*
X280514350Y-27525695D01*
X280609588Y-27573314D01*
X280800064Y-27573314D01*
X280895302Y-27525695D01*
X280942921Y-27478076D01*
X280990540Y-27382838D01*
X280990540Y-27192361D01*
X280942921Y-27097123D01*
X280895302Y-27049504D01*
X280800064Y-27001885D01*
X280609588Y-27001885D01*
X280514350Y-27049504D01*
X280466731Y-27097123D01*
X280419112Y-27192361D01*
X281533620Y-27959346D02*
X281057430Y-28292680D01*
X281533620Y-28530775D02*
X280533620Y-28530775D01*
X280533620Y-28149822D01*
X280581240Y-28054584D01*
X280628859Y-28006965D01*
X280724097Y-27959346D01*
X280866954Y-27959346D01*
X280962192Y-28006965D01*
X281009811Y-28054584D01*
X281057430Y-28149822D01*
X281057430Y-28530775D01*
X280533620Y-27626013D02*
X280533620Y-26959346D01*
X281533620Y-27387918D01*
X205039460Y-27847586D02*
X204563270Y-28180920D01*
X205039460Y-28419015D02*
X204039460Y-28419015D01*
X204039460Y-28038062D01*
X204087080Y-27942824D01*
X204134699Y-27895205D01*
X204229937Y-27847586D01*
X204372794Y-27847586D01*
X204468032Y-27895205D01*
X204515651Y-27942824D01*
X204563270Y-28038062D01*
X204563270Y-28419015D01*
X204039460Y-26990443D02*
X204039460Y-27180920D01*
X204087080Y-27276158D01*
X204134699Y-27323777D01*
X204277556Y-27419015D01*
X204468032Y-27466634D01*
X204848984Y-27466634D01*
X204944222Y-27419015D01*
X204991841Y-27371396D01*
X205039460Y-27276158D01*
X205039460Y-27085681D01*
X204991841Y-26990443D01*
X204944222Y-26942824D01*
X204848984Y-26895205D01*
X204610889Y-26895205D01*
X204515651Y-26942824D01*
X204468032Y-26990443D01*
X204420413Y-27085681D01*
X204420413Y-27276158D01*
X204468032Y-27371396D01*
X204515651Y-27419015D01*
X204610889Y-27466634D01*
X238907820Y-39826226D02*
X238431630Y-40159560D01*
X238907820Y-40397655D02*
X237907820Y-40397655D01*
X237907820Y-40016702D01*
X237955440Y-39921464D01*
X238003059Y-39873845D01*
X238098297Y-39826226D01*
X238241154Y-39826226D01*
X238336392Y-39873845D01*
X238384011Y-39921464D01*
X238431630Y-40016702D01*
X238431630Y-40397655D01*
X237907820Y-38921464D02*
X237907820Y-39397655D01*
X238384011Y-39445274D01*
X238336392Y-39397655D01*
X238288773Y-39302417D01*
X238288773Y-39064321D01*
X238336392Y-38969083D01*
X238384011Y-38921464D01*
X238479249Y-38873845D01*
X238717344Y-38873845D01*
X238812582Y-38921464D01*
X238860201Y-38969083D01*
X238907820Y-39064321D01*
X238907820Y-39302417D01*
X238860201Y-39397655D01*
X238812582Y-39445274D01*
X243002300Y-39785586D02*
X242526110Y-40118920D01*
X243002300Y-40357015D02*
X242002300Y-40357015D01*
X242002300Y-39976062D01*
X242049920Y-39880824D01*
X242097539Y-39833205D01*
X242192777Y-39785586D01*
X242335634Y-39785586D01*
X242430872Y-39833205D01*
X242478491Y-39880824D01*
X242526110Y-39976062D01*
X242526110Y-40357015D01*
X242335634Y-38928443D02*
X243002300Y-38928443D01*
X241954681Y-39166539D02*
X242668967Y-39404634D01*
X242668967Y-38785586D01*
X232436373Y-51795700D02*
X232103040Y-51319510D01*
X231864944Y-51795700D02*
X231864944Y-50795700D01*
X232245897Y-50795700D01*
X232341135Y-50843320D01*
X232388754Y-50890939D01*
X232436373Y-50986177D01*
X232436373Y-51129034D01*
X232388754Y-51224272D01*
X232341135Y-51271891D01*
X232245897Y-51319510D01*
X231864944Y-51319510D01*
X232769706Y-50795700D02*
X233388754Y-50795700D01*
X233055420Y-51176653D01*
X233198278Y-51176653D01*
X233293516Y-51224272D01*
X233341135Y-51271891D01*
X233388754Y-51367129D01*
X233388754Y-51605224D01*
X233341135Y-51700462D01*
X233293516Y-51748081D01*
X233198278Y-51795700D01*
X232912563Y-51795700D01*
X232817325Y-51748081D01*
X232769706Y-51700462D01*
X215282019Y-26709358D02*
X215234400Y-26804596D01*
X215139161Y-26899834D01*
X214996304Y-27042691D01*
X214948685Y-27137929D01*
X214948685Y-27233167D01*
X215186780Y-27185548D02*
X215139161Y-27280786D01*
X215043923Y-27376024D01*
X214853447Y-27423643D01*
X214520114Y-27423643D01*
X214329638Y-27376024D01*
X214234400Y-27280786D01*
X214186780Y-27185548D01*
X214186780Y-26995072D01*
X214234400Y-26899834D01*
X214329638Y-26804596D01*
X214520114Y-26756977D01*
X214853447Y-26756977D01*
X215043923Y-26804596D01*
X215139161Y-26899834D01*
X215186780Y-26995072D01*
X215186780Y-27185548D01*
X215186780Y-25804596D02*
X215186780Y-26376024D01*
X215186780Y-26090310D02*
X214186780Y-26090310D01*
X214329638Y-26185548D01*
X214424876Y-26280786D01*
X214472495Y-26376024D01*
X274278620Y-60616055D02*
X273278620Y-60616055D01*
X273278620Y-60377960D01*
X273326240Y-60235102D01*
X273421478Y-60139864D01*
X273516716Y-60092245D01*
X273707192Y-60044626D01*
X273850049Y-60044626D01*
X274040525Y-60092245D01*
X274135763Y-60139864D01*
X274231001Y-60235102D01*
X274278620Y-60377960D01*
X274278620Y-60616055D01*
X274278620Y-59092245D02*
X274278620Y-59663674D01*
X274278620Y-59377960D02*
X273278620Y-59377960D01*
X273421478Y-59473198D01*
X273516716Y-59568436D01*
X273564335Y-59663674D01*
X271072906Y-63506055D02*
X271072906Y-63029864D01*
X271358620Y-63601293D02*
X270358620Y-63267960D01*
X271358620Y-62934626D01*
X117192514Y-37326866D02*
X117668704Y-37326866D01*
X117097276Y-37612580D02*
X117430609Y-36612580D01*
X117763942Y-37612580D01*
X118621085Y-37612580D02*
X118049657Y-37612580D01*
X118335371Y-37612580D02*
X118335371Y-36612580D01*
X118240133Y-36755438D01*
X118144895Y-36850676D01*
X118049657Y-36898295D01*
M02*
