G04 #@! TF.GenerationSoftware,KiCad,Pcbnew,(5.1.4-0-10_14)*
G04 #@! TF.CreationDate,2020-03-01T11:47:34+01:00*
G04 #@! TF.ProjectId,circuit,63697263-7569-4742-9e6b-696361645f70,rev?*
G04 #@! TF.SameCoordinates,Original*
G04 #@! TF.FileFunction,Copper,L2,Bot*
G04 #@! TF.FilePolarity,Positive*
%FSLAX46Y46*%
G04 Gerber Fmt 4.6, Leading zero omitted, Abs format (unit mm)*
G04 Created by KiCad (PCBNEW (5.1.4-0-10_14)) date 2020-03-01 11:47:34*
%MOMM*%
%LPD*%
G04 APERTURE LIST*
%ADD10C,0.300000*%
%ADD11C,0.010000*%
%ADD12O,1.070000X1.800000*%
%ADD13R,1.070000X1.800000*%
%ADD14C,1.500000*%
%ADD15R,1.500000X1.500000*%
%ADD16R,1.524000X1.524000*%
%ADD17C,3.048000*%
%ADD18C,1.524000*%
%ADD19O,1.400000X1.400000*%
%ADD20C,1.400000*%
%ADD21R,2.000000X2.000000*%
%ADD22C,2.000000*%
%ADD23R,2.000000X3.200000*%
%ADD24O,2.000000X1.905000*%
%ADD25R,2.000000X1.905000*%
%ADD26O,1.700000X1.700000*%
%ADD27R,1.700000X1.700000*%
%ADD28O,1.600000X1.600000*%
%ADD29R,1.600000X1.600000*%
%ADD30C,1.600000*%
%ADD31O,1.950000X1.700000*%
%ADD32C,0.100000*%
%ADD33C,1.700000*%
%ADD34C,2.600000*%
%ADD35R,2.600000X2.600000*%
%ADD36R,1.050000X1.500000*%
%ADD37O,1.050000X1.500000*%
%ADD38C,1.397000*%
%ADD39O,3.500000X2.000000*%
%ADD40O,2.000000X3.300000*%
%ADD41R,2.000000X4.000000*%
%ADD42C,0.800000*%
%ADD43C,1.000000*%
%ADD44C,2.000000*%
%ADD45C,0.500000*%
%ADD46C,0.250000*%
G04 APERTURE END LIST*
D10*
X40553365Y-116500040D02*
X40624794Y-116428611D01*
X40767651Y-116214325D01*
X40839080Y-116071468D01*
X40910508Y-115857182D01*
X40981937Y-115500040D01*
X40981937Y-115214325D01*
X40910508Y-114857182D01*
X40839080Y-114642897D01*
X40767651Y-114500040D01*
X40624794Y-114285754D01*
X40553365Y-114214325D01*
X39339080Y-115857182D02*
X39481937Y-115928611D01*
X39767651Y-115928611D01*
X39910508Y-115857182D01*
X39981937Y-115785754D01*
X40053365Y-115642897D01*
X40053365Y-115214325D01*
X39981937Y-115071468D01*
X39910508Y-115000040D01*
X39767651Y-114928611D01*
X39481937Y-114928611D01*
X39339080Y-115000040D01*
X38839080Y-116500040D02*
X38767651Y-116428611D01*
X38624794Y-116214325D01*
X38553365Y-116071468D01*
X38481937Y-115857182D01*
X38410508Y-115500040D01*
X38410508Y-115214325D01*
X38481937Y-114857182D01*
X38553365Y-114642897D01*
X38624794Y-114500040D01*
X38767651Y-114285754D01*
X38839080Y-114214325D01*
X36553365Y-115928611D02*
X36553365Y-114428611D01*
X36553365Y-115000040D02*
X36410508Y-114928611D01*
X36124794Y-114928611D01*
X35981937Y-115000040D01*
X35910508Y-115071468D01*
X35839080Y-115214325D01*
X35839080Y-115642897D01*
X35910508Y-115785754D01*
X35981937Y-115857182D01*
X36124794Y-115928611D01*
X36410508Y-115928611D01*
X36553365Y-115857182D01*
X35339080Y-114928611D02*
X34981937Y-115928611D01*
X34624794Y-114928611D02*
X34981937Y-115928611D01*
X35124794Y-116285754D01*
X35196222Y-116357182D01*
X35339080Y-116428611D01*
X32910508Y-115928611D02*
X32910508Y-114428611D01*
X32053365Y-115928611D02*
X32696222Y-115071468D01*
X32053365Y-114428611D02*
X32910508Y-115285754D01*
X31481937Y-115500040D02*
X30767651Y-115500040D01*
X31624794Y-115928611D02*
X31124794Y-114428611D01*
X30624794Y-115928611D01*
X29267651Y-115928611D02*
X29767651Y-115214325D01*
X30124794Y-115928611D02*
X30124794Y-114428611D01*
X29553365Y-114428611D01*
X29410508Y-114500040D01*
X29339080Y-114571468D01*
X29267651Y-114714325D01*
X29267651Y-114928611D01*
X29339080Y-115071468D01*
X29410508Y-115142897D01*
X29553365Y-115214325D01*
X30124794Y-115214325D01*
X27910508Y-115928611D02*
X28624794Y-115928611D01*
X28624794Y-114428611D01*
X40981937Y-118478611D02*
X40981937Y-116978611D01*
X40981937Y-117692897D02*
X40124794Y-117692897D01*
X40124794Y-118478611D02*
X40124794Y-116978611D01*
X39553365Y-116978611D02*
X39196222Y-118478611D01*
X38910508Y-117407182D01*
X38624794Y-118478611D01*
X38267651Y-116978611D01*
X35696222Y-118478611D02*
X36196222Y-117764325D01*
X36553365Y-118478611D02*
X36553365Y-116978611D01*
X35981937Y-116978611D01*
X35839080Y-117050040D01*
X35767651Y-117121468D01*
X35696222Y-117264325D01*
X35696222Y-117478611D01*
X35767651Y-117621468D01*
X35839080Y-117692897D01*
X35981937Y-117764325D01*
X36553365Y-117764325D01*
X34481937Y-118407182D02*
X34624794Y-118478611D01*
X34910508Y-118478611D01*
X35053365Y-118407182D01*
X35124794Y-118264325D01*
X35124794Y-117692897D01*
X35053365Y-117550040D01*
X34910508Y-117478611D01*
X34624794Y-117478611D01*
X34481937Y-117550040D01*
X34410508Y-117692897D01*
X34410508Y-117835754D01*
X35124794Y-117978611D01*
X33910508Y-117478611D02*
X33553365Y-118478611D01*
X33196222Y-117478611D01*
X32624794Y-118335754D02*
X32553365Y-118407182D01*
X32624794Y-118478611D01*
X32696222Y-118407182D01*
X32624794Y-118335754D01*
X32624794Y-118478611D01*
X30124794Y-117478611D02*
X30124794Y-118478611D01*
X30481937Y-116907182D02*
X30839080Y-117978611D01*
X29910508Y-117978611D01*
X29339080Y-118335754D02*
X29267651Y-118407182D01*
X29339080Y-118478611D01*
X29410508Y-118407182D01*
X29339080Y-118335754D01*
X29339080Y-118478611D01*
X28339080Y-116978611D02*
X28196222Y-116978611D01*
X28053365Y-117050040D01*
X27981937Y-117121468D01*
X27910508Y-117264325D01*
X27839080Y-117550040D01*
X27839080Y-117907182D01*
X27910508Y-118192897D01*
X27981937Y-118335754D01*
X28053365Y-118407182D01*
X28196222Y-118478611D01*
X28339080Y-118478611D01*
X28481937Y-118407182D01*
X28553365Y-118335754D01*
X28624794Y-118192897D01*
X28696222Y-117907182D01*
X28696222Y-117550040D01*
X28624794Y-117264325D01*
X28553365Y-117121468D01*
X28481937Y-117050040D01*
X28339080Y-116978611D01*
X27196222Y-118335754D02*
X27124794Y-118407182D01*
X27196222Y-118478611D01*
X27267651Y-118407182D01*
X27196222Y-118335754D01*
X27196222Y-118478611D01*
X25696222Y-118478611D02*
X26553365Y-118478611D01*
X26124794Y-118478611D02*
X26124794Y-116978611D01*
X26267651Y-117192897D01*
X26410508Y-117335754D01*
X26553365Y-117407182D01*
D11*
G36*
X29785093Y-108855561D02*
G01*
X29854032Y-108890117D01*
X29917053Y-108942453D01*
X29968343Y-109009740D01*
X29999832Y-109081261D01*
X30018241Y-109142336D01*
X30172920Y-109152585D01*
X30256977Y-109161380D01*
X30341973Y-109175574D01*
X30412469Y-109192465D01*
X30426206Y-109196858D01*
X30485928Y-109220869D01*
X30565199Y-109257376D01*
X30654491Y-109301505D01*
X30744280Y-109348385D01*
X30825038Y-109393142D01*
X30887241Y-109430904D01*
X30898254Y-109438318D01*
X30953939Y-109472440D01*
X31034615Y-109515909D01*
X31133746Y-109565699D01*
X31244800Y-109618781D01*
X31361241Y-109672127D01*
X31476536Y-109722712D01*
X31584150Y-109767505D01*
X31677550Y-109803480D01*
X31713638Y-109816132D01*
X31816089Y-109849065D01*
X31907842Y-109874577D01*
X31997044Y-109894072D01*
X32091842Y-109908959D01*
X32200384Y-109920643D01*
X32330819Y-109930532D01*
X32401933Y-109934955D01*
X32550086Y-109939054D01*
X32695902Y-109932662D01*
X32848022Y-109914818D01*
X33015092Y-109884562D01*
X33171133Y-109849374D01*
X33364462Y-109806193D01*
X33548292Y-109772913D01*
X33731239Y-109748594D01*
X33921916Y-109732296D01*
X34128938Y-109723082D01*
X34357734Y-109720015D01*
X34751224Y-109729421D01*
X35139441Y-109759549D01*
X35532156Y-109811427D01*
X35939141Y-109886082D01*
X35941000Y-109886467D01*
X35995844Y-109899477D01*
X36074031Y-109920317D01*
X36171132Y-109947621D01*
X36282717Y-109980019D01*
X36404356Y-110016145D01*
X36531619Y-110054629D01*
X36660076Y-110094105D01*
X36785297Y-110133205D01*
X36902853Y-110170559D01*
X37008312Y-110204801D01*
X37097246Y-110234563D01*
X37165225Y-110258476D01*
X37207818Y-110275173D01*
X37219467Y-110281249D01*
X37244002Y-110293269D01*
X37289559Y-110310737D01*
X37329534Y-110324362D01*
X37418886Y-110357521D01*
X37528028Y-110404577D01*
X37648137Y-110461308D01*
X37770388Y-110523490D01*
X37885960Y-110586901D01*
X37922200Y-110608011D01*
X38046409Y-110688194D01*
X38165311Y-110777185D01*
X38272353Y-110869366D01*
X38360983Y-110959117D01*
X38421704Y-111036326D01*
X38483066Y-111145367D01*
X38538532Y-111274672D01*
X38583109Y-111410648D01*
X38611800Y-111539705D01*
X38615073Y-111562554D01*
X38624881Y-111638602D01*
X38634537Y-111712727D01*
X38642034Y-111769518D01*
X38642347Y-111771854D01*
X38643268Y-111836251D01*
X38633964Y-111921815D01*
X38616576Y-112018181D01*
X38593244Y-112114987D01*
X38566109Y-112201871D01*
X38541322Y-112260837D01*
X38487414Y-112349563D01*
X38409836Y-112452638D01*
X38313085Y-112565612D01*
X38201662Y-112684035D01*
X38080063Y-112803455D01*
X37952789Y-112919423D01*
X37824337Y-113027487D01*
X37699207Y-113123198D01*
X37603800Y-113188340D01*
X37551131Y-113221142D01*
X37506987Y-113247061D01*
X37483359Y-113259336D01*
X37458397Y-113271819D01*
X37411112Y-113297220D01*
X37348600Y-113331676D01*
X37287194Y-113366101D01*
X37200433Y-113412234D01*
X37105615Y-113458062D01*
X37017039Y-113496855D01*
X36973934Y-113513561D01*
X36891599Y-113543391D01*
X36805003Y-113575069D01*
X36730729Y-113602525D01*
X36719933Y-113606555D01*
X36638845Y-113633096D01*
X36533359Y-113660932D01*
X36401076Y-113690607D01*
X36239596Y-113722664D01*
X36072579Y-113753073D01*
X35987036Y-113768353D01*
X35905511Y-113783278D01*
X35838680Y-113795877D01*
X35804654Y-113802604D01*
X35749409Y-113811707D01*
X35666395Y-113822404D01*
X35561640Y-113834142D01*
X35441175Y-113846366D01*
X35311028Y-113858523D01*
X35177228Y-113870059D01*
X35045804Y-113880420D01*
X34922787Y-113889052D01*
X34814204Y-113895400D01*
X34774674Y-113897239D01*
X34683262Y-113901314D01*
X34603334Y-113905322D01*
X34541239Y-113908910D01*
X34503328Y-113911725D01*
X34495274Y-113912767D01*
X34470342Y-113913467D01*
X34421229Y-113911212D01*
X34357446Y-113906479D01*
X34340800Y-113905009D01*
X34236852Y-113893497D01*
X34135091Y-113878614D01*
X34044512Y-113861926D01*
X33974107Y-113845001D01*
X33948670Y-113836708D01*
X33921071Y-113820841D01*
X33911210Y-113794147D01*
X33912210Y-113757317D01*
X33918588Y-113718715D01*
X33935187Y-113691473D01*
X33969999Y-113665841D01*
X34002134Y-113647624D01*
X34066264Y-113617871D01*
X34275731Y-113617871D01*
X34293622Y-113643330D01*
X34314933Y-113662752D01*
X34374117Y-113709169D01*
X34423960Y-113740610D01*
X34456774Y-113752453D01*
X34480471Y-113746160D01*
X34519743Y-113729946D01*
X34526092Y-113726981D01*
X34556094Y-113706450D01*
X34597620Y-113670413D01*
X34643617Y-113626039D01*
X34687030Y-113580500D01*
X34691821Y-113574892D01*
X35754733Y-113574892D01*
X35768158Y-113628922D01*
X35801808Y-113676553D01*
X35837614Y-113700320D01*
X35894545Y-113709883D01*
X35965822Y-113707059D01*
X36036058Y-113693711D01*
X36089865Y-113671703D01*
X36093400Y-113669344D01*
X36130945Y-113627054D01*
X36142554Y-113577560D01*
X36127674Y-113530985D01*
X36102320Y-113506260D01*
X36056830Y-113489681D01*
X35996061Y-113484806D01*
X35928354Y-113489988D01*
X35862049Y-113503579D01*
X35805488Y-113523933D01*
X35767011Y-113549402D01*
X35754733Y-113574892D01*
X34691821Y-113574892D01*
X34720807Y-113540966D01*
X34737895Y-113514607D01*
X34738734Y-113510806D01*
X34723587Y-113510874D01*
X34683341Y-113517642D01*
X34625788Y-113529737D01*
X34607416Y-113533942D01*
X34530322Y-113550730D01*
X34452759Y-113565733D01*
X34391104Y-113575792D01*
X34389451Y-113576014D01*
X34321096Y-113587180D01*
X34284039Y-113600143D01*
X34275731Y-113617871D01*
X34066264Y-113617871D01*
X34111887Y-113596705D01*
X34233458Y-113554781D01*
X34349887Y-113527487D01*
X34374667Y-113523806D01*
X34484433Y-113507094D01*
X34617347Y-113482671D01*
X34764085Y-113452448D01*
X34915320Y-113418332D01*
X35043534Y-113386910D01*
X35144168Y-113361612D01*
X35249450Y-113335828D01*
X35346933Y-113312568D01*
X35424170Y-113294843D01*
X35424533Y-113294762D01*
X35532879Y-113267649D01*
X35665167Y-113229600D01*
X35814242Y-113183091D01*
X35972947Y-113130596D01*
X36019870Y-113114292D01*
X36211660Y-113114292D01*
X36277634Y-113162810D01*
X36342826Y-113223676D01*
X36380874Y-113293685D01*
X36394569Y-113379783D01*
X36391806Y-113446905D01*
X36384648Y-113510939D01*
X36376749Y-113566061D01*
X36370735Y-113596420D01*
X36365092Y-113618918D01*
X36368151Y-113630252D01*
X36386635Y-113631782D01*
X36427268Y-113624870D01*
X36469333Y-113616375D01*
X36567626Y-113594878D01*
X36638641Y-113574320D01*
X36688704Y-113551415D01*
X36724141Y-113522880D01*
X36751277Y-113485430D01*
X36762894Y-113463949D01*
X36812742Y-113345739D01*
X36842878Y-113229919D01*
X36852404Y-113123020D01*
X36840418Y-113031577D01*
X36827319Y-112996261D01*
X36793130Y-112942053D01*
X36752690Y-112917470D01*
X36700152Y-112920875D01*
X36642028Y-112944347D01*
X36580515Y-112973179D01*
X36507777Y-113003875D01*
X36416959Y-113039192D01*
X36301208Y-113081890D01*
X36292230Y-113085142D01*
X36211660Y-113114292D01*
X36019870Y-113114292D01*
X36134129Y-113074592D01*
X36290630Y-113017554D01*
X36435296Y-112961959D01*
X36560970Y-112910281D01*
X36644851Y-112872556D01*
X36810249Y-112787214D01*
X36977984Y-112688506D01*
X37121202Y-112594471D01*
X37331667Y-112594471D01*
X37355783Y-112650432D01*
X37374510Y-112679657D01*
X37413320Y-112744363D01*
X37454688Y-112825606D01*
X37490899Y-112907653D01*
X37505786Y-112947318D01*
X37519368Y-112969327D01*
X37533259Y-112958377D01*
X37547049Y-112915368D01*
X37560327Y-112841200D01*
X37563015Y-112821720D01*
X37584690Y-112716115D01*
X37624011Y-112605176D01*
X37652240Y-112542320D01*
X37689708Y-112458642D01*
X37713145Y-112391742D01*
X37726111Y-112329457D01*
X37731538Y-112271387D01*
X37738426Y-112152854D01*
X37629847Y-112264541D01*
X37566853Y-112326184D01*
X37498040Y-112388611D01*
X37436359Y-112440162D01*
X37425401Y-112448609D01*
X37364914Y-112500650D01*
X37334190Y-112546907D01*
X37331667Y-112594471D01*
X37121202Y-112594471D01*
X37142368Y-112580574D01*
X37297711Y-112467560D01*
X37438321Y-112353604D01*
X37558509Y-112242849D01*
X37652586Y-112139434D01*
X37653230Y-112138633D01*
X37695752Y-112076047D01*
X37714876Y-112018954D01*
X37709510Y-111962030D01*
X37694992Y-111932908D01*
X37763749Y-111932908D01*
X37774761Y-111943037D01*
X37799302Y-111939572D01*
X37843526Y-111920979D01*
X37876168Y-111904913D01*
X37975215Y-111867376D01*
X38062280Y-111860460D01*
X38136350Y-111884149D01*
X38170514Y-111909592D01*
X38202254Y-111948806D01*
X38240445Y-112009885D01*
X38279945Y-112082874D01*
X38315606Y-112157821D01*
X38342285Y-112224770D01*
X38353142Y-112262920D01*
X38366325Y-112326328D01*
X38376093Y-112361092D01*
X38385337Y-112371840D01*
X38396950Y-112363203D01*
X38407145Y-112349378D01*
X38428121Y-112315719D01*
X38457337Y-112264394D01*
X38481737Y-112219187D01*
X38508726Y-112158947D01*
X38526903Y-112101280D01*
X38531800Y-112067784D01*
X38522520Y-112019603D01*
X38497532Y-111952558D01*
X38461113Y-111875128D01*
X38417537Y-111795791D01*
X38371083Y-111723024D01*
X38332455Y-111672586D01*
X38289796Y-111627937D01*
X38251787Y-111603790D01*
X38204676Y-111592213D01*
X38189908Y-111590358D01*
X38108776Y-111587247D01*
X38045141Y-111601835D01*
X37985537Y-111638102D01*
X37961824Y-111657798D01*
X37915143Y-111703710D01*
X37867287Y-111759031D01*
X37823289Y-111816777D01*
X37788177Y-111869960D01*
X37766982Y-111911593D01*
X37763749Y-111932908D01*
X37694992Y-111932908D01*
X37678560Y-111899948D01*
X37620934Y-111827384D01*
X37580476Y-111784166D01*
X37566316Y-111769568D01*
X37690322Y-111769568D01*
X37694267Y-111817311D01*
X37701414Y-111830333D01*
X37721311Y-111851765D01*
X37728088Y-111856520D01*
X37738821Y-111843351D01*
X37761637Y-111809183D01*
X37785469Y-111771294D01*
X37827483Y-111712133D01*
X37881642Y-111647690D01*
X37922388Y-111605492D01*
X37973618Y-111551570D01*
X38000330Y-111509372D01*
X38006867Y-111477938D01*
X38008878Y-111443796D01*
X38017595Y-111415172D01*
X38037045Y-111388905D01*
X38071254Y-111361834D01*
X38124250Y-111330797D01*
X38200058Y-111292635D01*
X38302705Y-111244186D01*
X38307434Y-111241986D01*
X38338465Y-111222241D01*
X38340772Y-111200268D01*
X38314454Y-111168570D01*
X38308474Y-111162913D01*
X38252122Y-111131898D01*
X38183786Y-111131434D01*
X38104907Y-111160978D01*
X38016923Y-111219988D01*
X37921274Y-111307921D01*
X37919800Y-111309445D01*
X37864347Y-111375967D01*
X37812328Y-111454778D01*
X37766330Y-111539712D01*
X37728939Y-111624600D01*
X37702741Y-111703275D01*
X37690322Y-111769568D01*
X37566316Y-111769568D01*
X37507334Y-111708763D01*
X37261800Y-111697456D01*
X37159578Y-111691418D01*
X37055876Y-111683009D01*
X36961929Y-111673276D01*
X36888972Y-111663270D01*
X36880800Y-111661858D01*
X36805923Y-111651694D01*
X36711108Y-111643498D01*
X36610272Y-111638294D01*
X36542777Y-111636978D01*
X36475746Y-111637102D01*
X36419865Y-111638671D01*
X36368823Y-111642823D01*
X36316307Y-111650694D01*
X36256006Y-111663424D01*
X36181608Y-111682151D01*
X36086799Y-111708012D01*
X35975511Y-111739257D01*
X35831742Y-111779981D01*
X35715278Y-111813533D01*
X35620766Y-111841702D01*
X35542850Y-111866276D01*
X35476176Y-111889042D01*
X35415391Y-111911790D01*
X35355138Y-111936306D01*
X35290064Y-111964378D01*
X35255200Y-111979795D01*
X35089552Y-112052638D01*
X34949707Y-112112056D01*
X34831013Y-112159440D01*
X34728821Y-112196179D01*
X34638477Y-112223666D01*
X34555333Y-112243290D01*
X34474736Y-112256442D01*
X34392035Y-112264514D01*
X34302580Y-112268895D01*
X34286841Y-112269360D01*
X34193280Y-112273338D01*
X34127158Y-112279901D01*
X34082092Y-112289984D01*
X34053031Y-112303632D01*
X33995559Y-112328427D01*
X33949779Y-112325628D01*
X33920821Y-112300566D01*
X33913814Y-112258573D01*
X33933885Y-112204978D01*
X33943885Y-112190188D01*
X33981729Y-112139001D01*
X33805018Y-112149008D01*
X33718254Y-112156367D01*
X33637317Y-112167565D01*
X33573558Y-112180876D01*
X33552754Y-112187371D01*
X33497620Y-112205231D01*
X33448524Y-112216540D01*
X33434867Y-112218157D01*
X33404525Y-112214413D01*
X33390982Y-112191987D01*
X33387349Y-112167180D01*
X33391527Y-112120069D01*
X33419386Y-112087708D01*
X33420365Y-112087016D01*
X33454348Y-112069745D01*
X33514566Y-112045676D01*
X33594621Y-112017062D01*
X33688114Y-111986155D01*
X33788645Y-111955209D01*
X33824334Y-111944778D01*
X33853391Y-111935686D01*
X33859193Y-111930395D01*
X33838428Y-111927692D01*
X33787783Y-111926360D01*
X33773534Y-111926148D01*
X33687579Y-111930509D01*
X33614979Y-111948883D01*
X33577286Y-111964714D01*
X33515598Y-111988953D01*
X33475437Y-111993342D01*
X33462986Y-111989107D01*
X33438442Y-111964829D01*
X33442980Y-111933605D01*
X33477442Y-111892700D01*
X33498367Y-111874210D01*
X33532763Y-111842476D01*
X33538863Y-111828718D01*
X33528000Y-111829203D01*
X33434180Y-111846934D01*
X33314732Y-111861367D01*
X33177770Y-111872086D01*
X33031411Y-111878677D01*
X32883768Y-111880723D01*
X32742958Y-111877808D01*
X32664400Y-111873454D01*
X32545867Y-111864987D01*
X32534669Y-112025854D01*
X32515856Y-112183853D01*
X32482679Y-112314278D01*
X32433899Y-112420774D01*
X32373016Y-112501996D01*
X32265196Y-112600977D01*
X32156537Y-112668909D01*
X32061882Y-112701902D01*
X31942494Y-112740835D01*
X31823509Y-112803188D01*
X31718722Y-112881275D01*
X31689316Y-112909488D01*
X31645251Y-112953824D01*
X31616788Y-112977102D01*
X31596445Y-112983042D01*
X31576736Y-112975363D01*
X31568033Y-112969767D01*
X31542478Y-112944332D01*
X31531895Y-112905976D01*
X31530814Y-112870291D01*
X31534681Y-112816453D01*
X31543167Y-112772752D01*
X31546308Y-112764126D01*
X31551298Y-112748805D01*
X31545271Y-112739941D01*
X31522340Y-112736509D01*
X31476616Y-112737481D01*
X31414113Y-112741086D01*
X31328456Y-112748943D01*
X31260014Y-112762886D01*
X31192183Y-112787151D01*
X31138628Y-112811381D01*
X31064571Y-112845399D01*
X31014450Y-112864515D01*
X30982293Y-112869719D01*
X30962126Y-112861998D01*
X30948264Y-112842887D01*
X30943089Y-112798536D01*
X30948223Y-112787712D01*
X31013400Y-112787712D01*
X31025235Y-112792357D01*
X31054058Y-112778914D01*
X31055734Y-112777830D01*
X31085962Y-112753201D01*
X31098067Y-112734107D01*
X31108864Y-112726497D01*
X31117617Y-112730204D01*
X31129053Y-112732350D01*
X31123498Y-112720171D01*
X31113516Y-112711654D01*
X31148867Y-112711654D01*
X31157334Y-112720120D01*
X31165800Y-112711654D01*
X31157334Y-112703187D01*
X31148867Y-112711654D01*
X31113516Y-112711654D01*
X31108466Y-112707346D01*
X31091249Y-112722838D01*
X31059080Y-112750632D01*
X31043034Y-112758738D01*
X31018065Y-112776376D01*
X31013400Y-112787712D01*
X30948223Y-112787712D01*
X30967465Y-112747153D01*
X31018559Y-112691632D01*
X31093543Y-112634865D01*
X31189586Y-112579747D01*
X31220212Y-112564841D01*
X31278274Y-112536829D01*
X31309097Y-112519014D01*
X31316480Y-112508044D01*
X31304224Y-112500570D01*
X31295880Y-112498128D01*
X31234145Y-112485612D01*
X31162264Y-112476907D01*
X31090480Y-112472560D01*
X31029036Y-112473115D01*
X30988176Y-112479117D01*
X30982527Y-112481452D01*
X30936296Y-112491944D01*
X30900056Y-112473505D01*
X30886107Y-112448262D01*
X30887143Y-112400135D01*
X30920017Y-112355738D01*
X30972495Y-112322644D01*
X31004272Y-112309994D01*
X31039812Y-112302507D01*
X31086783Y-112299678D01*
X31152852Y-112301007D01*
X31235656Y-112305381D01*
X31325668Y-112310042D01*
X31389631Y-112311002D01*
X31435210Y-112307758D01*
X31470072Y-112299807D01*
X31498787Y-112288133D01*
X31552038Y-112270497D01*
X31619674Y-112257890D01*
X31657731Y-112254509D01*
X31713962Y-112250300D01*
X31757009Y-112243940D01*
X31773146Y-112238913D01*
X31789240Y-112215455D01*
X31807570Y-112169547D01*
X31824851Y-112112156D01*
X31837797Y-112054244D01*
X31843125Y-112006777D01*
X31843133Y-112005303D01*
X31836390Y-111956009D01*
X31820014Y-111901780D01*
X31818598Y-111898310D01*
X31800213Y-111861601D01*
X31777596Y-111844569D01*
X31738088Y-111839761D01*
X31718868Y-111839587D01*
X31652740Y-111835295D01*
X31568660Y-111823913D01*
X31478617Y-111807680D01*
X31394597Y-111788835D01*
X31328590Y-111769619D01*
X31313472Y-111763858D01*
X31256089Y-111739882D01*
X31158078Y-111832565D01*
X31035597Y-111933312D01*
X30905641Y-112008510D01*
X30760391Y-112061853D01*
X30601309Y-112095620D01*
X30492923Y-112117521D01*
X30401324Y-112149447D01*
X30309637Y-112197714D01*
X30280824Y-112215541D01*
X30231620Y-112244336D01*
X30200645Y-112254726D01*
X30179425Y-112249138D01*
X30174991Y-112245813D01*
X30152197Y-112207575D01*
X30157570Y-112159527D01*
X30190052Y-112108972D01*
X30195631Y-112103174D01*
X30241462Y-112057343D01*
X29995398Y-112063107D01*
X29893648Y-112066186D01*
X29819802Y-112070402D01*
X29767900Y-112076497D01*
X29731982Y-112085210D01*
X29706089Y-112097280D01*
X29702666Y-112099449D01*
X29655162Y-112120449D01*
X29622744Y-112113253D01*
X29608379Y-112078829D01*
X29607934Y-112068553D01*
X29616670Y-112029281D01*
X29645774Y-111996105D01*
X29699584Y-111965769D01*
X29782439Y-111935015D01*
X29788428Y-111933086D01*
X29867019Y-111904710D01*
X29950843Y-111869544D01*
X30005867Y-111843212D01*
X30107467Y-111790416D01*
X30042915Y-111789601D01*
X29987134Y-111783554D01*
X29921202Y-111769228D01*
X29894253Y-111761276D01*
X29841508Y-111745839D01*
X29803652Y-111742664D01*
X29763940Y-111751920D01*
X29733901Y-111762881D01*
X29669210Y-111781858D01*
X29629021Y-111779115D01*
X29611357Y-111754049D01*
X29611033Y-111725383D01*
X29622943Y-111690757D01*
X29646120Y-111669470D01*
X30503362Y-111669470D01*
X30514961Y-111704973D01*
X30552471Y-111730169D01*
X30603033Y-111737987D01*
X30663337Y-111745679D01*
X30721308Y-111772021D01*
X30781866Y-111816703D01*
X30826756Y-111847911D01*
X30863041Y-111853058D01*
X30903212Y-111832576D01*
X30917983Y-111821424D01*
X30949929Y-111791274D01*
X30959502Y-111762630D01*
X30946353Y-111726701D01*
X30912265Y-111677503D01*
X30879152Y-111624312D01*
X30855568Y-111569437D01*
X30850980Y-111551720D01*
X30835555Y-111510730D01*
X30807053Y-111463641D01*
X30772909Y-111420215D01*
X30740556Y-111390211D01*
X30721998Y-111382387D01*
X30708371Y-111396623D01*
X30687012Y-111433586D01*
X30667081Y-111475304D01*
X30634441Y-111537571D01*
X30599209Y-111576641D01*
X30565694Y-111596974D01*
X30519624Y-111631017D01*
X30503362Y-111669470D01*
X29646120Y-111669470D01*
X29654618Y-111661665D01*
X29691955Y-111640620D01*
X29730557Y-111623431D01*
X29770390Y-111612254D01*
X29820076Y-111605866D01*
X29888234Y-111603040D01*
X29960002Y-111602520D01*
X30086133Y-111600195D01*
X30208602Y-111593664D01*
X30321175Y-111583590D01*
X30417621Y-111570641D01*
X30491706Y-111555480D01*
X30532218Y-111541462D01*
X30570870Y-111509659D01*
X30610009Y-111458344D01*
X30641513Y-111400517D01*
X30657257Y-111349178D01*
X30657800Y-111340497D01*
X30648094Y-111316464D01*
X30622317Y-111273984D01*
X30585477Y-111221116D01*
X30574150Y-111205930D01*
X30530938Y-111142961D01*
X30524277Y-111132040D01*
X30618857Y-111132040D01*
X30637906Y-111168651D01*
X30676660Y-111218069D01*
X30731300Y-111276710D01*
X30798006Y-111340986D01*
X30872959Y-111407311D01*
X30952339Y-111472099D01*
X31032328Y-111531762D01*
X31109105Y-111582716D01*
X31150350Y-111606696D01*
X31220837Y-111641357D01*
X31302137Y-111675422D01*
X31387497Y-111706757D01*
X31470167Y-111733232D01*
X31543393Y-111752713D01*
X31600425Y-111763069D01*
X31634511Y-111762167D01*
X31637738Y-111760612D01*
X31630323Y-111747843D01*
X31609197Y-111724954D01*
X31701806Y-111724954D01*
X31742837Y-111756494D01*
X31774819Y-111778918D01*
X31793886Y-111788410D01*
X31804400Y-111774079D01*
X31818893Y-111737637D01*
X31824489Y-111720089D01*
X31839593Y-111676963D01*
X31857325Y-111658199D01*
X31888563Y-111655314D01*
X31905920Y-111656589D01*
X31964395Y-111674014D01*
X32005736Y-111716354D01*
X32031623Y-111786027D01*
X32041394Y-111851771D01*
X32045078Y-111911639D01*
X32041137Y-111949232D01*
X32027410Y-111975696D01*
X32014623Y-111989831D01*
X31975127Y-112016325D01*
X31938498Y-112025854D01*
X31915116Y-112030163D01*
X31897943Y-112047953D01*
X31882119Y-112086514D01*
X31869274Y-112129643D01*
X31846628Y-112193214D01*
X31819164Y-112246304D01*
X31800150Y-112270507D01*
X31773937Y-112298648D01*
X31770659Y-112322853D01*
X31785699Y-112356830D01*
X31813633Y-112401068D01*
X31846130Y-112423745D01*
X31895462Y-112431807D01*
X31919333Y-112432465D01*
X31986686Y-112444738D01*
X32053372Y-112483365D01*
X32053583Y-112483525D01*
X32117108Y-112521603D01*
X32168803Y-112531958D01*
X32205885Y-112514287D01*
X32215071Y-112501100D01*
X32227892Y-112469689D01*
X32228097Y-112439598D01*
X32212854Y-112405105D01*
X32179330Y-112360485D01*
X32124695Y-112300015D01*
X32105600Y-112279854D01*
X32053772Y-112223241D01*
X32012152Y-112173582D01*
X31985639Y-112136994D01*
X31978600Y-112121358D01*
X31993802Y-112077888D01*
X32034336Y-112033122D01*
X32092598Y-111993639D01*
X32156834Y-111967189D01*
X32211822Y-111948647D01*
X32242183Y-111929689D01*
X32256652Y-111904089D01*
X32259195Y-111894211D01*
X32268854Y-111852719D01*
X32275370Y-111828049D01*
X32274558Y-111801451D01*
X32266349Y-111751671D01*
X32252934Y-111688008D01*
X32236503Y-111619763D01*
X32219246Y-111556235D01*
X32214523Y-111541521D01*
X32424787Y-111541521D01*
X32484419Y-111672796D01*
X32515054Y-111737647D01*
X32538249Y-111777579D01*
X32559241Y-111799074D01*
X32583268Y-111808618D01*
X32595759Y-111810652D01*
X32632834Y-111816037D01*
X32650486Y-111819890D01*
X32650555Y-111819944D01*
X32643605Y-111808646D01*
X32622420Y-111776487D01*
X32594435Y-111734671D01*
X32561043Y-111679930D01*
X32535776Y-111629132D01*
X32526062Y-111600864D01*
X32517614Y-111583171D01*
X32605115Y-111583171D01*
X32612686Y-111642029D01*
X32650407Y-111710563D01*
X32656938Y-111719753D01*
X32688730Y-111760269D01*
X32721075Y-111791052D01*
X32758696Y-111812996D01*
X32806319Y-111826996D01*
X32868667Y-111833945D01*
X32950466Y-111834737D01*
X33056441Y-111830268D01*
X33191315Y-111821430D01*
X33193390Y-111821283D01*
X33370925Y-111805123D01*
X33518272Y-111783324D01*
X33638835Y-111754541D01*
X33722017Y-111722775D01*
X34361914Y-111722775D01*
X34401868Y-111765304D01*
X34484372Y-111833087D01*
X34586744Y-111886047D01*
X34625690Y-111899878D01*
X34695607Y-111918148D01*
X34744207Y-111920271D01*
X34780302Y-111905560D01*
X34801687Y-111886154D01*
X34839139Y-111822444D01*
X34853192Y-111746148D01*
X34843217Y-111669641D01*
X34815540Y-111613908D01*
X34795590Y-111593516D01*
X34773911Y-111596099D01*
X34752841Y-111608687D01*
X34715309Y-111626089D01*
X34651833Y-111648005D01*
X34569668Y-111672244D01*
X34476065Y-111696619D01*
X34410624Y-111711923D01*
X34361914Y-111722775D01*
X33722017Y-111722775D01*
X33736019Y-111717428D01*
X33744007Y-111712587D01*
X33892067Y-111712587D01*
X33900534Y-111721054D01*
X33909000Y-111712587D01*
X33900534Y-111704120D01*
X33892067Y-111712587D01*
X33744007Y-111712587D01*
X33764659Y-111700072D01*
X33950211Y-111700072D01*
X33966856Y-111702783D01*
X33988819Y-111699670D01*
X33989081Y-111693890D01*
X33966417Y-111689847D01*
X33956625Y-111692553D01*
X33950211Y-111700072D01*
X33764659Y-111700072D01*
X33787176Y-111686427D01*
X34006712Y-111686427D01*
X34148356Y-111676648D01*
X34237307Y-111667500D01*
X34338139Y-111652627D01*
X34430041Y-111635128D01*
X34435781Y-111633844D01*
X34581562Y-111600819D01*
X34583041Y-111496529D01*
X34583172Y-111441375D01*
X34580672Y-111415811D01*
X34574239Y-111415586D01*
X34563836Y-111433880D01*
X34532326Y-111468627D01*
X34501243Y-111481297D01*
X34457864Y-111494311D01*
X34433934Y-111508356D01*
X34406906Y-111522517D01*
X34359780Y-111540784D01*
X34305265Y-111558859D01*
X34256071Y-111572445D01*
X34230734Y-111577066D01*
X34212512Y-111584522D01*
X34172497Y-111603431D01*
X34119049Y-111629833D01*
X34114490Y-111632127D01*
X34006712Y-111686427D01*
X33787176Y-111686427D01*
X33813230Y-111670639D01*
X33873872Y-111612829D01*
X33874529Y-111611857D01*
X33959800Y-111611857D01*
X33972827Y-111610766D01*
X34004769Y-111597013D01*
X34010600Y-111594054D01*
X34044887Y-111574090D01*
X34061185Y-111560208D01*
X34061400Y-111559317D01*
X34048374Y-111560407D01*
X34016432Y-111574160D01*
X34010600Y-111577120D01*
X33976314Y-111597083D01*
X33960015Y-111610966D01*
X33959800Y-111611857D01*
X33874529Y-111611857D01*
X33920944Y-111543254D01*
X34078334Y-111543254D01*
X34086800Y-111551720D01*
X34095267Y-111543254D01*
X34086800Y-111534787D01*
X34078334Y-111543254D01*
X33920944Y-111543254D01*
X33921350Y-111542654D01*
X33927417Y-111531228D01*
X33931924Y-111517854D01*
X34247667Y-111517854D01*
X34253862Y-111531792D01*
X34258956Y-111529142D01*
X34260982Y-111509046D01*
X34258956Y-111506565D01*
X34248889Y-111508889D01*
X34247667Y-111517854D01*
X33931924Y-111517854D01*
X33946421Y-111474842D01*
X33948532Y-111458587D01*
X34366200Y-111458587D01*
X34374667Y-111467054D01*
X34383134Y-111458587D01*
X34380312Y-111455765D01*
X34422645Y-111455765D01*
X34424969Y-111465831D01*
X34433934Y-111467054D01*
X34447872Y-111460858D01*
X34445222Y-111455765D01*
X34425126Y-111453738D01*
X34422645Y-111455765D01*
X34380312Y-111455765D01*
X34374667Y-111450120D01*
X34366200Y-111458587D01*
X33948532Y-111458587D01*
X33955424Y-111405536D01*
X33955163Y-111331948D01*
X33946375Y-111262721D01*
X33929798Y-111206493D01*
X33906168Y-111171904D01*
X33896310Y-111166490D01*
X33870366Y-111174691D01*
X33824376Y-111209627D01*
X33758677Y-111270984D01*
X33673607Y-111358450D01*
X33581345Y-111458587D01*
X33501222Y-111545571D01*
X33437093Y-111610325D01*
X33383592Y-111656899D01*
X33335352Y-111689342D01*
X33287005Y-111711704D01*
X33233184Y-111728035D01*
X33219972Y-111731245D01*
X33128482Y-111749157D01*
X33062206Y-111752953D01*
X33015524Y-111742527D01*
X32991700Y-111726896D01*
X32967803Y-111698565D01*
X32966215Y-111678720D01*
X33062334Y-111678720D01*
X33070800Y-111687187D01*
X33079267Y-111678720D01*
X33070800Y-111670254D01*
X33062334Y-111678720D01*
X32966215Y-111678720D01*
X32965630Y-111671422D01*
X32987572Y-111640036D01*
X33001866Y-111627920D01*
X33130067Y-111627920D01*
X33138534Y-111636387D01*
X33147000Y-111627920D01*
X33138534Y-111619454D01*
X33130067Y-111627920D01*
X33001866Y-111627920D01*
X33036019Y-111598973D01*
X33053867Y-111585587D01*
X33103895Y-111546829D01*
X33131933Y-111517808D01*
X33144221Y-111489550D01*
X33146999Y-111453081D01*
X33147000Y-111451659D01*
X33139404Y-111396267D01*
X33112870Y-111361512D01*
X33061784Y-111342122D01*
X33024224Y-111336426D01*
X32939401Y-111341155D01*
X32845148Y-111369653D01*
X32751540Y-111418003D01*
X32683076Y-111469057D01*
X32628358Y-111527633D01*
X32605115Y-111583171D01*
X32517614Y-111583171D01*
X32508062Y-111563167D01*
X32470842Y-111548281D01*
X32424787Y-111541521D01*
X32214523Y-111541521D01*
X32209644Y-111526320D01*
X32520467Y-111526320D01*
X32528933Y-111534787D01*
X32537400Y-111526320D01*
X32528933Y-111517854D01*
X32520467Y-111526320D01*
X32209644Y-111526320D01*
X32203353Y-111506724D01*
X32195025Y-111486909D01*
X32173049Y-111451133D01*
X32149565Y-111433105D01*
X32119666Y-111433990D01*
X32078449Y-111454953D01*
X32021009Y-111497159D01*
X31967278Y-111541003D01*
X31901236Y-111594352D01*
X31838537Y-111642159D01*
X31787168Y-111678488D01*
X31759770Y-111695211D01*
X31701806Y-111724954D01*
X31609197Y-111724954D01*
X31604461Y-111719823D01*
X31583920Y-111699818D01*
X31539862Y-111648379D01*
X31503100Y-111589022D01*
X31495315Y-111571879D01*
X31479307Y-111535608D01*
X31461275Y-111511758D01*
X31433775Y-111496737D01*
X31389365Y-111486955D01*
X31320601Y-111478820D01*
X31297670Y-111476518D01*
X31198256Y-111460012D01*
X31122298Y-111430969D01*
X31068434Y-111393137D01*
X31040085Y-111354002D01*
X31120918Y-111354002D01*
X31151257Y-111379438D01*
X31213523Y-111401082D01*
X31284334Y-111415885D01*
X31365809Y-111428042D01*
X31418617Y-111430464D01*
X31446579Y-111422979D01*
X31453667Y-111408318D01*
X31442768Y-111391352D01*
X31426322Y-111393943D01*
X31396985Y-111392545D01*
X31350072Y-111377913D01*
X31312022Y-111361067D01*
X31303548Y-111356987D01*
X31453667Y-111356987D01*
X31462134Y-111365454D01*
X31470600Y-111356987D01*
X31462134Y-111348520D01*
X31453667Y-111356987D01*
X31303548Y-111356987D01*
X31258486Y-111335291D01*
X31213508Y-111315235D01*
X31194360Y-111307829D01*
X31173590Y-111290888D01*
X31176104Y-111276673D01*
X31174575Y-111270908D01*
X31154007Y-111285708D01*
X31151778Y-111287645D01*
X31121445Y-111323746D01*
X31120918Y-111354002D01*
X31040085Y-111354002D01*
X31035842Y-111348145D01*
X31036906Y-111300179D01*
X31067355Y-111255387D01*
X31199667Y-111255387D01*
X31208134Y-111263854D01*
X31216600Y-111255387D01*
X31208134Y-111246920D01*
X31199667Y-111255387D01*
X31067355Y-111255387D01*
X31071646Y-111249075D01*
X31082897Y-111238454D01*
X31233534Y-111238454D01*
X31242000Y-111246920D01*
X31250467Y-111238454D01*
X31242000Y-111229987D01*
X31233534Y-111238454D01*
X31082897Y-111238454D01*
X31087606Y-111234010D01*
X31135615Y-111199499D01*
X31205556Y-111158594D01*
X31287498Y-111116377D01*
X31371508Y-111077932D01*
X31447658Y-111048340D01*
X31455410Y-111045752D01*
X31507724Y-111020927D01*
X31551753Y-110986688D01*
X31579817Y-110950522D01*
X31584302Y-110920088D01*
X31561760Y-110903261D01*
X31512485Y-110889157D01*
X31443580Y-110879130D01*
X31362153Y-110874535D01*
X31344448Y-110874387D01*
X31275642Y-110883709D01*
X31187573Y-110909678D01*
X31088567Y-110949301D01*
X30986950Y-110999583D01*
X30969755Y-111009122D01*
X30888246Y-111045568D01*
X30794197Y-111073188D01*
X30761826Y-111079507D01*
X30700049Y-111090990D01*
X30650424Y-111102544D01*
X30623537Y-111111701D01*
X30623333Y-111111825D01*
X30618857Y-111132040D01*
X30524277Y-111132040D01*
X30481128Y-111061301D01*
X30431949Y-110973174D01*
X30402544Y-110915765D01*
X30363757Y-110839492D01*
X30344892Y-110804939D01*
X31855109Y-110804939D01*
X31861754Y-110826740D01*
X31891855Y-110852605D01*
X31934359Y-110853636D01*
X31979392Y-110830505D01*
X31993037Y-110817778D01*
X32018155Y-110776338D01*
X32038003Y-110715446D01*
X32052298Y-110641916D01*
X32060758Y-110562567D01*
X32061148Y-110549514D01*
X32363773Y-110549514D01*
X32443531Y-110634782D01*
X32487145Y-110684148D01*
X32511303Y-110721602D01*
X32521497Y-110758136D01*
X32523289Y-110794376D01*
X32516484Y-110851483D01*
X32498927Y-110920898D01*
X32481811Y-110968911D01*
X32450322Y-111048840D01*
X32432867Y-111105369D01*
X32428336Y-111145393D01*
X32435618Y-111175803D01*
X32445686Y-111193007D01*
X32473708Y-111222080D01*
X32503795Y-111227671D01*
X32539525Y-111208048D01*
X32584477Y-111161482D01*
X32628940Y-111104404D01*
X32678983Y-111033601D01*
X32685007Y-111024441D01*
X33286447Y-111024441D01*
X33301806Y-111065681D01*
X33340008Y-111087395D01*
X33405618Y-111094430D01*
X33417110Y-111094520D01*
X33478395Y-111088294D01*
X33523928Y-111065819D01*
X33536197Y-111055462D01*
X34349622Y-111055462D01*
X34349709Y-111143475D01*
X34350896Y-111225209D01*
X34353189Y-111293166D01*
X34356597Y-111339853D01*
X34359545Y-111355602D01*
X34378236Y-111379044D01*
X34407284Y-111374534D01*
X34418655Y-111365454D01*
X34586334Y-111365454D01*
X34592529Y-111379392D01*
X34597622Y-111376742D01*
X34599649Y-111356646D01*
X34597622Y-111354165D01*
X34587556Y-111356489D01*
X34586334Y-111365454D01*
X34418655Y-111365454D01*
X34448929Y-111341280D01*
X34473620Y-111315354D01*
X34534681Y-111223579D01*
X34571922Y-111113079D01*
X34583203Y-110991146D01*
X34580871Y-110949716D01*
X34567253Y-110865693D01*
X34544729Y-110793479D01*
X34516284Y-110740353D01*
X34484902Y-110713590D01*
X34483916Y-110713261D01*
X34432068Y-110712504D01*
X34387625Y-110738813D01*
X34361239Y-110785541D01*
X34360115Y-110790512D01*
X34355881Y-110828694D01*
X34352715Y-110890576D01*
X34350626Y-110968664D01*
X34349622Y-111055462D01*
X33536197Y-111055462D01*
X33540719Y-111051645D01*
X33584586Y-111003124D01*
X33616916Y-110946630D01*
X33639697Y-110875844D01*
X33654918Y-110784450D01*
X33664568Y-110666128D01*
X33665092Y-110656573D01*
X33677378Y-110556092D01*
X33701755Y-110448004D01*
X33713676Y-110409022D01*
X34083868Y-110409022D01*
X34096843Y-110477899D01*
X34129607Y-110549527D01*
X34130167Y-110550447D01*
X34164968Y-110607508D01*
X34206317Y-110568662D01*
X34238105Y-110524136D01*
X34247663Y-110464975D01*
X34247667Y-110463361D01*
X34240296Y-110396914D01*
X34220832Y-110339785D01*
X34193253Y-110299792D01*
X34161534Y-110284752D01*
X34156990Y-110285083D01*
X34114610Y-110305996D01*
X34090013Y-110349515D01*
X34083868Y-110409022D01*
X33713676Y-110409022D01*
X33716641Y-110399329D01*
X33738648Y-110331130D01*
X33749622Y-110285188D01*
X33750729Y-110252167D01*
X33743140Y-110222734D01*
X33739808Y-110214329D01*
X33702596Y-110162526D01*
X33642001Y-110117482D01*
X33568498Y-110085199D01*
X33492561Y-110071680D01*
X33490758Y-110071635D01*
X33438552Y-110074276D01*
X33404114Y-110089333D01*
X33373866Y-110120853D01*
X33326967Y-110204942D01*
X33302887Y-110309130D01*
X33302249Y-110427939D01*
X33324800Y-110552654D01*
X33344983Y-110647759D01*
X33347644Y-110724106D01*
X33332820Y-110791897D01*
X33325760Y-110810210D01*
X33308930Y-110862543D01*
X33294232Y-110928261D01*
X33289366Y-110958823D01*
X33286447Y-111024441D01*
X32685007Y-111024441D01*
X32728429Y-110958424D01*
X32768229Y-110892751D01*
X32775290Y-110880037D01*
X32828767Y-110781254D01*
X32820046Y-110552654D01*
X32815416Y-110463656D01*
X32808966Y-110383042D01*
X32801492Y-110318855D01*
X32793794Y-110279138D01*
X32792539Y-110275447D01*
X32766994Y-110229797D01*
X32723908Y-110172024D01*
X32671514Y-110111976D01*
X32623057Y-110064418D01*
X34493098Y-110064418D01*
X34513562Y-110131514D01*
X34557982Y-110205548D01*
X34628347Y-110289997D01*
X34703579Y-110366355D01*
X34766724Y-110427939D01*
X34810673Y-110474296D01*
X34840825Y-110513474D01*
X34862582Y-110553525D01*
X34881346Y-110602497D01*
X34899224Y-110657941D01*
X34923670Y-110743177D01*
X34936824Y-110812772D01*
X34940893Y-110882146D01*
X34939496Y-110939284D01*
X34933424Y-111073006D01*
X34817356Y-111196044D01*
X34745505Y-111276888D01*
X34697048Y-111344263D01*
X34668300Y-111405039D01*
X34655575Y-111466084D01*
X34654067Y-111500376D01*
X34657320Y-111547238D01*
X34670822Y-111566122D01*
X34700183Y-111562596D01*
X34712350Y-111558221D01*
X34733461Y-111539290D01*
X34764638Y-111498664D01*
X34799804Y-111444422D01*
X34806511Y-111433111D01*
X34843343Y-111377815D01*
X34890271Y-111318204D01*
X34941375Y-111260563D01*
X34990739Y-111211175D01*
X35015712Y-111190305D01*
X35163123Y-111190305D01*
X35167816Y-111206327D01*
X35193257Y-111236732D01*
X35233016Y-111275694D01*
X35280665Y-111317386D01*
X35329776Y-111355982D01*
X35373918Y-111385656D01*
X35386129Y-111392410D01*
X35455312Y-111434695D01*
X35496164Y-111480514D01*
X35513571Y-111538884D01*
X35512423Y-111618821D01*
X35511885Y-111624356D01*
X35504506Y-111686981D01*
X35496275Y-111740765D01*
X35490591Y-111767620D01*
X35487121Y-111788535D01*
X35493829Y-111800672D01*
X35515072Y-111803761D01*
X35555204Y-111797533D01*
X35618580Y-111781716D01*
X35709555Y-111756042D01*
X35718340Y-111753501D01*
X35792327Y-111731317D01*
X35854153Y-111711358D01*
X35896592Y-111696048D01*
X35911922Y-111688599D01*
X35919361Y-111662032D01*
X35894710Y-111628412D01*
X35866227Y-111608165D01*
X36962645Y-111608165D01*
X36964969Y-111618231D01*
X36973934Y-111619454D01*
X36987872Y-111613258D01*
X36985222Y-111608165D01*
X36965126Y-111606138D01*
X36962645Y-111608165D01*
X35866227Y-111608165D01*
X35838793Y-111588665D01*
X35807386Y-111571007D01*
X35734870Y-111524307D01*
X35691343Y-111474273D01*
X35672081Y-111414361D01*
X35670067Y-111380749D01*
X35656296Y-111313623D01*
X35619737Y-111245465D01*
X35567518Y-111184113D01*
X35506768Y-111137405D01*
X35444617Y-111113179D01*
X35425120Y-111111454D01*
X35385851Y-111116649D01*
X35329561Y-111129961D01*
X35267585Y-111147977D01*
X35211260Y-111167286D01*
X35171921Y-111184477D01*
X35163123Y-111190305D01*
X35015712Y-111190305D01*
X35032442Y-111176325D01*
X35060567Y-111162296D01*
X35061618Y-111162254D01*
X35074622Y-111146956D01*
X35091762Y-111106342D01*
X35110668Y-111048333D01*
X35119765Y-111014791D01*
X35530790Y-111014791D01*
X35561720Y-111009854D01*
X36025667Y-111009854D01*
X36025667Y-111104985D01*
X36028542Y-111165631D01*
X36040508Y-111207744D01*
X36066574Y-111246409D01*
X36076467Y-111257974D01*
X36106574Y-111297288D01*
X36121833Y-111335830D01*
X36126978Y-111388133D01*
X36127267Y-111413891D01*
X36129940Y-111475261D01*
X36140147Y-111514502D01*
X36161168Y-111543084D01*
X36165367Y-111547078D01*
X36203835Y-111575285D01*
X36247491Y-111588689D01*
X36306819Y-111589351D01*
X36355018Y-111584400D01*
X36408380Y-111574126D01*
X36448039Y-111554299D01*
X36451000Y-111551525D01*
X36525200Y-111551525D01*
X36533902Y-111556385D01*
X36570340Y-111563324D01*
X36628520Y-111571376D01*
X36694533Y-111578780D01*
X36802660Y-111589374D01*
X36878073Y-111595753D01*
X36921652Y-111597968D01*
X36934282Y-111596068D01*
X36922192Y-111591482D01*
X36895641Y-111572764D01*
X36868156Y-111537481D01*
X36867602Y-111536550D01*
X36838176Y-111497859D01*
X36794235Y-111451872D01*
X36766943Y-111427124D01*
X36720876Y-111387907D01*
X36681477Y-111354322D01*
X36665429Y-111340616D01*
X36645618Y-111326345D01*
X36641294Y-111336315D01*
X36645891Y-111363539D01*
X36646559Y-111400404D01*
X36629365Y-111438071D01*
X36598795Y-111477310D01*
X36563101Y-111516756D01*
X36534698Y-111544464D01*
X36525200Y-111551525D01*
X36451000Y-111551525D01*
X36487933Y-111516936D01*
X36503619Y-111499288D01*
X36544528Y-111445788D01*
X36562464Y-111403266D01*
X36563734Y-111375628D01*
X36557266Y-111343319D01*
X36540208Y-111320519D01*
X36504872Y-111300531D01*
X36476282Y-111289254D01*
X36618333Y-111289254D01*
X36626800Y-111297720D01*
X36635267Y-111289254D01*
X36626800Y-111280787D01*
X36618333Y-111289254D01*
X36476282Y-111289254D01*
X36454836Y-111280795D01*
X36409200Y-111251209D01*
X36396915Y-111238454D01*
X36550600Y-111238454D01*
X36559067Y-111246920D01*
X36567533Y-111238454D01*
X36559067Y-111229987D01*
X36550600Y-111238454D01*
X36396915Y-111238454D01*
X36380603Y-111221520D01*
X36499800Y-111221520D01*
X36508267Y-111229987D01*
X36516733Y-111221520D01*
X36508267Y-111213054D01*
X36499800Y-111221520D01*
X36380603Y-111221520D01*
X36354574Y-111194498D01*
X36321053Y-111151628D01*
X36271340Y-111086699D01*
X36231980Y-111045184D01*
X36195090Y-111021957D01*
X36152787Y-111011893D01*
X36102980Y-111009854D01*
X36025667Y-111009854D01*
X35561720Y-111009854D01*
X35604662Y-111003000D01*
X35660980Y-110989411D01*
X35709485Y-110970233D01*
X35718891Y-110964795D01*
X35740090Y-110948384D01*
X35751057Y-110928263D01*
X35753734Y-110895160D01*
X35750060Y-110839804D01*
X35748539Y-110823138D01*
X35741622Y-110760550D01*
X35733969Y-110709138D01*
X35727536Y-110681075D01*
X35703448Y-110658485D01*
X35663053Y-110657418D01*
X35615407Y-110676955D01*
X35590778Y-110694949D01*
X35567078Y-110718122D01*
X35552344Y-110743652D01*
X35543879Y-110780604D01*
X35538986Y-110838040D01*
X35537128Y-110875218D01*
X35530790Y-111014791D01*
X35119765Y-111014791D01*
X35128971Y-110980848D01*
X35144300Y-110911809D01*
X35153604Y-110854818D01*
X35157414Y-110797694D01*
X35153214Y-110737729D01*
X35139758Y-110664421D01*
X35122479Y-110592956D01*
X35102149Y-110506785D01*
X35084216Y-110418293D01*
X35074234Y-110358345D01*
X35801784Y-110358345D01*
X35803063Y-110421278D01*
X35810824Y-110482886D01*
X35824991Y-110534541D01*
X35840349Y-110562263D01*
X35877712Y-110584345D01*
X35921815Y-110578448D01*
X35948257Y-110559911D01*
X35971835Y-110515430D01*
X35975974Y-110456506D01*
X35963785Y-110391912D01*
X35938380Y-110330422D01*
X35935264Y-110326068D01*
X36180494Y-110326068D01*
X36192918Y-110398055D01*
X36219503Y-110493386D01*
X36228855Y-110522818D01*
X36301289Y-110701623D01*
X36397384Y-110868889D01*
X36511556Y-111015065D01*
X36525425Y-111029916D01*
X36581692Y-111085864D01*
X36622186Y-111117189D01*
X36651637Y-111126223D01*
X36674775Y-111115297D01*
X36678011Y-111111792D01*
X37233436Y-111111792D01*
X37234136Y-111261810D01*
X37266166Y-111410859D01*
X37329797Y-111554887D01*
X37356245Y-111598287D01*
X37387523Y-111629240D01*
X37418294Y-111633699D01*
X37439961Y-111610809D01*
X37441368Y-111606754D01*
X37471653Y-111533835D01*
X37517072Y-111453873D01*
X37541586Y-111417983D01*
X37560465Y-111389289D01*
X37572662Y-111360040D01*
X37579613Y-111322069D01*
X37582757Y-111267211D01*
X37583531Y-111187301D01*
X37583534Y-111179756D01*
X37590664Y-111029108D01*
X37611750Y-110904297D01*
X37646336Y-110807633D01*
X37662661Y-110779162D01*
X37679090Y-110728890D01*
X37662529Y-110681449D01*
X37623434Y-110645750D01*
X37563621Y-110625135D01*
X37499667Y-110635414D01*
X37437482Y-110675137D01*
X37416602Y-110696439D01*
X37324940Y-110825054D01*
X37263794Y-110964856D01*
X37233436Y-111111792D01*
X36678011Y-111111792D01*
X36682233Y-111107220D01*
X36697695Y-111077797D01*
X36714135Y-111031779D01*
X36717361Y-111020551D01*
X36734940Y-110970828D01*
X36755364Y-110932188D01*
X36759057Y-110927417D01*
X36796151Y-110861830D01*
X36816400Y-110776543D01*
X36818354Y-110682024D01*
X36804295Y-110601340D01*
X36776298Y-110546821D01*
X36722986Y-110483970D01*
X36649955Y-110418300D01*
X36562799Y-110355324D01*
X36540267Y-110341142D01*
X36435521Y-110278718D01*
X36354715Y-110234911D01*
X36294290Y-110208571D01*
X36250687Y-110198549D01*
X36220347Y-110203695D01*
X36199710Y-110222860D01*
X36195596Y-110229807D01*
X36181598Y-110271846D01*
X36180494Y-110326068D01*
X35935264Y-110326068D01*
X35902869Y-110280810D01*
X35860365Y-110251849D01*
X35837596Y-110247853D01*
X35818975Y-110263006D01*
X35807063Y-110302712D01*
X35801784Y-110358345D01*
X35074234Y-110358345D01*
X35071475Y-110341783D01*
X35068234Y-110315587D01*
X35045179Y-110197555D01*
X35003402Y-110091031D01*
X34946410Y-110001475D01*
X34877708Y-109934350D01*
X34800801Y-109895115D01*
X34797802Y-109894258D01*
X34699702Y-109877376D01*
X34616214Y-109883651D01*
X34551168Y-109911737D01*
X34508395Y-109960288D01*
X34494605Y-110000785D01*
X34493098Y-110064418D01*
X32623057Y-110064418D01*
X32618045Y-110059499D01*
X32597841Y-110042552D01*
X32543509Y-110015623D01*
X32466894Y-110005540D01*
X32464926Y-110005491D01*
X32413646Y-110005278D01*
X32388482Y-110010271D01*
X32381711Y-110024282D01*
X32384477Y-110045219D01*
X32389874Y-110097110D01*
X32392158Y-110171746D01*
X32391499Y-110258168D01*
X32388068Y-110345415D01*
X32382035Y-110422524D01*
X32378117Y-110453717D01*
X32363773Y-110549514D01*
X32061148Y-110549514D01*
X32063100Y-110484214D01*
X32059041Y-110413674D01*
X32048298Y-110357764D01*
X32030587Y-110323301D01*
X32013881Y-110315587D01*
X32001902Y-110330484D01*
X31987301Y-110368459D01*
X31979587Y-110396020D01*
X31960472Y-110459029D01*
X31933690Y-110531178D01*
X31917575Y-110569006D01*
X31878866Y-110665877D01*
X31857743Y-110745907D01*
X31855109Y-110804939D01*
X30344892Y-110804939D01*
X30325832Y-110770031D01*
X30293490Y-110715744D01*
X30273825Y-110687672D01*
X30217182Y-110641202D01*
X30132421Y-110603923D01*
X30017948Y-110575318D01*
X29872173Y-110554872D01*
X29861271Y-110553783D01*
X29701233Y-110536121D01*
X29568069Y-110515984D01*
X29454786Y-110491141D01*
X29354391Y-110459363D01*
X29259891Y-110418418D01*
X29164294Y-110366078D01*
X29060607Y-110300111D01*
X29055794Y-110296891D01*
X28959311Y-110220325D01*
X28865071Y-110124510D01*
X28783494Y-110020987D01*
X28734936Y-109941501D01*
X28722032Y-109899852D01*
X28711502Y-109834440D01*
X28708257Y-109800920D01*
X28761267Y-109800920D01*
X28769217Y-109860451D01*
X28795197Y-109923364D01*
X28842403Y-109995902D01*
X28894674Y-110061587D01*
X28946339Y-110121714D01*
X28988871Y-110166124D01*
X29031709Y-110202843D01*
X29084291Y-110239896D01*
X29156055Y-110285310D01*
X29162287Y-110289162D01*
X29248656Y-110339150D01*
X29329296Y-110377119D01*
X29414530Y-110406763D01*
X29514682Y-110431775D01*
X29616400Y-110451639D01*
X29727713Y-110470373D01*
X29811540Y-110480777D01*
X29873255Y-110482714D01*
X29918233Y-110476051D01*
X29951846Y-110460654D01*
X29973426Y-110442700D01*
X30000897Y-110409167D01*
X30004165Y-110382238D01*
X30002270Y-110377714D01*
X30480000Y-110377714D01*
X30482519Y-110435773D01*
X30492685Y-110472091D01*
X30514411Y-110498588D01*
X30521701Y-110504746D01*
X30566965Y-110528869D01*
X30614834Y-110526845D01*
X30663610Y-110516567D01*
X30700134Y-110509926D01*
X30733675Y-110504921D01*
X30745904Y-110503265D01*
X30759206Y-110486636D01*
X30772898Y-110446475D01*
X30784535Y-110392997D01*
X30791676Y-110336419D01*
X30792801Y-110307120D01*
X30784188Y-110241899D01*
X30762155Y-110174996D01*
X30731666Y-110117852D01*
X30697684Y-110081909D01*
X30694220Y-110079886D01*
X30651914Y-110066362D01*
X30608113Y-110061587D01*
X30575365Y-110063977D01*
X30560436Y-110077494D01*
X30556356Y-110111653D01*
X30556200Y-110132462D01*
X30546520Y-110198361D01*
X30518100Y-110243893D01*
X30493982Y-110278393D01*
X30482503Y-110322957D01*
X30480000Y-110377714D01*
X30002270Y-110377714D01*
X29997966Y-110367443D01*
X29982060Y-110342832D01*
X29961208Y-110325921D01*
X29929196Y-110315196D01*
X29879812Y-110309138D01*
X29806843Y-110306232D01*
X29743400Y-110305312D01*
X29608662Y-110300766D01*
X29495301Y-110288132D01*
X29396751Y-110264430D01*
X29306446Y-110226683D01*
X29217820Y-110171912D01*
X29124308Y-110097139D01*
X29019345Y-109999385D01*
X28977247Y-109957751D01*
X28761267Y-109741770D01*
X28761267Y-109800920D01*
X28708257Y-109800920D01*
X28703699Y-109753842D01*
X28698976Y-109666638D01*
X28697686Y-109581406D01*
X28699439Y-109528927D01*
X28750230Y-109528927D01*
X28754509Y-109577244D01*
X28775032Y-109630000D01*
X28814006Y-109690979D01*
X28873640Y-109763967D01*
X28956143Y-109852747D01*
X29006887Y-109904472D01*
X29095648Y-109991942D01*
X29166921Y-110057532D01*
X29225283Y-110105055D01*
X29275309Y-110138322D01*
X29308005Y-110155252D01*
X29474644Y-110213458D01*
X29650612Y-110241260D01*
X29743875Y-110243088D01*
X29813338Y-110239531D01*
X29861392Y-110231347D01*
X29900480Y-110214925D01*
X29943044Y-110186651D01*
X29946177Y-110184353D01*
X30002439Y-110148688D01*
X30053864Y-110132446D01*
X30102336Y-110129320D01*
X30158720Y-110123683D01*
X30183027Y-110108031D01*
X30174888Y-110084251D01*
X30133932Y-110054233D01*
X30118668Y-110046048D01*
X30079172Y-110028407D01*
X30043133Y-110021220D01*
X29997716Y-110023455D01*
X29942753Y-110031887D01*
X29814288Y-110040716D01*
X29700250Y-110022159D01*
X29603441Y-109977896D01*
X29526659Y-109909607D01*
X29472704Y-109818971D01*
X29450230Y-109741247D01*
X29506333Y-109741247D01*
X29521911Y-109801439D01*
X29564726Y-109861507D01*
X29628901Y-109914229D01*
X29662701Y-109933393D01*
X29738620Y-109960471D01*
X29826124Y-109975346D01*
X29913086Y-109977270D01*
X29987379Y-109965494D01*
X30014334Y-109955083D01*
X30048655Y-109921770D01*
X30072644Y-109869727D01*
X30081137Y-109813695D01*
X30075401Y-109780775D01*
X30065451Y-109764667D01*
X30052102Y-109772320D01*
X30030788Y-109804304D01*
X30005524Y-109838704D01*
X29976408Y-109854379D01*
X29929335Y-109858361D01*
X29922311Y-109858387D01*
X29870947Y-109854754D01*
X29836744Y-109838470D01*
X29803310Y-109801457D01*
X29801220Y-109798728D01*
X29767731Y-109735444D01*
X29755232Y-109667477D01*
X29764523Y-109605703D01*
X29784527Y-109571853D01*
X29801073Y-109542952D01*
X30933723Y-109542952D01*
X30934164Y-109562447D01*
X30948716Y-109591727D01*
X30968496Y-109615712D01*
X30979889Y-109621320D01*
X30997926Y-109634291D01*
X31025514Y-109667231D01*
X31040716Y-109688912D01*
X31074931Y-109730268D01*
X31127446Y-109782041D01*
X31188849Y-109835186D01*
X31211690Y-109853198D01*
X31294380Y-109922234D01*
X31352714Y-109987258D01*
X31388101Y-110054208D01*
X31401948Y-110129021D01*
X31395662Y-110217636D01*
X31370652Y-110325992D01*
X31344223Y-110412277D01*
X31317104Y-110498718D01*
X31300941Y-110559394D01*
X31294603Y-110600176D01*
X31296956Y-110626935D01*
X31300905Y-110636643D01*
X31326156Y-110666705D01*
X31349919Y-110665083D01*
X31363752Y-110643507D01*
X31383686Y-110623213D01*
X31426108Y-110595927D01*
X31482101Y-110567333D01*
X31485987Y-110565570D01*
X31567484Y-110526317D01*
X31620678Y-110490918D01*
X31649238Y-110452061D01*
X31656833Y-110402430D01*
X31647133Y-110334712D01*
X31632331Y-110273838D01*
X31619199Y-110210729D01*
X31606800Y-110129548D01*
X31597480Y-110046053D01*
X31596288Y-110031712D01*
X31589942Y-109962669D01*
X31582911Y-109905765D01*
X31576387Y-109870076D01*
X31574258Y-109863908D01*
X31556860Y-109850950D01*
X31515006Y-109826584D01*
X31454126Y-109793533D01*
X31379652Y-109754515D01*
X31297012Y-109712253D01*
X31211636Y-109669466D01*
X31128955Y-109628877D01*
X31054399Y-109593205D01*
X30993397Y-109565172D01*
X30951380Y-109547498D01*
X30933777Y-109542905D01*
X30933723Y-109542952D01*
X29801073Y-109542952D01*
X29801360Y-109542452D01*
X29787722Y-109526207D01*
X29744582Y-109523679D01*
X29709411Y-109528208D01*
X29633323Y-109554931D01*
X29569468Y-109603216D01*
X29524848Y-109665718D01*
X29506462Y-109735094D01*
X29506333Y-109741247D01*
X29450230Y-109741247D01*
X29448565Y-109735492D01*
X29424294Y-109673707D01*
X29394383Y-109643929D01*
X29368131Y-109629164D01*
X29343478Y-109625741D01*
X29309304Y-109634508D01*
X29259626Y-109654177D01*
X29197052Y-109676582D01*
X29142739Y-109684971D01*
X29077801Y-109681874D01*
X29064104Y-109680359D01*
X28987677Y-109667173D01*
X28938345Y-109644624D01*
X28910517Y-109606248D01*
X28898601Y-109545579D01*
X28896734Y-109486853D01*
X28894270Y-109425752D01*
X28887766Y-109379694D01*
X28878547Y-109358079D01*
X28853300Y-109360227D01*
X28820707Y-109385133D01*
X28788194Y-109425082D01*
X28763189Y-109472356D01*
X28759987Y-109481264D01*
X28750230Y-109528927D01*
X28699439Y-109528927D01*
X28700181Y-109506724D01*
X28706813Y-109451172D01*
X28713858Y-109428718D01*
X28751767Y-109374936D01*
X28808794Y-109313336D01*
X28835032Y-109289531D01*
X29907387Y-109289531D01*
X29934927Y-109317617D01*
X29978211Y-109337841D01*
X30035312Y-109361839D01*
X30084951Y-109388893D01*
X30101424Y-109400640D01*
X30142480Y-109425969D01*
X30169127Y-109421037D01*
X30181066Y-109393521D01*
X30180256Y-109359152D01*
X30171240Y-109308893D01*
X30166165Y-109289091D01*
X30151955Y-109243932D01*
X30135123Y-109222301D01*
X30104144Y-109215593D01*
X30067166Y-109215170D01*
X29991394Y-109221631D01*
X29937952Y-109238323D01*
X29909172Y-109262028D01*
X29907387Y-109289531D01*
X28835032Y-109289531D01*
X28874911Y-109253352D01*
X28940092Y-109204418D01*
X28972598Y-109185281D01*
X29090718Y-109135908D01*
X29209830Y-109105280D01*
X29214199Y-109104863D01*
X29465270Y-109104863D01*
X29477740Y-109120220D01*
X29521861Y-109132832D01*
X29598703Y-109143903D01*
X29605321Y-109144650D01*
X29634738Y-109138308D01*
X29674995Y-109119471D01*
X29677450Y-109118040D01*
X29713419Y-109089853D01*
X29716093Y-109066536D01*
X29685254Y-109046835D01*
X29663913Y-109039809D01*
X29619875Y-109034397D01*
X29569610Y-109045569D01*
X29530998Y-109061101D01*
X29483379Y-109085557D01*
X29465270Y-109104863D01*
X29214199Y-109104863D01*
X29300898Y-109096588D01*
X29354281Y-109089351D01*
X29408288Y-109065778D01*
X29467550Y-109022631D01*
X29536700Y-108956672D01*
X29600857Y-108886880D01*
X29652695Y-108851111D01*
X29716044Y-108841615D01*
X29785093Y-108855561D01*
X29785093Y-108855561D01*
G37*
X29785093Y-108855561D02*
X29854032Y-108890117D01*
X29917053Y-108942453D01*
X29968343Y-109009740D01*
X29999832Y-109081261D01*
X30018241Y-109142336D01*
X30172920Y-109152585D01*
X30256977Y-109161380D01*
X30341973Y-109175574D01*
X30412469Y-109192465D01*
X30426206Y-109196858D01*
X30485928Y-109220869D01*
X30565199Y-109257376D01*
X30654491Y-109301505D01*
X30744280Y-109348385D01*
X30825038Y-109393142D01*
X30887241Y-109430904D01*
X30898254Y-109438318D01*
X30953939Y-109472440D01*
X31034615Y-109515909D01*
X31133746Y-109565699D01*
X31244800Y-109618781D01*
X31361241Y-109672127D01*
X31476536Y-109722712D01*
X31584150Y-109767505D01*
X31677550Y-109803480D01*
X31713638Y-109816132D01*
X31816089Y-109849065D01*
X31907842Y-109874577D01*
X31997044Y-109894072D01*
X32091842Y-109908959D01*
X32200384Y-109920643D01*
X32330819Y-109930532D01*
X32401933Y-109934955D01*
X32550086Y-109939054D01*
X32695902Y-109932662D01*
X32848022Y-109914818D01*
X33015092Y-109884562D01*
X33171133Y-109849374D01*
X33364462Y-109806193D01*
X33548292Y-109772913D01*
X33731239Y-109748594D01*
X33921916Y-109732296D01*
X34128938Y-109723082D01*
X34357734Y-109720015D01*
X34751224Y-109729421D01*
X35139441Y-109759549D01*
X35532156Y-109811427D01*
X35939141Y-109886082D01*
X35941000Y-109886467D01*
X35995844Y-109899477D01*
X36074031Y-109920317D01*
X36171132Y-109947621D01*
X36282717Y-109980019D01*
X36404356Y-110016145D01*
X36531619Y-110054629D01*
X36660076Y-110094105D01*
X36785297Y-110133205D01*
X36902853Y-110170559D01*
X37008312Y-110204801D01*
X37097246Y-110234563D01*
X37165225Y-110258476D01*
X37207818Y-110275173D01*
X37219467Y-110281249D01*
X37244002Y-110293269D01*
X37289559Y-110310737D01*
X37329534Y-110324362D01*
X37418886Y-110357521D01*
X37528028Y-110404577D01*
X37648137Y-110461308D01*
X37770388Y-110523490D01*
X37885960Y-110586901D01*
X37922200Y-110608011D01*
X38046409Y-110688194D01*
X38165311Y-110777185D01*
X38272353Y-110869366D01*
X38360983Y-110959117D01*
X38421704Y-111036326D01*
X38483066Y-111145367D01*
X38538532Y-111274672D01*
X38583109Y-111410648D01*
X38611800Y-111539705D01*
X38615073Y-111562554D01*
X38624881Y-111638602D01*
X38634537Y-111712727D01*
X38642034Y-111769518D01*
X38642347Y-111771854D01*
X38643268Y-111836251D01*
X38633964Y-111921815D01*
X38616576Y-112018181D01*
X38593244Y-112114987D01*
X38566109Y-112201871D01*
X38541322Y-112260837D01*
X38487414Y-112349563D01*
X38409836Y-112452638D01*
X38313085Y-112565612D01*
X38201662Y-112684035D01*
X38080063Y-112803455D01*
X37952789Y-112919423D01*
X37824337Y-113027487D01*
X37699207Y-113123198D01*
X37603800Y-113188340D01*
X37551131Y-113221142D01*
X37506987Y-113247061D01*
X37483359Y-113259336D01*
X37458397Y-113271819D01*
X37411112Y-113297220D01*
X37348600Y-113331676D01*
X37287194Y-113366101D01*
X37200433Y-113412234D01*
X37105615Y-113458062D01*
X37017039Y-113496855D01*
X36973934Y-113513561D01*
X36891599Y-113543391D01*
X36805003Y-113575069D01*
X36730729Y-113602525D01*
X36719933Y-113606555D01*
X36638845Y-113633096D01*
X36533359Y-113660932D01*
X36401076Y-113690607D01*
X36239596Y-113722664D01*
X36072579Y-113753073D01*
X35987036Y-113768353D01*
X35905511Y-113783278D01*
X35838680Y-113795877D01*
X35804654Y-113802604D01*
X35749409Y-113811707D01*
X35666395Y-113822404D01*
X35561640Y-113834142D01*
X35441175Y-113846366D01*
X35311028Y-113858523D01*
X35177228Y-113870059D01*
X35045804Y-113880420D01*
X34922787Y-113889052D01*
X34814204Y-113895400D01*
X34774674Y-113897239D01*
X34683262Y-113901314D01*
X34603334Y-113905322D01*
X34541239Y-113908910D01*
X34503328Y-113911725D01*
X34495274Y-113912767D01*
X34470342Y-113913467D01*
X34421229Y-113911212D01*
X34357446Y-113906479D01*
X34340800Y-113905009D01*
X34236852Y-113893497D01*
X34135091Y-113878614D01*
X34044512Y-113861926D01*
X33974107Y-113845001D01*
X33948670Y-113836708D01*
X33921071Y-113820841D01*
X33911210Y-113794147D01*
X33912210Y-113757317D01*
X33918588Y-113718715D01*
X33935187Y-113691473D01*
X33969999Y-113665841D01*
X34002134Y-113647624D01*
X34066264Y-113617871D01*
X34275731Y-113617871D01*
X34293622Y-113643330D01*
X34314933Y-113662752D01*
X34374117Y-113709169D01*
X34423960Y-113740610D01*
X34456774Y-113752453D01*
X34480471Y-113746160D01*
X34519743Y-113729946D01*
X34526092Y-113726981D01*
X34556094Y-113706450D01*
X34597620Y-113670413D01*
X34643617Y-113626039D01*
X34687030Y-113580500D01*
X34691821Y-113574892D01*
X35754733Y-113574892D01*
X35768158Y-113628922D01*
X35801808Y-113676553D01*
X35837614Y-113700320D01*
X35894545Y-113709883D01*
X35965822Y-113707059D01*
X36036058Y-113693711D01*
X36089865Y-113671703D01*
X36093400Y-113669344D01*
X36130945Y-113627054D01*
X36142554Y-113577560D01*
X36127674Y-113530985D01*
X36102320Y-113506260D01*
X36056830Y-113489681D01*
X35996061Y-113484806D01*
X35928354Y-113489988D01*
X35862049Y-113503579D01*
X35805488Y-113523933D01*
X35767011Y-113549402D01*
X35754733Y-113574892D01*
X34691821Y-113574892D01*
X34720807Y-113540966D01*
X34737895Y-113514607D01*
X34738734Y-113510806D01*
X34723587Y-113510874D01*
X34683341Y-113517642D01*
X34625788Y-113529737D01*
X34607416Y-113533942D01*
X34530322Y-113550730D01*
X34452759Y-113565733D01*
X34391104Y-113575792D01*
X34389451Y-113576014D01*
X34321096Y-113587180D01*
X34284039Y-113600143D01*
X34275731Y-113617871D01*
X34066264Y-113617871D01*
X34111887Y-113596705D01*
X34233458Y-113554781D01*
X34349887Y-113527487D01*
X34374667Y-113523806D01*
X34484433Y-113507094D01*
X34617347Y-113482671D01*
X34764085Y-113452448D01*
X34915320Y-113418332D01*
X35043534Y-113386910D01*
X35144168Y-113361612D01*
X35249450Y-113335828D01*
X35346933Y-113312568D01*
X35424170Y-113294843D01*
X35424533Y-113294762D01*
X35532879Y-113267649D01*
X35665167Y-113229600D01*
X35814242Y-113183091D01*
X35972947Y-113130596D01*
X36019870Y-113114292D01*
X36211660Y-113114292D01*
X36277634Y-113162810D01*
X36342826Y-113223676D01*
X36380874Y-113293685D01*
X36394569Y-113379783D01*
X36391806Y-113446905D01*
X36384648Y-113510939D01*
X36376749Y-113566061D01*
X36370735Y-113596420D01*
X36365092Y-113618918D01*
X36368151Y-113630252D01*
X36386635Y-113631782D01*
X36427268Y-113624870D01*
X36469333Y-113616375D01*
X36567626Y-113594878D01*
X36638641Y-113574320D01*
X36688704Y-113551415D01*
X36724141Y-113522880D01*
X36751277Y-113485430D01*
X36762894Y-113463949D01*
X36812742Y-113345739D01*
X36842878Y-113229919D01*
X36852404Y-113123020D01*
X36840418Y-113031577D01*
X36827319Y-112996261D01*
X36793130Y-112942053D01*
X36752690Y-112917470D01*
X36700152Y-112920875D01*
X36642028Y-112944347D01*
X36580515Y-112973179D01*
X36507777Y-113003875D01*
X36416959Y-113039192D01*
X36301208Y-113081890D01*
X36292230Y-113085142D01*
X36211660Y-113114292D01*
X36019870Y-113114292D01*
X36134129Y-113074592D01*
X36290630Y-113017554D01*
X36435296Y-112961959D01*
X36560970Y-112910281D01*
X36644851Y-112872556D01*
X36810249Y-112787214D01*
X36977984Y-112688506D01*
X37121202Y-112594471D01*
X37331667Y-112594471D01*
X37355783Y-112650432D01*
X37374510Y-112679657D01*
X37413320Y-112744363D01*
X37454688Y-112825606D01*
X37490899Y-112907653D01*
X37505786Y-112947318D01*
X37519368Y-112969327D01*
X37533259Y-112958377D01*
X37547049Y-112915368D01*
X37560327Y-112841200D01*
X37563015Y-112821720D01*
X37584690Y-112716115D01*
X37624011Y-112605176D01*
X37652240Y-112542320D01*
X37689708Y-112458642D01*
X37713145Y-112391742D01*
X37726111Y-112329457D01*
X37731538Y-112271387D01*
X37738426Y-112152854D01*
X37629847Y-112264541D01*
X37566853Y-112326184D01*
X37498040Y-112388611D01*
X37436359Y-112440162D01*
X37425401Y-112448609D01*
X37364914Y-112500650D01*
X37334190Y-112546907D01*
X37331667Y-112594471D01*
X37121202Y-112594471D01*
X37142368Y-112580574D01*
X37297711Y-112467560D01*
X37438321Y-112353604D01*
X37558509Y-112242849D01*
X37652586Y-112139434D01*
X37653230Y-112138633D01*
X37695752Y-112076047D01*
X37714876Y-112018954D01*
X37709510Y-111962030D01*
X37694992Y-111932908D01*
X37763749Y-111932908D01*
X37774761Y-111943037D01*
X37799302Y-111939572D01*
X37843526Y-111920979D01*
X37876168Y-111904913D01*
X37975215Y-111867376D01*
X38062280Y-111860460D01*
X38136350Y-111884149D01*
X38170514Y-111909592D01*
X38202254Y-111948806D01*
X38240445Y-112009885D01*
X38279945Y-112082874D01*
X38315606Y-112157821D01*
X38342285Y-112224770D01*
X38353142Y-112262920D01*
X38366325Y-112326328D01*
X38376093Y-112361092D01*
X38385337Y-112371840D01*
X38396950Y-112363203D01*
X38407145Y-112349378D01*
X38428121Y-112315719D01*
X38457337Y-112264394D01*
X38481737Y-112219187D01*
X38508726Y-112158947D01*
X38526903Y-112101280D01*
X38531800Y-112067784D01*
X38522520Y-112019603D01*
X38497532Y-111952558D01*
X38461113Y-111875128D01*
X38417537Y-111795791D01*
X38371083Y-111723024D01*
X38332455Y-111672586D01*
X38289796Y-111627937D01*
X38251787Y-111603790D01*
X38204676Y-111592213D01*
X38189908Y-111590358D01*
X38108776Y-111587247D01*
X38045141Y-111601835D01*
X37985537Y-111638102D01*
X37961824Y-111657798D01*
X37915143Y-111703710D01*
X37867287Y-111759031D01*
X37823289Y-111816777D01*
X37788177Y-111869960D01*
X37766982Y-111911593D01*
X37763749Y-111932908D01*
X37694992Y-111932908D01*
X37678560Y-111899948D01*
X37620934Y-111827384D01*
X37580476Y-111784166D01*
X37566316Y-111769568D01*
X37690322Y-111769568D01*
X37694267Y-111817311D01*
X37701414Y-111830333D01*
X37721311Y-111851765D01*
X37728088Y-111856520D01*
X37738821Y-111843351D01*
X37761637Y-111809183D01*
X37785469Y-111771294D01*
X37827483Y-111712133D01*
X37881642Y-111647690D01*
X37922388Y-111605492D01*
X37973618Y-111551570D01*
X38000330Y-111509372D01*
X38006867Y-111477938D01*
X38008878Y-111443796D01*
X38017595Y-111415172D01*
X38037045Y-111388905D01*
X38071254Y-111361834D01*
X38124250Y-111330797D01*
X38200058Y-111292635D01*
X38302705Y-111244186D01*
X38307434Y-111241986D01*
X38338465Y-111222241D01*
X38340772Y-111200268D01*
X38314454Y-111168570D01*
X38308474Y-111162913D01*
X38252122Y-111131898D01*
X38183786Y-111131434D01*
X38104907Y-111160978D01*
X38016923Y-111219988D01*
X37921274Y-111307921D01*
X37919800Y-111309445D01*
X37864347Y-111375967D01*
X37812328Y-111454778D01*
X37766330Y-111539712D01*
X37728939Y-111624600D01*
X37702741Y-111703275D01*
X37690322Y-111769568D01*
X37566316Y-111769568D01*
X37507334Y-111708763D01*
X37261800Y-111697456D01*
X37159578Y-111691418D01*
X37055876Y-111683009D01*
X36961929Y-111673276D01*
X36888972Y-111663270D01*
X36880800Y-111661858D01*
X36805923Y-111651694D01*
X36711108Y-111643498D01*
X36610272Y-111638294D01*
X36542777Y-111636978D01*
X36475746Y-111637102D01*
X36419865Y-111638671D01*
X36368823Y-111642823D01*
X36316307Y-111650694D01*
X36256006Y-111663424D01*
X36181608Y-111682151D01*
X36086799Y-111708012D01*
X35975511Y-111739257D01*
X35831742Y-111779981D01*
X35715278Y-111813533D01*
X35620766Y-111841702D01*
X35542850Y-111866276D01*
X35476176Y-111889042D01*
X35415391Y-111911790D01*
X35355138Y-111936306D01*
X35290064Y-111964378D01*
X35255200Y-111979795D01*
X35089552Y-112052638D01*
X34949707Y-112112056D01*
X34831013Y-112159440D01*
X34728821Y-112196179D01*
X34638477Y-112223666D01*
X34555333Y-112243290D01*
X34474736Y-112256442D01*
X34392035Y-112264514D01*
X34302580Y-112268895D01*
X34286841Y-112269360D01*
X34193280Y-112273338D01*
X34127158Y-112279901D01*
X34082092Y-112289984D01*
X34053031Y-112303632D01*
X33995559Y-112328427D01*
X33949779Y-112325628D01*
X33920821Y-112300566D01*
X33913814Y-112258573D01*
X33933885Y-112204978D01*
X33943885Y-112190188D01*
X33981729Y-112139001D01*
X33805018Y-112149008D01*
X33718254Y-112156367D01*
X33637317Y-112167565D01*
X33573558Y-112180876D01*
X33552754Y-112187371D01*
X33497620Y-112205231D01*
X33448524Y-112216540D01*
X33434867Y-112218157D01*
X33404525Y-112214413D01*
X33390982Y-112191987D01*
X33387349Y-112167180D01*
X33391527Y-112120069D01*
X33419386Y-112087708D01*
X33420365Y-112087016D01*
X33454348Y-112069745D01*
X33514566Y-112045676D01*
X33594621Y-112017062D01*
X33688114Y-111986155D01*
X33788645Y-111955209D01*
X33824334Y-111944778D01*
X33853391Y-111935686D01*
X33859193Y-111930395D01*
X33838428Y-111927692D01*
X33787783Y-111926360D01*
X33773534Y-111926148D01*
X33687579Y-111930509D01*
X33614979Y-111948883D01*
X33577286Y-111964714D01*
X33515598Y-111988953D01*
X33475437Y-111993342D01*
X33462986Y-111989107D01*
X33438442Y-111964829D01*
X33442980Y-111933605D01*
X33477442Y-111892700D01*
X33498367Y-111874210D01*
X33532763Y-111842476D01*
X33538863Y-111828718D01*
X33528000Y-111829203D01*
X33434180Y-111846934D01*
X33314732Y-111861367D01*
X33177770Y-111872086D01*
X33031411Y-111878677D01*
X32883768Y-111880723D01*
X32742958Y-111877808D01*
X32664400Y-111873454D01*
X32545867Y-111864987D01*
X32534669Y-112025854D01*
X32515856Y-112183853D01*
X32482679Y-112314278D01*
X32433899Y-112420774D01*
X32373016Y-112501996D01*
X32265196Y-112600977D01*
X32156537Y-112668909D01*
X32061882Y-112701902D01*
X31942494Y-112740835D01*
X31823509Y-112803188D01*
X31718722Y-112881275D01*
X31689316Y-112909488D01*
X31645251Y-112953824D01*
X31616788Y-112977102D01*
X31596445Y-112983042D01*
X31576736Y-112975363D01*
X31568033Y-112969767D01*
X31542478Y-112944332D01*
X31531895Y-112905976D01*
X31530814Y-112870291D01*
X31534681Y-112816453D01*
X31543167Y-112772752D01*
X31546308Y-112764126D01*
X31551298Y-112748805D01*
X31545271Y-112739941D01*
X31522340Y-112736509D01*
X31476616Y-112737481D01*
X31414113Y-112741086D01*
X31328456Y-112748943D01*
X31260014Y-112762886D01*
X31192183Y-112787151D01*
X31138628Y-112811381D01*
X31064571Y-112845399D01*
X31014450Y-112864515D01*
X30982293Y-112869719D01*
X30962126Y-112861998D01*
X30948264Y-112842887D01*
X30943089Y-112798536D01*
X30948223Y-112787712D01*
X31013400Y-112787712D01*
X31025235Y-112792357D01*
X31054058Y-112778914D01*
X31055734Y-112777830D01*
X31085962Y-112753201D01*
X31098067Y-112734107D01*
X31108864Y-112726497D01*
X31117617Y-112730204D01*
X31129053Y-112732350D01*
X31123498Y-112720171D01*
X31113516Y-112711654D01*
X31148867Y-112711654D01*
X31157334Y-112720120D01*
X31165800Y-112711654D01*
X31157334Y-112703187D01*
X31148867Y-112711654D01*
X31113516Y-112711654D01*
X31108466Y-112707346D01*
X31091249Y-112722838D01*
X31059080Y-112750632D01*
X31043034Y-112758738D01*
X31018065Y-112776376D01*
X31013400Y-112787712D01*
X30948223Y-112787712D01*
X30967465Y-112747153D01*
X31018559Y-112691632D01*
X31093543Y-112634865D01*
X31189586Y-112579747D01*
X31220212Y-112564841D01*
X31278274Y-112536829D01*
X31309097Y-112519014D01*
X31316480Y-112508044D01*
X31304224Y-112500570D01*
X31295880Y-112498128D01*
X31234145Y-112485612D01*
X31162264Y-112476907D01*
X31090480Y-112472560D01*
X31029036Y-112473115D01*
X30988176Y-112479117D01*
X30982527Y-112481452D01*
X30936296Y-112491944D01*
X30900056Y-112473505D01*
X30886107Y-112448262D01*
X30887143Y-112400135D01*
X30920017Y-112355738D01*
X30972495Y-112322644D01*
X31004272Y-112309994D01*
X31039812Y-112302507D01*
X31086783Y-112299678D01*
X31152852Y-112301007D01*
X31235656Y-112305381D01*
X31325668Y-112310042D01*
X31389631Y-112311002D01*
X31435210Y-112307758D01*
X31470072Y-112299807D01*
X31498787Y-112288133D01*
X31552038Y-112270497D01*
X31619674Y-112257890D01*
X31657731Y-112254509D01*
X31713962Y-112250300D01*
X31757009Y-112243940D01*
X31773146Y-112238913D01*
X31789240Y-112215455D01*
X31807570Y-112169547D01*
X31824851Y-112112156D01*
X31837797Y-112054244D01*
X31843125Y-112006777D01*
X31843133Y-112005303D01*
X31836390Y-111956009D01*
X31820014Y-111901780D01*
X31818598Y-111898310D01*
X31800213Y-111861601D01*
X31777596Y-111844569D01*
X31738088Y-111839761D01*
X31718868Y-111839587D01*
X31652740Y-111835295D01*
X31568660Y-111823913D01*
X31478617Y-111807680D01*
X31394597Y-111788835D01*
X31328590Y-111769619D01*
X31313472Y-111763858D01*
X31256089Y-111739882D01*
X31158078Y-111832565D01*
X31035597Y-111933312D01*
X30905641Y-112008510D01*
X30760391Y-112061853D01*
X30601309Y-112095620D01*
X30492923Y-112117521D01*
X30401324Y-112149447D01*
X30309637Y-112197714D01*
X30280824Y-112215541D01*
X30231620Y-112244336D01*
X30200645Y-112254726D01*
X30179425Y-112249138D01*
X30174991Y-112245813D01*
X30152197Y-112207575D01*
X30157570Y-112159527D01*
X30190052Y-112108972D01*
X30195631Y-112103174D01*
X30241462Y-112057343D01*
X29995398Y-112063107D01*
X29893648Y-112066186D01*
X29819802Y-112070402D01*
X29767900Y-112076497D01*
X29731982Y-112085210D01*
X29706089Y-112097280D01*
X29702666Y-112099449D01*
X29655162Y-112120449D01*
X29622744Y-112113253D01*
X29608379Y-112078829D01*
X29607934Y-112068553D01*
X29616670Y-112029281D01*
X29645774Y-111996105D01*
X29699584Y-111965769D01*
X29782439Y-111935015D01*
X29788428Y-111933086D01*
X29867019Y-111904710D01*
X29950843Y-111869544D01*
X30005867Y-111843212D01*
X30107467Y-111790416D01*
X30042915Y-111789601D01*
X29987134Y-111783554D01*
X29921202Y-111769228D01*
X29894253Y-111761276D01*
X29841508Y-111745839D01*
X29803652Y-111742664D01*
X29763940Y-111751920D01*
X29733901Y-111762881D01*
X29669210Y-111781858D01*
X29629021Y-111779115D01*
X29611357Y-111754049D01*
X29611033Y-111725383D01*
X29622943Y-111690757D01*
X29646120Y-111669470D01*
X30503362Y-111669470D01*
X30514961Y-111704973D01*
X30552471Y-111730169D01*
X30603033Y-111737987D01*
X30663337Y-111745679D01*
X30721308Y-111772021D01*
X30781866Y-111816703D01*
X30826756Y-111847911D01*
X30863041Y-111853058D01*
X30903212Y-111832576D01*
X30917983Y-111821424D01*
X30949929Y-111791274D01*
X30959502Y-111762630D01*
X30946353Y-111726701D01*
X30912265Y-111677503D01*
X30879152Y-111624312D01*
X30855568Y-111569437D01*
X30850980Y-111551720D01*
X30835555Y-111510730D01*
X30807053Y-111463641D01*
X30772909Y-111420215D01*
X30740556Y-111390211D01*
X30721998Y-111382387D01*
X30708371Y-111396623D01*
X30687012Y-111433586D01*
X30667081Y-111475304D01*
X30634441Y-111537571D01*
X30599209Y-111576641D01*
X30565694Y-111596974D01*
X30519624Y-111631017D01*
X30503362Y-111669470D01*
X29646120Y-111669470D01*
X29654618Y-111661665D01*
X29691955Y-111640620D01*
X29730557Y-111623431D01*
X29770390Y-111612254D01*
X29820076Y-111605866D01*
X29888234Y-111603040D01*
X29960002Y-111602520D01*
X30086133Y-111600195D01*
X30208602Y-111593664D01*
X30321175Y-111583590D01*
X30417621Y-111570641D01*
X30491706Y-111555480D01*
X30532218Y-111541462D01*
X30570870Y-111509659D01*
X30610009Y-111458344D01*
X30641513Y-111400517D01*
X30657257Y-111349178D01*
X30657800Y-111340497D01*
X30648094Y-111316464D01*
X30622317Y-111273984D01*
X30585477Y-111221116D01*
X30574150Y-111205930D01*
X30530938Y-111142961D01*
X30524277Y-111132040D01*
X30618857Y-111132040D01*
X30637906Y-111168651D01*
X30676660Y-111218069D01*
X30731300Y-111276710D01*
X30798006Y-111340986D01*
X30872959Y-111407311D01*
X30952339Y-111472099D01*
X31032328Y-111531762D01*
X31109105Y-111582716D01*
X31150350Y-111606696D01*
X31220837Y-111641357D01*
X31302137Y-111675422D01*
X31387497Y-111706757D01*
X31470167Y-111733232D01*
X31543393Y-111752713D01*
X31600425Y-111763069D01*
X31634511Y-111762167D01*
X31637738Y-111760612D01*
X31630323Y-111747843D01*
X31609197Y-111724954D01*
X31701806Y-111724954D01*
X31742837Y-111756494D01*
X31774819Y-111778918D01*
X31793886Y-111788410D01*
X31804400Y-111774079D01*
X31818893Y-111737637D01*
X31824489Y-111720089D01*
X31839593Y-111676963D01*
X31857325Y-111658199D01*
X31888563Y-111655314D01*
X31905920Y-111656589D01*
X31964395Y-111674014D01*
X32005736Y-111716354D01*
X32031623Y-111786027D01*
X32041394Y-111851771D01*
X32045078Y-111911639D01*
X32041137Y-111949232D01*
X32027410Y-111975696D01*
X32014623Y-111989831D01*
X31975127Y-112016325D01*
X31938498Y-112025854D01*
X31915116Y-112030163D01*
X31897943Y-112047953D01*
X31882119Y-112086514D01*
X31869274Y-112129643D01*
X31846628Y-112193214D01*
X31819164Y-112246304D01*
X31800150Y-112270507D01*
X31773937Y-112298648D01*
X31770659Y-112322853D01*
X31785699Y-112356830D01*
X31813633Y-112401068D01*
X31846130Y-112423745D01*
X31895462Y-112431807D01*
X31919333Y-112432465D01*
X31986686Y-112444738D01*
X32053372Y-112483365D01*
X32053583Y-112483525D01*
X32117108Y-112521603D01*
X32168803Y-112531958D01*
X32205885Y-112514287D01*
X32215071Y-112501100D01*
X32227892Y-112469689D01*
X32228097Y-112439598D01*
X32212854Y-112405105D01*
X32179330Y-112360485D01*
X32124695Y-112300015D01*
X32105600Y-112279854D01*
X32053772Y-112223241D01*
X32012152Y-112173582D01*
X31985639Y-112136994D01*
X31978600Y-112121358D01*
X31993802Y-112077888D01*
X32034336Y-112033122D01*
X32092598Y-111993639D01*
X32156834Y-111967189D01*
X32211822Y-111948647D01*
X32242183Y-111929689D01*
X32256652Y-111904089D01*
X32259195Y-111894211D01*
X32268854Y-111852719D01*
X32275370Y-111828049D01*
X32274558Y-111801451D01*
X32266349Y-111751671D01*
X32252934Y-111688008D01*
X32236503Y-111619763D01*
X32219246Y-111556235D01*
X32214523Y-111541521D01*
X32424787Y-111541521D01*
X32484419Y-111672796D01*
X32515054Y-111737647D01*
X32538249Y-111777579D01*
X32559241Y-111799074D01*
X32583268Y-111808618D01*
X32595759Y-111810652D01*
X32632834Y-111816037D01*
X32650486Y-111819890D01*
X32650555Y-111819944D01*
X32643605Y-111808646D01*
X32622420Y-111776487D01*
X32594435Y-111734671D01*
X32561043Y-111679930D01*
X32535776Y-111629132D01*
X32526062Y-111600864D01*
X32517614Y-111583171D01*
X32605115Y-111583171D01*
X32612686Y-111642029D01*
X32650407Y-111710563D01*
X32656938Y-111719753D01*
X32688730Y-111760269D01*
X32721075Y-111791052D01*
X32758696Y-111812996D01*
X32806319Y-111826996D01*
X32868667Y-111833945D01*
X32950466Y-111834737D01*
X33056441Y-111830268D01*
X33191315Y-111821430D01*
X33193390Y-111821283D01*
X33370925Y-111805123D01*
X33518272Y-111783324D01*
X33638835Y-111754541D01*
X33722017Y-111722775D01*
X34361914Y-111722775D01*
X34401868Y-111765304D01*
X34484372Y-111833087D01*
X34586744Y-111886047D01*
X34625690Y-111899878D01*
X34695607Y-111918148D01*
X34744207Y-111920271D01*
X34780302Y-111905560D01*
X34801687Y-111886154D01*
X34839139Y-111822444D01*
X34853192Y-111746148D01*
X34843217Y-111669641D01*
X34815540Y-111613908D01*
X34795590Y-111593516D01*
X34773911Y-111596099D01*
X34752841Y-111608687D01*
X34715309Y-111626089D01*
X34651833Y-111648005D01*
X34569668Y-111672244D01*
X34476065Y-111696619D01*
X34410624Y-111711923D01*
X34361914Y-111722775D01*
X33722017Y-111722775D01*
X33736019Y-111717428D01*
X33744007Y-111712587D01*
X33892067Y-111712587D01*
X33900534Y-111721054D01*
X33909000Y-111712587D01*
X33900534Y-111704120D01*
X33892067Y-111712587D01*
X33744007Y-111712587D01*
X33764659Y-111700072D01*
X33950211Y-111700072D01*
X33966856Y-111702783D01*
X33988819Y-111699670D01*
X33989081Y-111693890D01*
X33966417Y-111689847D01*
X33956625Y-111692553D01*
X33950211Y-111700072D01*
X33764659Y-111700072D01*
X33787176Y-111686427D01*
X34006712Y-111686427D01*
X34148356Y-111676648D01*
X34237307Y-111667500D01*
X34338139Y-111652627D01*
X34430041Y-111635128D01*
X34435781Y-111633844D01*
X34581562Y-111600819D01*
X34583041Y-111496529D01*
X34583172Y-111441375D01*
X34580672Y-111415811D01*
X34574239Y-111415586D01*
X34563836Y-111433880D01*
X34532326Y-111468627D01*
X34501243Y-111481297D01*
X34457864Y-111494311D01*
X34433934Y-111508356D01*
X34406906Y-111522517D01*
X34359780Y-111540784D01*
X34305265Y-111558859D01*
X34256071Y-111572445D01*
X34230734Y-111577066D01*
X34212512Y-111584522D01*
X34172497Y-111603431D01*
X34119049Y-111629833D01*
X34114490Y-111632127D01*
X34006712Y-111686427D01*
X33787176Y-111686427D01*
X33813230Y-111670639D01*
X33873872Y-111612829D01*
X33874529Y-111611857D01*
X33959800Y-111611857D01*
X33972827Y-111610766D01*
X34004769Y-111597013D01*
X34010600Y-111594054D01*
X34044887Y-111574090D01*
X34061185Y-111560208D01*
X34061400Y-111559317D01*
X34048374Y-111560407D01*
X34016432Y-111574160D01*
X34010600Y-111577120D01*
X33976314Y-111597083D01*
X33960015Y-111610966D01*
X33959800Y-111611857D01*
X33874529Y-111611857D01*
X33920944Y-111543254D01*
X34078334Y-111543254D01*
X34086800Y-111551720D01*
X34095267Y-111543254D01*
X34086800Y-111534787D01*
X34078334Y-111543254D01*
X33920944Y-111543254D01*
X33921350Y-111542654D01*
X33927417Y-111531228D01*
X33931924Y-111517854D01*
X34247667Y-111517854D01*
X34253862Y-111531792D01*
X34258956Y-111529142D01*
X34260982Y-111509046D01*
X34258956Y-111506565D01*
X34248889Y-111508889D01*
X34247667Y-111517854D01*
X33931924Y-111517854D01*
X33946421Y-111474842D01*
X33948532Y-111458587D01*
X34366200Y-111458587D01*
X34374667Y-111467054D01*
X34383134Y-111458587D01*
X34380312Y-111455765D01*
X34422645Y-111455765D01*
X34424969Y-111465831D01*
X34433934Y-111467054D01*
X34447872Y-111460858D01*
X34445222Y-111455765D01*
X34425126Y-111453738D01*
X34422645Y-111455765D01*
X34380312Y-111455765D01*
X34374667Y-111450120D01*
X34366200Y-111458587D01*
X33948532Y-111458587D01*
X33955424Y-111405536D01*
X33955163Y-111331948D01*
X33946375Y-111262721D01*
X33929798Y-111206493D01*
X33906168Y-111171904D01*
X33896310Y-111166490D01*
X33870366Y-111174691D01*
X33824376Y-111209627D01*
X33758677Y-111270984D01*
X33673607Y-111358450D01*
X33581345Y-111458587D01*
X33501222Y-111545571D01*
X33437093Y-111610325D01*
X33383592Y-111656899D01*
X33335352Y-111689342D01*
X33287005Y-111711704D01*
X33233184Y-111728035D01*
X33219972Y-111731245D01*
X33128482Y-111749157D01*
X33062206Y-111752953D01*
X33015524Y-111742527D01*
X32991700Y-111726896D01*
X32967803Y-111698565D01*
X32966215Y-111678720D01*
X33062334Y-111678720D01*
X33070800Y-111687187D01*
X33079267Y-111678720D01*
X33070800Y-111670254D01*
X33062334Y-111678720D01*
X32966215Y-111678720D01*
X32965630Y-111671422D01*
X32987572Y-111640036D01*
X33001866Y-111627920D01*
X33130067Y-111627920D01*
X33138534Y-111636387D01*
X33147000Y-111627920D01*
X33138534Y-111619454D01*
X33130067Y-111627920D01*
X33001866Y-111627920D01*
X33036019Y-111598973D01*
X33053867Y-111585587D01*
X33103895Y-111546829D01*
X33131933Y-111517808D01*
X33144221Y-111489550D01*
X33146999Y-111453081D01*
X33147000Y-111451659D01*
X33139404Y-111396267D01*
X33112870Y-111361512D01*
X33061784Y-111342122D01*
X33024224Y-111336426D01*
X32939401Y-111341155D01*
X32845148Y-111369653D01*
X32751540Y-111418003D01*
X32683076Y-111469057D01*
X32628358Y-111527633D01*
X32605115Y-111583171D01*
X32517614Y-111583171D01*
X32508062Y-111563167D01*
X32470842Y-111548281D01*
X32424787Y-111541521D01*
X32214523Y-111541521D01*
X32209644Y-111526320D01*
X32520467Y-111526320D01*
X32528933Y-111534787D01*
X32537400Y-111526320D01*
X32528933Y-111517854D01*
X32520467Y-111526320D01*
X32209644Y-111526320D01*
X32203353Y-111506724D01*
X32195025Y-111486909D01*
X32173049Y-111451133D01*
X32149565Y-111433105D01*
X32119666Y-111433990D01*
X32078449Y-111454953D01*
X32021009Y-111497159D01*
X31967278Y-111541003D01*
X31901236Y-111594352D01*
X31838537Y-111642159D01*
X31787168Y-111678488D01*
X31759770Y-111695211D01*
X31701806Y-111724954D01*
X31609197Y-111724954D01*
X31604461Y-111719823D01*
X31583920Y-111699818D01*
X31539862Y-111648379D01*
X31503100Y-111589022D01*
X31495315Y-111571879D01*
X31479307Y-111535608D01*
X31461275Y-111511758D01*
X31433775Y-111496737D01*
X31389365Y-111486955D01*
X31320601Y-111478820D01*
X31297670Y-111476518D01*
X31198256Y-111460012D01*
X31122298Y-111430969D01*
X31068434Y-111393137D01*
X31040085Y-111354002D01*
X31120918Y-111354002D01*
X31151257Y-111379438D01*
X31213523Y-111401082D01*
X31284334Y-111415885D01*
X31365809Y-111428042D01*
X31418617Y-111430464D01*
X31446579Y-111422979D01*
X31453667Y-111408318D01*
X31442768Y-111391352D01*
X31426322Y-111393943D01*
X31396985Y-111392545D01*
X31350072Y-111377913D01*
X31312022Y-111361067D01*
X31303548Y-111356987D01*
X31453667Y-111356987D01*
X31462134Y-111365454D01*
X31470600Y-111356987D01*
X31462134Y-111348520D01*
X31453667Y-111356987D01*
X31303548Y-111356987D01*
X31258486Y-111335291D01*
X31213508Y-111315235D01*
X31194360Y-111307829D01*
X31173590Y-111290888D01*
X31176104Y-111276673D01*
X31174575Y-111270908D01*
X31154007Y-111285708D01*
X31151778Y-111287645D01*
X31121445Y-111323746D01*
X31120918Y-111354002D01*
X31040085Y-111354002D01*
X31035842Y-111348145D01*
X31036906Y-111300179D01*
X31067355Y-111255387D01*
X31199667Y-111255387D01*
X31208134Y-111263854D01*
X31216600Y-111255387D01*
X31208134Y-111246920D01*
X31199667Y-111255387D01*
X31067355Y-111255387D01*
X31071646Y-111249075D01*
X31082897Y-111238454D01*
X31233534Y-111238454D01*
X31242000Y-111246920D01*
X31250467Y-111238454D01*
X31242000Y-111229987D01*
X31233534Y-111238454D01*
X31082897Y-111238454D01*
X31087606Y-111234010D01*
X31135615Y-111199499D01*
X31205556Y-111158594D01*
X31287498Y-111116377D01*
X31371508Y-111077932D01*
X31447658Y-111048340D01*
X31455410Y-111045752D01*
X31507724Y-111020927D01*
X31551753Y-110986688D01*
X31579817Y-110950522D01*
X31584302Y-110920088D01*
X31561760Y-110903261D01*
X31512485Y-110889157D01*
X31443580Y-110879130D01*
X31362153Y-110874535D01*
X31344448Y-110874387D01*
X31275642Y-110883709D01*
X31187573Y-110909678D01*
X31088567Y-110949301D01*
X30986950Y-110999583D01*
X30969755Y-111009122D01*
X30888246Y-111045568D01*
X30794197Y-111073188D01*
X30761826Y-111079507D01*
X30700049Y-111090990D01*
X30650424Y-111102544D01*
X30623537Y-111111701D01*
X30623333Y-111111825D01*
X30618857Y-111132040D01*
X30524277Y-111132040D01*
X30481128Y-111061301D01*
X30431949Y-110973174D01*
X30402544Y-110915765D01*
X30363757Y-110839492D01*
X30344892Y-110804939D01*
X31855109Y-110804939D01*
X31861754Y-110826740D01*
X31891855Y-110852605D01*
X31934359Y-110853636D01*
X31979392Y-110830505D01*
X31993037Y-110817778D01*
X32018155Y-110776338D01*
X32038003Y-110715446D01*
X32052298Y-110641916D01*
X32060758Y-110562567D01*
X32061148Y-110549514D01*
X32363773Y-110549514D01*
X32443531Y-110634782D01*
X32487145Y-110684148D01*
X32511303Y-110721602D01*
X32521497Y-110758136D01*
X32523289Y-110794376D01*
X32516484Y-110851483D01*
X32498927Y-110920898D01*
X32481811Y-110968911D01*
X32450322Y-111048840D01*
X32432867Y-111105369D01*
X32428336Y-111145393D01*
X32435618Y-111175803D01*
X32445686Y-111193007D01*
X32473708Y-111222080D01*
X32503795Y-111227671D01*
X32539525Y-111208048D01*
X32584477Y-111161482D01*
X32628940Y-111104404D01*
X32678983Y-111033601D01*
X32685007Y-111024441D01*
X33286447Y-111024441D01*
X33301806Y-111065681D01*
X33340008Y-111087395D01*
X33405618Y-111094430D01*
X33417110Y-111094520D01*
X33478395Y-111088294D01*
X33523928Y-111065819D01*
X33536197Y-111055462D01*
X34349622Y-111055462D01*
X34349709Y-111143475D01*
X34350896Y-111225209D01*
X34353189Y-111293166D01*
X34356597Y-111339853D01*
X34359545Y-111355602D01*
X34378236Y-111379044D01*
X34407284Y-111374534D01*
X34418655Y-111365454D01*
X34586334Y-111365454D01*
X34592529Y-111379392D01*
X34597622Y-111376742D01*
X34599649Y-111356646D01*
X34597622Y-111354165D01*
X34587556Y-111356489D01*
X34586334Y-111365454D01*
X34418655Y-111365454D01*
X34448929Y-111341280D01*
X34473620Y-111315354D01*
X34534681Y-111223579D01*
X34571922Y-111113079D01*
X34583203Y-110991146D01*
X34580871Y-110949716D01*
X34567253Y-110865693D01*
X34544729Y-110793479D01*
X34516284Y-110740353D01*
X34484902Y-110713590D01*
X34483916Y-110713261D01*
X34432068Y-110712504D01*
X34387625Y-110738813D01*
X34361239Y-110785541D01*
X34360115Y-110790512D01*
X34355881Y-110828694D01*
X34352715Y-110890576D01*
X34350626Y-110968664D01*
X34349622Y-111055462D01*
X33536197Y-111055462D01*
X33540719Y-111051645D01*
X33584586Y-111003124D01*
X33616916Y-110946630D01*
X33639697Y-110875844D01*
X33654918Y-110784450D01*
X33664568Y-110666128D01*
X33665092Y-110656573D01*
X33677378Y-110556092D01*
X33701755Y-110448004D01*
X33713676Y-110409022D01*
X34083868Y-110409022D01*
X34096843Y-110477899D01*
X34129607Y-110549527D01*
X34130167Y-110550447D01*
X34164968Y-110607508D01*
X34206317Y-110568662D01*
X34238105Y-110524136D01*
X34247663Y-110464975D01*
X34247667Y-110463361D01*
X34240296Y-110396914D01*
X34220832Y-110339785D01*
X34193253Y-110299792D01*
X34161534Y-110284752D01*
X34156990Y-110285083D01*
X34114610Y-110305996D01*
X34090013Y-110349515D01*
X34083868Y-110409022D01*
X33713676Y-110409022D01*
X33716641Y-110399329D01*
X33738648Y-110331130D01*
X33749622Y-110285188D01*
X33750729Y-110252167D01*
X33743140Y-110222734D01*
X33739808Y-110214329D01*
X33702596Y-110162526D01*
X33642001Y-110117482D01*
X33568498Y-110085199D01*
X33492561Y-110071680D01*
X33490758Y-110071635D01*
X33438552Y-110074276D01*
X33404114Y-110089333D01*
X33373866Y-110120853D01*
X33326967Y-110204942D01*
X33302887Y-110309130D01*
X33302249Y-110427939D01*
X33324800Y-110552654D01*
X33344983Y-110647759D01*
X33347644Y-110724106D01*
X33332820Y-110791897D01*
X33325760Y-110810210D01*
X33308930Y-110862543D01*
X33294232Y-110928261D01*
X33289366Y-110958823D01*
X33286447Y-111024441D01*
X32685007Y-111024441D01*
X32728429Y-110958424D01*
X32768229Y-110892751D01*
X32775290Y-110880037D01*
X32828767Y-110781254D01*
X32820046Y-110552654D01*
X32815416Y-110463656D01*
X32808966Y-110383042D01*
X32801492Y-110318855D01*
X32793794Y-110279138D01*
X32792539Y-110275447D01*
X32766994Y-110229797D01*
X32723908Y-110172024D01*
X32671514Y-110111976D01*
X32623057Y-110064418D01*
X34493098Y-110064418D01*
X34513562Y-110131514D01*
X34557982Y-110205548D01*
X34628347Y-110289997D01*
X34703579Y-110366355D01*
X34766724Y-110427939D01*
X34810673Y-110474296D01*
X34840825Y-110513474D01*
X34862582Y-110553525D01*
X34881346Y-110602497D01*
X34899224Y-110657941D01*
X34923670Y-110743177D01*
X34936824Y-110812772D01*
X34940893Y-110882146D01*
X34939496Y-110939284D01*
X34933424Y-111073006D01*
X34817356Y-111196044D01*
X34745505Y-111276888D01*
X34697048Y-111344263D01*
X34668300Y-111405039D01*
X34655575Y-111466084D01*
X34654067Y-111500376D01*
X34657320Y-111547238D01*
X34670822Y-111566122D01*
X34700183Y-111562596D01*
X34712350Y-111558221D01*
X34733461Y-111539290D01*
X34764638Y-111498664D01*
X34799804Y-111444422D01*
X34806511Y-111433111D01*
X34843343Y-111377815D01*
X34890271Y-111318204D01*
X34941375Y-111260563D01*
X34990739Y-111211175D01*
X35015712Y-111190305D01*
X35163123Y-111190305D01*
X35167816Y-111206327D01*
X35193257Y-111236732D01*
X35233016Y-111275694D01*
X35280665Y-111317386D01*
X35329776Y-111355982D01*
X35373918Y-111385656D01*
X35386129Y-111392410D01*
X35455312Y-111434695D01*
X35496164Y-111480514D01*
X35513571Y-111538884D01*
X35512423Y-111618821D01*
X35511885Y-111624356D01*
X35504506Y-111686981D01*
X35496275Y-111740765D01*
X35490591Y-111767620D01*
X35487121Y-111788535D01*
X35493829Y-111800672D01*
X35515072Y-111803761D01*
X35555204Y-111797533D01*
X35618580Y-111781716D01*
X35709555Y-111756042D01*
X35718340Y-111753501D01*
X35792327Y-111731317D01*
X35854153Y-111711358D01*
X35896592Y-111696048D01*
X35911922Y-111688599D01*
X35919361Y-111662032D01*
X35894710Y-111628412D01*
X35866227Y-111608165D01*
X36962645Y-111608165D01*
X36964969Y-111618231D01*
X36973934Y-111619454D01*
X36987872Y-111613258D01*
X36985222Y-111608165D01*
X36965126Y-111606138D01*
X36962645Y-111608165D01*
X35866227Y-111608165D01*
X35838793Y-111588665D01*
X35807386Y-111571007D01*
X35734870Y-111524307D01*
X35691343Y-111474273D01*
X35672081Y-111414361D01*
X35670067Y-111380749D01*
X35656296Y-111313623D01*
X35619737Y-111245465D01*
X35567518Y-111184113D01*
X35506768Y-111137405D01*
X35444617Y-111113179D01*
X35425120Y-111111454D01*
X35385851Y-111116649D01*
X35329561Y-111129961D01*
X35267585Y-111147977D01*
X35211260Y-111167286D01*
X35171921Y-111184477D01*
X35163123Y-111190305D01*
X35015712Y-111190305D01*
X35032442Y-111176325D01*
X35060567Y-111162296D01*
X35061618Y-111162254D01*
X35074622Y-111146956D01*
X35091762Y-111106342D01*
X35110668Y-111048333D01*
X35119765Y-111014791D01*
X35530790Y-111014791D01*
X35561720Y-111009854D01*
X36025667Y-111009854D01*
X36025667Y-111104985D01*
X36028542Y-111165631D01*
X36040508Y-111207744D01*
X36066574Y-111246409D01*
X36076467Y-111257974D01*
X36106574Y-111297288D01*
X36121833Y-111335830D01*
X36126978Y-111388133D01*
X36127267Y-111413891D01*
X36129940Y-111475261D01*
X36140147Y-111514502D01*
X36161168Y-111543084D01*
X36165367Y-111547078D01*
X36203835Y-111575285D01*
X36247491Y-111588689D01*
X36306819Y-111589351D01*
X36355018Y-111584400D01*
X36408380Y-111574126D01*
X36448039Y-111554299D01*
X36451000Y-111551525D01*
X36525200Y-111551525D01*
X36533902Y-111556385D01*
X36570340Y-111563324D01*
X36628520Y-111571376D01*
X36694533Y-111578780D01*
X36802660Y-111589374D01*
X36878073Y-111595753D01*
X36921652Y-111597968D01*
X36934282Y-111596068D01*
X36922192Y-111591482D01*
X36895641Y-111572764D01*
X36868156Y-111537481D01*
X36867602Y-111536550D01*
X36838176Y-111497859D01*
X36794235Y-111451872D01*
X36766943Y-111427124D01*
X36720876Y-111387907D01*
X36681477Y-111354322D01*
X36665429Y-111340616D01*
X36645618Y-111326345D01*
X36641294Y-111336315D01*
X36645891Y-111363539D01*
X36646559Y-111400404D01*
X36629365Y-111438071D01*
X36598795Y-111477310D01*
X36563101Y-111516756D01*
X36534698Y-111544464D01*
X36525200Y-111551525D01*
X36451000Y-111551525D01*
X36487933Y-111516936D01*
X36503619Y-111499288D01*
X36544528Y-111445788D01*
X36562464Y-111403266D01*
X36563734Y-111375628D01*
X36557266Y-111343319D01*
X36540208Y-111320519D01*
X36504872Y-111300531D01*
X36476282Y-111289254D01*
X36618333Y-111289254D01*
X36626800Y-111297720D01*
X36635267Y-111289254D01*
X36626800Y-111280787D01*
X36618333Y-111289254D01*
X36476282Y-111289254D01*
X36454836Y-111280795D01*
X36409200Y-111251209D01*
X36396915Y-111238454D01*
X36550600Y-111238454D01*
X36559067Y-111246920D01*
X36567533Y-111238454D01*
X36559067Y-111229987D01*
X36550600Y-111238454D01*
X36396915Y-111238454D01*
X36380603Y-111221520D01*
X36499800Y-111221520D01*
X36508267Y-111229987D01*
X36516733Y-111221520D01*
X36508267Y-111213054D01*
X36499800Y-111221520D01*
X36380603Y-111221520D01*
X36354574Y-111194498D01*
X36321053Y-111151628D01*
X36271340Y-111086699D01*
X36231980Y-111045184D01*
X36195090Y-111021957D01*
X36152787Y-111011893D01*
X36102980Y-111009854D01*
X36025667Y-111009854D01*
X35561720Y-111009854D01*
X35604662Y-111003000D01*
X35660980Y-110989411D01*
X35709485Y-110970233D01*
X35718891Y-110964795D01*
X35740090Y-110948384D01*
X35751057Y-110928263D01*
X35753734Y-110895160D01*
X35750060Y-110839804D01*
X35748539Y-110823138D01*
X35741622Y-110760550D01*
X35733969Y-110709138D01*
X35727536Y-110681075D01*
X35703448Y-110658485D01*
X35663053Y-110657418D01*
X35615407Y-110676955D01*
X35590778Y-110694949D01*
X35567078Y-110718122D01*
X35552344Y-110743652D01*
X35543879Y-110780604D01*
X35538986Y-110838040D01*
X35537128Y-110875218D01*
X35530790Y-111014791D01*
X35119765Y-111014791D01*
X35128971Y-110980848D01*
X35144300Y-110911809D01*
X35153604Y-110854818D01*
X35157414Y-110797694D01*
X35153214Y-110737729D01*
X35139758Y-110664421D01*
X35122479Y-110592956D01*
X35102149Y-110506785D01*
X35084216Y-110418293D01*
X35074234Y-110358345D01*
X35801784Y-110358345D01*
X35803063Y-110421278D01*
X35810824Y-110482886D01*
X35824991Y-110534541D01*
X35840349Y-110562263D01*
X35877712Y-110584345D01*
X35921815Y-110578448D01*
X35948257Y-110559911D01*
X35971835Y-110515430D01*
X35975974Y-110456506D01*
X35963785Y-110391912D01*
X35938380Y-110330422D01*
X35935264Y-110326068D01*
X36180494Y-110326068D01*
X36192918Y-110398055D01*
X36219503Y-110493386D01*
X36228855Y-110522818D01*
X36301289Y-110701623D01*
X36397384Y-110868889D01*
X36511556Y-111015065D01*
X36525425Y-111029916D01*
X36581692Y-111085864D01*
X36622186Y-111117189D01*
X36651637Y-111126223D01*
X36674775Y-111115297D01*
X36678011Y-111111792D01*
X37233436Y-111111792D01*
X37234136Y-111261810D01*
X37266166Y-111410859D01*
X37329797Y-111554887D01*
X37356245Y-111598287D01*
X37387523Y-111629240D01*
X37418294Y-111633699D01*
X37439961Y-111610809D01*
X37441368Y-111606754D01*
X37471653Y-111533835D01*
X37517072Y-111453873D01*
X37541586Y-111417983D01*
X37560465Y-111389289D01*
X37572662Y-111360040D01*
X37579613Y-111322069D01*
X37582757Y-111267211D01*
X37583531Y-111187301D01*
X37583534Y-111179756D01*
X37590664Y-111029108D01*
X37611750Y-110904297D01*
X37646336Y-110807633D01*
X37662661Y-110779162D01*
X37679090Y-110728890D01*
X37662529Y-110681449D01*
X37623434Y-110645750D01*
X37563621Y-110625135D01*
X37499667Y-110635414D01*
X37437482Y-110675137D01*
X37416602Y-110696439D01*
X37324940Y-110825054D01*
X37263794Y-110964856D01*
X37233436Y-111111792D01*
X36678011Y-111111792D01*
X36682233Y-111107220D01*
X36697695Y-111077797D01*
X36714135Y-111031779D01*
X36717361Y-111020551D01*
X36734940Y-110970828D01*
X36755364Y-110932188D01*
X36759057Y-110927417D01*
X36796151Y-110861830D01*
X36816400Y-110776543D01*
X36818354Y-110682024D01*
X36804295Y-110601340D01*
X36776298Y-110546821D01*
X36722986Y-110483970D01*
X36649955Y-110418300D01*
X36562799Y-110355324D01*
X36540267Y-110341142D01*
X36435521Y-110278718D01*
X36354715Y-110234911D01*
X36294290Y-110208571D01*
X36250687Y-110198549D01*
X36220347Y-110203695D01*
X36199710Y-110222860D01*
X36195596Y-110229807D01*
X36181598Y-110271846D01*
X36180494Y-110326068D01*
X35935264Y-110326068D01*
X35902869Y-110280810D01*
X35860365Y-110251849D01*
X35837596Y-110247853D01*
X35818975Y-110263006D01*
X35807063Y-110302712D01*
X35801784Y-110358345D01*
X35074234Y-110358345D01*
X35071475Y-110341783D01*
X35068234Y-110315587D01*
X35045179Y-110197555D01*
X35003402Y-110091031D01*
X34946410Y-110001475D01*
X34877708Y-109934350D01*
X34800801Y-109895115D01*
X34797802Y-109894258D01*
X34699702Y-109877376D01*
X34616214Y-109883651D01*
X34551168Y-109911737D01*
X34508395Y-109960288D01*
X34494605Y-110000785D01*
X34493098Y-110064418D01*
X32623057Y-110064418D01*
X32618045Y-110059499D01*
X32597841Y-110042552D01*
X32543509Y-110015623D01*
X32466894Y-110005540D01*
X32464926Y-110005491D01*
X32413646Y-110005278D01*
X32388482Y-110010271D01*
X32381711Y-110024282D01*
X32384477Y-110045219D01*
X32389874Y-110097110D01*
X32392158Y-110171746D01*
X32391499Y-110258168D01*
X32388068Y-110345415D01*
X32382035Y-110422524D01*
X32378117Y-110453717D01*
X32363773Y-110549514D01*
X32061148Y-110549514D01*
X32063100Y-110484214D01*
X32059041Y-110413674D01*
X32048298Y-110357764D01*
X32030587Y-110323301D01*
X32013881Y-110315587D01*
X32001902Y-110330484D01*
X31987301Y-110368459D01*
X31979587Y-110396020D01*
X31960472Y-110459029D01*
X31933690Y-110531178D01*
X31917575Y-110569006D01*
X31878866Y-110665877D01*
X31857743Y-110745907D01*
X31855109Y-110804939D01*
X30344892Y-110804939D01*
X30325832Y-110770031D01*
X30293490Y-110715744D01*
X30273825Y-110687672D01*
X30217182Y-110641202D01*
X30132421Y-110603923D01*
X30017948Y-110575318D01*
X29872173Y-110554872D01*
X29861271Y-110553783D01*
X29701233Y-110536121D01*
X29568069Y-110515984D01*
X29454786Y-110491141D01*
X29354391Y-110459363D01*
X29259891Y-110418418D01*
X29164294Y-110366078D01*
X29060607Y-110300111D01*
X29055794Y-110296891D01*
X28959311Y-110220325D01*
X28865071Y-110124510D01*
X28783494Y-110020987D01*
X28734936Y-109941501D01*
X28722032Y-109899852D01*
X28711502Y-109834440D01*
X28708257Y-109800920D01*
X28761267Y-109800920D01*
X28769217Y-109860451D01*
X28795197Y-109923364D01*
X28842403Y-109995902D01*
X28894674Y-110061587D01*
X28946339Y-110121714D01*
X28988871Y-110166124D01*
X29031709Y-110202843D01*
X29084291Y-110239896D01*
X29156055Y-110285310D01*
X29162287Y-110289162D01*
X29248656Y-110339150D01*
X29329296Y-110377119D01*
X29414530Y-110406763D01*
X29514682Y-110431775D01*
X29616400Y-110451639D01*
X29727713Y-110470373D01*
X29811540Y-110480777D01*
X29873255Y-110482714D01*
X29918233Y-110476051D01*
X29951846Y-110460654D01*
X29973426Y-110442700D01*
X30000897Y-110409167D01*
X30004165Y-110382238D01*
X30002270Y-110377714D01*
X30480000Y-110377714D01*
X30482519Y-110435773D01*
X30492685Y-110472091D01*
X30514411Y-110498588D01*
X30521701Y-110504746D01*
X30566965Y-110528869D01*
X30614834Y-110526845D01*
X30663610Y-110516567D01*
X30700134Y-110509926D01*
X30733675Y-110504921D01*
X30745904Y-110503265D01*
X30759206Y-110486636D01*
X30772898Y-110446475D01*
X30784535Y-110392997D01*
X30791676Y-110336419D01*
X30792801Y-110307120D01*
X30784188Y-110241899D01*
X30762155Y-110174996D01*
X30731666Y-110117852D01*
X30697684Y-110081909D01*
X30694220Y-110079886D01*
X30651914Y-110066362D01*
X30608113Y-110061587D01*
X30575365Y-110063977D01*
X30560436Y-110077494D01*
X30556356Y-110111653D01*
X30556200Y-110132462D01*
X30546520Y-110198361D01*
X30518100Y-110243893D01*
X30493982Y-110278393D01*
X30482503Y-110322957D01*
X30480000Y-110377714D01*
X30002270Y-110377714D01*
X29997966Y-110367443D01*
X29982060Y-110342832D01*
X29961208Y-110325921D01*
X29929196Y-110315196D01*
X29879812Y-110309138D01*
X29806843Y-110306232D01*
X29743400Y-110305312D01*
X29608662Y-110300766D01*
X29495301Y-110288132D01*
X29396751Y-110264430D01*
X29306446Y-110226683D01*
X29217820Y-110171912D01*
X29124308Y-110097139D01*
X29019345Y-109999385D01*
X28977247Y-109957751D01*
X28761267Y-109741770D01*
X28761267Y-109800920D01*
X28708257Y-109800920D01*
X28703699Y-109753842D01*
X28698976Y-109666638D01*
X28697686Y-109581406D01*
X28699439Y-109528927D01*
X28750230Y-109528927D01*
X28754509Y-109577244D01*
X28775032Y-109630000D01*
X28814006Y-109690979D01*
X28873640Y-109763967D01*
X28956143Y-109852747D01*
X29006887Y-109904472D01*
X29095648Y-109991942D01*
X29166921Y-110057532D01*
X29225283Y-110105055D01*
X29275309Y-110138322D01*
X29308005Y-110155252D01*
X29474644Y-110213458D01*
X29650612Y-110241260D01*
X29743875Y-110243088D01*
X29813338Y-110239531D01*
X29861392Y-110231347D01*
X29900480Y-110214925D01*
X29943044Y-110186651D01*
X29946177Y-110184353D01*
X30002439Y-110148688D01*
X30053864Y-110132446D01*
X30102336Y-110129320D01*
X30158720Y-110123683D01*
X30183027Y-110108031D01*
X30174888Y-110084251D01*
X30133932Y-110054233D01*
X30118668Y-110046048D01*
X30079172Y-110028407D01*
X30043133Y-110021220D01*
X29997716Y-110023455D01*
X29942753Y-110031887D01*
X29814288Y-110040716D01*
X29700250Y-110022159D01*
X29603441Y-109977896D01*
X29526659Y-109909607D01*
X29472704Y-109818971D01*
X29450230Y-109741247D01*
X29506333Y-109741247D01*
X29521911Y-109801439D01*
X29564726Y-109861507D01*
X29628901Y-109914229D01*
X29662701Y-109933393D01*
X29738620Y-109960471D01*
X29826124Y-109975346D01*
X29913086Y-109977270D01*
X29987379Y-109965494D01*
X30014334Y-109955083D01*
X30048655Y-109921770D01*
X30072644Y-109869727D01*
X30081137Y-109813695D01*
X30075401Y-109780775D01*
X30065451Y-109764667D01*
X30052102Y-109772320D01*
X30030788Y-109804304D01*
X30005524Y-109838704D01*
X29976408Y-109854379D01*
X29929335Y-109858361D01*
X29922311Y-109858387D01*
X29870947Y-109854754D01*
X29836744Y-109838470D01*
X29803310Y-109801457D01*
X29801220Y-109798728D01*
X29767731Y-109735444D01*
X29755232Y-109667477D01*
X29764523Y-109605703D01*
X29784527Y-109571853D01*
X29801073Y-109542952D01*
X30933723Y-109542952D01*
X30934164Y-109562447D01*
X30948716Y-109591727D01*
X30968496Y-109615712D01*
X30979889Y-109621320D01*
X30997926Y-109634291D01*
X31025514Y-109667231D01*
X31040716Y-109688912D01*
X31074931Y-109730268D01*
X31127446Y-109782041D01*
X31188849Y-109835186D01*
X31211690Y-109853198D01*
X31294380Y-109922234D01*
X31352714Y-109987258D01*
X31388101Y-110054208D01*
X31401948Y-110129021D01*
X31395662Y-110217636D01*
X31370652Y-110325992D01*
X31344223Y-110412277D01*
X31317104Y-110498718D01*
X31300941Y-110559394D01*
X31294603Y-110600176D01*
X31296956Y-110626935D01*
X31300905Y-110636643D01*
X31326156Y-110666705D01*
X31349919Y-110665083D01*
X31363752Y-110643507D01*
X31383686Y-110623213D01*
X31426108Y-110595927D01*
X31482101Y-110567333D01*
X31485987Y-110565570D01*
X31567484Y-110526317D01*
X31620678Y-110490918D01*
X31649238Y-110452061D01*
X31656833Y-110402430D01*
X31647133Y-110334712D01*
X31632331Y-110273838D01*
X31619199Y-110210729D01*
X31606800Y-110129548D01*
X31597480Y-110046053D01*
X31596288Y-110031712D01*
X31589942Y-109962669D01*
X31582911Y-109905765D01*
X31576387Y-109870076D01*
X31574258Y-109863908D01*
X31556860Y-109850950D01*
X31515006Y-109826584D01*
X31454126Y-109793533D01*
X31379652Y-109754515D01*
X31297012Y-109712253D01*
X31211636Y-109669466D01*
X31128955Y-109628877D01*
X31054399Y-109593205D01*
X30993397Y-109565172D01*
X30951380Y-109547498D01*
X30933777Y-109542905D01*
X30933723Y-109542952D01*
X29801073Y-109542952D01*
X29801360Y-109542452D01*
X29787722Y-109526207D01*
X29744582Y-109523679D01*
X29709411Y-109528208D01*
X29633323Y-109554931D01*
X29569468Y-109603216D01*
X29524848Y-109665718D01*
X29506462Y-109735094D01*
X29506333Y-109741247D01*
X29450230Y-109741247D01*
X29448565Y-109735492D01*
X29424294Y-109673707D01*
X29394383Y-109643929D01*
X29368131Y-109629164D01*
X29343478Y-109625741D01*
X29309304Y-109634508D01*
X29259626Y-109654177D01*
X29197052Y-109676582D01*
X29142739Y-109684971D01*
X29077801Y-109681874D01*
X29064104Y-109680359D01*
X28987677Y-109667173D01*
X28938345Y-109644624D01*
X28910517Y-109606248D01*
X28898601Y-109545579D01*
X28896734Y-109486853D01*
X28894270Y-109425752D01*
X28887766Y-109379694D01*
X28878547Y-109358079D01*
X28853300Y-109360227D01*
X28820707Y-109385133D01*
X28788194Y-109425082D01*
X28763189Y-109472356D01*
X28759987Y-109481264D01*
X28750230Y-109528927D01*
X28699439Y-109528927D01*
X28700181Y-109506724D01*
X28706813Y-109451172D01*
X28713858Y-109428718D01*
X28751767Y-109374936D01*
X28808794Y-109313336D01*
X28835032Y-109289531D01*
X29907387Y-109289531D01*
X29934927Y-109317617D01*
X29978211Y-109337841D01*
X30035312Y-109361839D01*
X30084951Y-109388893D01*
X30101424Y-109400640D01*
X30142480Y-109425969D01*
X30169127Y-109421037D01*
X30181066Y-109393521D01*
X30180256Y-109359152D01*
X30171240Y-109308893D01*
X30166165Y-109289091D01*
X30151955Y-109243932D01*
X30135123Y-109222301D01*
X30104144Y-109215593D01*
X30067166Y-109215170D01*
X29991394Y-109221631D01*
X29937952Y-109238323D01*
X29909172Y-109262028D01*
X29907387Y-109289531D01*
X28835032Y-109289531D01*
X28874911Y-109253352D01*
X28940092Y-109204418D01*
X28972598Y-109185281D01*
X29090718Y-109135908D01*
X29209830Y-109105280D01*
X29214199Y-109104863D01*
X29465270Y-109104863D01*
X29477740Y-109120220D01*
X29521861Y-109132832D01*
X29598703Y-109143903D01*
X29605321Y-109144650D01*
X29634738Y-109138308D01*
X29674995Y-109119471D01*
X29677450Y-109118040D01*
X29713419Y-109089853D01*
X29716093Y-109066536D01*
X29685254Y-109046835D01*
X29663913Y-109039809D01*
X29619875Y-109034397D01*
X29569610Y-109045569D01*
X29530998Y-109061101D01*
X29483379Y-109085557D01*
X29465270Y-109104863D01*
X29214199Y-109104863D01*
X29300898Y-109096588D01*
X29354281Y-109089351D01*
X29408288Y-109065778D01*
X29467550Y-109022631D01*
X29536700Y-108956672D01*
X29600857Y-108886880D01*
X29652695Y-108851111D01*
X29716044Y-108841615D01*
X29785093Y-108855561D01*
D12*
X112522000Y-70802500D03*
X111252000Y-70802500D03*
X109982000Y-70802500D03*
D13*
X108712000Y-70802500D03*
D14*
X57785000Y-60579000D03*
X73025000Y-60579000D03*
X75565000Y-60579000D03*
X78105000Y-60579000D03*
X80645000Y-60579000D03*
X83185000Y-60579000D03*
X85725000Y-60579000D03*
X88265000Y-60579000D03*
X90805000Y-60579000D03*
X93345000Y-60579000D03*
X95885000Y-60579000D03*
X98425000Y-60579000D03*
X100965000Y-60579000D03*
X103505000Y-60579000D03*
X106045000Y-60579000D03*
X108585000Y-60579000D03*
X111125000Y-60579000D03*
X113665000Y-60579000D03*
X70485000Y-60579000D03*
X60325000Y-60579000D03*
X62865000Y-60579000D03*
X65405000Y-60579000D03*
D15*
X55245000Y-60579000D03*
D14*
X67945000Y-60579000D03*
D16*
X98191900Y-76270400D03*
D17*
X96921900Y-65475400D03*
X96921900Y-104845400D03*
X46121900Y-104845400D03*
X46121900Y-65475400D03*
D18*
X98191900Y-78810400D03*
X98191900Y-81350400D03*
X98191900Y-83890400D03*
X98191900Y-86430400D03*
X98191900Y-88970400D03*
X98191900Y-91510400D03*
X98191900Y-94050400D03*
D19*
X43561000Y-59944000D03*
D20*
X51181000Y-59944000D03*
D21*
X107900000Y-90916000D03*
D22*
X110400000Y-90916000D03*
X112900000Y-90916000D03*
D23*
X104800000Y-83416000D03*
X116000000Y-83416000D03*
D22*
X107900000Y-76416000D03*
X112900000Y-76416000D03*
D24*
X90978300Y-30083000D03*
X90978300Y-27543000D03*
D25*
X90978300Y-25003000D03*
D26*
X26035000Y-88646000D03*
X23495000Y-88646000D03*
X26035000Y-91186000D03*
X23495000Y-91186000D03*
X26035000Y-93726000D03*
D27*
X23495000Y-93726000D03*
D28*
X54434700Y-91259700D03*
X87454700Y-98879700D03*
X56974700Y-91259700D03*
X84914700Y-98879700D03*
X59514700Y-91259700D03*
X82374700Y-98879700D03*
X62054700Y-91259700D03*
X79834700Y-98879700D03*
X64594700Y-91259700D03*
X77294700Y-98879700D03*
X67134700Y-91259700D03*
X74754700Y-98879700D03*
X69674700Y-91259700D03*
X72214700Y-98879700D03*
X72214700Y-91259700D03*
X69674700Y-98879700D03*
X74754700Y-91259700D03*
X67134700Y-98879700D03*
X77294700Y-91259700D03*
X64594700Y-98879700D03*
X79834700Y-91259700D03*
X62054700Y-98879700D03*
X82374700Y-91259700D03*
X59514700Y-98879700D03*
X84914700Y-91259700D03*
X56974700Y-98879700D03*
X87454700Y-91259700D03*
D29*
X54434700Y-98879700D03*
D18*
X44831000Y-76263500D03*
X44831000Y-78803500D03*
X44831000Y-81343500D03*
X44831000Y-83883500D03*
X44831000Y-86423500D03*
X44831000Y-88963500D03*
X44831000Y-91503500D03*
D17*
X46101000Y-69913500D03*
X46101000Y-100393500D03*
X96901000Y-100393500D03*
X96901000Y-69913500D03*
D16*
X44831000Y-94043500D03*
D28*
X81216500Y-70485000D03*
X88836500Y-78105000D03*
X83756500Y-70485000D03*
X86296500Y-78105000D03*
X86296500Y-70485000D03*
X83756500Y-78105000D03*
X88836500Y-70485000D03*
D29*
X81216500Y-78105000D03*
D14*
X57785000Y-37719000D03*
X57785000Y-35179000D03*
X55245000Y-35179000D03*
X73025000Y-35179000D03*
X73025000Y-37719000D03*
X75565000Y-35179000D03*
X75565000Y-37719000D03*
X78105000Y-35179000D03*
X78105000Y-37719000D03*
X80645000Y-35179000D03*
X80645000Y-37719000D03*
X83185000Y-35179000D03*
X83185000Y-37719000D03*
X85725000Y-35179000D03*
X85725000Y-37719000D03*
X88265000Y-35179000D03*
X88265000Y-37719000D03*
X90805000Y-35179000D03*
X90805000Y-37719000D03*
X93345000Y-35179000D03*
X93345000Y-37719000D03*
X95885000Y-35179000D03*
X95885000Y-37719000D03*
X98425000Y-35179000D03*
X98425000Y-37719000D03*
X100965000Y-35179000D03*
X100965000Y-37719000D03*
X103505000Y-35179000D03*
X103505000Y-37719000D03*
X106045000Y-35179000D03*
X106045000Y-37719000D03*
X108585000Y-35179000D03*
X108585000Y-37719000D03*
X111125000Y-35179000D03*
X111125000Y-37719000D03*
X113665000Y-35179000D03*
X113665000Y-37719000D03*
X70485000Y-35179000D03*
X70485000Y-37719000D03*
X60325000Y-37719000D03*
X62865000Y-35179000D03*
X62865000Y-37719000D03*
X65405000Y-35179000D03*
X65405000Y-37719000D03*
X60325000Y-35179000D03*
X55245000Y-37719000D03*
X67945000Y-35179000D03*
X67945000Y-37719000D03*
X57785000Y-42799000D03*
X57785000Y-40259000D03*
X55245000Y-40259000D03*
X73025000Y-40259000D03*
X73025000Y-42799000D03*
X75565000Y-40259000D03*
X75565000Y-42799000D03*
X78105000Y-40259000D03*
X78105000Y-42799000D03*
X80645000Y-40259000D03*
X80645000Y-42799000D03*
X83185000Y-40259000D03*
X83185000Y-42799000D03*
X85725000Y-40259000D03*
X85725000Y-42799000D03*
X88265000Y-40259000D03*
X88265000Y-42799000D03*
X90805000Y-40259000D03*
X90805000Y-42799000D03*
X93345000Y-40259000D03*
X93345000Y-42799000D03*
X95885000Y-40259000D03*
X95885000Y-42799000D03*
X98425000Y-40259000D03*
X98425000Y-42799000D03*
X100965000Y-40259000D03*
X100965000Y-42799000D03*
X103505000Y-40259000D03*
X103505000Y-42799000D03*
X106045000Y-40259000D03*
X106045000Y-42799000D03*
X108585000Y-40259000D03*
X108585000Y-42799000D03*
X111125000Y-40259000D03*
X111125000Y-42799000D03*
X113665000Y-40259000D03*
X113665000Y-42799000D03*
X70485000Y-40259000D03*
X70485000Y-42799000D03*
X60325000Y-42799000D03*
X62865000Y-40259000D03*
X62865000Y-42799000D03*
X65405000Y-40259000D03*
X65405000Y-42799000D03*
X60325000Y-40259000D03*
X55245000Y-42799000D03*
X67945000Y-40259000D03*
X67945000Y-42799000D03*
X57785000Y-47879000D03*
X57785000Y-45339000D03*
X55245000Y-45339000D03*
X73025000Y-45339000D03*
X73025000Y-47879000D03*
X75565000Y-45339000D03*
X75565000Y-47879000D03*
X78105000Y-45339000D03*
X78105000Y-47879000D03*
X80645000Y-45339000D03*
X80645000Y-47879000D03*
X83185000Y-45339000D03*
X83185000Y-47879000D03*
X85725000Y-45339000D03*
X85725000Y-47879000D03*
X88265000Y-45339000D03*
X88265000Y-47879000D03*
X90805000Y-45339000D03*
X90805000Y-47879000D03*
X93345000Y-45339000D03*
X93345000Y-47879000D03*
X95885000Y-45339000D03*
X95885000Y-47879000D03*
X98425000Y-45339000D03*
X98425000Y-47879000D03*
X100965000Y-45339000D03*
X100965000Y-47879000D03*
X103505000Y-45339000D03*
X103505000Y-47879000D03*
X106045000Y-45339000D03*
X106045000Y-47879000D03*
X108585000Y-45339000D03*
X108585000Y-47879000D03*
X111125000Y-45339000D03*
X111125000Y-47879000D03*
X113665000Y-45339000D03*
X113665000Y-47879000D03*
X70485000Y-45339000D03*
X70485000Y-47879000D03*
X60325000Y-47879000D03*
X62865000Y-45339000D03*
X62865000Y-47879000D03*
X65405000Y-45339000D03*
X65405000Y-47879000D03*
X60325000Y-45339000D03*
X55245000Y-47879000D03*
X67945000Y-45339000D03*
X67945000Y-47879000D03*
X57785000Y-52959000D03*
X57785000Y-50419000D03*
X55245000Y-50419000D03*
X73025000Y-50419000D03*
X73025000Y-52959000D03*
X75565000Y-50419000D03*
X75565000Y-52959000D03*
X78105000Y-50419000D03*
X78105000Y-52959000D03*
X80645000Y-50419000D03*
X80645000Y-52959000D03*
X83185000Y-50419000D03*
X83185000Y-52959000D03*
X85725000Y-50419000D03*
X85725000Y-52959000D03*
X88265000Y-50419000D03*
X88265000Y-52959000D03*
X90805000Y-50419000D03*
X90805000Y-52959000D03*
X93345000Y-50419000D03*
X93345000Y-52959000D03*
X95885000Y-50419000D03*
X95885000Y-52959000D03*
X98425000Y-50419000D03*
X98425000Y-52959000D03*
X100965000Y-50419000D03*
X100965000Y-52959000D03*
X103505000Y-50419000D03*
X103505000Y-52959000D03*
X106045000Y-50419000D03*
X106045000Y-52959000D03*
X108585000Y-50419000D03*
X108585000Y-52959000D03*
X111125000Y-50419000D03*
X111125000Y-52959000D03*
X113665000Y-50419000D03*
X113665000Y-52959000D03*
X70485000Y-50419000D03*
X70485000Y-52959000D03*
X60325000Y-52959000D03*
X62865000Y-50419000D03*
X62865000Y-52959000D03*
X65405000Y-50419000D03*
X65405000Y-52959000D03*
X60325000Y-50419000D03*
X55245000Y-52959000D03*
X67945000Y-50419000D03*
X67945000Y-52959000D03*
X113665000Y-58039000D03*
X113665000Y-55499000D03*
X111125000Y-58039000D03*
X111125000Y-55499000D03*
X108585000Y-58039000D03*
X108585000Y-55499000D03*
X106045000Y-58039000D03*
X106045000Y-55499000D03*
X103505000Y-58039000D03*
X103505000Y-55499000D03*
X100965000Y-58039000D03*
X100965000Y-55499000D03*
X98425000Y-58039000D03*
X98425000Y-55499000D03*
X95885000Y-58039000D03*
X95885000Y-55499000D03*
X93345000Y-58039000D03*
X93345000Y-55499000D03*
X90805000Y-58039000D03*
X90805000Y-55499000D03*
X88265000Y-58039000D03*
X88265000Y-55499000D03*
X85725000Y-58039000D03*
X85725000Y-55499000D03*
X83185000Y-58039000D03*
X83185000Y-55499000D03*
X80645000Y-58039000D03*
X80645000Y-55499000D03*
X78105000Y-58039000D03*
X78105000Y-55499000D03*
X75565000Y-58039000D03*
X75565000Y-55499000D03*
X73025000Y-58039000D03*
X73025000Y-55499000D03*
X70485000Y-58039000D03*
X70485000Y-55499000D03*
X67945000Y-58039000D03*
X67945000Y-55499000D03*
X65405000Y-58039000D03*
X65405000Y-55499000D03*
X62865000Y-58039000D03*
X62865000Y-55499000D03*
X60325000Y-58039000D03*
X60325000Y-55499000D03*
X57785000Y-58039000D03*
X57785000Y-55499000D03*
X55245000Y-58039000D03*
X55245000Y-55499000D03*
D30*
X78105000Y-76945500D03*
X78105000Y-71945500D03*
X92011500Y-71898500D03*
X92011500Y-76898500D03*
D31*
X28702000Y-75558000D03*
X28702000Y-78058000D03*
X28702000Y-80558000D03*
D32*
G36*
X29451504Y-82209204D02*
G01*
X29475773Y-82212804D01*
X29499571Y-82218765D01*
X29522671Y-82227030D01*
X29544849Y-82237520D01*
X29565893Y-82250133D01*
X29585598Y-82264747D01*
X29603777Y-82281223D01*
X29620253Y-82299402D01*
X29634867Y-82319107D01*
X29647480Y-82340151D01*
X29657970Y-82362329D01*
X29666235Y-82385429D01*
X29672196Y-82409227D01*
X29675796Y-82433496D01*
X29677000Y-82458000D01*
X29677000Y-83658000D01*
X29675796Y-83682504D01*
X29672196Y-83706773D01*
X29666235Y-83730571D01*
X29657970Y-83753671D01*
X29647480Y-83775849D01*
X29634867Y-83796893D01*
X29620253Y-83816598D01*
X29603777Y-83834777D01*
X29585598Y-83851253D01*
X29565893Y-83865867D01*
X29544849Y-83878480D01*
X29522671Y-83888970D01*
X29499571Y-83897235D01*
X29475773Y-83903196D01*
X29451504Y-83906796D01*
X29427000Y-83908000D01*
X27977000Y-83908000D01*
X27952496Y-83906796D01*
X27928227Y-83903196D01*
X27904429Y-83897235D01*
X27881329Y-83888970D01*
X27859151Y-83878480D01*
X27838107Y-83865867D01*
X27818402Y-83851253D01*
X27800223Y-83834777D01*
X27783747Y-83816598D01*
X27769133Y-83796893D01*
X27756520Y-83775849D01*
X27746030Y-83753671D01*
X27737765Y-83730571D01*
X27731804Y-83706773D01*
X27728204Y-83682504D01*
X27727000Y-83658000D01*
X27727000Y-82458000D01*
X27728204Y-82433496D01*
X27731804Y-82409227D01*
X27737765Y-82385429D01*
X27746030Y-82362329D01*
X27756520Y-82340151D01*
X27769133Y-82319107D01*
X27783747Y-82299402D01*
X27800223Y-82281223D01*
X27818402Y-82264747D01*
X27838107Y-82250133D01*
X27859151Y-82237520D01*
X27881329Y-82227030D01*
X27904429Y-82218765D01*
X27928227Y-82212804D01*
X27952496Y-82209204D01*
X27977000Y-82208000D01*
X29427000Y-82208000D01*
X29451504Y-82209204D01*
X29451504Y-82209204D01*
G37*
D33*
X28702000Y-83058000D03*
D14*
X77050200Y-103769000D03*
X81930200Y-103769000D03*
D19*
X33020000Y-75501500D03*
D20*
X40640000Y-75501500D03*
D24*
X45964400Y-30154100D03*
X45964400Y-27614100D03*
D25*
X45964400Y-25074100D03*
D24*
X68204600Y-30210000D03*
X68204600Y-27670000D03*
D25*
X68204600Y-25130000D03*
D34*
X26500000Y-56080000D03*
D35*
X26500000Y-51000000D03*
D34*
X26500000Y-44740000D03*
X26500000Y-39660000D03*
X26500000Y-34580000D03*
D35*
X26500000Y-29500000D03*
D19*
X105474000Y-114935000D03*
D20*
X105474000Y-107315000D03*
D26*
X100266500Y-114872000D03*
X97726500Y-114872000D03*
D27*
X95186500Y-114872000D03*
D26*
X100266500Y-109792000D03*
X97726500Y-109792000D03*
D27*
X95186500Y-109792000D03*
D30*
X50990500Y-77580500D03*
X50990500Y-72580500D03*
X37973000Y-49483000D03*
X37973000Y-54483000D03*
X72134700Y-102690000D03*
X67134700Y-102690000D03*
D36*
X36490200Y-24820100D03*
D37*
X39030200Y-24820100D03*
X37760200Y-24820100D03*
D36*
X34925000Y-31115000D03*
D37*
X37465000Y-31115000D03*
X36195000Y-31115000D03*
D38*
X53683400Y-114314000D03*
X53683400Y-109234000D03*
X61303400Y-114314000D03*
X61303400Y-109234000D03*
X67882000Y-114225000D03*
X67882000Y-109145000D03*
X75502000Y-114225000D03*
X75502000Y-109145000D03*
X81712300Y-114314000D03*
X81712300Y-109234000D03*
X89332300Y-114314000D03*
X89332300Y-109234000D03*
D19*
X33046000Y-85937600D03*
D20*
X40666000Y-85937600D03*
D19*
X33020600Y-78109300D03*
D20*
X40640600Y-78109300D03*
D19*
X33020600Y-80695000D03*
D20*
X40640600Y-80695000D03*
D19*
X33020600Y-83174100D03*
D20*
X40640600Y-83174100D03*
D19*
X46101000Y-42291000D03*
D20*
X38481000Y-42291000D03*
D19*
X38481000Y-37338000D03*
D20*
X46101000Y-37338000D03*
D19*
X40386000Y-46990000D03*
D20*
X48006000Y-46990000D03*
D19*
X38481000Y-39751000D03*
D20*
X46101000Y-39751000D03*
D39*
X27000000Y-70286000D03*
X27000000Y-61286000D03*
D40*
X28000000Y-65786000D03*
D41*
X34000000Y-65786000D03*
D28*
X48514000Y-57150000D03*
X40894000Y-49530000D03*
X45974000Y-57150000D03*
X43434000Y-49530000D03*
X43434000Y-57150000D03*
X45974000Y-49530000D03*
X40894000Y-57150000D03*
D29*
X48514000Y-49530000D03*
D30*
X40687000Y-70485000D03*
X35687000Y-70485000D03*
X50546000Y-41990000D03*
X50546000Y-46990000D03*
D28*
X54610000Y-70548500D03*
X72390000Y-78168500D03*
X57150000Y-70548500D03*
X69850000Y-78168500D03*
X59690000Y-70548500D03*
X67310000Y-78168500D03*
X62230000Y-70548500D03*
X64770000Y-78168500D03*
X64770000Y-70548500D03*
X62230000Y-78168500D03*
X67310000Y-70548500D03*
X59690000Y-78168500D03*
X69850000Y-70548500D03*
X57150000Y-78168500D03*
X72390000Y-70548500D03*
D29*
X54610000Y-78168500D03*
D19*
X105474000Y-103124000D03*
D20*
X105474000Y-95504000D03*
D19*
X116776000Y-27495500D03*
D20*
X116776000Y-35115500D03*
D19*
X112522000Y-30861000D03*
D20*
X112522000Y-23241000D03*
D19*
X42007100Y-24870900D03*
D20*
X42007100Y-32490900D03*
D19*
X40640000Y-59944000D03*
D20*
X40640000Y-67564000D03*
D19*
X51562000Y-57023000D03*
D20*
X51562000Y-49403000D03*
D42*
X80914900Y-65158300D03*
X63500000Y-74274000D03*
X68229000Y-92312800D03*
X76294500Y-80539900D03*
X90960100Y-98796100D03*
X83696800Y-63637000D03*
D43*
X45974000Y-46990000D02*
X43807100Y-44823100D01*
X43807100Y-44823100D02*
X43807100Y-42044900D01*
X43807100Y-42044900D02*
X46101000Y-39751000D01*
X43434000Y-49530000D02*
X45974000Y-46990000D01*
X48006000Y-46990000D02*
X50546000Y-46990000D01*
X45974000Y-46990000D02*
X48006000Y-46990000D01*
X43561000Y-59944000D02*
X43561000Y-57277000D01*
X43561000Y-57277000D02*
X43434000Y-57150000D01*
X40640000Y-59944000D02*
X43561000Y-59944000D01*
X51562000Y-57023000D02*
X51562000Y-59563000D01*
X51562000Y-59563000D02*
X51181000Y-59944000D01*
X38481000Y-37338000D02*
X35723000Y-34580000D01*
X35723000Y-34580000D02*
X26500000Y-34580000D01*
X38481000Y-39751000D02*
X38481000Y-37338000D01*
D44*
X26500000Y-29500000D02*
X29800000Y-29500000D01*
X29800000Y-29500000D02*
X31685900Y-27614100D01*
X31685900Y-27614100D02*
X45964400Y-27614100D01*
D43*
X39030200Y-24820100D02*
X41956300Y-24820100D01*
X41956300Y-24820100D02*
X42007100Y-24870900D01*
X45964400Y-25074100D02*
X42210300Y-25074100D01*
X42210300Y-25074100D02*
X42007100Y-24870900D01*
X112522000Y-23241000D02*
X116776000Y-27495500D01*
D45*
X38785000Y-22148000D02*
X37796000Y-22148000D01*
X37796000Y-22148000D02*
X37760200Y-22183800D01*
X37760200Y-22183800D02*
X37760200Y-24820100D01*
D43*
X112522000Y-23241000D02*
X111429000Y-22148000D01*
X111429000Y-22148000D02*
X38785000Y-22148000D01*
X112522000Y-23241000D02*
X112522000Y-23368000D01*
D46*
X77294700Y-98879700D02*
X77294700Y-100105000D01*
X81930200Y-103769000D02*
X78266200Y-100105000D01*
X78266200Y-100105000D02*
X77294700Y-100105000D01*
X77050200Y-103769000D02*
X74754700Y-101473500D01*
X74754700Y-101473500D02*
X74754700Y-98879700D01*
X78105000Y-71945500D02*
X67945000Y-61785500D01*
X67945000Y-61785500D02*
X67945000Y-60579000D01*
X44831000Y-91503500D02*
X43050000Y-89722500D01*
X43050000Y-89722500D02*
X43050000Y-78896200D01*
X43050000Y-78896200D02*
X44365700Y-77580500D01*
X44365700Y-77580500D02*
X50990500Y-77580500D01*
X54610000Y-78168500D02*
X51578500Y-78168500D01*
X51578500Y-78168500D02*
X50990500Y-77580500D01*
X62865000Y-60579000D02*
X65405000Y-60579000D01*
X86296500Y-70485000D02*
X86296500Y-78105000D01*
X69674700Y-98879700D02*
X69674700Y-97654400D01*
X69674700Y-97654400D02*
X74754700Y-92574400D01*
X74754700Y-92574400D02*
X74754700Y-91259700D01*
X69674700Y-98879700D02*
X69674700Y-100150000D01*
X69674700Y-100150000D02*
X67134700Y-102690000D01*
X69612500Y-114885300D02*
X69612500Y-105167800D01*
X69612500Y-105167800D02*
X67134700Y-102690000D01*
X27310300Y-93726000D02*
X49076300Y-115492000D01*
X49076300Y-115492000D02*
X69005800Y-115492000D01*
X69005800Y-115492000D02*
X69612500Y-114885300D01*
X105474000Y-107315000D02*
X105474000Y-111518600D01*
X105474000Y-111518600D02*
X100260400Y-116732200D01*
X100260400Y-116732200D02*
X71459400Y-116732200D01*
X71459400Y-116732200D02*
X69612500Y-114885300D01*
X111252000Y-70802500D02*
X111252000Y-69477200D01*
X111252000Y-69477200D02*
X107999000Y-69477200D01*
X107999000Y-69477200D02*
X106474400Y-71001800D01*
X106474400Y-71001800D02*
X106474400Y-94129200D01*
X106474400Y-94129200D02*
X106668500Y-94323300D01*
X106668500Y-94323300D02*
X106668500Y-106120500D01*
X106668500Y-106120500D02*
X105474000Y-107315000D01*
X26035000Y-93726000D02*
X27310300Y-93726000D01*
X45987500Y-57136500D02*
X45987500Y-61116600D01*
X45987500Y-61116600D02*
X53532100Y-61116600D01*
X53532100Y-61116600D02*
X54069700Y-60579000D01*
X55245000Y-60579000D02*
X54069700Y-60579000D01*
D43*
X45987500Y-57136500D02*
X53062000Y-50062000D01*
X53062000Y-50062000D02*
X53062000Y-47392000D01*
X53062000Y-47392000D02*
X47961000Y-42291000D01*
X47961000Y-42291000D02*
X46101000Y-42291000D01*
X45974000Y-57150000D02*
X45987500Y-57136500D01*
X46801000Y-36638000D02*
X53229000Y-30210000D01*
X53229000Y-30210000D02*
X68204600Y-30210000D01*
X46101000Y-37338000D02*
X46801000Y-36638000D01*
X68204600Y-30210000D02*
X68204600Y-30195900D01*
X46801000Y-36638000D02*
X46101000Y-37338000D01*
X46101000Y-42291000D02*
X47601000Y-40791000D01*
X47601000Y-40791000D02*
X47601000Y-38838000D01*
X47601000Y-38838000D02*
X46101000Y-37338000D01*
D46*
X80914900Y-65158300D02*
X85494200Y-60579000D01*
X85494200Y-60579000D02*
X85725000Y-60579000D01*
D43*
X40640000Y-67564000D02*
X40640000Y-70438000D01*
X40640000Y-70438000D02*
X40687000Y-70485000D01*
D46*
X40666000Y-85937600D02*
X40666000Y-89021900D01*
X40666000Y-89021900D02*
X44343800Y-92699700D01*
X44343800Y-92699700D02*
X52706100Y-92699700D01*
X52706100Y-92699700D02*
X53095200Y-93088800D01*
X53095200Y-93088800D02*
X61999800Y-93088800D01*
X61999800Y-93088800D02*
X63369400Y-91719200D01*
X63369400Y-91719200D02*
X63369400Y-91259700D01*
X64594700Y-91259700D02*
X63369400Y-91259700D01*
X40640000Y-75501500D02*
X41769300Y-76630800D01*
X41769300Y-76630800D02*
X41769300Y-79566300D01*
X41769300Y-79566300D02*
X40640600Y-80695000D01*
X81216500Y-78105000D02*
X81216500Y-76879700D01*
X81216500Y-76879700D02*
X79991200Y-75654400D01*
X79991200Y-75654400D02*
X79991200Y-69777300D01*
X79991200Y-69777300D02*
X75565000Y-65351100D01*
X75565000Y-65351100D02*
X75565000Y-60579000D01*
X81216500Y-69259700D02*
X78105000Y-66148200D01*
X78105000Y-66148200D02*
X78105000Y-60579000D01*
X56974700Y-91259700D02*
X56974700Y-87001400D01*
X56974700Y-87001400D02*
X63500000Y-80476100D01*
X63500000Y-80476100D02*
X63500000Y-74274000D01*
X81216500Y-70485000D02*
X81216500Y-69259700D01*
X100266500Y-108516700D02*
X101084000Y-107699200D01*
X101084000Y-107699200D02*
X101084000Y-63238000D01*
X101084000Y-63238000D02*
X98425000Y-60579000D01*
X100266500Y-109792000D02*
X100266500Y-108516700D01*
X58244700Y-112784600D02*
X55212800Y-112784600D01*
X55212800Y-112784600D02*
X53683400Y-114314000D01*
X61303400Y-114314000D02*
X59774000Y-112784600D01*
X59774000Y-112784600D02*
X58244700Y-112784600D01*
X58244700Y-112784600D02*
X58244700Y-98406400D01*
X58244700Y-98406400D02*
X63125300Y-93525800D01*
X63125300Y-93525800D02*
X67016000Y-93525800D01*
X67016000Y-93525800D02*
X68229000Y-92312800D01*
X59514700Y-98879700D02*
X59514700Y-100105000D01*
X67882000Y-114225000D02*
X69012900Y-113094100D01*
X69012900Y-113094100D02*
X69012900Y-108686500D01*
X69012900Y-108686500D02*
X60431400Y-100105000D01*
X60431400Y-100105000D02*
X59514700Y-100105000D01*
X87454700Y-97654400D02*
X87454700Y-95481200D01*
X87454700Y-95481200D02*
X97775500Y-85160400D01*
X97775500Y-85160400D02*
X98610600Y-85160400D01*
X98610600Y-85160400D02*
X99983300Y-83787700D01*
X99983300Y-83787700D02*
X99983300Y-75822600D01*
X99983300Y-75822600D02*
X93345000Y-69184300D01*
X93345000Y-69184300D02*
X93345000Y-60579000D01*
X87454700Y-98879700D02*
X87454700Y-97654400D01*
X95186500Y-108516700D02*
X87454700Y-100784900D01*
X87454700Y-100784900D02*
X87454700Y-98879700D01*
X95186500Y-109792000D02*
X95186500Y-108516700D01*
X69850000Y-78168500D02*
X69850000Y-79393800D01*
X69850000Y-79393800D02*
X81085200Y-90629000D01*
X81085200Y-90629000D02*
X81085200Y-93862000D01*
X81085200Y-93862000D02*
X83644700Y-96421500D01*
X83644700Y-96421500D02*
X83644700Y-100576000D01*
X83644700Y-100576000D02*
X94136100Y-111067400D01*
X94136100Y-111067400D02*
X96451100Y-111067400D01*
X96451100Y-111067400D02*
X97726500Y-109792000D01*
X83756500Y-78105000D02*
X82531200Y-78105000D01*
X82531200Y-78105000D02*
X82531200Y-79024000D01*
X82531200Y-79024000D02*
X82224800Y-79330400D01*
X82224800Y-79330400D02*
X80236300Y-79330400D01*
X80236300Y-79330400D02*
X78105000Y-77199100D01*
X78105000Y-77199100D02*
X78105000Y-76945500D01*
X107900000Y-76416000D02*
X110400000Y-78916000D01*
X110400000Y-78916000D02*
X110400000Y-90916000D01*
X109982000Y-72127800D02*
X107900000Y-74209800D01*
X107900000Y-74209800D02*
X107900000Y-76416000D01*
X53159500Y-96580200D02*
X59286800Y-96580200D01*
X59286800Y-96580200D02*
X62986800Y-92880200D01*
X62986800Y-92880200D02*
X64776800Y-92880200D01*
X64776800Y-92880200D02*
X65864700Y-91792300D01*
X65864700Y-91792300D02*
X65864700Y-90762000D01*
X65864700Y-90762000D02*
X66611900Y-90014800D01*
X66611900Y-90014800D02*
X67712300Y-90014800D01*
X67712300Y-90014800D02*
X68449400Y-90751900D01*
X68449400Y-90751900D02*
X68449400Y-91259700D01*
X44831000Y-95230800D02*
X46180400Y-96580200D01*
X46180400Y-96580200D02*
X53159500Y-96580200D01*
X53159500Y-96580200D02*
X53159500Y-108710100D01*
X53159500Y-108710100D02*
X53683400Y-109234000D01*
X69674700Y-91259700D02*
X68449400Y-91259700D01*
X31920700Y-85937600D02*
X29212300Y-88646000D01*
X29212300Y-88646000D02*
X26035000Y-88646000D01*
X61303400Y-109234000D02*
X67793000Y-109234000D01*
X67793000Y-109234000D02*
X67882000Y-109145000D01*
X113665000Y-60579000D02*
X113665000Y-71383200D01*
X113665000Y-71383200D02*
X112920400Y-72127800D01*
X112920400Y-72127800D02*
X109982000Y-72127800D01*
X109982000Y-70802500D02*
X109982000Y-72127800D01*
X112522000Y-29756800D02*
X115411400Y-32646200D01*
X115411400Y-32646200D02*
X115411400Y-59478600D01*
X115411400Y-59478600D02*
X114311000Y-60579000D01*
X114311000Y-60579000D02*
X113665000Y-60579000D01*
X72214700Y-98879700D02*
X72214700Y-100105000D01*
X72214700Y-100105000D02*
X72134700Y-100185000D01*
X72134700Y-100185000D02*
X72134700Y-102690000D01*
X75502000Y-109145000D02*
X75502000Y-106057300D01*
X75502000Y-106057300D02*
X72134700Y-102690000D01*
D43*
X35687000Y-70485000D02*
X34887000Y-69685000D01*
X34887000Y-69685000D02*
X34887000Y-69368800D01*
X34887000Y-69368800D02*
X34887600Y-69368100D01*
X112522000Y-29756800D02*
X112522000Y-28652700D01*
X112522000Y-28652700D02*
X108862000Y-24993000D01*
X108862000Y-24993000D02*
X95528300Y-24993000D01*
X95528300Y-24993000D02*
X92978300Y-27543000D01*
X92978300Y-27543000D02*
X90978300Y-27543000D01*
X112522000Y-30861000D02*
X112522000Y-29756800D01*
D46*
X33046000Y-85937600D02*
X31920700Y-85937600D01*
X44831000Y-94043500D02*
X44831000Y-95230800D01*
D45*
X33020000Y-75501500D02*
X33020000Y-71235700D01*
D43*
X33020000Y-71235700D02*
X32713700Y-71542000D01*
X32713700Y-71542000D02*
X29759000Y-71542000D01*
X33109600Y-71146100D02*
X33020000Y-71235700D01*
D44*
X28000000Y-65165700D02*
X28000000Y-65136000D01*
X28000000Y-65136000D02*
X30050000Y-63086000D01*
X30050000Y-63086000D02*
X30050000Y-59630000D01*
X30050000Y-59630000D02*
X26500000Y-56080000D01*
X28000000Y-65786000D02*
X28000000Y-65165700D01*
D43*
X40386000Y-50038000D02*
X40094000Y-50330000D01*
X40894000Y-49530000D02*
X40386000Y-50038000D01*
X40094000Y-50330000D02*
X40094000Y-55156000D01*
X40094000Y-55156000D02*
X39133500Y-56116500D01*
X39133500Y-56116500D02*
X39133500Y-62593500D01*
X39133500Y-62593500D02*
X36195000Y-65532000D01*
X36195000Y-65532000D02*
X36195000Y-68060700D01*
X36195000Y-68060700D02*
X35617900Y-68637900D01*
X35617900Y-68637900D02*
X34887600Y-69368100D01*
X34887600Y-69368100D02*
X33109600Y-71146100D01*
D46*
X36435200Y-24820100D02*
X36490200Y-24820100D01*
D43*
X26500000Y-44740000D02*
X24400000Y-42640000D01*
X24400000Y-42640000D02*
X24400000Y-27560000D01*
X24400000Y-27560000D02*
X27139900Y-24820100D01*
X27139900Y-24820100D02*
X36435200Y-24820100D01*
X28000000Y-65165700D02*
X28000000Y-65786000D01*
D45*
X33020000Y-71235700D02*
X33109600Y-71146100D01*
D44*
X26500000Y-56080000D02*
X23900000Y-53480000D01*
X23900000Y-53480000D02*
X23900000Y-47340000D01*
X23900000Y-47340000D02*
X26500000Y-44740000D01*
D43*
X37973000Y-49483000D02*
X40847000Y-49483000D01*
X40847000Y-49483000D02*
X40894000Y-49530000D01*
X50546000Y-41990000D02*
X50546000Y-35814000D01*
X50546000Y-35814000D02*
X53975000Y-32385000D01*
X53975000Y-32385000D02*
X68555600Y-32385000D01*
X68555600Y-32385000D02*
X71866000Y-29074600D01*
X71866000Y-29074600D02*
X71866000Y-27670000D01*
X29759000Y-71542000D02*
X28702000Y-72599000D01*
X28702000Y-72599000D02*
X28702000Y-75558000D01*
X29759000Y-71542000D02*
X29550000Y-71542000D01*
X29550000Y-71542000D02*
X29550000Y-68015700D01*
X29550000Y-68015700D02*
X28000000Y-66465700D01*
X28000000Y-66465700D02*
X28000000Y-65786000D01*
X40894000Y-49530000D02*
X42494000Y-51130000D01*
X42494000Y-51130000D02*
X49835000Y-51130000D01*
X49835000Y-51130000D02*
X51562000Y-49403000D01*
X26500000Y-56080000D02*
X28338500Y-56080000D01*
X28338500Y-56080000D02*
X31000000Y-58741500D01*
X31000000Y-58741500D02*
X31000000Y-62165700D01*
X31000000Y-62165700D02*
X28000000Y-65165700D01*
X68331600Y-27543000D02*
X68204600Y-27670000D01*
X40386000Y-46990000D02*
X40386000Y-50038000D01*
X40386000Y-50038000D02*
X40094000Y-50330000D01*
X68204600Y-27670000D02*
X71866000Y-27670000D01*
X71866000Y-27670000D02*
X81090600Y-27670000D01*
X81090600Y-27670000D02*
X83640600Y-30220000D01*
X83640600Y-30220000D02*
X88253800Y-30220000D01*
X88253800Y-30220000D02*
X90930800Y-27543000D01*
X90930800Y-27543000D02*
X90978300Y-27543000D01*
D46*
X57150000Y-70548500D02*
X55924700Y-70548500D01*
X55924700Y-70548500D02*
X55924700Y-71008000D01*
X55924700Y-71008000D02*
X50669200Y-76263500D01*
X50669200Y-76263500D02*
X44831000Y-76263500D01*
X64770000Y-70548500D02*
X63544700Y-70548500D01*
X44831000Y-88963500D02*
X43600400Y-87732900D01*
X43600400Y-87732900D02*
X43600400Y-80874300D01*
X43600400Y-80874300D02*
X44327300Y-80147400D01*
X44327300Y-80147400D02*
X56910400Y-80147400D01*
X56910400Y-80147400D02*
X58420000Y-78637800D01*
X58420000Y-78637800D02*
X58420000Y-70077800D01*
X58420000Y-70077800D02*
X59183500Y-69314300D01*
X59183500Y-69314300D02*
X62818300Y-69314300D01*
X62818300Y-69314300D02*
X63544700Y-70040700D01*
X63544700Y-70040700D02*
X63544700Y-70548500D01*
X98191900Y-81350400D02*
X77105000Y-81350400D01*
X77105000Y-81350400D02*
X76294500Y-80539900D01*
X62230000Y-78168500D02*
X61004700Y-78168500D01*
X61004700Y-78168500D02*
X61004700Y-78628000D01*
X61004700Y-78628000D02*
X58289200Y-81343500D01*
X58289200Y-81343500D02*
X44831000Y-81343500D01*
X57150000Y-78168500D02*
X55924700Y-78168500D01*
X55924700Y-78168500D02*
X55924700Y-79087500D01*
X55924700Y-79087500D02*
X55618300Y-79393900D01*
X55618300Y-79393900D02*
X45421400Y-79393900D01*
X45421400Y-79393900D02*
X44831000Y-78803500D01*
X44831000Y-83883500D02*
X53440900Y-92493400D01*
X53440900Y-92493400D02*
X57545300Y-92493400D01*
X57545300Y-92493400D02*
X58244700Y-91794000D01*
X58244700Y-91794000D02*
X58244700Y-88459100D01*
X58244700Y-88459100D02*
X67310000Y-79393800D01*
X67310000Y-78168500D02*
X67310000Y-79393800D01*
X26035000Y-91186000D02*
X31597400Y-91186000D01*
X31597400Y-91186000D02*
X38227500Y-84555900D01*
X38227500Y-84555900D02*
X40884000Y-84555900D01*
X40884000Y-84555900D02*
X42499600Y-82940300D01*
X42499600Y-82940300D02*
X42499600Y-76873000D01*
X42499600Y-76873000D02*
X44663700Y-74708900D01*
X44663700Y-74708900D02*
X45873900Y-74708900D01*
X45873900Y-74708900D02*
X51851000Y-68731800D01*
X51851000Y-68731800D02*
X64760100Y-68731800D01*
X64760100Y-68731800D02*
X66040000Y-70011700D01*
X66040000Y-70011700D02*
X66040000Y-71060700D01*
X66040000Y-71060700D02*
X66753100Y-71773800D01*
X66753100Y-71773800D02*
X72390000Y-71773800D01*
X82374700Y-90034400D02*
X74625400Y-82285100D01*
X74625400Y-82285100D02*
X74625400Y-74009200D01*
X74625400Y-74009200D02*
X72390000Y-71773800D01*
X72390000Y-71636200D02*
X72390000Y-71773800D01*
X72390000Y-70548500D02*
X72390000Y-71636200D01*
X82374700Y-91259700D02*
X82374700Y-90034400D01*
X67310000Y-70548500D02*
X67310000Y-69323200D01*
X67310000Y-69323200D02*
X66168200Y-68181400D01*
X66168200Y-68181400D02*
X50589900Y-68181400D01*
X50589900Y-68181400D02*
X45717800Y-73053500D01*
X45717800Y-73053500D02*
X41470500Y-73053500D01*
X41470500Y-73053500D02*
X38057600Y-76466400D01*
X38057600Y-76466400D02*
X38057600Y-77249400D01*
X38057600Y-77249400D02*
X33258300Y-82048700D01*
X33258300Y-82048700D02*
X32491600Y-82048700D01*
X32491600Y-82048700D02*
X27714400Y-86825900D01*
X27714400Y-86825900D02*
X23503400Y-86825900D01*
X23503400Y-86825900D02*
X22154100Y-88175200D01*
X22154100Y-88175200D02*
X22154100Y-89845100D01*
X22154100Y-89845100D02*
X23495000Y-91186000D01*
X95186500Y-114872000D02*
X95186500Y-113498700D01*
X95186500Y-113498700D02*
X82374700Y-100686900D01*
X82374700Y-100686900D02*
X82374700Y-98879700D01*
X90960100Y-98796100D02*
X90960100Y-94512000D01*
X90960100Y-94512000D02*
X97771700Y-87700400D01*
X97771700Y-87700400D02*
X98632000Y-87700400D01*
X98632000Y-87700400D02*
X100533700Y-85798700D01*
X100533700Y-85798700D02*
X100533700Y-65227700D01*
X100533700Y-65227700D02*
X95885000Y-60579000D01*
D44*
X61160400Y-24564100D02*
X64638800Y-24564100D01*
X46011900Y-30154100D02*
X48964400Y-30154100D01*
X48964400Y-30154100D02*
X54554400Y-24564100D01*
X54554400Y-24564100D02*
X61160400Y-24564100D01*
X45964400Y-30154100D02*
X46011900Y-30154100D01*
X45964400Y-30154100D02*
X44343900Y-30154100D01*
X44343900Y-30154100D02*
X42007100Y-32490900D01*
X46011900Y-30154100D02*
X45964400Y-30154100D01*
X28800000Y-51000000D02*
X32732000Y-51000000D01*
X32732000Y-51000000D02*
X42007100Y-41724900D01*
X42007100Y-41724900D02*
X42007100Y-32490900D01*
X26500000Y-51000000D02*
X28800000Y-51000000D01*
X34000000Y-64815700D02*
X34000000Y-56200000D01*
X34000000Y-56200000D02*
X28800000Y-51000000D01*
X34000000Y-65786000D02*
X34000000Y-64815700D01*
X34000000Y-65786000D02*
X34000000Y-64815700D01*
X34000000Y-65815700D02*
X34000000Y-65786000D01*
X28800000Y-51000000D02*
X26500000Y-51000000D01*
X45964400Y-30154100D02*
X45964400Y-30140000D01*
X68204600Y-25130000D02*
X71204600Y-25130000D01*
X71204600Y-25130000D02*
X71714600Y-24620000D01*
X71714600Y-24620000D02*
X87595300Y-24620000D01*
X87595300Y-24620000D02*
X87978300Y-25003000D01*
X87978300Y-25003000D02*
X90978300Y-25003000D01*
X61160400Y-24564100D02*
X64638800Y-24564100D01*
X64638800Y-24564100D02*
X65204600Y-25130000D01*
X65204600Y-25130000D02*
X68204600Y-25130000D01*
D46*
X97726500Y-114872000D02*
X96451100Y-116147400D01*
X96451100Y-116147400D02*
X94121300Y-116147400D01*
X94121300Y-116147400D02*
X86965700Y-108991800D01*
X86965700Y-108991800D02*
X86965700Y-106324000D01*
X86965700Y-106324000D02*
X81104700Y-100463000D01*
X81104700Y-100463000D02*
X81104700Y-97125000D01*
X81104700Y-97125000D02*
X76024700Y-92045000D01*
X76024700Y-92045000D02*
X76024700Y-89894400D01*
X76024700Y-89894400D02*
X68580000Y-82449700D01*
X68580000Y-82449700D02*
X68580000Y-77683000D01*
X68580000Y-77683000D02*
X62670800Y-71773800D01*
X62670800Y-71773800D02*
X61681000Y-71773800D01*
X61681000Y-71773800D02*
X60915300Y-71008100D01*
X60915300Y-71008100D02*
X60915300Y-70548500D01*
X59690000Y-70548500D02*
X60915300Y-70548500D01*
D45*
X38481000Y-42291000D02*
X39731000Y-41041000D01*
X39731000Y-41041000D02*
X39731000Y-35901000D01*
X39731000Y-35901000D02*
X36195000Y-32365000D01*
X36195000Y-32365000D02*
X36195000Y-31115000D01*
D46*
X112522000Y-69477200D02*
X111970000Y-68925200D01*
X111970000Y-68925200D02*
X107771800Y-68925200D01*
X107771800Y-68925200D02*
X103374600Y-73322400D01*
X103374600Y-73322400D02*
X103374600Y-99899300D01*
X103374600Y-99899300D02*
X105474000Y-101998700D01*
X112522000Y-70802500D02*
X112522000Y-69477200D01*
X105474000Y-103124000D02*
X105474000Y-101998700D01*
X80645000Y-60579000D02*
X80089600Y-61134400D01*
X80089600Y-61134400D02*
X80089600Y-65506700D01*
X80089600Y-65506700D02*
X81452000Y-66869100D01*
X81452000Y-66869100D02*
X84472800Y-66869100D01*
X84472800Y-66869100D02*
X87566500Y-69962800D01*
X87566500Y-69962800D02*
X87566500Y-71024300D01*
X87566500Y-71024300D02*
X89745600Y-73203400D01*
X89745600Y-73203400D02*
X90837600Y-73203400D01*
X90837600Y-73203400D02*
X97797200Y-80163000D01*
X97797200Y-80163000D02*
X98705900Y-80163000D01*
X98705900Y-80163000D02*
X99432900Y-80890000D01*
X99432900Y-80890000D02*
X99432900Y-81824900D01*
X99432900Y-81824900D02*
X98637400Y-82620400D01*
X98637400Y-82620400D02*
X97768400Y-82620400D01*
X97768400Y-82620400D02*
X95226300Y-85162500D01*
X95226300Y-85162500D02*
X95226300Y-86351400D01*
X95226300Y-86351400D02*
X84914700Y-96663000D01*
X84914700Y-96663000D02*
X84914700Y-98879700D01*
X73025000Y-60579000D02*
X73025000Y-63589500D01*
X73025000Y-63589500D02*
X79346300Y-69910800D01*
X79346300Y-69910800D02*
X79346300Y-73894900D01*
X79346300Y-73894900D02*
X76835000Y-76406200D01*
X76835000Y-76406200D02*
X76835000Y-77468400D01*
X76835000Y-77468400D02*
X79282400Y-79915800D01*
X79282400Y-79915800D02*
X86259900Y-79915800D01*
X86259900Y-79915800D02*
X87611200Y-78564500D01*
X87611200Y-78564500D02*
X87611200Y-78105000D01*
X88836500Y-78105000D02*
X87611200Y-78105000D01*
X83696800Y-63637000D02*
X87747000Y-63637000D01*
X87747000Y-63637000D02*
X90805000Y-60579000D01*
M02*
