G04 #@! TF.GenerationSoftware,KiCad,Pcbnew,(5.1.4-0-10_14)*
G04 #@! TF.CreationDate,2020-03-01T11:47:34+01:00*
G04 #@! TF.ProjectId,circuit,63697263-7569-4742-9e6b-696361645f70,rev?*
G04 #@! TF.SameCoordinates,Original*
G04 #@! TF.FileFunction,Legend,Bot*
G04 #@! TF.FilePolarity,Positive*
%FSLAX46Y46*%
G04 Gerber Fmt 4.6, Leading zero omitted, Abs format (unit mm)*
G04 Created by KiCad (PCBNEW (5.1.4-0-10_14)) date 2020-03-01 11:47:34*
%MOMM*%
%LPD*%
G04 APERTURE LIST*
%ADD10C,0.150000*%
%ADD11C,0.120000*%
G04 APERTURE END LIST*
D10*
X115908840Y-99597152D02*
X116623126Y-99597152D01*
X116765983Y-99549533D01*
X116861221Y-99454295D01*
X116908840Y-99311438D01*
X116908840Y-99216200D01*
X116908840Y-100549533D02*
X116908840Y-100073342D01*
X115908840Y-100073342D01*
X116813602Y-101454295D02*
X116861221Y-101406676D01*
X116908840Y-101263819D01*
X116908840Y-101168580D01*
X116861221Y-101025723D01*
X116765983Y-100930485D01*
X116670745Y-100882866D01*
X116480269Y-100835247D01*
X116337412Y-100835247D01*
X116146936Y-100882866D01*
X116051698Y-100930485D01*
X115956460Y-101025723D01*
X115908840Y-101168580D01*
X115908840Y-101263819D01*
X115956460Y-101406676D01*
X116004079Y-101454295D01*
X115908840Y-102168580D02*
X116623126Y-102168580D01*
X116765983Y-102120961D01*
X116861221Y-102025723D01*
X116908840Y-101882866D01*
X116908840Y-101787628D01*
X116908840Y-103120961D02*
X116908840Y-102644771D01*
X115908840Y-102644771D01*
X116813602Y-104025723D02*
X116861221Y-103978104D01*
X116908840Y-103835247D01*
X116908840Y-103740009D01*
X116861221Y-103597152D01*
X116765983Y-103501914D01*
X116670745Y-103454295D01*
X116480269Y-103406676D01*
X116337412Y-103406676D01*
X116146936Y-103454295D01*
X116051698Y-103501914D01*
X115956460Y-103597152D01*
X115908840Y-103740009D01*
X115908840Y-103835247D01*
X115956460Y-103978104D01*
X116004079Y-104025723D01*
X115908840Y-104740009D02*
X116623126Y-104740009D01*
X116765983Y-104692390D01*
X116861221Y-104597152D01*
X116908840Y-104454295D01*
X116908840Y-104359057D01*
X116908840Y-105692390D02*
X116908840Y-105216200D01*
X115908840Y-105216200D01*
X116813602Y-106597152D02*
X116861221Y-106549533D01*
X116908840Y-106406676D01*
X116908840Y-106311438D01*
X116861221Y-106168580D01*
X116765983Y-106073342D01*
X116670745Y-106025723D01*
X116480269Y-105978104D01*
X116337412Y-105978104D01*
X116146936Y-106025723D01*
X116051698Y-106073342D01*
X115956460Y-106168580D01*
X115908840Y-106311438D01*
X115908840Y-106406676D01*
X115956460Y-106549533D01*
X116004079Y-106597152D01*
X115908840Y-107311438D02*
X116623126Y-107311438D01*
X116765983Y-107263819D01*
X116861221Y-107168580D01*
X116908840Y-107025723D01*
X116908840Y-106930485D01*
X116908840Y-108263819D02*
X116908840Y-107787628D01*
X115908840Y-107787628D01*
X116813602Y-109168580D02*
X116861221Y-109120961D01*
X116908840Y-108978104D01*
X116908840Y-108882866D01*
X116861221Y-108740009D01*
X116765983Y-108644771D01*
X116670745Y-108597152D01*
X116480269Y-108549533D01*
X116337412Y-108549533D01*
X116146936Y-108597152D01*
X116051698Y-108644771D01*
X115956460Y-108740009D01*
X115908840Y-108882866D01*
X115908840Y-108978104D01*
X115956460Y-109120961D01*
X116004079Y-109168580D01*
D11*
X22165000Y-95056000D02*
X23495000Y-95056000D01*
X22165000Y-93726000D02*
X22165000Y-95056000D01*
X24765000Y-95056000D02*
X27365000Y-95056000D01*
X24765000Y-92456000D02*
X24765000Y-95056000D01*
X22165000Y-92456000D02*
X24765000Y-92456000D01*
X27365000Y-95056000D02*
X27365000Y-87316000D01*
X22165000Y-92456000D02*
X22165000Y-87316000D01*
X22165000Y-87316000D02*
X27365000Y-87316000D01*
D10*
X25111033Y-90183720D02*
X25111033Y-90898006D01*
X25158652Y-91040863D01*
X25253890Y-91136101D01*
X25396747Y-91183720D01*
X25491985Y-91183720D01*
X24587223Y-91183720D02*
X24396747Y-91183720D01*
X24301509Y-91136101D01*
X24253890Y-91088482D01*
X24158652Y-90945625D01*
X24111033Y-90755149D01*
X24111033Y-90374197D01*
X24158652Y-90278959D01*
X24206271Y-90231340D01*
X24301509Y-90183720D01*
X24491985Y-90183720D01*
X24587223Y-90231340D01*
X24634842Y-90278959D01*
X24682461Y-90374197D01*
X24682461Y-90612292D01*
X24634842Y-90707530D01*
X24587223Y-90755149D01*
X24491985Y-90802768D01*
X24301509Y-90802768D01*
X24206271Y-90755149D01*
X24158652Y-90707530D01*
X24111033Y-90612292D01*
M02*
