G04 #@! TF.GenerationSoftware,KiCad,Pcbnew,(5.1.4-0-10_14)*
G04 #@! TF.CreationDate,2020-03-01T11:47:34+01:00*
G04 #@! TF.ProjectId,circuit,63697263-7569-4742-9e6b-696361645f70,rev?*
G04 #@! TF.SameCoordinates,Original*
G04 #@! TF.FileFunction,Copper,L1,Top*
G04 #@! TF.FilePolarity,Positive*
%FSLAX46Y46*%
G04 Gerber Fmt 4.6, Leading zero omitted, Abs format (unit mm)*
G04 Created by KiCad (PCBNEW (5.1.4-0-10_14)) date 2020-03-01 11:47:34*
%MOMM*%
%LPD*%
G04 APERTURE LIST*
%ADD10C,0.300000*%
%ADD11C,0.010000*%
%ADD12O,1.070000X1.800000*%
%ADD13R,1.070000X1.800000*%
%ADD14C,1.500000*%
%ADD15R,1.500000X1.500000*%
%ADD16R,1.524000X1.524000*%
%ADD17C,3.048000*%
%ADD18C,1.524000*%
%ADD19O,1.400000X1.400000*%
%ADD20C,1.400000*%
%ADD21R,2.000000X2.000000*%
%ADD22C,2.000000*%
%ADD23R,2.000000X3.200000*%
%ADD24O,2.000000X1.905000*%
%ADD25R,2.000000X1.905000*%
%ADD26O,1.700000X1.700000*%
%ADD27R,1.700000X1.700000*%
%ADD28O,1.600000X1.600000*%
%ADD29R,1.600000X1.600000*%
%ADD30C,1.600000*%
%ADD31O,1.950000X1.700000*%
%ADD32C,0.100000*%
%ADD33C,1.700000*%
%ADD34C,2.600000*%
%ADD35R,2.600000X2.600000*%
%ADD36R,1.050000X1.500000*%
%ADD37O,1.050000X1.500000*%
%ADD38C,1.397000*%
%ADD39O,3.500000X2.000000*%
%ADD40O,2.000000X3.300000*%
%ADD41R,2.000000X4.000000*%
%ADD42C,0.800000*%
%ADD43C,1.000000*%
%ADD44C,0.250000*%
%ADD45C,0.500000*%
G04 APERTURE END LIST*
D10*
X26218154Y-116500040D02*
X26146725Y-116428611D01*
X26003868Y-116214325D01*
X25932440Y-116071468D01*
X25861011Y-115857182D01*
X25789582Y-115500040D01*
X25789582Y-115214325D01*
X25861011Y-114857182D01*
X25932440Y-114642897D01*
X26003868Y-114500040D01*
X26146725Y-114285754D01*
X26218154Y-114214325D01*
X27432440Y-115857182D02*
X27289582Y-115928611D01*
X27003868Y-115928611D01*
X26861011Y-115857182D01*
X26789582Y-115785754D01*
X26718154Y-115642897D01*
X26718154Y-115214325D01*
X26789582Y-115071468D01*
X26861011Y-115000040D01*
X27003868Y-114928611D01*
X27289582Y-114928611D01*
X27432440Y-115000040D01*
X27932440Y-116500040D02*
X28003868Y-116428611D01*
X28146725Y-116214325D01*
X28218154Y-116071468D01*
X28289582Y-115857182D01*
X28361011Y-115500040D01*
X28361011Y-115214325D01*
X28289582Y-114857182D01*
X28218154Y-114642897D01*
X28146725Y-114500040D01*
X28003868Y-114285754D01*
X27932440Y-114214325D01*
X30218154Y-115928611D02*
X30218154Y-114428611D01*
X30218154Y-115000040D02*
X30361011Y-114928611D01*
X30646725Y-114928611D01*
X30789582Y-115000040D01*
X30861011Y-115071468D01*
X30932440Y-115214325D01*
X30932440Y-115642897D01*
X30861011Y-115785754D01*
X30789582Y-115857182D01*
X30646725Y-115928611D01*
X30361011Y-115928611D01*
X30218154Y-115857182D01*
X31432440Y-114928611D02*
X31789582Y-115928611D01*
X32146725Y-114928611D02*
X31789582Y-115928611D01*
X31646725Y-116285754D01*
X31575297Y-116357182D01*
X31432440Y-116428611D01*
X33861011Y-115928611D02*
X33861011Y-114428611D01*
X34718154Y-115928611D02*
X34075297Y-115071468D01*
X34718154Y-114428611D02*
X33861011Y-115285754D01*
X35289582Y-115500040D02*
X36003868Y-115500040D01*
X35146725Y-115928611D02*
X35646725Y-114428611D01*
X36146725Y-115928611D01*
X37503868Y-115928611D02*
X37003868Y-115214325D01*
X36646725Y-115928611D02*
X36646725Y-114428611D01*
X37218154Y-114428611D01*
X37361011Y-114500040D01*
X37432440Y-114571468D01*
X37503868Y-114714325D01*
X37503868Y-114928611D01*
X37432440Y-115071468D01*
X37361011Y-115142897D01*
X37218154Y-115214325D01*
X36646725Y-115214325D01*
X38861011Y-115928611D02*
X38146725Y-115928611D01*
X38146725Y-114428611D01*
X25789582Y-118478611D02*
X25789582Y-116978611D01*
X25789582Y-117692897D02*
X26646725Y-117692897D01*
X26646725Y-118478611D02*
X26646725Y-116978611D01*
X27218154Y-116978611D02*
X27575297Y-118478611D01*
X27861011Y-117407182D01*
X28146725Y-118478611D01*
X28503868Y-116978611D01*
X31075297Y-118478611D02*
X30575297Y-117764325D01*
X30218154Y-118478611D02*
X30218154Y-116978611D01*
X30789582Y-116978611D01*
X30932440Y-117050040D01*
X31003868Y-117121468D01*
X31075297Y-117264325D01*
X31075297Y-117478611D01*
X31003868Y-117621468D01*
X30932440Y-117692897D01*
X30789582Y-117764325D01*
X30218154Y-117764325D01*
X32289582Y-118407182D02*
X32146725Y-118478611D01*
X31861011Y-118478611D01*
X31718154Y-118407182D01*
X31646725Y-118264325D01*
X31646725Y-117692897D01*
X31718154Y-117550040D01*
X31861011Y-117478611D01*
X32146725Y-117478611D01*
X32289582Y-117550040D01*
X32361011Y-117692897D01*
X32361011Y-117835754D01*
X31646725Y-117978611D01*
X32861011Y-117478611D02*
X33218154Y-118478611D01*
X33575297Y-117478611D01*
X34146725Y-118335754D02*
X34218154Y-118407182D01*
X34146725Y-118478611D01*
X34075297Y-118407182D01*
X34146725Y-118335754D01*
X34146725Y-118478611D01*
X36646725Y-117478611D02*
X36646725Y-118478611D01*
X36289582Y-116907182D02*
X35932440Y-117978611D01*
X36861011Y-117978611D01*
X37432440Y-118335754D02*
X37503868Y-118407182D01*
X37432440Y-118478611D01*
X37361011Y-118407182D01*
X37432440Y-118335754D01*
X37432440Y-118478611D01*
X38432440Y-116978611D02*
X38575297Y-116978611D01*
X38718154Y-117050040D01*
X38789582Y-117121468D01*
X38861011Y-117264325D01*
X38932440Y-117550040D01*
X38932440Y-117907182D01*
X38861011Y-118192897D01*
X38789582Y-118335754D01*
X38718154Y-118407182D01*
X38575297Y-118478611D01*
X38432440Y-118478611D01*
X38289582Y-118407182D01*
X38218154Y-118335754D01*
X38146725Y-118192897D01*
X38075297Y-117907182D01*
X38075297Y-117550040D01*
X38146725Y-117264325D01*
X38218154Y-117121468D01*
X38289582Y-117050040D01*
X38432440Y-116978611D01*
X39575297Y-118335754D02*
X39646725Y-118407182D01*
X39575297Y-118478611D01*
X39503868Y-118407182D01*
X39575297Y-118335754D01*
X39575297Y-118478611D01*
X41075297Y-118478611D02*
X40218154Y-118478611D01*
X40646725Y-118478611D02*
X40646725Y-116978611D01*
X40503868Y-117192897D01*
X40361011Y-117335754D01*
X40218154Y-117407182D01*
D11*
G36*
X37504587Y-108883501D02*
G01*
X37435648Y-108918057D01*
X37372627Y-108970393D01*
X37321337Y-109037680D01*
X37289848Y-109109201D01*
X37271439Y-109170276D01*
X37116760Y-109180525D01*
X37032703Y-109189320D01*
X36947707Y-109203514D01*
X36877211Y-109220405D01*
X36863474Y-109224798D01*
X36803752Y-109248809D01*
X36724481Y-109285316D01*
X36635189Y-109329445D01*
X36545400Y-109376325D01*
X36464642Y-109421082D01*
X36402439Y-109458844D01*
X36391426Y-109466258D01*
X36335741Y-109500380D01*
X36255065Y-109543849D01*
X36155934Y-109593639D01*
X36044880Y-109646721D01*
X35928439Y-109700067D01*
X35813144Y-109750652D01*
X35705530Y-109795445D01*
X35612130Y-109831420D01*
X35576042Y-109844072D01*
X35473591Y-109877005D01*
X35381838Y-109902517D01*
X35292636Y-109922012D01*
X35197838Y-109936899D01*
X35089296Y-109948583D01*
X34958861Y-109958472D01*
X34887747Y-109962895D01*
X34739594Y-109966994D01*
X34593778Y-109960602D01*
X34441658Y-109942758D01*
X34274588Y-109912502D01*
X34118547Y-109877314D01*
X33925218Y-109834133D01*
X33741388Y-109800853D01*
X33558441Y-109776534D01*
X33367764Y-109760236D01*
X33160742Y-109751022D01*
X32931946Y-109747955D01*
X32538456Y-109757361D01*
X32150239Y-109787489D01*
X31757524Y-109839367D01*
X31350539Y-109914022D01*
X31348680Y-109914407D01*
X31293836Y-109927417D01*
X31215649Y-109948257D01*
X31118548Y-109975561D01*
X31006963Y-110007959D01*
X30885324Y-110044085D01*
X30758061Y-110082569D01*
X30629604Y-110122045D01*
X30504383Y-110161145D01*
X30386827Y-110198499D01*
X30281368Y-110232741D01*
X30192434Y-110262503D01*
X30124455Y-110286416D01*
X30081862Y-110303113D01*
X30070213Y-110309189D01*
X30045678Y-110321209D01*
X30000121Y-110338677D01*
X29960146Y-110352302D01*
X29870794Y-110385461D01*
X29761652Y-110432517D01*
X29641543Y-110489248D01*
X29519292Y-110551430D01*
X29403720Y-110614841D01*
X29367480Y-110635951D01*
X29243271Y-110716134D01*
X29124369Y-110805125D01*
X29017327Y-110897306D01*
X28928697Y-110987057D01*
X28867976Y-111064266D01*
X28806614Y-111173307D01*
X28751148Y-111302612D01*
X28706571Y-111438588D01*
X28677880Y-111567645D01*
X28674607Y-111590494D01*
X28664799Y-111666542D01*
X28655143Y-111740667D01*
X28647646Y-111797458D01*
X28647333Y-111799794D01*
X28646412Y-111864191D01*
X28655716Y-111949755D01*
X28673104Y-112046121D01*
X28696436Y-112142927D01*
X28723571Y-112229811D01*
X28748358Y-112288777D01*
X28802266Y-112377503D01*
X28879844Y-112480578D01*
X28976595Y-112593552D01*
X29088018Y-112711975D01*
X29209617Y-112831395D01*
X29336891Y-112947363D01*
X29465343Y-113055427D01*
X29590473Y-113151138D01*
X29685880Y-113216280D01*
X29738549Y-113249082D01*
X29782693Y-113275001D01*
X29806321Y-113287276D01*
X29831283Y-113299759D01*
X29878568Y-113325160D01*
X29941080Y-113359616D01*
X30002486Y-113394041D01*
X30089247Y-113440174D01*
X30184065Y-113486002D01*
X30272641Y-113524795D01*
X30315746Y-113541501D01*
X30398081Y-113571331D01*
X30484677Y-113603009D01*
X30558951Y-113630465D01*
X30569747Y-113634495D01*
X30650835Y-113661036D01*
X30756321Y-113688872D01*
X30888604Y-113718547D01*
X31050084Y-113750604D01*
X31217101Y-113781013D01*
X31302644Y-113796293D01*
X31384169Y-113811218D01*
X31451000Y-113823817D01*
X31485026Y-113830544D01*
X31540271Y-113839647D01*
X31623285Y-113850344D01*
X31728040Y-113862082D01*
X31848505Y-113874306D01*
X31978652Y-113886463D01*
X32112452Y-113897999D01*
X32243876Y-113908360D01*
X32366893Y-113916992D01*
X32475476Y-113923340D01*
X32515006Y-113925179D01*
X32606418Y-113929254D01*
X32686346Y-113933262D01*
X32748441Y-113936850D01*
X32786352Y-113939665D01*
X32794406Y-113940707D01*
X32819338Y-113941407D01*
X32868451Y-113939152D01*
X32932234Y-113934419D01*
X32948880Y-113932949D01*
X33052828Y-113921437D01*
X33154589Y-113906554D01*
X33245168Y-113889866D01*
X33315573Y-113872941D01*
X33341010Y-113864648D01*
X33368609Y-113848781D01*
X33378470Y-113822087D01*
X33377470Y-113785257D01*
X33371092Y-113746655D01*
X33354493Y-113719413D01*
X33319681Y-113693781D01*
X33287546Y-113675564D01*
X33223416Y-113645811D01*
X33013949Y-113645811D01*
X32996058Y-113671270D01*
X32974747Y-113690692D01*
X32915563Y-113737109D01*
X32865720Y-113768550D01*
X32832906Y-113780393D01*
X32809209Y-113774100D01*
X32769937Y-113757886D01*
X32763588Y-113754921D01*
X32733586Y-113734390D01*
X32692060Y-113698353D01*
X32646063Y-113653979D01*
X32602650Y-113608440D01*
X32597859Y-113602832D01*
X31534947Y-113602832D01*
X31521522Y-113656862D01*
X31487872Y-113704493D01*
X31452066Y-113728260D01*
X31395135Y-113737823D01*
X31323858Y-113734999D01*
X31253622Y-113721651D01*
X31199815Y-113699643D01*
X31196280Y-113697284D01*
X31158735Y-113654994D01*
X31147126Y-113605500D01*
X31162006Y-113558925D01*
X31187360Y-113534200D01*
X31232850Y-113517621D01*
X31293619Y-113512746D01*
X31361326Y-113517928D01*
X31427631Y-113531519D01*
X31484192Y-113551873D01*
X31522669Y-113577342D01*
X31534947Y-113602832D01*
X32597859Y-113602832D01*
X32568873Y-113568906D01*
X32551785Y-113542547D01*
X32550946Y-113538746D01*
X32566093Y-113538814D01*
X32606339Y-113545582D01*
X32663892Y-113557677D01*
X32682264Y-113561882D01*
X32759358Y-113578670D01*
X32836921Y-113593673D01*
X32898576Y-113603732D01*
X32900229Y-113603954D01*
X32968584Y-113615120D01*
X33005641Y-113628083D01*
X33013949Y-113645811D01*
X33223416Y-113645811D01*
X33177793Y-113624645D01*
X33056222Y-113582721D01*
X32939793Y-113555427D01*
X32915013Y-113551746D01*
X32805247Y-113535034D01*
X32672333Y-113510611D01*
X32525595Y-113480388D01*
X32374360Y-113446272D01*
X32246146Y-113414850D01*
X32145512Y-113389552D01*
X32040230Y-113363768D01*
X31942747Y-113340508D01*
X31865510Y-113322783D01*
X31865147Y-113322702D01*
X31756801Y-113295589D01*
X31624513Y-113257540D01*
X31475438Y-113211031D01*
X31316733Y-113158536D01*
X31269810Y-113142232D01*
X31078020Y-113142232D01*
X31012046Y-113190750D01*
X30946854Y-113251616D01*
X30908806Y-113321625D01*
X30895111Y-113407723D01*
X30897874Y-113474845D01*
X30905032Y-113538879D01*
X30912931Y-113594001D01*
X30918945Y-113624360D01*
X30924588Y-113646858D01*
X30921529Y-113658192D01*
X30903045Y-113659722D01*
X30862412Y-113652810D01*
X30820347Y-113644315D01*
X30722054Y-113622818D01*
X30651039Y-113602260D01*
X30600976Y-113579355D01*
X30565539Y-113550820D01*
X30538403Y-113513370D01*
X30526786Y-113491889D01*
X30476938Y-113373679D01*
X30446802Y-113257859D01*
X30437276Y-113150960D01*
X30449262Y-113059517D01*
X30462361Y-113024201D01*
X30496550Y-112969993D01*
X30536990Y-112945410D01*
X30589528Y-112948815D01*
X30647652Y-112972287D01*
X30709165Y-113001119D01*
X30781903Y-113031815D01*
X30872721Y-113067132D01*
X30988472Y-113109830D01*
X30997450Y-113113082D01*
X31078020Y-113142232D01*
X31269810Y-113142232D01*
X31155551Y-113102532D01*
X30999050Y-113045494D01*
X30854384Y-112989899D01*
X30728710Y-112938221D01*
X30644829Y-112900496D01*
X30479431Y-112815154D01*
X30311696Y-112716446D01*
X30168478Y-112622411D01*
X29958013Y-112622411D01*
X29933897Y-112678372D01*
X29915170Y-112707597D01*
X29876360Y-112772303D01*
X29834992Y-112853546D01*
X29798781Y-112935593D01*
X29783894Y-112975258D01*
X29770312Y-112997267D01*
X29756421Y-112986317D01*
X29742631Y-112943308D01*
X29729353Y-112869140D01*
X29726665Y-112849660D01*
X29704990Y-112744055D01*
X29665669Y-112633116D01*
X29637440Y-112570260D01*
X29599972Y-112486582D01*
X29576535Y-112419682D01*
X29563569Y-112357397D01*
X29558142Y-112299327D01*
X29551254Y-112180794D01*
X29659833Y-112292481D01*
X29722827Y-112354124D01*
X29791640Y-112416551D01*
X29853321Y-112468102D01*
X29864279Y-112476549D01*
X29924766Y-112528590D01*
X29955490Y-112574847D01*
X29958013Y-112622411D01*
X30168478Y-112622411D01*
X30147312Y-112608514D01*
X29991969Y-112495500D01*
X29851359Y-112381544D01*
X29731171Y-112270789D01*
X29637094Y-112167374D01*
X29636450Y-112166573D01*
X29593928Y-112103987D01*
X29574804Y-112046894D01*
X29580170Y-111989970D01*
X29594688Y-111960848D01*
X29525931Y-111960848D01*
X29514919Y-111970977D01*
X29490378Y-111967512D01*
X29446154Y-111948919D01*
X29413512Y-111932853D01*
X29314465Y-111895316D01*
X29227400Y-111888400D01*
X29153330Y-111912089D01*
X29119166Y-111937532D01*
X29087426Y-111976746D01*
X29049235Y-112037825D01*
X29009735Y-112110814D01*
X28974074Y-112185761D01*
X28947395Y-112252710D01*
X28936538Y-112290860D01*
X28923355Y-112354268D01*
X28913587Y-112389032D01*
X28904343Y-112399780D01*
X28892730Y-112391143D01*
X28882535Y-112377318D01*
X28861559Y-112343659D01*
X28832343Y-112292334D01*
X28807943Y-112247127D01*
X28780954Y-112186887D01*
X28762777Y-112129220D01*
X28757880Y-112095724D01*
X28767160Y-112047543D01*
X28792148Y-111980498D01*
X28828567Y-111903068D01*
X28872143Y-111823731D01*
X28918597Y-111750964D01*
X28957225Y-111700526D01*
X28999884Y-111655877D01*
X29037893Y-111631730D01*
X29085004Y-111620153D01*
X29099772Y-111618298D01*
X29180904Y-111615187D01*
X29244539Y-111629775D01*
X29304143Y-111666042D01*
X29327856Y-111685738D01*
X29374537Y-111731650D01*
X29422393Y-111786971D01*
X29466391Y-111844717D01*
X29501503Y-111897900D01*
X29522698Y-111939533D01*
X29525931Y-111960848D01*
X29594688Y-111960848D01*
X29611120Y-111927888D01*
X29668746Y-111855324D01*
X29709204Y-111812106D01*
X29723364Y-111797508D01*
X29599358Y-111797508D01*
X29595413Y-111845251D01*
X29588266Y-111858273D01*
X29568369Y-111879705D01*
X29561592Y-111884460D01*
X29550859Y-111871291D01*
X29528043Y-111837123D01*
X29504211Y-111799234D01*
X29462197Y-111740073D01*
X29408038Y-111675630D01*
X29367292Y-111633432D01*
X29316062Y-111579510D01*
X29289350Y-111537312D01*
X29282813Y-111505878D01*
X29280802Y-111471736D01*
X29272085Y-111443112D01*
X29252635Y-111416845D01*
X29218426Y-111389774D01*
X29165430Y-111358737D01*
X29089622Y-111320575D01*
X28986975Y-111272126D01*
X28982246Y-111269926D01*
X28951215Y-111250181D01*
X28948908Y-111228208D01*
X28975226Y-111196510D01*
X28981206Y-111190853D01*
X29037558Y-111159838D01*
X29105894Y-111159374D01*
X29184773Y-111188918D01*
X29272757Y-111247928D01*
X29368406Y-111335861D01*
X29369880Y-111337385D01*
X29425333Y-111403907D01*
X29477352Y-111482718D01*
X29523350Y-111567652D01*
X29560741Y-111652540D01*
X29586939Y-111731215D01*
X29599358Y-111797508D01*
X29723364Y-111797508D01*
X29782346Y-111736703D01*
X30027880Y-111725396D01*
X30130102Y-111719358D01*
X30233804Y-111710949D01*
X30327751Y-111701216D01*
X30400708Y-111691210D01*
X30408880Y-111689798D01*
X30483757Y-111679634D01*
X30578572Y-111671438D01*
X30679408Y-111666234D01*
X30746903Y-111664918D01*
X30813934Y-111665042D01*
X30869815Y-111666611D01*
X30920857Y-111670763D01*
X30973373Y-111678634D01*
X31033674Y-111691364D01*
X31108072Y-111710091D01*
X31202881Y-111735952D01*
X31314169Y-111767197D01*
X31457938Y-111807921D01*
X31574402Y-111841473D01*
X31668914Y-111869642D01*
X31746830Y-111894216D01*
X31813504Y-111916982D01*
X31874289Y-111939730D01*
X31934542Y-111964246D01*
X31999616Y-111992318D01*
X32034480Y-112007735D01*
X32200128Y-112080578D01*
X32339973Y-112139996D01*
X32458667Y-112187380D01*
X32560859Y-112224119D01*
X32651203Y-112251606D01*
X32734347Y-112271230D01*
X32814944Y-112284382D01*
X32897645Y-112292454D01*
X32987100Y-112296835D01*
X33002839Y-112297300D01*
X33096400Y-112301278D01*
X33162522Y-112307841D01*
X33207588Y-112317924D01*
X33236649Y-112331572D01*
X33294121Y-112356367D01*
X33339901Y-112353568D01*
X33368859Y-112328506D01*
X33375866Y-112286513D01*
X33355795Y-112232918D01*
X33345795Y-112218128D01*
X33307951Y-112166941D01*
X33484662Y-112176948D01*
X33571426Y-112184307D01*
X33652363Y-112195505D01*
X33716122Y-112208816D01*
X33736926Y-112215311D01*
X33792060Y-112233171D01*
X33841156Y-112244480D01*
X33854813Y-112246097D01*
X33885155Y-112242353D01*
X33898698Y-112219927D01*
X33902331Y-112195120D01*
X33898153Y-112148009D01*
X33870294Y-112115648D01*
X33869315Y-112114956D01*
X33835332Y-112097685D01*
X33775114Y-112073616D01*
X33695059Y-112045002D01*
X33601566Y-112014095D01*
X33501035Y-111983149D01*
X33465346Y-111972718D01*
X33436289Y-111963626D01*
X33430487Y-111958335D01*
X33451252Y-111955632D01*
X33501897Y-111954300D01*
X33516146Y-111954088D01*
X33602101Y-111958449D01*
X33674701Y-111976823D01*
X33712394Y-111992654D01*
X33774082Y-112016893D01*
X33814243Y-112021282D01*
X33826694Y-112017047D01*
X33851238Y-111992769D01*
X33846700Y-111961545D01*
X33812238Y-111920640D01*
X33791313Y-111902150D01*
X33756917Y-111870416D01*
X33750817Y-111856658D01*
X33761680Y-111857143D01*
X33855500Y-111874874D01*
X33974948Y-111889307D01*
X34111910Y-111900026D01*
X34258269Y-111906617D01*
X34405912Y-111908663D01*
X34546722Y-111905748D01*
X34625280Y-111901394D01*
X34743813Y-111892927D01*
X34755011Y-112053794D01*
X34773824Y-112211793D01*
X34807001Y-112342218D01*
X34855781Y-112448714D01*
X34916664Y-112529936D01*
X35024484Y-112628917D01*
X35133143Y-112696849D01*
X35227798Y-112729842D01*
X35347186Y-112768775D01*
X35466171Y-112831128D01*
X35570958Y-112909215D01*
X35600364Y-112937428D01*
X35644429Y-112981764D01*
X35672892Y-113005042D01*
X35693235Y-113010982D01*
X35712944Y-113003303D01*
X35721647Y-112997707D01*
X35747202Y-112972272D01*
X35757785Y-112933916D01*
X35758866Y-112898231D01*
X35754999Y-112844393D01*
X35746513Y-112800692D01*
X35743372Y-112792066D01*
X35738382Y-112776745D01*
X35744409Y-112767881D01*
X35767340Y-112764449D01*
X35813064Y-112765421D01*
X35875567Y-112769026D01*
X35961224Y-112776883D01*
X36029666Y-112790826D01*
X36097497Y-112815091D01*
X36151052Y-112839321D01*
X36225109Y-112873339D01*
X36275230Y-112892455D01*
X36307387Y-112897659D01*
X36327554Y-112889938D01*
X36341416Y-112870827D01*
X36346591Y-112826476D01*
X36341457Y-112815652D01*
X36276280Y-112815652D01*
X36264445Y-112820297D01*
X36235622Y-112806854D01*
X36233946Y-112805770D01*
X36203718Y-112781141D01*
X36191613Y-112762047D01*
X36180816Y-112754437D01*
X36172063Y-112758144D01*
X36160627Y-112760290D01*
X36166182Y-112748111D01*
X36176164Y-112739594D01*
X36140813Y-112739594D01*
X36132346Y-112748060D01*
X36123880Y-112739594D01*
X36132346Y-112731127D01*
X36140813Y-112739594D01*
X36176164Y-112739594D01*
X36181214Y-112735286D01*
X36198431Y-112750778D01*
X36230600Y-112778572D01*
X36246646Y-112786678D01*
X36271615Y-112804316D01*
X36276280Y-112815652D01*
X36341457Y-112815652D01*
X36322215Y-112775093D01*
X36271121Y-112719572D01*
X36196137Y-112662805D01*
X36100094Y-112607687D01*
X36069468Y-112592781D01*
X36011406Y-112564769D01*
X35980583Y-112546954D01*
X35973200Y-112535984D01*
X35985456Y-112528510D01*
X35993800Y-112526068D01*
X36055535Y-112513552D01*
X36127416Y-112504847D01*
X36199200Y-112500500D01*
X36260644Y-112501055D01*
X36301504Y-112507057D01*
X36307153Y-112509392D01*
X36353384Y-112519884D01*
X36389624Y-112501445D01*
X36403573Y-112476202D01*
X36402537Y-112428075D01*
X36369663Y-112383678D01*
X36317185Y-112350584D01*
X36285408Y-112337934D01*
X36249868Y-112330447D01*
X36202897Y-112327618D01*
X36136828Y-112328947D01*
X36054024Y-112333321D01*
X35964012Y-112337982D01*
X35900049Y-112338942D01*
X35854470Y-112335698D01*
X35819608Y-112327747D01*
X35790893Y-112316073D01*
X35737642Y-112298437D01*
X35670006Y-112285830D01*
X35631949Y-112282449D01*
X35575718Y-112278240D01*
X35532671Y-112271880D01*
X35516534Y-112266853D01*
X35500440Y-112243395D01*
X35482110Y-112197487D01*
X35464829Y-112140096D01*
X35451883Y-112082184D01*
X35446555Y-112034717D01*
X35446547Y-112033243D01*
X35453290Y-111983949D01*
X35469666Y-111929720D01*
X35471082Y-111926250D01*
X35489467Y-111889541D01*
X35512084Y-111872509D01*
X35551592Y-111867701D01*
X35570812Y-111867527D01*
X35636940Y-111863235D01*
X35721020Y-111851853D01*
X35811063Y-111835620D01*
X35895083Y-111816775D01*
X35961090Y-111797559D01*
X35976208Y-111791798D01*
X36033591Y-111767822D01*
X36131602Y-111860505D01*
X36254083Y-111961252D01*
X36384039Y-112036450D01*
X36529289Y-112089793D01*
X36688371Y-112123560D01*
X36796757Y-112145461D01*
X36888356Y-112177387D01*
X36980043Y-112225654D01*
X37008856Y-112243481D01*
X37058060Y-112272276D01*
X37089035Y-112282666D01*
X37110255Y-112277078D01*
X37114689Y-112273753D01*
X37137483Y-112235515D01*
X37132110Y-112187467D01*
X37099628Y-112136912D01*
X37094049Y-112131114D01*
X37048218Y-112085283D01*
X37294282Y-112091047D01*
X37396032Y-112094126D01*
X37469878Y-112098342D01*
X37521780Y-112104437D01*
X37557698Y-112113150D01*
X37583591Y-112125220D01*
X37587014Y-112127389D01*
X37634518Y-112148389D01*
X37666936Y-112141193D01*
X37681301Y-112106769D01*
X37681746Y-112096493D01*
X37673010Y-112057221D01*
X37643906Y-112024045D01*
X37590096Y-111993709D01*
X37507241Y-111962955D01*
X37501252Y-111961026D01*
X37422661Y-111932650D01*
X37338837Y-111897484D01*
X37283813Y-111871152D01*
X37182213Y-111818356D01*
X37246765Y-111817541D01*
X37302546Y-111811494D01*
X37368478Y-111797168D01*
X37395427Y-111789216D01*
X37448172Y-111773779D01*
X37486028Y-111770604D01*
X37525740Y-111779860D01*
X37555779Y-111790821D01*
X37620470Y-111809798D01*
X37660659Y-111807055D01*
X37678323Y-111781989D01*
X37678647Y-111753323D01*
X37666737Y-111718697D01*
X37643560Y-111697410D01*
X36786318Y-111697410D01*
X36774719Y-111732913D01*
X36737209Y-111758109D01*
X36686647Y-111765927D01*
X36626343Y-111773619D01*
X36568372Y-111799961D01*
X36507814Y-111844643D01*
X36462924Y-111875851D01*
X36426639Y-111880998D01*
X36386468Y-111860516D01*
X36371697Y-111849364D01*
X36339751Y-111819214D01*
X36330178Y-111790570D01*
X36343327Y-111754641D01*
X36377415Y-111705443D01*
X36410528Y-111652252D01*
X36434112Y-111597377D01*
X36438700Y-111579660D01*
X36454125Y-111538670D01*
X36482627Y-111491581D01*
X36516771Y-111448155D01*
X36549124Y-111418151D01*
X36567682Y-111410327D01*
X36581309Y-111424563D01*
X36602668Y-111461526D01*
X36622599Y-111503244D01*
X36655239Y-111565511D01*
X36690471Y-111604581D01*
X36723986Y-111624914D01*
X36770056Y-111658957D01*
X36786318Y-111697410D01*
X37643560Y-111697410D01*
X37635062Y-111689605D01*
X37597725Y-111668560D01*
X37559123Y-111651371D01*
X37519290Y-111640194D01*
X37469604Y-111633806D01*
X37401446Y-111630980D01*
X37329678Y-111630460D01*
X37203547Y-111628135D01*
X37081078Y-111621604D01*
X36968505Y-111611530D01*
X36872059Y-111598581D01*
X36797974Y-111583420D01*
X36757462Y-111569402D01*
X36718810Y-111537599D01*
X36679671Y-111486284D01*
X36648167Y-111428457D01*
X36632423Y-111377118D01*
X36631880Y-111368437D01*
X36641586Y-111344404D01*
X36667363Y-111301924D01*
X36704203Y-111249056D01*
X36715530Y-111233870D01*
X36758742Y-111170901D01*
X36765403Y-111159980D01*
X36670823Y-111159980D01*
X36651774Y-111196591D01*
X36613020Y-111246009D01*
X36558380Y-111304650D01*
X36491674Y-111368926D01*
X36416721Y-111435251D01*
X36337341Y-111500039D01*
X36257352Y-111559702D01*
X36180575Y-111610656D01*
X36139330Y-111634636D01*
X36068843Y-111669297D01*
X35987543Y-111703362D01*
X35902183Y-111734697D01*
X35819513Y-111761172D01*
X35746287Y-111780653D01*
X35689255Y-111791009D01*
X35655169Y-111790107D01*
X35651942Y-111788552D01*
X35659357Y-111775783D01*
X35680483Y-111752894D01*
X35587874Y-111752894D01*
X35546843Y-111784434D01*
X35514861Y-111806858D01*
X35495794Y-111816350D01*
X35485280Y-111802019D01*
X35470787Y-111765577D01*
X35465191Y-111748029D01*
X35450087Y-111704903D01*
X35432355Y-111686139D01*
X35401117Y-111683254D01*
X35383760Y-111684529D01*
X35325285Y-111701954D01*
X35283944Y-111744294D01*
X35258057Y-111813967D01*
X35248286Y-111879711D01*
X35244602Y-111939579D01*
X35248543Y-111977172D01*
X35262270Y-112003636D01*
X35275057Y-112017771D01*
X35314553Y-112044265D01*
X35351182Y-112053794D01*
X35374564Y-112058103D01*
X35391737Y-112075893D01*
X35407561Y-112114454D01*
X35420406Y-112157583D01*
X35443052Y-112221154D01*
X35470516Y-112274244D01*
X35489530Y-112298447D01*
X35515743Y-112326588D01*
X35519021Y-112350793D01*
X35503981Y-112384770D01*
X35476047Y-112429008D01*
X35443550Y-112451685D01*
X35394218Y-112459747D01*
X35370347Y-112460405D01*
X35302994Y-112472678D01*
X35236308Y-112511305D01*
X35236097Y-112511465D01*
X35172572Y-112549543D01*
X35120877Y-112559898D01*
X35083795Y-112542227D01*
X35074609Y-112529040D01*
X35061788Y-112497629D01*
X35061583Y-112467538D01*
X35076826Y-112433045D01*
X35110350Y-112388425D01*
X35164985Y-112327955D01*
X35184080Y-112307794D01*
X35235908Y-112251181D01*
X35277528Y-112201522D01*
X35304041Y-112164934D01*
X35311080Y-112149298D01*
X35295878Y-112105828D01*
X35255344Y-112061062D01*
X35197082Y-112021579D01*
X35132846Y-111995129D01*
X35077858Y-111976587D01*
X35047497Y-111957629D01*
X35033028Y-111932029D01*
X35030485Y-111922151D01*
X35020826Y-111880659D01*
X35014310Y-111855989D01*
X35015122Y-111829391D01*
X35023331Y-111779611D01*
X35036746Y-111715948D01*
X35053177Y-111647703D01*
X35070434Y-111584175D01*
X35075157Y-111569461D01*
X34864893Y-111569461D01*
X34805261Y-111700736D01*
X34774626Y-111765587D01*
X34751431Y-111805519D01*
X34730439Y-111827014D01*
X34706412Y-111836558D01*
X34693921Y-111838592D01*
X34656846Y-111843977D01*
X34639194Y-111847830D01*
X34639125Y-111847884D01*
X34646075Y-111836586D01*
X34667260Y-111804427D01*
X34695245Y-111762611D01*
X34728637Y-111707870D01*
X34753904Y-111657072D01*
X34763618Y-111628804D01*
X34772066Y-111611111D01*
X34684565Y-111611111D01*
X34676994Y-111669969D01*
X34639273Y-111738503D01*
X34632742Y-111747693D01*
X34600950Y-111788209D01*
X34568605Y-111818992D01*
X34530984Y-111840936D01*
X34483361Y-111854936D01*
X34421013Y-111861885D01*
X34339214Y-111862677D01*
X34233239Y-111858208D01*
X34098365Y-111849370D01*
X34096290Y-111849223D01*
X33918755Y-111833063D01*
X33771408Y-111811264D01*
X33650845Y-111782481D01*
X33567663Y-111750715D01*
X32927766Y-111750715D01*
X32887812Y-111793244D01*
X32805308Y-111861027D01*
X32702936Y-111913987D01*
X32663990Y-111927818D01*
X32594073Y-111946088D01*
X32545473Y-111948211D01*
X32509378Y-111933500D01*
X32487993Y-111914094D01*
X32450541Y-111850384D01*
X32436488Y-111774088D01*
X32446463Y-111697581D01*
X32474140Y-111641848D01*
X32494090Y-111621456D01*
X32515769Y-111624039D01*
X32536839Y-111636627D01*
X32574371Y-111654029D01*
X32637847Y-111675945D01*
X32720012Y-111700184D01*
X32813615Y-111724559D01*
X32879056Y-111739863D01*
X32927766Y-111750715D01*
X33567663Y-111750715D01*
X33553661Y-111745368D01*
X33545673Y-111740527D01*
X33397613Y-111740527D01*
X33389146Y-111748994D01*
X33380680Y-111740527D01*
X33389146Y-111732060D01*
X33397613Y-111740527D01*
X33545673Y-111740527D01*
X33525021Y-111728012D01*
X33339469Y-111728012D01*
X33322824Y-111730723D01*
X33300861Y-111727610D01*
X33300599Y-111721830D01*
X33323263Y-111717787D01*
X33333055Y-111720493D01*
X33339469Y-111728012D01*
X33525021Y-111728012D01*
X33502504Y-111714367D01*
X33282968Y-111714367D01*
X33141324Y-111704588D01*
X33052373Y-111695440D01*
X32951541Y-111680567D01*
X32859639Y-111663068D01*
X32853899Y-111661784D01*
X32708118Y-111628759D01*
X32706639Y-111524469D01*
X32706508Y-111469315D01*
X32709008Y-111443751D01*
X32715441Y-111443526D01*
X32725844Y-111461820D01*
X32757354Y-111496567D01*
X32788437Y-111509237D01*
X32831816Y-111522251D01*
X32855746Y-111536296D01*
X32882774Y-111550457D01*
X32929900Y-111568724D01*
X32984415Y-111586799D01*
X33033609Y-111600385D01*
X33058946Y-111605006D01*
X33077168Y-111612462D01*
X33117183Y-111631371D01*
X33170631Y-111657773D01*
X33175190Y-111660067D01*
X33282968Y-111714367D01*
X33502504Y-111714367D01*
X33476450Y-111698579D01*
X33415808Y-111640769D01*
X33415151Y-111639797D01*
X33329880Y-111639797D01*
X33316853Y-111638706D01*
X33284911Y-111624953D01*
X33279080Y-111621994D01*
X33244793Y-111602030D01*
X33228495Y-111588148D01*
X33228280Y-111587257D01*
X33241306Y-111588347D01*
X33273248Y-111602100D01*
X33279080Y-111605060D01*
X33313366Y-111625023D01*
X33329665Y-111638906D01*
X33329880Y-111639797D01*
X33415151Y-111639797D01*
X33368736Y-111571194D01*
X33211346Y-111571194D01*
X33202880Y-111579660D01*
X33194413Y-111571194D01*
X33202880Y-111562727D01*
X33211346Y-111571194D01*
X33368736Y-111571194D01*
X33368330Y-111570594D01*
X33362263Y-111559168D01*
X33357756Y-111545794D01*
X33042013Y-111545794D01*
X33035818Y-111559732D01*
X33030724Y-111557082D01*
X33028698Y-111536986D01*
X33030724Y-111534505D01*
X33040791Y-111536829D01*
X33042013Y-111545794D01*
X33357756Y-111545794D01*
X33343259Y-111502782D01*
X33341148Y-111486527D01*
X32923480Y-111486527D01*
X32915013Y-111494994D01*
X32906546Y-111486527D01*
X32909368Y-111483705D01*
X32867035Y-111483705D01*
X32864711Y-111493771D01*
X32855746Y-111494994D01*
X32841808Y-111488798D01*
X32844458Y-111483705D01*
X32864554Y-111481678D01*
X32867035Y-111483705D01*
X32909368Y-111483705D01*
X32915013Y-111478060D01*
X32923480Y-111486527D01*
X33341148Y-111486527D01*
X33334256Y-111433476D01*
X33334517Y-111359888D01*
X33343305Y-111290661D01*
X33359882Y-111234433D01*
X33383512Y-111199844D01*
X33393370Y-111194430D01*
X33419314Y-111202631D01*
X33465304Y-111237567D01*
X33531003Y-111298924D01*
X33616073Y-111386390D01*
X33708335Y-111486527D01*
X33788458Y-111573511D01*
X33852587Y-111638265D01*
X33906088Y-111684839D01*
X33954328Y-111717282D01*
X34002675Y-111739644D01*
X34056496Y-111755975D01*
X34069708Y-111759185D01*
X34161198Y-111777097D01*
X34227474Y-111780893D01*
X34274156Y-111770467D01*
X34297980Y-111754836D01*
X34321877Y-111726505D01*
X34323465Y-111706660D01*
X34227346Y-111706660D01*
X34218880Y-111715127D01*
X34210413Y-111706660D01*
X34218880Y-111698194D01*
X34227346Y-111706660D01*
X34323465Y-111706660D01*
X34324050Y-111699362D01*
X34302108Y-111667976D01*
X34287814Y-111655860D01*
X34159613Y-111655860D01*
X34151146Y-111664327D01*
X34142680Y-111655860D01*
X34151146Y-111647394D01*
X34159613Y-111655860D01*
X34287814Y-111655860D01*
X34253661Y-111626913D01*
X34235813Y-111613527D01*
X34185785Y-111574769D01*
X34157747Y-111545748D01*
X34145459Y-111517490D01*
X34142681Y-111481021D01*
X34142680Y-111479599D01*
X34150276Y-111424207D01*
X34176810Y-111389452D01*
X34227896Y-111370062D01*
X34265456Y-111364366D01*
X34350279Y-111369095D01*
X34444532Y-111397593D01*
X34538140Y-111445943D01*
X34606604Y-111496997D01*
X34661322Y-111555573D01*
X34684565Y-111611111D01*
X34772066Y-111611111D01*
X34781618Y-111591107D01*
X34818838Y-111576221D01*
X34864893Y-111569461D01*
X35075157Y-111569461D01*
X35080036Y-111554260D01*
X34769213Y-111554260D01*
X34760747Y-111562727D01*
X34752280Y-111554260D01*
X34760747Y-111545794D01*
X34769213Y-111554260D01*
X35080036Y-111554260D01*
X35086327Y-111534664D01*
X35094655Y-111514849D01*
X35116631Y-111479073D01*
X35140115Y-111461045D01*
X35170014Y-111461930D01*
X35211231Y-111482893D01*
X35268671Y-111525099D01*
X35322402Y-111568943D01*
X35388444Y-111622292D01*
X35451143Y-111670099D01*
X35502512Y-111706428D01*
X35529910Y-111723151D01*
X35587874Y-111752894D01*
X35680483Y-111752894D01*
X35685219Y-111747763D01*
X35705760Y-111727758D01*
X35749818Y-111676319D01*
X35786580Y-111616962D01*
X35794365Y-111599819D01*
X35810373Y-111563548D01*
X35828405Y-111539698D01*
X35855905Y-111524677D01*
X35900315Y-111514895D01*
X35969079Y-111506760D01*
X35992010Y-111504458D01*
X36091424Y-111487952D01*
X36167382Y-111458909D01*
X36221246Y-111421077D01*
X36249595Y-111381942D01*
X36168762Y-111381942D01*
X36138423Y-111407378D01*
X36076157Y-111429022D01*
X36005346Y-111443825D01*
X35923871Y-111455982D01*
X35871063Y-111458404D01*
X35843101Y-111450919D01*
X35836013Y-111436258D01*
X35846912Y-111419292D01*
X35863358Y-111421883D01*
X35892695Y-111420485D01*
X35939608Y-111405853D01*
X35977658Y-111389007D01*
X35986132Y-111384927D01*
X35836013Y-111384927D01*
X35827546Y-111393394D01*
X35819080Y-111384927D01*
X35827546Y-111376460D01*
X35836013Y-111384927D01*
X35986132Y-111384927D01*
X36031194Y-111363231D01*
X36076172Y-111343175D01*
X36095320Y-111335769D01*
X36116090Y-111318828D01*
X36113576Y-111304613D01*
X36115105Y-111298848D01*
X36135673Y-111313648D01*
X36137902Y-111315585D01*
X36168235Y-111351686D01*
X36168762Y-111381942D01*
X36249595Y-111381942D01*
X36253838Y-111376085D01*
X36252774Y-111328119D01*
X36222325Y-111283327D01*
X36090013Y-111283327D01*
X36081546Y-111291794D01*
X36073080Y-111283327D01*
X36081546Y-111274860D01*
X36090013Y-111283327D01*
X36222325Y-111283327D01*
X36218034Y-111277015D01*
X36206783Y-111266394D01*
X36056146Y-111266394D01*
X36047680Y-111274860D01*
X36039213Y-111266394D01*
X36047680Y-111257927D01*
X36056146Y-111266394D01*
X36206783Y-111266394D01*
X36202074Y-111261950D01*
X36154065Y-111227439D01*
X36084124Y-111186534D01*
X36002182Y-111144317D01*
X35918172Y-111105872D01*
X35842022Y-111076280D01*
X35834270Y-111073692D01*
X35781956Y-111048867D01*
X35737927Y-111014628D01*
X35709863Y-110978462D01*
X35705378Y-110948028D01*
X35727920Y-110931201D01*
X35777195Y-110917097D01*
X35846100Y-110907070D01*
X35927527Y-110902475D01*
X35945232Y-110902327D01*
X36014038Y-110911649D01*
X36102107Y-110937618D01*
X36201113Y-110977241D01*
X36302730Y-111027523D01*
X36319925Y-111037062D01*
X36401434Y-111073508D01*
X36495483Y-111101128D01*
X36527854Y-111107447D01*
X36589631Y-111118930D01*
X36639256Y-111130484D01*
X36666143Y-111139641D01*
X36666347Y-111139765D01*
X36670823Y-111159980D01*
X36765403Y-111159980D01*
X36808552Y-111089241D01*
X36857731Y-111001114D01*
X36887136Y-110943705D01*
X36925923Y-110867432D01*
X36944788Y-110832879D01*
X35434571Y-110832879D01*
X35427926Y-110854680D01*
X35397825Y-110880545D01*
X35355321Y-110881576D01*
X35310288Y-110858445D01*
X35296643Y-110845718D01*
X35271525Y-110804278D01*
X35251677Y-110743386D01*
X35237382Y-110669856D01*
X35228922Y-110590507D01*
X35228532Y-110577454D01*
X34925907Y-110577454D01*
X34846149Y-110662722D01*
X34802535Y-110712088D01*
X34778377Y-110749542D01*
X34768183Y-110786076D01*
X34766391Y-110822316D01*
X34773196Y-110879423D01*
X34790753Y-110948838D01*
X34807869Y-110996851D01*
X34839358Y-111076780D01*
X34856813Y-111133309D01*
X34861344Y-111173333D01*
X34854062Y-111203743D01*
X34843994Y-111220947D01*
X34815972Y-111250020D01*
X34785885Y-111255611D01*
X34750155Y-111235988D01*
X34705203Y-111189422D01*
X34660740Y-111132344D01*
X34610697Y-111061541D01*
X34604673Y-111052381D01*
X34003233Y-111052381D01*
X33987874Y-111093621D01*
X33949672Y-111115335D01*
X33884062Y-111122370D01*
X33872570Y-111122460D01*
X33811285Y-111116234D01*
X33765752Y-111093759D01*
X33753483Y-111083402D01*
X32940058Y-111083402D01*
X32939971Y-111171415D01*
X32938784Y-111253149D01*
X32936491Y-111321106D01*
X32933083Y-111367793D01*
X32930135Y-111383542D01*
X32911444Y-111406984D01*
X32882396Y-111402474D01*
X32871025Y-111393394D01*
X32703346Y-111393394D01*
X32697151Y-111407332D01*
X32692058Y-111404682D01*
X32690031Y-111384586D01*
X32692058Y-111382105D01*
X32702124Y-111384429D01*
X32703346Y-111393394D01*
X32871025Y-111393394D01*
X32840751Y-111369220D01*
X32816060Y-111343294D01*
X32754999Y-111251519D01*
X32717758Y-111141019D01*
X32706477Y-111019086D01*
X32708809Y-110977656D01*
X32722427Y-110893633D01*
X32744951Y-110821419D01*
X32773396Y-110768293D01*
X32804778Y-110741530D01*
X32805764Y-110741201D01*
X32857612Y-110740444D01*
X32902055Y-110766753D01*
X32928441Y-110813481D01*
X32929565Y-110818452D01*
X32933799Y-110856634D01*
X32936965Y-110918516D01*
X32939054Y-110996604D01*
X32940058Y-111083402D01*
X33753483Y-111083402D01*
X33748961Y-111079585D01*
X33705094Y-111031064D01*
X33672764Y-110974570D01*
X33649983Y-110903784D01*
X33634762Y-110812390D01*
X33625112Y-110694068D01*
X33624588Y-110684513D01*
X33612302Y-110584032D01*
X33587925Y-110475944D01*
X33576004Y-110436962D01*
X33205812Y-110436962D01*
X33192837Y-110505839D01*
X33160073Y-110577467D01*
X33159513Y-110578387D01*
X33124712Y-110635448D01*
X33083363Y-110596602D01*
X33051575Y-110552076D01*
X33042017Y-110492915D01*
X33042013Y-110491301D01*
X33049384Y-110424854D01*
X33068848Y-110367725D01*
X33096427Y-110327732D01*
X33128146Y-110312692D01*
X33132690Y-110313023D01*
X33175070Y-110333936D01*
X33199667Y-110377455D01*
X33205812Y-110436962D01*
X33576004Y-110436962D01*
X33573039Y-110427269D01*
X33551032Y-110359070D01*
X33540058Y-110313128D01*
X33538951Y-110280107D01*
X33546540Y-110250674D01*
X33549872Y-110242269D01*
X33587084Y-110190466D01*
X33647679Y-110145422D01*
X33721182Y-110113139D01*
X33797119Y-110099620D01*
X33798922Y-110099575D01*
X33851128Y-110102216D01*
X33885566Y-110117273D01*
X33915814Y-110148793D01*
X33962713Y-110232882D01*
X33986793Y-110337070D01*
X33987431Y-110455879D01*
X33964880Y-110580594D01*
X33944697Y-110675699D01*
X33942036Y-110752046D01*
X33956860Y-110819837D01*
X33963920Y-110838150D01*
X33980750Y-110890483D01*
X33995448Y-110956201D01*
X34000314Y-110986763D01*
X34003233Y-111052381D01*
X34604673Y-111052381D01*
X34561251Y-110986364D01*
X34521451Y-110920691D01*
X34514390Y-110907977D01*
X34460913Y-110809194D01*
X34469634Y-110580594D01*
X34474264Y-110491596D01*
X34480714Y-110410982D01*
X34488188Y-110346795D01*
X34495886Y-110307078D01*
X34497141Y-110303387D01*
X34522686Y-110257737D01*
X34565772Y-110199964D01*
X34618166Y-110139916D01*
X34666623Y-110092358D01*
X32796582Y-110092358D01*
X32776118Y-110159454D01*
X32731698Y-110233488D01*
X32661333Y-110317937D01*
X32586101Y-110394295D01*
X32522956Y-110455879D01*
X32479007Y-110502236D01*
X32448855Y-110541414D01*
X32427098Y-110581465D01*
X32408334Y-110630437D01*
X32390456Y-110685881D01*
X32366010Y-110771117D01*
X32352856Y-110840712D01*
X32348787Y-110910086D01*
X32350184Y-110967224D01*
X32356256Y-111100946D01*
X32472324Y-111223984D01*
X32544175Y-111304828D01*
X32592632Y-111372203D01*
X32621380Y-111432979D01*
X32634105Y-111494024D01*
X32635613Y-111528316D01*
X32632360Y-111575178D01*
X32618858Y-111594062D01*
X32589497Y-111590536D01*
X32577330Y-111586161D01*
X32556219Y-111567230D01*
X32525042Y-111526604D01*
X32489876Y-111472362D01*
X32483169Y-111461051D01*
X32446337Y-111405755D01*
X32399409Y-111346144D01*
X32348305Y-111288503D01*
X32298941Y-111239115D01*
X32273968Y-111218245D01*
X32126557Y-111218245D01*
X32121864Y-111234267D01*
X32096423Y-111264672D01*
X32056664Y-111303634D01*
X32009015Y-111345326D01*
X31959904Y-111383922D01*
X31915762Y-111413596D01*
X31903551Y-111420350D01*
X31834368Y-111462635D01*
X31793516Y-111508454D01*
X31776109Y-111566824D01*
X31777257Y-111646761D01*
X31777795Y-111652296D01*
X31785174Y-111714921D01*
X31793405Y-111768705D01*
X31799089Y-111795560D01*
X31802559Y-111816475D01*
X31795851Y-111828612D01*
X31774608Y-111831701D01*
X31734476Y-111825473D01*
X31671100Y-111809656D01*
X31580125Y-111783982D01*
X31571340Y-111781441D01*
X31497353Y-111759257D01*
X31435527Y-111739298D01*
X31393088Y-111723988D01*
X31377758Y-111716539D01*
X31370319Y-111689972D01*
X31394970Y-111656352D01*
X31423453Y-111636105D01*
X30327035Y-111636105D01*
X30324711Y-111646171D01*
X30315746Y-111647394D01*
X30301808Y-111641198D01*
X30304458Y-111636105D01*
X30324554Y-111634078D01*
X30327035Y-111636105D01*
X31423453Y-111636105D01*
X31450887Y-111616605D01*
X31482294Y-111598947D01*
X31554810Y-111552247D01*
X31598337Y-111502213D01*
X31617599Y-111442301D01*
X31619613Y-111408689D01*
X31633384Y-111341563D01*
X31669943Y-111273405D01*
X31722162Y-111212053D01*
X31782912Y-111165345D01*
X31845063Y-111141119D01*
X31864560Y-111139394D01*
X31903829Y-111144589D01*
X31960119Y-111157901D01*
X32022095Y-111175917D01*
X32078420Y-111195226D01*
X32117759Y-111212417D01*
X32126557Y-111218245D01*
X32273968Y-111218245D01*
X32257238Y-111204265D01*
X32229113Y-111190236D01*
X32228062Y-111190194D01*
X32215058Y-111174896D01*
X32197918Y-111134282D01*
X32179012Y-111076273D01*
X32169915Y-111042731D01*
X31758890Y-111042731D01*
X31727960Y-111037794D01*
X31264013Y-111037794D01*
X31264013Y-111132925D01*
X31261138Y-111193571D01*
X31249172Y-111235684D01*
X31223106Y-111274349D01*
X31213213Y-111285914D01*
X31183106Y-111325228D01*
X31167847Y-111363770D01*
X31162702Y-111416073D01*
X31162413Y-111441831D01*
X31159740Y-111503201D01*
X31149533Y-111542442D01*
X31128512Y-111571024D01*
X31124313Y-111575018D01*
X31085845Y-111603225D01*
X31042189Y-111616629D01*
X30982861Y-111617291D01*
X30934662Y-111612340D01*
X30881300Y-111602066D01*
X30841641Y-111582239D01*
X30838680Y-111579465D01*
X30764480Y-111579465D01*
X30755778Y-111584325D01*
X30719340Y-111591264D01*
X30661160Y-111599316D01*
X30595147Y-111606720D01*
X30487020Y-111617314D01*
X30411607Y-111623693D01*
X30368028Y-111625908D01*
X30355398Y-111624008D01*
X30367488Y-111619422D01*
X30394039Y-111600704D01*
X30421524Y-111565421D01*
X30422078Y-111564490D01*
X30451504Y-111525799D01*
X30495445Y-111479812D01*
X30522737Y-111455064D01*
X30568804Y-111415847D01*
X30608203Y-111382262D01*
X30624251Y-111368556D01*
X30644062Y-111354285D01*
X30648386Y-111364255D01*
X30643789Y-111391479D01*
X30643121Y-111428344D01*
X30660315Y-111466011D01*
X30690885Y-111505250D01*
X30726579Y-111544696D01*
X30754982Y-111572404D01*
X30764480Y-111579465D01*
X30838680Y-111579465D01*
X30801747Y-111544876D01*
X30786061Y-111527228D01*
X30745152Y-111473728D01*
X30727216Y-111431206D01*
X30725946Y-111403568D01*
X30732414Y-111371259D01*
X30749472Y-111348459D01*
X30784808Y-111328471D01*
X30813398Y-111317194D01*
X30671347Y-111317194D01*
X30662880Y-111325660D01*
X30654413Y-111317194D01*
X30662880Y-111308727D01*
X30671347Y-111317194D01*
X30813398Y-111317194D01*
X30834844Y-111308735D01*
X30880480Y-111279149D01*
X30892765Y-111266394D01*
X30739080Y-111266394D01*
X30730613Y-111274860D01*
X30722147Y-111266394D01*
X30730613Y-111257927D01*
X30739080Y-111266394D01*
X30892765Y-111266394D01*
X30909077Y-111249460D01*
X30789880Y-111249460D01*
X30781413Y-111257927D01*
X30772947Y-111249460D01*
X30781413Y-111240994D01*
X30789880Y-111249460D01*
X30909077Y-111249460D01*
X30935106Y-111222438D01*
X30968627Y-111179568D01*
X31018340Y-111114639D01*
X31057700Y-111073124D01*
X31094590Y-111049897D01*
X31136893Y-111039833D01*
X31186700Y-111037794D01*
X31264013Y-111037794D01*
X31727960Y-111037794D01*
X31685018Y-111030940D01*
X31628700Y-111017351D01*
X31580195Y-110998173D01*
X31570789Y-110992735D01*
X31549590Y-110976324D01*
X31538623Y-110956203D01*
X31535946Y-110923100D01*
X31539620Y-110867744D01*
X31541141Y-110851078D01*
X31548058Y-110788490D01*
X31555711Y-110737078D01*
X31562144Y-110709015D01*
X31586232Y-110686425D01*
X31626627Y-110685358D01*
X31674273Y-110704895D01*
X31698902Y-110722889D01*
X31722602Y-110746062D01*
X31737336Y-110771592D01*
X31745801Y-110808544D01*
X31750694Y-110865980D01*
X31752552Y-110903158D01*
X31758890Y-111042731D01*
X32169915Y-111042731D01*
X32160709Y-111008788D01*
X32145380Y-110939749D01*
X32136076Y-110882758D01*
X32132266Y-110825634D01*
X32136466Y-110765669D01*
X32149922Y-110692361D01*
X32167201Y-110620896D01*
X32187531Y-110534725D01*
X32205464Y-110446233D01*
X32215446Y-110386285D01*
X31487896Y-110386285D01*
X31486617Y-110449218D01*
X31478856Y-110510826D01*
X31464689Y-110562481D01*
X31449331Y-110590203D01*
X31411968Y-110612285D01*
X31367865Y-110606388D01*
X31341423Y-110587851D01*
X31317845Y-110543370D01*
X31313706Y-110484446D01*
X31325895Y-110419852D01*
X31351300Y-110358362D01*
X31354416Y-110354008D01*
X31109186Y-110354008D01*
X31096762Y-110425995D01*
X31070177Y-110521326D01*
X31060825Y-110550758D01*
X30988391Y-110729563D01*
X30892296Y-110896829D01*
X30778124Y-111043005D01*
X30764255Y-111057856D01*
X30707988Y-111113804D01*
X30667494Y-111145129D01*
X30638043Y-111154163D01*
X30614905Y-111143237D01*
X30611669Y-111139732D01*
X30056244Y-111139732D01*
X30055544Y-111289750D01*
X30023514Y-111438799D01*
X29959883Y-111582827D01*
X29933435Y-111626227D01*
X29902157Y-111657180D01*
X29871386Y-111661639D01*
X29849719Y-111638749D01*
X29848312Y-111634694D01*
X29818027Y-111561775D01*
X29772608Y-111481813D01*
X29748094Y-111445923D01*
X29729215Y-111417229D01*
X29717018Y-111387980D01*
X29710067Y-111350009D01*
X29706923Y-111295151D01*
X29706149Y-111215241D01*
X29706146Y-111207696D01*
X29699016Y-111057048D01*
X29677930Y-110932237D01*
X29643344Y-110835573D01*
X29627019Y-110807102D01*
X29610590Y-110756830D01*
X29627151Y-110709389D01*
X29666246Y-110673690D01*
X29726059Y-110653075D01*
X29790013Y-110663354D01*
X29852198Y-110703077D01*
X29873078Y-110724379D01*
X29964740Y-110852994D01*
X30025886Y-110992796D01*
X30056244Y-111139732D01*
X30611669Y-111139732D01*
X30607447Y-111135160D01*
X30591985Y-111105737D01*
X30575545Y-111059719D01*
X30572319Y-111048491D01*
X30554740Y-110998768D01*
X30534316Y-110960128D01*
X30530623Y-110955357D01*
X30493529Y-110889770D01*
X30473280Y-110804483D01*
X30471326Y-110709964D01*
X30485385Y-110629280D01*
X30513382Y-110574761D01*
X30566694Y-110511910D01*
X30639725Y-110446240D01*
X30726881Y-110383264D01*
X30749413Y-110369082D01*
X30854159Y-110306658D01*
X30934965Y-110262851D01*
X30995390Y-110236511D01*
X31038993Y-110226489D01*
X31069333Y-110231635D01*
X31089970Y-110250800D01*
X31094084Y-110257747D01*
X31108082Y-110299786D01*
X31109186Y-110354008D01*
X31354416Y-110354008D01*
X31386811Y-110308750D01*
X31429315Y-110279789D01*
X31452084Y-110275793D01*
X31470705Y-110290946D01*
X31482617Y-110330652D01*
X31487896Y-110386285D01*
X32215446Y-110386285D01*
X32218205Y-110369723D01*
X32221446Y-110343527D01*
X32244501Y-110225495D01*
X32286278Y-110118971D01*
X32343270Y-110029415D01*
X32411972Y-109962290D01*
X32488879Y-109923055D01*
X32491878Y-109922198D01*
X32589978Y-109905316D01*
X32673466Y-109911591D01*
X32738512Y-109939677D01*
X32781285Y-109988228D01*
X32795075Y-110028725D01*
X32796582Y-110092358D01*
X34666623Y-110092358D01*
X34671635Y-110087439D01*
X34691839Y-110070492D01*
X34746171Y-110043563D01*
X34822786Y-110033480D01*
X34824754Y-110033431D01*
X34876034Y-110033218D01*
X34901198Y-110038211D01*
X34907969Y-110052222D01*
X34905203Y-110073159D01*
X34899806Y-110125050D01*
X34897522Y-110199686D01*
X34898181Y-110286108D01*
X34901612Y-110373355D01*
X34907645Y-110450464D01*
X34911563Y-110481657D01*
X34925907Y-110577454D01*
X35228532Y-110577454D01*
X35226580Y-110512154D01*
X35230639Y-110441614D01*
X35241382Y-110385704D01*
X35259093Y-110351241D01*
X35275799Y-110343527D01*
X35287778Y-110358424D01*
X35302379Y-110396399D01*
X35310093Y-110423960D01*
X35329208Y-110486969D01*
X35355990Y-110559118D01*
X35372105Y-110596946D01*
X35410814Y-110693817D01*
X35431937Y-110773847D01*
X35434571Y-110832879D01*
X36944788Y-110832879D01*
X36963848Y-110797971D01*
X36996190Y-110743684D01*
X37015855Y-110715612D01*
X37072498Y-110669142D01*
X37157259Y-110631863D01*
X37271732Y-110603258D01*
X37417507Y-110582812D01*
X37428409Y-110581723D01*
X37588447Y-110564061D01*
X37721611Y-110543924D01*
X37834894Y-110519081D01*
X37935289Y-110487303D01*
X38029789Y-110446358D01*
X38125386Y-110394018D01*
X38229073Y-110328051D01*
X38233886Y-110324831D01*
X38330369Y-110248265D01*
X38424609Y-110152450D01*
X38506186Y-110048927D01*
X38554744Y-109969441D01*
X38567648Y-109927792D01*
X38578178Y-109862380D01*
X38581423Y-109828860D01*
X38528413Y-109828860D01*
X38520463Y-109888391D01*
X38494483Y-109951304D01*
X38447277Y-110023842D01*
X38395006Y-110089527D01*
X38343341Y-110149654D01*
X38300809Y-110194064D01*
X38257971Y-110230783D01*
X38205389Y-110267836D01*
X38133625Y-110313250D01*
X38127393Y-110317102D01*
X38041024Y-110367090D01*
X37960384Y-110405059D01*
X37875150Y-110434703D01*
X37774998Y-110459715D01*
X37673280Y-110479579D01*
X37561967Y-110498313D01*
X37478140Y-110508717D01*
X37416425Y-110510654D01*
X37371447Y-110503991D01*
X37337834Y-110488594D01*
X37316254Y-110470640D01*
X37288783Y-110437107D01*
X37285515Y-110410178D01*
X37287410Y-110405654D01*
X36809680Y-110405654D01*
X36807161Y-110463713D01*
X36796995Y-110500031D01*
X36775269Y-110526528D01*
X36767979Y-110532686D01*
X36722715Y-110556809D01*
X36674846Y-110554785D01*
X36626070Y-110544507D01*
X36589546Y-110537866D01*
X36556005Y-110532861D01*
X36543776Y-110531205D01*
X36530474Y-110514576D01*
X36516782Y-110474415D01*
X36505145Y-110420937D01*
X36498004Y-110364359D01*
X36496879Y-110335060D01*
X36505492Y-110269839D01*
X36527525Y-110202936D01*
X36558014Y-110145792D01*
X36591996Y-110109849D01*
X36595460Y-110107826D01*
X36637766Y-110094302D01*
X36681567Y-110089527D01*
X36714315Y-110091917D01*
X36729244Y-110105434D01*
X36733324Y-110139593D01*
X36733480Y-110160402D01*
X36743160Y-110226301D01*
X36771580Y-110271833D01*
X36795698Y-110306333D01*
X36807177Y-110350897D01*
X36809680Y-110405654D01*
X37287410Y-110405654D01*
X37291714Y-110395383D01*
X37307620Y-110370772D01*
X37328472Y-110353861D01*
X37360484Y-110343136D01*
X37409868Y-110337078D01*
X37482837Y-110334172D01*
X37546280Y-110333252D01*
X37681018Y-110328706D01*
X37794379Y-110316072D01*
X37892929Y-110292370D01*
X37983234Y-110254623D01*
X38071860Y-110199852D01*
X38165372Y-110125079D01*
X38270335Y-110027325D01*
X38312433Y-109985691D01*
X38528413Y-109769710D01*
X38528413Y-109828860D01*
X38581423Y-109828860D01*
X38585981Y-109781782D01*
X38590704Y-109694578D01*
X38591994Y-109609346D01*
X38590241Y-109556867D01*
X38539450Y-109556867D01*
X38535171Y-109605184D01*
X38514648Y-109657940D01*
X38475674Y-109718919D01*
X38416040Y-109791907D01*
X38333537Y-109880687D01*
X38282793Y-109932412D01*
X38194032Y-110019882D01*
X38122759Y-110085472D01*
X38064397Y-110132995D01*
X38014371Y-110166262D01*
X37981675Y-110183192D01*
X37815036Y-110241398D01*
X37639068Y-110269200D01*
X37545805Y-110271028D01*
X37476342Y-110267471D01*
X37428288Y-110259287D01*
X37389200Y-110242865D01*
X37346636Y-110214591D01*
X37343503Y-110212293D01*
X37287241Y-110176628D01*
X37235816Y-110160386D01*
X37187344Y-110157260D01*
X37130960Y-110151623D01*
X37106653Y-110135971D01*
X37114792Y-110112191D01*
X37155748Y-110082173D01*
X37171012Y-110073988D01*
X37210508Y-110056347D01*
X37246547Y-110049160D01*
X37291964Y-110051395D01*
X37346927Y-110059827D01*
X37475392Y-110068656D01*
X37589430Y-110050099D01*
X37686239Y-110005836D01*
X37763021Y-109937547D01*
X37816976Y-109846911D01*
X37839450Y-109769187D01*
X37783347Y-109769187D01*
X37767769Y-109829379D01*
X37724954Y-109889447D01*
X37660779Y-109942169D01*
X37626979Y-109961333D01*
X37551060Y-109988411D01*
X37463556Y-110003286D01*
X37376594Y-110005210D01*
X37302301Y-109993434D01*
X37275346Y-109983023D01*
X37241025Y-109949710D01*
X37217036Y-109897667D01*
X37208543Y-109841635D01*
X37214279Y-109808715D01*
X37224229Y-109792607D01*
X37237578Y-109800260D01*
X37258892Y-109832244D01*
X37284156Y-109866644D01*
X37313272Y-109882319D01*
X37360345Y-109886301D01*
X37367369Y-109886327D01*
X37418733Y-109882694D01*
X37452936Y-109866410D01*
X37486370Y-109829397D01*
X37488460Y-109826668D01*
X37521949Y-109763384D01*
X37534448Y-109695417D01*
X37525157Y-109633643D01*
X37505153Y-109599793D01*
X37488607Y-109570892D01*
X36355957Y-109570892D01*
X36355516Y-109590387D01*
X36340964Y-109619667D01*
X36321184Y-109643652D01*
X36309791Y-109649260D01*
X36291754Y-109662231D01*
X36264166Y-109695171D01*
X36248964Y-109716852D01*
X36214749Y-109758208D01*
X36162234Y-109809981D01*
X36100831Y-109863126D01*
X36077990Y-109881138D01*
X35995300Y-109950174D01*
X35936966Y-110015198D01*
X35901579Y-110082148D01*
X35887732Y-110156961D01*
X35894018Y-110245576D01*
X35919028Y-110353932D01*
X35945457Y-110440217D01*
X35972576Y-110526658D01*
X35988739Y-110587334D01*
X35995077Y-110628116D01*
X35992724Y-110654875D01*
X35988775Y-110664583D01*
X35963524Y-110694645D01*
X35939761Y-110693023D01*
X35925928Y-110671447D01*
X35905994Y-110651153D01*
X35863572Y-110623867D01*
X35807579Y-110595273D01*
X35803693Y-110593510D01*
X35722196Y-110554257D01*
X35669002Y-110518858D01*
X35640442Y-110480001D01*
X35632847Y-110430370D01*
X35642547Y-110362652D01*
X35657349Y-110301778D01*
X35670481Y-110238669D01*
X35682880Y-110157488D01*
X35692200Y-110073993D01*
X35693392Y-110059652D01*
X35699738Y-109990609D01*
X35706769Y-109933705D01*
X35713293Y-109898016D01*
X35715422Y-109891848D01*
X35732820Y-109878890D01*
X35774674Y-109854524D01*
X35835554Y-109821473D01*
X35910028Y-109782455D01*
X35992668Y-109740193D01*
X36078044Y-109697406D01*
X36160725Y-109656817D01*
X36235281Y-109621145D01*
X36296283Y-109593112D01*
X36338300Y-109575438D01*
X36355903Y-109570845D01*
X36355957Y-109570892D01*
X37488607Y-109570892D01*
X37488320Y-109570392D01*
X37501958Y-109554147D01*
X37545098Y-109551619D01*
X37580269Y-109556148D01*
X37656357Y-109582871D01*
X37720212Y-109631156D01*
X37764832Y-109693658D01*
X37783218Y-109763034D01*
X37783347Y-109769187D01*
X37839450Y-109769187D01*
X37841115Y-109763432D01*
X37865386Y-109701647D01*
X37895297Y-109671869D01*
X37921549Y-109657104D01*
X37946202Y-109653681D01*
X37980376Y-109662448D01*
X38030054Y-109682117D01*
X38092628Y-109704522D01*
X38146941Y-109712911D01*
X38211879Y-109709814D01*
X38225576Y-109708299D01*
X38302003Y-109695113D01*
X38351335Y-109672564D01*
X38379163Y-109634188D01*
X38391079Y-109573519D01*
X38392946Y-109514793D01*
X38395410Y-109453692D01*
X38401914Y-109407634D01*
X38411133Y-109386019D01*
X38436380Y-109388167D01*
X38468973Y-109413073D01*
X38501486Y-109453022D01*
X38526491Y-109500296D01*
X38529693Y-109509204D01*
X38539450Y-109556867D01*
X38590241Y-109556867D01*
X38589499Y-109534664D01*
X38582867Y-109479112D01*
X38575822Y-109456658D01*
X38537913Y-109402876D01*
X38480886Y-109341276D01*
X38454648Y-109317471D01*
X37382293Y-109317471D01*
X37354753Y-109345557D01*
X37311469Y-109365781D01*
X37254368Y-109389779D01*
X37204729Y-109416833D01*
X37188256Y-109428580D01*
X37147200Y-109453909D01*
X37120553Y-109448977D01*
X37108614Y-109421461D01*
X37109424Y-109387092D01*
X37118440Y-109336833D01*
X37123515Y-109317031D01*
X37137725Y-109271872D01*
X37154557Y-109250241D01*
X37185536Y-109243533D01*
X37222514Y-109243110D01*
X37298286Y-109249571D01*
X37351728Y-109266263D01*
X37380508Y-109289968D01*
X37382293Y-109317471D01*
X38454648Y-109317471D01*
X38414769Y-109281292D01*
X38349588Y-109232358D01*
X38317082Y-109213221D01*
X38198962Y-109163848D01*
X38079850Y-109133220D01*
X38075481Y-109132803D01*
X37824410Y-109132803D01*
X37811940Y-109148160D01*
X37767819Y-109160772D01*
X37690977Y-109171843D01*
X37684359Y-109172590D01*
X37654942Y-109166248D01*
X37614685Y-109147411D01*
X37612230Y-109145980D01*
X37576261Y-109117793D01*
X37573587Y-109094476D01*
X37604426Y-109074775D01*
X37625767Y-109067749D01*
X37669805Y-109062337D01*
X37720070Y-109073509D01*
X37758682Y-109089041D01*
X37806301Y-109113497D01*
X37824410Y-109132803D01*
X38075481Y-109132803D01*
X37988782Y-109124528D01*
X37935399Y-109117291D01*
X37881392Y-109093718D01*
X37822130Y-109050571D01*
X37752980Y-108984612D01*
X37688823Y-108914820D01*
X37636985Y-108879051D01*
X37573636Y-108869555D01*
X37504587Y-108883501D01*
X37504587Y-108883501D01*
G37*
X37504587Y-108883501D02*
X37435648Y-108918057D01*
X37372627Y-108970393D01*
X37321337Y-109037680D01*
X37289848Y-109109201D01*
X37271439Y-109170276D01*
X37116760Y-109180525D01*
X37032703Y-109189320D01*
X36947707Y-109203514D01*
X36877211Y-109220405D01*
X36863474Y-109224798D01*
X36803752Y-109248809D01*
X36724481Y-109285316D01*
X36635189Y-109329445D01*
X36545400Y-109376325D01*
X36464642Y-109421082D01*
X36402439Y-109458844D01*
X36391426Y-109466258D01*
X36335741Y-109500380D01*
X36255065Y-109543849D01*
X36155934Y-109593639D01*
X36044880Y-109646721D01*
X35928439Y-109700067D01*
X35813144Y-109750652D01*
X35705530Y-109795445D01*
X35612130Y-109831420D01*
X35576042Y-109844072D01*
X35473591Y-109877005D01*
X35381838Y-109902517D01*
X35292636Y-109922012D01*
X35197838Y-109936899D01*
X35089296Y-109948583D01*
X34958861Y-109958472D01*
X34887747Y-109962895D01*
X34739594Y-109966994D01*
X34593778Y-109960602D01*
X34441658Y-109942758D01*
X34274588Y-109912502D01*
X34118547Y-109877314D01*
X33925218Y-109834133D01*
X33741388Y-109800853D01*
X33558441Y-109776534D01*
X33367764Y-109760236D01*
X33160742Y-109751022D01*
X32931946Y-109747955D01*
X32538456Y-109757361D01*
X32150239Y-109787489D01*
X31757524Y-109839367D01*
X31350539Y-109914022D01*
X31348680Y-109914407D01*
X31293836Y-109927417D01*
X31215649Y-109948257D01*
X31118548Y-109975561D01*
X31006963Y-110007959D01*
X30885324Y-110044085D01*
X30758061Y-110082569D01*
X30629604Y-110122045D01*
X30504383Y-110161145D01*
X30386827Y-110198499D01*
X30281368Y-110232741D01*
X30192434Y-110262503D01*
X30124455Y-110286416D01*
X30081862Y-110303113D01*
X30070213Y-110309189D01*
X30045678Y-110321209D01*
X30000121Y-110338677D01*
X29960146Y-110352302D01*
X29870794Y-110385461D01*
X29761652Y-110432517D01*
X29641543Y-110489248D01*
X29519292Y-110551430D01*
X29403720Y-110614841D01*
X29367480Y-110635951D01*
X29243271Y-110716134D01*
X29124369Y-110805125D01*
X29017327Y-110897306D01*
X28928697Y-110987057D01*
X28867976Y-111064266D01*
X28806614Y-111173307D01*
X28751148Y-111302612D01*
X28706571Y-111438588D01*
X28677880Y-111567645D01*
X28674607Y-111590494D01*
X28664799Y-111666542D01*
X28655143Y-111740667D01*
X28647646Y-111797458D01*
X28647333Y-111799794D01*
X28646412Y-111864191D01*
X28655716Y-111949755D01*
X28673104Y-112046121D01*
X28696436Y-112142927D01*
X28723571Y-112229811D01*
X28748358Y-112288777D01*
X28802266Y-112377503D01*
X28879844Y-112480578D01*
X28976595Y-112593552D01*
X29088018Y-112711975D01*
X29209617Y-112831395D01*
X29336891Y-112947363D01*
X29465343Y-113055427D01*
X29590473Y-113151138D01*
X29685880Y-113216280D01*
X29738549Y-113249082D01*
X29782693Y-113275001D01*
X29806321Y-113287276D01*
X29831283Y-113299759D01*
X29878568Y-113325160D01*
X29941080Y-113359616D01*
X30002486Y-113394041D01*
X30089247Y-113440174D01*
X30184065Y-113486002D01*
X30272641Y-113524795D01*
X30315746Y-113541501D01*
X30398081Y-113571331D01*
X30484677Y-113603009D01*
X30558951Y-113630465D01*
X30569747Y-113634495D01*
X30650835Y-113661036D01*
X30756321Y-113688872D01*
X30888604Y-113718547D01*
X31050084Y-113750604D01*
X31217101Y-113781013D01*
X31302644Y-113796293D01*
X31384169Y-113811218D01*
X31451000Y-113823817D01*
X31485026Y-113830544D01*
X31540271Y-113839647D01*
X31623285Y-113850344D01*
X31728040Y-113862082D01*
X31848505Y-113874306D01*
X31978652Y-113886463D01*
X32112452Y-113897999D01*
X32243876Y-113908360D01*
X32366893Y-113916992D01*
X32475476Y-113923340D01*
X32515006Y-113925179D01*
X32606418Y-113929254D01*
X32686346Y-113933262D01*
X32748441Y-113936850D01*
X32786352Y-113939665D01*
X32794406Y-113940707D01*
X32819338Y-113941407D01*
X32868451Y-113939152D01*
X32932234Y-113934419D01*
X32948880Y-113932949D01*
X33052828Y-113921437D01*
X33154589Y-113906554D01*
X33245168Y-113889866D01*
X33315573Y-113872941D01*
X33341010Y-113864648D01*
X33368609Y-113848781D01*
X33378470Y-113822087D01*
X33377470Y-113785257D01*
X33371092Y-113746655D01*
X33354493Y-113719413D01*
X33319681Y-113693781D01*
X33287546Y-113675564D01*
X33223416Y-113645811D01*
X33013949Y-113645811D01*
X32996058Y-113671270D01*
X32974747Y-113690692D01*
X32915563Y-113737109D01*
X32865720Y-113768550D01*
X32832906Y-113780393D01*
X32809209Y-113774100D01*
X32769937Y-113757886D01*
X32763588Y-113754921D01*
X32733586Y-113734390D01*
X32692060Y-113698353D01*
X32646063Y-113653979D01*
X32602650Y-113608440D01*
X32597859Y-113602832D01*
X31534947Y-113602832D01*
X31521522Y-113656862D01*
X31487872Y-113704493D01*
X31452066Y-113728260D01*
X31395135Y-113737823D01*
X31323858Y-113734999D01*
X31253622Y-113721651D01*
X31199815Y-113699643D01*
X31196280Y-113697284D01*
X31158735Y-113654994D01*
X31147126Y-113605500D01*
X31162006Y-113558925D01*
X31187360Y-113534200D01*
X31232850Y-113517621D01*
X31293619Y-113512746D01*
X31361326Y-113517928D01*
X31427631Y-113531519D01*
X31484192Y-113551873D01*
X31522669Y-113577342D01*
X31534947Y-113602832D01*
X32597859Y-113602832D01*
X32568873Y-113568906D01*
X32551785Y-113542547D01*
X32550946Y-113538746D01*
X32566093Y-113538814D01*
X32606339Y-113545582D01*
X32663892Y-113557677D01*
X32682264Y-113561882D01*
X32759358Y-113578670D01*
X32836921Y-113593673D01*
X32898576Y-113603732D01*
X32900229Y-113603954D01*
X32968584Y-113615120D01*
X33005641Y-113628083D01*
X33013949Y-113645811D01*
X33223416Y-113645811D01*
X33177793Y-113624645D01*
X33056222Y-113582721D01*
X32939793Y-113555427D01*
X32915013Y-113551746D01*
X32805247Y-113535034D01*
X32672333Y-113510611D01*
X32525595Y-113480388D01*
X32374360Y-113446272D01*
X32246146Y-113414850D01*
X32145512Y-113389552D01*
X32040230Y-113363768D01*
X31942747Y-113340508D01*
X31865510Y-113322783D01*
X31865147Y-113322702D01*
X31756801Y-113295589D01*
X31624513Y-113257540D01*
X31475438Y-113211031D01*
X31316733Y-113158536D01*
X31269810Y-113142232D01*
X31078020Y-113142232D01*
X31012046Y-113190750D01*
X30946854Y-113251616D01*
X30908806Y-113321625D01*
X30895111Y-113407723D01*
X30897874Y-113474845D01*
X30905032Y-113538879D01*
X30912931Y-113594001D01*
X30918945Y-113624360D01*
X30924588Y-113646858D01*
X30921529Y-113658192D01*
X30903045Y-113659722D01*
X30862412Y-113652810D01*
X30820347Y-113644315D01*
X30722054Y-113622818D01*
X30651039Y-113602260D01*
X30600976Y-113579355D01*
X30565539Y-113550820D01*
X30538403Y-113513370D01*
X30526786Y-113491889D01*
X30476938Y-113373679D01*
X30446802Y-113257859D01*
X30437276Y-113150960D01*
X30449262Y-113059517D01*
X30462361Y-113024201D01*
X30496550Y-112969993D01*
X30536990Y-112945410D01*
X30589528Y-112948815D01*
X30647652Y-112972287D01*
X30709165Y-113001119D01*
X30781903Y-113031815D01*
X30872721Y-113067132D01*
X30988472Y-113109830D01*
X30997450Y-113113082D01*
X31078020Y-113142232D01*
X31269810Y-113142232D01*
X31155551Y-113102532D01*
X30999050Y-113045494D01*
X30854384Y-112989899D01*
X30728710Y-112938221D01*
X30644829Y-112900496D01*
X30479431Y-112815154D01*
X30311696Y-112716446D01*
X30168478Y-112622411D01*
X29958013Y-112622411D01*
X29933897Y-112678372D01*
X29915170Y-112707597D01*
X29876360Y-112772303D01*
X29834992Y-112853546D01*
X29798781Y-112935593D01*
X29783894Y-112975258D01*
X29770312Y-112997267D01*
X29756421Y-112986317D01*
X29742631Y-112943308D01*
X29729353Y-112869140D01*
X29726665Y-112849660D01*
X29704990Y-112744055D01*
X29665669Y-112633116D01*
X29637440Y-112570260D01*
X29599972Y-112486582D01*
X29576535Y-112419682D01*
X29563569Y-112357397D01*
X29558142Y-112299327D01*
X29551254Y-112180794D01*
X29659833Y-112292481D01*
X29722827Y-112354124D01*
X29791640Y-112416551D01*
X29853321Y-112468102D01*
X29864279Y-112476549D01*
X29924766Y-112528590D01*
X29955490Y-112574847D01*
X29958013Y-112622411D01*
X30168478Y-112622411D01*
X30147312Y-112608514D01*
X29991969Y-112495500D01*
X29851359Y-112381544D01*
X29731171Y-112270789D01*
X29637094Y-112167374D01*
X29636450Y-112166573D01*
X29593928Y-112103987D01*
X29574804Y-112046894D01*
X29580170Y-111989970D01*
X29594688Y-111960848D01*
X29525931Y-111960848D01*
X29514919Y-111970977D01*
X29490378Y-111967512D01*
X29446154Y-111948919D01*
X29413512Y-111932853D01*
X29314465Y-111895316D01*
X29227400Y-111888400D01*
X29153330Y-111912089D01*
X29119166Y-111937532D01*
X29087426Y-111976746D01*
X29049235Y-112037825D01*
X29009735Y-112110814D01*
X28974074Y-112185761D01*
X28947395Y-112252710D01*
X28936538Y-112290860D01*
X28923355Y-112354268D01*
X28913587Y-112389032D01*
X28904343Y-112399780D01*
X28892730Y-112391143D01*
X28882535Y-112377318D01*
X28861559Y-112343659D01*
X28832343Y-112292334D01*
X28807943Y-112247127D01*
X28780954Y-112186887D01*
X28762777Y-112129220D01*
X28757880Y-112095724D01*
X28767160Y-112047543D01*
X28792148Y-111980498D01*
X28828567Y-111903068D01*
X28872143Y-111823731D01*
X28918597Y-111750964D01*
X28957225Y-111700526D01*
X28999884Y-111655877D01*
X29037893Y-111631730D01*
X29085004Y-111620153D01*
X29099772Y-111618298D01*
X29180904Y-111615187D01*
X29244539Y-111629775D01*
X29304143Y-111666042D01*
X29327856Y-111685738D01*
X29374537Y-111731650D01*
X29422393Y-111786971D01*
X29466391Y-111844717D01*
X29501503Y-111897900D01*
X29522698Y-111939533D01*
X29525931Y-111960848D01*
X29594688Y-111960848D01*
X29611120Y-111927888D01*
X29668746Y-111855324D01*
X29709204Y-111812106D01*
X29723364Y-111797508D01*
X29599358Y-111797508D01*
X29595413Y-111845251D01*
X29588266Y-111858273D01*
X29568369Y-111879705D01*
X29561592Y-111884460D01*
X29550859Y-111871291D01*
X29528043Y-111837123D01*
X29504211Y-111799234D01*
X29462197Y-111740073D01*
X29408038Y-111675630D01*
X29367292Y-111633432D01*
X29316062Y-111579510D01*
X29289350Y-111537312D01*
X29282813Y-111505878D01*
X29280802Y-111471736D01*
X29272085Y-111443112D01*
X29252635Y-111416845D01*
X29218426Y-111389774D01*
X29165430Y-111358737D01*
X29089622Y-111320575D01*
X28986975Y-111272126D01*
X28982246Y-111269926D01*
X28951215Y-111250181D01*
X28948908Y-111228208D01*
X28975226Y-111196510D01*
X28981206Y-111190853D01*
X29037558Y-111159838D01*
X29105894Y-111159374D01*
X29184773Y-111188918D01*
X29272757Y-111247928D01*
X29368406Y-111335861D01*
X29369880Y-111337385D01*
X29425333Y-111403907D01*
X29477352Y-111482718D01*
X29523350Y-111567652D01*
X29560741Y-111652540D01*
X29586939Y-111731215D01*
X29599358Y-111797508D01*
X29723364Y-111797508D01*
X29782346Y-111736703D01*
X30027880Y-111725396D01*
X30130102Y-111719358D01*
X30233804Y-111710949D01*
X30327751Y-111701216D01*
X30400708Y-111691210D01*
X30408880Y-111689798D01*
X30483757Y-111679634D01*
X30578572Y-111671438D01*
X30679408Y-111666234D01*
X30746903Y-111664918D01*
X30813934Y-111665042D01*
X30869815Y-111666611D01*
X30920857Y-111670763D01*
X30973373Y-111678634D01*
X31033674Y-111691364D01*
X31108072Y-111710091D01*
X31202881Y-111735952D01*
X31314169Y-111767197D01*
X31457938Y-111807921D01*
X31574402Y-111841473D01*
X31668914Y-111869642D01*
X31746830Y-111894216D01*
X31813504Y-111916982D01*
X31874289Y-111939730D01*
X31934542Y-111964246D01*
X31999616Y-111992318D01*
X32034480Y-112007735D01*
X32200128Y-112080578D01*
X32339973Y-112139996D01*
X32458667Y-112187380D01*
X32560859Y-112224119D01*
X32651203Y-112251606D01*
X32734347Y-112271230D01*
X32814944Y-112284382D01*
X32897645Y-112292454D01*
X32987100Y-112296835D01*
X33002839Y-112297300D01*
X33096400Y-112301278D01*
X33162522Y-112307841D01*
X33207588Y-112317924D01*
X33236649Y-112331572D01*
X33294121Y-112356367D01*
X33339901Y-112353568D01*
X33368859Y-112328506D01*
X33375866Y-112286513D01*
X33355795Y-112232918D01*
X33345795Y-112218128D01*
X33307951Y-112166941D01*
X33484662Y-112176948D01*
X33571426Y-112184307D01*
X33652363Y-112195505D01*
X33716122Y-112208816D01*
X33736926Y-112215311D01*
X33792060Y-112233171D01*
X33841156Y-112244480D01*
X33854813Y-112246097D01*
X33885155Y-112242353D01*
X33898698Y-112219927D01*
X33902331Y-112195120D01*
X33898153Y-112148009D01*
X33870294Y-112115648D01*
X33869315Y-112114956D01*
X33835332Y-112097685D01*
X33775114Y-112073616D01*
X33695059Y-112045002D01*
X33601566Y-112014095D01*
X33501035Y-111983149D01*
X33465346Y-111972718D01*
X33436289Y-111963626D01*
X33430487Y-111958335D01*
X33451252Y-111955632D01*
X33501897Y-111954300D01*
X33516146Y-111954088D01*
X33602101Y-111958449D01*
X33674701Y-111976823D01*
X33712394Y-111992654D01*
X33774082Y-112016893D01*
X33814243Y-112021282D01*
X33826694Y-112017047D01*
X33851238Y-111992769D01*
X33846700Y-111961545D01*
X33812238Y-111920640D01*
X33791313Y-111902150D01*
X33756917Y-111870416D01*
X33750817Y-111856658D01*
X33761680Y-111857143D01*
X33855500Y-111874874D01*
X33974948Y-111889307D01*
X34111910Y-111900026D01*
X34258269Y-111906617D01*
X34405912Y-111908663D01*
X34546722Y-111905748D01*
X34625280Y-111901394D01*
X34743813Y-111892927D01*
X34755011Y-112053794D01*
X34773824Y-112211793D01*
X34807001Y-112342218D01*
X34855781Y-112448714D01*
X34916664Y-112529936D01*
X35024484Y-112628917D01*
X35133143Y-112696849D01*
X35227798Y-112729842D01*
X35347186Y-112768775D01*
X35466171Y-112831128D01*
X35570958Y-112909215D01*
X35600364Y-112937428D01*
X35644429Y-112981764D01*
X35672892Y-113005042D01*
X35693235Y-113010982D01*
X35712944Y-113003303D01*
X35721647Y-112997707D01*
X35747202Y-112972272D01*
X35757785Y-112933916D01*
X35758866Y-112898231D01*
X35754999Y-112844393D01*
X35746513Y-112800692D01*
X35743372Y-112792066D01*
X35738382Y-112776745D01*
X35744409Y-112767881D01*
X35767340Y-112764449D01*
X35813064Y-112765421D01*
X35875567Y-112769026D01*
X35961224Y-112776883D01*
X36029666Y-112790826D01*
X36097497Y-112815091D01*
X36151052Y-112839321D01*
X36225109Y-112873339D01*
X36275230Y-112892455D01*
X36307387Y-112897659D01*
X36327554Y-112889938D01*
X36341416Y-112870827D01*
X36346591Y-112826476D01*
X36341457Y-112815652D01*
X36276280Y-112815652D01*
X36264445Y-112820297D01*
X36235622Y-112806854D01*
X36233946Y-112805770D01*
X36203718Y-112781141D01*
X36191613Y-112762047D01*
X36180816Y-112754437D01*
X36172063Y-112758144D01*
X36160627Y-112760290D01*
X36166182Y-112748111D01*
X36176164Y-112739594D01*
X36140813Y-112739594D01*
X36132346Y-112748060D01*
X36123880Y-112739594D01*
X36132346Y-112731127D01*
X36140813Y-112739594D01*
X36176164Y-112739594D01*
X36181214Y-112735286D01*
X36198431Y-112750778D01*
X36230600Y-112778572D01*
X36246646Y-112786678D01*
X36271615Y-112804316D01*
X36276280Y-112815652D01*
X36341457Y-112815652D01*
X36322215Y-112775093D01*
X36271121Y-112719572D01*
X36196137Y-112662805D01*
X36100094Y-112607687D01*
X36069468Y-112592781D01*
X36011406Y-112564769D01*
X35980583Y-112546954D01*
X35973200Y-112535984D01*
X35985456Y-112528510D01*
X35993800Y-112526068D01*
X36055535Y-112513552D01*
X36127416Y-112504847D01*
X36199200Y-112500500D01*
X36260644Y-112501055D01*
X36301504Y-112507057D01*
X36307153Y-112509392D01*
X36353384Y-112519884D01*
X36389624Y-112501445D01*
X36403573Y-112476202D01*
X36402537Y-112428075D01*
X36369663Y-112383678D01*
X36317185Y-112350584D01*
X36285408Y-112337934D01*
X36249868Y-112330447D01*
X36202897Y-112327618D01*
X36136828Y-112328947D01*
X36054024Y-112333321D01*
X35964012Y-112337982D01*
X35900049Y-112338942D01*
X35854470Y-112335698D01*
X35819608Y-112327747D01*
X35790893Y-112316073D01*
X35737642Y-112298437D01*
X35670006Y-112285830D01*
X35631949Y-112282449D01*
X35575718Y-112278240D01*
X35532671Y-112271880D01*
X35516534Y-112266853D01*
X35500440Y-112243395D01*
X35482110Y-112197487D01*
X35464829Y-112140096D01*
X35451883Y-112082184D01*
X35446555Y-112034717D01*
X35446547Y-112033243D01*
X35453290Y-111983949D01*
X35469666Y-111929720D01*
X35471082Y-111926250D01*
X35489467Y-111889541D01*
X35512084Y-111872509D01*
X35551592Y-111867701D01*
X35570812Y-111867527D01*
X35636940Y-111863235D01*
X35721020Y-111851853D01*
X35811063Y-111835620D01*
X35895083Y-111816775D01*
X35961090Y-111797559D01*
X35976208Y-111791798D01*
X36033591Y-111767822D01*
X36131602Y-111860505D01*
X36254083Y-111961252D01*
X36384039Y-112036450D01*
X36529289Y-112089793D01*
X36688371Y-112123560D01*
X36796757Y-112145461D01*
X36888356Y-112177387D01*
X36980043Y-112225654D01*
X37008856Y-112243481D01*
X37058060Y-112272276D01*
X37089035Y-112282666D01*
X37110255Y-112277078D01*
X37114689Y-112273753D01*
X37137483Y-112235515D01*
X37132110Y-112187467D01*
X37099628Y-112136912D01*
X37094049Y-112131114D01*
X37048218Y-112085283D01*
X37294282Y-112091047D01*
X37396032Y-112094126D01*
X37469878Y-112098342D01*
X37521780Y-112104437D01*
X37557698Y-112113150D01*
X37583591Y-112125220D01*
X37587014Y-112127389D01*
X37634518Y-112148389D01*
X37666936Y-112141193D01*
X37681301Y-112106769D01*
X37681746Y-112096493D01*
X37673010Y-112057221D01*
X37643906Y-112024045D01*
X37590096Y-111993709D01*
X37507241Y-111962955D01*
X37501252Y-111961026D01*
X37422661Y-111932650D01*
X37338837Y-111897484D01*
X37283813Y-111871152D01*
X37182213Y-111818356D01*
X37246765Y-111817541D01*
X37302546Y-111811494D01*
X37368478Y-111797168D01*
X37395427Y-111789216D01*
X37448172Y-111773779D01*
X37486028Y-111770604D01*
X37525740Y-111779860D01*
X37555779Y-111790821D01*
X37620470Y-111809798D01*
X37660659Y-111807055D01*
X37678323Y-111781989D01*
X37678647Y-111753323D01*
X37666737Y-111718697D01*
X37643560Y-111697410D01*
X36786318Y-111697410D01*
X36774719Y-111732913D01*
X36737209Y-111758109D01*
X36686647Y-111765927D01*
X36626343Y-111773619D01*
X36568372Y-111799961D01*
X36507814Y-111844643D01*
X36462924Y-111875851D01*
X36426639Y-111880998D01*
X36386468Y-111860516D01*
X36371697Y-111849364D01*
X36339751Y-111819214D01*
X36330178Y-111790570D01*
X36343327Y-111754641D01*
X36377415Y-111705443D01*
X36410528Y-111652252D01*
X36434112Y-111597377D01*
X36438700Y-111579660D01*
X36454125Y-111538670D01*
X36482627Y-111491581D01*
X36516771Y-111448155D01*
X36549124Y-111418151D01*
X36567682Y-111410327D01*
X36581309Y-111424563D01*
X36602668Y-111461526D01*
X36622599Y-111503244D01*
X36655239Y-111565511D01*
X36690471Y-111604581D01*
X36723986Y-111624914D01*
X36770056Y-111658957D01*
X36786318Y-111697410D01*
X37643560Y-111697410D01*
X37635062Y-111689605D01*
X37597725Y-111668560D01*
X37559123Y-111651371D01*
X37519290Y-111640194D01*
X37469604Y-111633806D01*
X37401446Y-111630980D01*
X37329678Y-111630460D01*
X37203547Y-111628135D01*
X37081078Y-111621604D01*
X36968505Y-111611530D01*
X36872059Y-111598581D01*
X36797974Y-111583420D01*
X36757462Y-111569402D01*
X36718810Y-111537599D01*
X36679671Y-111486284D01*
X36648167Y-111428457D01*
X36632423Y-111377118D01*
X36631880Y-111368437D01*
X36641586Y-111344404D01*
X36667363Y-111301924D01*
X36704203Y-111249056D01*
X36715530Y-111233870D01*
X36758742Y-111170901D01*
X36765403Y-111159980D01*
X36670823Y-111159980D01*
X36651774Y-111196591D01*
X36613020Y-111246009D01*
X36558380Y-111304650D01*
X36491674Y-111368926D01*
X36416721Y-111435251D01*
X36337341Y-111500039D01*
X36257352Y-111559702D01*
X36180575Y-111610656D01*
X36139330Y-111634636D01*
X36068843Y-111669297D01*
X35987543Y-111703362D01*
X35902183Y-111734697D01*
X35819513Y-111761172D01*
X35746287Y-111780653D01*
X35689255Y-111791009D01*
X35655169Y-111790107D01*
X35651942Y-111788552D01*
X35659357Y-111775783D01*
X35680483Y-111752894D01*
X35587874Y-111752894D01*
X35546843Y-111784434D01*
X35514861Y-111806858D01*
X35495794Y-111816350D01*
X35485280Y-111802019D01*
X35470787Y-111765577D01*
X35465191Y-111748029D01*
X35450087Y-111704903D01*
X35432355Y-111686139D01*
X35401117Y-111683254D01*
X35383760Y-111684529D01*
X35325285Y-111701954D01*
X35283944Y-111744294D01*
X35258057Y-111813967D01*
X35248286Y-111879711D01*
X35244602Y-111939579D01*
X35248543Y-111977172D01*
X35262270Y-112003636D01*
X35275057Y-112017771D01*
X35314553Y-112044265D01*
X35351182Y-112053794D01*
X35374564Y-112058103D01*
X35391737Y-112075893D01*
X35407561Y-112114454D01*
X35420406Y-112157583D01*
X35443052Y-112221154D01*
X35470516Y-112274244D01*
X35489530Y-112298447D01*
X35515743Y-112326588D01*
X35519021Y-112350793D01*
X35503981Y-112384770D01*
X35476047Y-112429008D01*
X35443550Y-112451685D01*
X35394218Y-112459747D01*
X35370347Y-112460405D01*
X35302994Y-112472678D01*
X35236308Y-112511305D01*
X35236097Y-112511465D01*
X35172572Y-112549543D01*
X35120877Y-112559898D01*
X35083795Y-112542227D01*
X35074609Y-112529040D01*
X35061788Y-112497629D01*
X35061583Y-112467538D01*
X35076826Y-112433045D01*
X35110350Y-112388425D01*
X35164985Y-112327955D01*
X35184080Y-112307794D01*
X35235908Y-112251181D01*
X35277528Y-112201522D01*
X35304041Y-112164934D01*
X35311080Y-112149298D01*
X35295878Y-112105828D01*
X35255344Y-112061062D01*
X35197082Y-112021579D01*
X35132846Y-111995129D01*
X35077858Y-111976587D01*
X35047497Y-111957629D01*
X35033028Y-111932029D01*
X35030485Y-111922151D01*
X35020826Y-111880659D01*
X35014310Y-111855989D01*
X35015122Y-111829391D01*
X35023331Y-111779611D01*
X35036746Y-111715948D01*
X35053177Y-111647703D01*
X35070434Y-111584175D01*
X35075157Y-111569461D01*
X34864893Y-111569461D01*
X34805261Y-111700736D01*
X34774626Y-111765587D01*
X34751431Y-111805519D01*
X34730439Y-111827014D01*
X34706412Y-111836558D01*
X34693921Y-111838592D01*
X34656846Y-111843977D01*
X34639194Y-111847830D01*
X34639125Y-111847884D01*
X34646075Y-111836586D01*
X34667260Y-111804427D01*
X34695245Y-111762611D01*
X34728637Y-111707870D01*
X34753904Y-111657072D01*
X34763618Y-111628804D01*
X34772066Y-111611111D01*
X34684565Y-111611111D01*
X34676994Y-111669969D01*
X34639273Y-111738503D01*
X34632742Y-111747693D01*
X34600950Y-111788209D01*
X34568605Y-111818992D01*
X34530984Y-111840936D01*
X34483361Y-111854936D01*
X34421013Y-111861885D01*
X34339214Y-111862677D01*
X34233239Y-111858208D01*
X34098365Y-111849370D01*
X34096290Y-111849223D01*
X33918755Y-111833063D01*
X33771408Y-111811264D01*
X33650845Y-111782481D01*
X33567663Y-111750715D01*
X32927766Y-111750715D01*
X32887812Y-111793244D01*
X32805308Y-111861027D01*
X32702936Y-111913987D01*
X32663990Y-111927818D01*
X32594073Y-111946088D01*
X32545473Y-111948211D01*
X32509378Y-111933500D01*
X32487993Y-111914094D01*
X32450541Y-111850384D01*
X32436488Y-111774088D01*
X32446463Y-111697581D01*
X32474140Y-111641848D01*
X32494090Y-111621456D01*
X32515769Y-111624039D01*
X32536839Y-111636627D01*
X32574371Y-111654029D01*
X32637847Y-111675945D01*
X32720012Y-111700184D01*
X32813615Y-111724559D01*
X32879056Y-111739863D01*
X32927766Y-111750715D01*
X33567663Y-111750715D01*
X33553661Y-111745368D01*
X33545673Y-111740527D01*
X33397613Y-111740527D01*
X33389146Y-111748994D01*
X33380680Y-111740527D01*
X33389146Y-111732060D01*
X33397613Y-111740527D01*
X33545673Y-111740527D01*
X33525021Y-111728012D01*
X33339469Y-111728012D01*
X33322824Y-111730723D01*
X33300861Y-111727610D01*
X33300599Y-111721830D01*
X33323263Y-111717787D01*
X33333055Y-111720493D01*
X33339469Y-111728012D01*
X33525021Y-111728012D01*
X33502504Y-111714367D01*
X33282968Y-111714367D01*
X33141324Y-111704588D01*
X33052373Y-111695440D01*
X32951541Y-111680567D01*
X32859639Y-111663068D01*
X32853899Y-111661784D01*
X32708118Y-111628759D01*
X32706639Y-111524469D01*
X32706508Y-111469315D01*
X32709008Y-111443751D01*
X32715441Y-111443526D01*
X32725844Y-111461820D01*
X32757354Y-111496567D01*
X32788437Y-111509237D01*
X32831816Y-111522251D01*
X32855746Y-111536296D01*
X32882774Y-111550457D01*
X32929900Y-111568724D01*
X32984415Y-111586799D01*
X33033609Y-111600385D01*
X33058946Y-111605006D01*
X33077168Y-111612462D01*
X33117183Y-111631371D01*
X33170631Y-111657773D01*
X33175190Y-111660067D01*
X33282968Y-111714367D01*
X33502504Y-111714367D01*
X33476450Y-111698579D01*
X33415808Y-111640769D01*
X33415151Y-111639797D01*
X33329880Y-111639797D01*
X33316853Y-111638706D01*
X33284911Y-111624953D01*
X33279080Y-111621994D01*
X33244793Y-111602030D01*
X33228495Y-111588148D01*
X33228280Y-111587257D01*
X33241306Y-111588347D01*
X33273248Y-111602100D01*
X33279080Y-111605060D01*
X33313366Y-111625023D01*
X33329665Y-111638906D01*
X33329880Y-111639797D01*
X33415151Y-111639797D01*
X33368736Y-111571194D01*
X33211346Y-111571194D01*
X33202880Y-111579660D01*
X33194413Y-111571194D01*
X33202880Y-111562727D01*
X33211346Y-111571194D01*
X33368736Y-111571194D01*
X33368330Y-111570594D01*
X33362263Y-111559168D01*
X33357756Y-111545794D01*
X33042013Y-111545794D01*
X33035818Y-111559732D01*
X33030724Y-111557082D01*
X33028698Y-111536986D01*
X33030724Y-111534505D01*
X33040791Y-111536829D01*
X33042013Y-111545794D01*
X33357756Y-111545794D01*
X33343259Y-111502782D01*
X33341148Y-111486527D01*
X32923480Y-111486527D01*
X32915013Y-111494994D01*
X32906546Y-111486527D01*
X32909368Y-111483705D01*
X32867035Y-111483705D01*
X32864711Y-111493771D01*
X32855746Y-111494994D01*
X32841808Y-111488798D01*
X32844458Y-111483705D01*
X32864554Y-111481678D01*
X32867035Y-111483705D01*
X32909368Y-111483705D01*
X32915013Y-111478060D01*
X32923480Y-111486527D01*
X33341148Y-111486527D01*
X33334256Y-111433476D01*
X33334517Y-111359888D01*
X33343305Y-111290661D01*
X33359882Y-111234433D01*
X33383512Y-111199844D01*
X33393370Y-111194430D01*
X33419314Y-111202631D01*
X33465304Y-111237567D01*
X33531003Y-111298924D01*
X33616073Y-111386390D01*
X33708335Y-111486527D01*
X33788458Y-111573511D01*
X33852587Y-111638265D01*
X33906088Y-111684839D01*
X33954328Y-111717282D01*
X34002675Y-111739644D01*
X34056496Y-111755975D01*
X34069708Y-111759185D01*
X34161198Y-111777097D01*
X34227474Y-111780893D01*
X34274156Y-111770467D01*
X34297980Y-111754836D01*
X34321877Y-111726505D01*
X34323465Y-111706660D01*
X34227346Y-111706660D01*
X34218880Y-111715127D01*
X34210413Y-111706660D01*
X34218880Y-111698194D01*
X34227346Y-111706660D01*
X34323465Y-111706660D01*
X34324050Y-111699362D01*
X34302108Y-111667976D01*
X34287814Y-111655860D01*
X34159613Y-111655860D01*
X34151146Y-111664327D01*
X34142680Y-111655860D01*
X34151146Y-111647394D01*
X34159613Y-111655860D01*
X34287814Y-111655860D01*
X34253661Y-111626913D01*
X34235813Y-111613527D01*
X34185785Y-111574769D01*
X34157747Y-111545748D01*
X34145459Y-111517490D01*
X34142681Y-111481021D01*
X34142680Y-111479599D01*
X34150276Y-111424207D01*
X34176810Y-111389452D01*
X34227896Y-111370062D01*
X34265456Y-111364366D01*
X34350279Y-111369095D01*
X34444532Y-111397593D01*
X34538140Y-111445943D01*
X34606604Y-111496997D01*
X34661322Y-111555573D01*
X34684565Y-111611111D01*
X34772066Y-111611111D01*
X34781618Y-111591107D01*
X34818838Y-111576221D01*
X34864893Y-111569461D01*
X35075157Y-111569461D01*
X35080036Y-111554260D01*
X34769213Y-111554260D01*
X34760747Y-111562727D01*
X34752280Y-111554260D01*
X34760747Y-111545794D01*
X34769213Y-111554260D01*
X35080036Y-111554260D01*
X35086327Y-111534664D01*
X35094655Y-111514849D01*
X35116631Y-111479073D01*
X35140115Y-111461045D01*
X35170014Y-111461930D01*
X35211231Y-111482893D01*
X35268671Y-111525099D01*
X35322402Y-111568943D01*
X35388444Y-111622292D01*
X35451143Y-111670099D01*
X35502512Y-111706428D01*
X35529910Y-111723151D01*
X35587874Y-111752894D01*
X35680483Y-111752894D01*
X35685219Y-111747763D01*
X35705760Y-111727758D01*
X35749818Y-111676319D01*
X35786580Y-111616962D01*
X35794365Y-111599819D01*
X35810373Y-111563548D01*
X35828405Y-111539698D01*
X35855905Y-111524677D01*
X35900315Y-111514895D01*
X35969079Y-111506760D01*
X35992010Y-111504458D01*
X36091424Y-111487952D01*
X36167382Y-111458909D01*
X36221246Y-111421077D01*
X36249595Y-111381942D01*
X36168762Y-111381942D01*
X36138423Y-111407378D01*
X36076157Y-111429022D01*
X36005346Y-111443825D01*
X35923871Y-111455982D01*
X35871063Y-111458404D01*
X35843101Y-111450919D01*
X35836013Y-111436258D01*
X35846912Y-111419292D01*
X35863358Y-111421883D01*
X35892695Y-111420485D01*
X35939608Y-111405853D01*
X35977658Y-111389007D01*
X35986132Y-111384927D01*
X35836013Y-111384927D01*
X35827546Y-111393394D01*
X35819080Y-111384927D01*
X35827546Y-111376460D01*
X35836013Y-111384927D01*
X35986132Y-111384927D01*
X36031194Y-111363231D01*
X36076172Y-111343175D01*
X36095320Y-111335769D01*
X36116090Y-111318828D01*
X36113576Y-111304613D01*
X36115105Y-111298848D01*
X36135673Y-111313648D01*
X36137902Y-111315585D01*
X36168235Y-111351686D01*
X36168762Y-111381942D01*
X36249595Y-111381942D01*
X36253838Y-111376085D01*
X36252774Y-111328119D01*
X36222325Y-111283327D01*
X36090013Y-111283327D01*
X36081546Y-111291794D01*
X36073080Y-111283327D01*
X36081546Y-111274860D01*
X36090013Y-111283327D01*
X36222325Y-111283327D01*
X36218034Y-111277015D01*
X36206783Y-111266394D01*
X36056146Y-111266394D01*
X36047680Y-111274860D01*
X36039213Y-111266394D01*
X36047680Y-111257927D01*
X36056146Y-111266394D01*
X36206783Y-111266394D01*
X36202074Y-111261950D01*
X36154065Y-111227439D01*
X36084124Y-111186534D01*
X36002182Y-111144317D01*
X35918172Y-111105872D01*
X35842022Y-111076280D01*
X35834270Y-111073692D01*
X35781956Y-111048867D01*
X35737927Y-111014628D01*
X35709863Y-110978462D01*
X35705378Y-110948028D01*
X35727920Y-110931201D01*
X35777195Y-110917097D01*
X35846100Y-110907070D01*
X35927527Y-110902475D01*
X35945232Y-110902327D01*
X36014038Y-110911649D01*
X36102107Y-110937618D01*
X36201113Y-110977241D01*
X36302730Y-111027523D01*
X36319925Y-111037062D01*
X36401434Y-111073508D01*
X36495483Y-111101128D01*
X36527854Y-111107447D01*
X36589631Y-111118930D01*
X36639256Y-111130484D01*
X36666143Y-111139641D01*
X36666347Y-111139765D01*
X36670823Y-111159980D01*
X36765403Y-111159980D01*
X36808552Y-111089241D01*
X36857731Y-111001114D01*
X36887136Y-110943705D01*
X36925923Y-110867432D01*
X36944788Y-110832879D01*
X35434571Y-110832879D01*
X35427926Y-110854680D01*
X35397825Y-110880545D01*
X35355321Y-110881576D01*
X35310288Y-110858445D01*
X35296643Y-110845718D01*
X35271525Y-110804278D01*
X35251677Y-110743386D01*
X35237382Y-110669856D01*
X35228922Y-110590507D01*
X35228532Y-110577454D01*
X34925907Y-110577454D01*
X34846149Y-110662722D01*
X34802535Y-110712088D01*
X34778377Y-110749542D01*
X34768183Y-110786076D01*
X34766391Y-110822316D01*
X34773196Y-110879423D01*
X34790753Y-110948838D01*
X34807869Y-110996851D01*
X34839358Y-111076780D01*
X34856813Y-111133309D01*
X34861344Y-111173333D01*
X34854062Y-111203743D01*
X34843994Y-111220947D01*
X34815972Y-111250020D01*
X34785885Y-111255611D01*
X34750155Y-111235988D01*
X34705203Y-111189422D01*
X34660740Y-111132344D01*
X34610697Y-111061541D01*
X34604673Y-111052381D01*
X34003233Y-111052381D01*
X33987874Y-111093621D01*
X33949672Y-111115335D01*
X33884062Y-111122370D01*
X33872570Y-111122460D01*
X33811285Y-111116234D01*
X33765752Y-111093759D01*
X33753483Y-111083402D01*
X32940058Y-111083402D01*
X32939971Y-111171415D01*
X32938784Y-111253149D01*
X32936491Y-111321106D01*
X32933083Y-111367793D01*
X32930135Y-111383542D01*
X32911444Y-111406984D01*
X32882396Y-111402474D01*
X32871025Y-111393394D01*
X32703346Y-111393394D01*
X32697151Y-111407332D01*
X32692058Y-111404682D01*
X32690031Y-111384586D01*
X32692058Y-111382105D01*
X32702124Y-111384429D01*
X32703346Y-111393394D01*
X32871025Y-111393394D01*
X32840751Y-111369220D01*
X32816060Y-111343294D01*
X32754999Y-111251519D01*
X32717758Y-111141019D01*
X32706477Y-111019086D01*
X32708809Y-110977656D01*
X32722427Y-110893633D01*
X32744951Y-110821419D01*
X32773396Y-110768293D01*
X32804778Y-110741530D01*
X32805764Y-110741201D01*
X32857612Y-110740444D01*
X32902055Y-110766753D01*
X32928441Y-110813481D01*
X32929565Y-110818452D01*
X32933799Y-110856634D01*
X32936965Y-110918516D01*
X32939054Y-110996604D01*
X32940058Y-111083402D01*
X33753483Y-111083402D01*
X33748961Y-111079585D01*
X33705094Y-111031064D01*
X33672764Y-110974570D01*
X33649983Y-110903784D01*
X33634762Y-110812390D01*
X33625112Y-110694068D01*
X33624588Y-110684513D01*
X33612302Y-110584032D01*
X33587925Y-110475944D01*
X33576004Y-110436962D01*
X33205812Y-110436962D01*
X33192837Y-110505839D01*
X33160073Y-110577467D01*
X33159513Y-110578387D01*
X33124712Y-110635448D01*
X33083363Y-110596602D01*
X33051575Y-110552076D01*
X33042017Y-110492915D01*
X33042013Y-110491301D01*
X33049384Y-110424854D01*
X33068848Y-110367725D01*
X33096427Y-110327732D01*
X33128146Y-110312692D01*
X33132690Y-110313023D01*
X33175070Y-110333936D01*
X33199667Y-110377455D01*
X33205812Y-110436962D01*
X33576004Y-110436962D01*
X33573039Y-110427269D01*
X33551032Y-110359070D01*
X33540058Y-110313128D01*
X33538951Y-110280107D01*
X33546540Y-110250674D01*
X33549872Y-110242269D01*
X33587084Y-110190466D01*
X33647679Y-110145422D01*
X33721182Y-110113139D01*
X33797119Y-110099620D01*
X33798922Y-110099575D01*
X33851128Y-110102216D01*
X33885566Y-110117273D01*
X33915814Y-110148793D01*
X33962713Y-110232882D01*
X33986793Y-110337070D01*
X33987431Y-110455879D01*
X33964880Y-110580594D01*
X33944697Y-110675699D01*
X33942036Y-110752046D01*
X33956860Y-110819837D01*
X33963920Y-110838150D01*
X33980750Y-110890483D01*
X33995448Y-110956201D01*
X34000314Y-110986763D01*
X34003233Y-111052381D01*
X34604673Y-111052381D01*
X34561251Y-110986364D01*
X34521451Y-110920691D01*
X34514390Y-110907977D01*
X34460913Y-110809194D01*
X34469634Y-110580594D01*
X34474264Y-110491596D01*
X34480714Y-110410982D01*
X34488188Y-110346795D01*
X34495886Y-110307078D01*
X34497141Y-110303387D01*
X34522686Y-110257737D01*
X34565772Y-110199964D01*
X34618166Y-110139916D01*
X34666623Y-110092358D01*
X32796582Y-110092358D01*
X32776118Y-110159454D01*
X32731698Y-110233488D01*
X32661333Y-110317937D01*
X32586101Y-110394295D01*
X32522956Y-110455879D01*
X32479007Y-110502236D01*
X32448855Y-110541414D01*
X32427098Y-110581465D01*
X32408334Y-110630437D01*
X32390456Y-110685881D01*
X32366010Y-110771117D01*
X32352856Y-110840712D01*
X32348787Y-110910086D01*
X32350184Y-110967224D01*
X32356256Y-111100946D01*
X32472324Y-111223984D01*
X32544175Y-111304828D01*
X32592632Y-111372203D01*
X32621380Y-111432979D01*
X32634105Y-111494024D01*
X32635613Y-111528316D01*
X32632360Y-111575178D01*
X32618858Y-111594062D01*
X32589497Y-111590536D01*
X32577330Y-111586161D01*
X32556219Y-111567230D01*
X32525042Y-111526604D01*
X32489876Y-111472362D01*
X32483169Y-111461051D01*
X32446337Y-111405755D01*
X32399409Y-111346144D01*
X32348305Y-111288503D01*
X32298941Y-111239115D01*
X32273968Y-111218245D01*
X32126557Y-111218245D01*
X32121864Y-111234267D01*
X32096423Y-111264672D01*
X32056664Y-111303634D01*
X32009015Y-111345326D01*
X31959904Y-111383922D01*
X31915762Y-111413596D01*
X31903551Y-111420350D01*
X31834368Y-111462635D01*
X31793516Y-111508454D01*
X31776109Y-111566824D01*
X31777257Y-111646761D01*
X31777795Y-111652296D01*
X31785174Y-111714921D01*
X31793405Y-111768705D01*
X31799089Y-111795560D01*
X31802559Y-111816475D01*
X31795851Y-111828612D01*
X31774608Y-111831701D01*
X31734476Y-111825473D01*
X31671100Y-111809656D01*
X31580125Y-111783982D01*
X31571340Y-111781441D01*
X31497353Y-111759257D01*
X31435527Y-111739298D01*
X31393088Y-111723988D01*
X31377758Y-111716539D01*
X31370319Y-111689972D01*
X31394970Y-111656352D01*
X31423453Y-111636105D01*
X30327035Y-111636105D01*
X30324711Y-111646171D01*
X30315746Y-111647394D01*
X30301808Y-111641198D01*
X30304458Y-111636105D01*
X30324554Y-111634078D01*
X30327035Y-111636105D01*
X31423453Y-111636105D01*
X31450887Y-111616605D01*
X31482294Y-111598947D01*
X31554810Y-111552247D01*
X31598337Y-111502213D01*
X31617599Y-111442301D01*
X31619613Y-111408689D01*
X31633384Y-111341563D01*
X31669943Y-111273405D01*
X31722162Y-111212053D01*
X31782912Y-111165345D01*
X31845063Y-111141119D01*
X31864560Y-111139394D01*
X31903829Y-111144589D01*
X31960119Y-111157901D01*
X32022095Y-111175917D01*
X32078420Y-111195226D01*
X32117759Y-111212417D01*
X32126557Y-111218245D01*
X32273968Y-111218245D01*
X32257238Y-111204265D01*
X32229113Y-111190236D01*
X32228062Y-111190194D01*
X32215058Y-111174896D01*
X32197918Y-111134282D01*
X32179012Y-111076273D01*
X32169915Y-111042731D01*
X31758890Y-111042731D01*
X31727960Y-111037794D01*
X31264013Y-111037794D01*
X31264013Y-111132925D01*
X31261138Y-111193571D01*
X31249172Y-111235684D01*
X31223106Y-111274349D01*
X31213213Y-111285914D01*
X31183106Y-111325228D01*
X31167847Y-111363770D01*
X31162702Y-111416073D01*
X31162413Y-111441831D01*
X31159740Y-111503201D01*
X31149533Y-111542442D01*
X31128512Y-111571024D01*
X31124313Y-111575018D01*
X31085845Y-111603225D01*
X31042189Y-111616629D01*
X30982861Y-111617291D01*
X30934662Y-111612340D01*
X30881300Y-111602066D01*
X30841641Y-111582239D01*
X30838680Y-111579465D01*
X30764480Y-111579465D01*
X30755778Y-111584325D01*
X30719340Y-111591264D01*
X30661160Y-111599316D01*
X30595147Y-111606720D01*
X30487020Y-111617314D01*
X30411607Y-111623693D01*
X30368028Y-111625908D01*
X30355398Y-111624008D01*
X30367488Y-111619422D01*
X30394039Y-111600704D01*
X30421524Y-111565421D01*
X30422078Y-111564490D01*
X30451504Y-111525799D01*
X30495445Y-111479812D01*
X30522737Y-111455064D01*
X30568804Y-111415847D01*
X30608203Y-111382262D01*
X30624251Y-111368556D01*
X30644062Y-111354285D01*
X30648386Y-111364255D01*
X30643789Y-111391479D01*
X30643121Y-111428344D01*
X30660315Y-111466011D01*
X30690885Y-111505250D01*
X30726579Y-111544696D01*
X30754982Y-111572404D01*
X30764480Y-111579465D01*
X30838680Y-111579465D01*
X30801747Y-111544876D01*
X30786061Y-111527228D01*
X30745152Y-111473728D01*
X30727216Y-111431206D01*
X30725946Y-111403568D01*
X30732414Y-111371259D01*
X30749472Y-111348459D01*
X30784808Y-111328471D01*
X30813398Y-111317194D01*
X30671347Y-111317194D01*
X30662880Y-111325660D01*
X30654413Y-111317194D01*
X30662880Y-111308727D01*
X30671347Y-111317194D01*
X30813398Y-111317194D01*
X30834844Y-111308735D01*
X30880480Y-111279149D01*
X30892765Y-111266394D01*
X30739080Y-111266394D01*
X30730613Y-111274860D01*
X30722147Y-111266394D01*
X30730613Y-111257927D01*
X30739080Y-111266394D01*
X30892765Y-111266394D01*
X30909077Y-111249460D01*
X30789880Y-111249460D01*
X30781413Y-111257927D01*
X30772947Y-111249460D01*
X30781413Y-111240994D01*
X30789880Y-111249460D01*
X30909077Y-111249460D01*
X30935106Y-111222438D01*
X30968627Y-111179568D01*
X31018340Y-111114639D01*
X31057700Y-111073124D01*
X31094590Y-111049897D01*
X31136893Y-111039833D01*
X31186700Y-111037794D01*
X31264013Y-111037794D01*
X31727960Y-111037794D01*
X31685018Y-111030940D01*
X31628700Y-111017351D01*
X31580195Y-110998173D01*
X31570789Y-110992735D01*
X31549590Y-110976324D01*
X31538623Y-110956203D01*
X31535946Y-110923100D01*
X31539620Y-110867744D01*
X31541141Y-110851078D01*
X31548058Y-110788490D01*
X31555711Y-110737078D01*
X31562144Y-110709015D01*
X31586232Y-110686425D01*
X31626627Y-110685358D01*
X31674273Y-110704895D01*
X31698902Y-110722889D01*
X31722602Y-110746062D01*
X31737336Y-110771592D01*
X31745801Y-110808544D01*
X31750694Y-110865980D01*
X31752552Y-110903158D01*
X31758890Y-111042731D01*
X32169915Y-111042731D01*
X32160709Y-111008788D01*
X32145380Y-110939749D01*
X32136076Y-110882758D01*
X32132266Y-110825634D01*
X32136466Y-110765669D01*
X32149922Y-110692361D01*
X32167201Y-110620896D01*
X32187531Y-110534725D01*
X32205464Y-110446233D01*
X32215446Y-110386285D01*
X31487896Y-110386285D01*
X31486617Y-110449218D01*
X31478856Y-110510826D01*
X31464689Y-110562481D01*
X31449331Y-110590203D01*
X31411968Y-110612285D01*
X31367865Y-110606388D01*
X31341423Y-110587851D01*
X31317845Y-110543370D01*
X31313706Y-110484446D01*
X31325895Y-110419852D01*
X31351300Y-110358362D01*
X31354416Y-110354008D01*
X31109186Y-110354008D01*
X31096762Y-110425995D01*
X31070177Y-110521326D01*
X31060825Y-110550758D01*
X30988391Y-110729563D01*
X30892296Y-110896829D01*
X30778124Y-111043005D01*
X30764255Y-111057856D01*
X30707988Y-111113804D01*
X30667494Y-111145129D01*
X30638043Y-111154163D01*
X30614905Y-111143237D01*
X30611669Y-111139732D01*
X30056244Y-111139732D01*
X30055544Y-111289750D01*
X30023514Y-111438799D01*
X29959883Y-111582827D01*
X29933435Y-111626227D01*
X29902157Y-111657180D01*
X29871386Y-111661639D01*
X29849719Y-111638749D01*
X29848312Y-111634694D01*
X29818027Y-111561775D01*
X29772608Y-111481813D01*
X29748094Y-111445923D01*
X29729215Y-111417229D01*
X29717018Y-111387980D01*
X29710067Y-111350009D01*
X29706923Y-111295151D01*
X29706149Y-111215241D01*
X29706146Y-111207696D01*
X29699016Y-111057048D01*
X29677930Y-110932237D01*
X29643344Y-110835573D01*
X29627019Y-110807102D01*
X29610590Y-110756830D01*
X29627151Y-110709389D01*
X29666246Y-110673690D01*
X29726059Y-110653075D01*
X29790013Y-110663354D01*
X29852198Y-110703077D01*
X29873078Y-110724379D01*
X29964740Y-110852994D01*
X30025886Y-110992796D01*
X30056244Y-111139732D01*
X30611669Y-111139732D01*
X30607447Y-111135160D01*
X30591985Y-111105737D01*
X30575545Y-111059719D01*
X30572319Y-111048491D01*
X30554740Y-110998768D01*
X30534316Y-110960128D01*
X30530623Y-110955357D01*
X30493529Y-110889770D01*
X30473280Y-110804483D01*
X30471326Y-110709964D01*
X30485385Y-110629280D01*
X30513382Y-110574761D01*
X30566694Y-110511910D01*
X30639725Y-110446240D01*
X30726881Y-110383264D01*
X30749413Y-110369082D01*
X30854159Y-110306658D01*
X30934965Y-110262851D01*
X30995390Y-110236511D01*
X31038993Y-110226489D01*
X31069333Y-110231635D01*
X31089970Y-110250800D01*
X31094084Y-110257747D01*
X31108082Y-110299786D01*
X31109186Y-110354008D01*
X31354416Y-110354008D01*
X31386811Y-110308750D01*
X31429315Y-110279789D01*
X31452084Y-110275793D01*
X31470705Y-110290946D01*
X31482617Y-110330652D01*
X31487896Y-110386285D01*
X32215446Y-110386285D01*
X32218205Y-110369723D01*
X32221446Y-110343527D01*
X32244501Y-110225495D01*
X32286278Y-110118971D01*
X32343270Y-110029415D01*
X32411972Y-109962290D01*
X32488879Y-109923055D01*
X32491878Y-109922198D01*
X32589978Y-109905316D01*
X32673466Y-109911591D01*
X32738512Y-109939677D01*
X32781285Y-109988228D01*
X32795075Y-110028725D01*
X32796582Y-110092358D01*
X34666623Y-110092358D01*
X34671635Y-110087439D01*
X34691839Y-110070492D01*
X34746171Y-110043563D01*
X34822786Y-110033480D01*
X34824754Y-110033431D01*
X34876034Y-110033218D01*
X34901198Y-110038211D01*
X34907969Y-110052222D01*
X34905203Y-110073159D01*
X34899806Y-110125050D01*
X34897522Y-110199686D01*
X34898181Y-110286108D01*
X34901612Y-110373355D01*
X34907645Y-110450464D01*
X34911563Y-110481657D01*
X34925907Y-110577454D01*
X35228532Y-110577454D01*
X35226580Y-110512154D01*
X35230639Y-110441614D01*
X35241382Y-110385704D01*
X35259093Y-110351241D01*
X35275799Y-110343527D01*
X35287778Y-110358424D01*
X35302379Y-110396399D01*
X35310093Y-110423960D01*
X35329208Y-110486969D01*
X35355990Y-110559118D01*
X35372105Y-110596946D01*
X35410814Y-110693817D01*
X35431937Y-110773847D01*
X35434571Y-110832879D01*
X36944788Y-110832879D01*
X36963848Y-110797971D01*
X36996190Y-110743684D01*
X37015855Y-110715612D01*
X37072498Y-110669142D01*
X37157259Y-110631863D01*
X37271732Y-110603258D01*
X37417507Y-110582812D01*
X37428409Y-110581723D01*
X37588447Y-110564061D01*
X37721611Y-110543924D01*
X37834894Y-110519081D01*
X37935289Y-110487303D01*
X38029789Y-110446358D01*
X38125386Y-110394018D01*
X38229073Y-110328051D01*
X38233886Y-110324831D01*
X38330369Y-110248265D01*
X38424609Y-110152450D01*
X38506186Y-110048927D01*
X38554744Y-109969441D01*
X38567648Y-109927792D01*
X38578178Y-109862380D01*
X38581423Y-109828860D01*
X38528413Y-109828860D01*
X38520463Y-109888391D01*
X38494483Y-109951304D01*
X38447277Y-110023842D01*
X38395006Y-110089527D01*
X38343341Y-110149654D01*
X38300809Y-110194064D01*
X38257971Y-110230783D01*
X38205389Y-110267836D01*
X38133625Y-110313250D01*
X38127393Y-110317102D01*
X38041024Y-110367090D01*
X37960384Y-110405059D01*
X37875150Y-110434703D01*
X37774998Y-110459715D01*
X37673280Y-110479579D01*
X37561967Y-110498313D01*
X37478140Y-110508717D01*
X37416425Y-110510654D01*
X37371447Y-110503991D01*
X37337834Y-110488594D01*
X37316254Y-110470640D01*
X37288783Y-110437107D01*
X37285515Y-110410178D01*
X37287410Y-110405654D01*
X36809680Y-110405654D01*
X36807161Y-110463713D01*
X36796995Y-110500031D01*
X36775269Y-110526528D01*
X36767979Y-110532686D01*
X36722715Y-110556809D01*
X36674846Y-110554785D01*
X36626070Y-110544507D01*
X36589546Y-110537866D01*
X36556005Y-110532861D01*
X36543776Y-110531205D01*
X36530474Y-110514576D01*
X36516782Y-110474415D01*
X36505145Y-110420937D01*
X36498004Y-110364359D01*
X36496879Y-110335060D01*
X36505492Y-110269839D01*
X36527525Y-110202936D01*
X36558014Y-110145792D01*
X36591996Y-110109849D01*
X36595460Y-110107826D01*
X36637766Y-110094302D01*
X36681567Y-110089527D01*
X36714315Y-110091917D01*
X36729244Y-110105434D01*
X36733324Y-110139593D01*
X36733480Y-110160402D01*
X36743160Y-110226301D01*
X36771580Y-110271833D01*
X36795698Y-110306333D01*
X36807177Y-110350897D01*
X36809680Y-110405654D01*
X37287410Y-110405654D01*
X37291714Y-110395383D01*
X37307620Y-110370772D01*
X37328472Y-110353861D01*
X37360484Y-110343136D01*
X37409868Y-110337078D01*
X37482837Y-110334172D01*
X37546280Y-110333252D01*
X37681018Y-110328706D01*
X37794379Y-110316072D01*
X37892929Y-110292370D01*
X37983234Y-110254623D01*
X38071860Y-110199852D01*
X38165372Y-110125079D01*
X38270335Y-110027325D01*
X38312433Y-109985691D01*
X38528413Y-109769710D01*
X38528413Y-109828860D01*
X38581423Y-109828860D01*
X38585981Y-109781782D01*
X38590704Y-109694578D01*
X38591994Y-109609346D01*
X38590241Y-109556867D01*
X38539450Y-109556867D01*
X38535171Y-109605184D01*
X38514648Y-109657940D01*
X38475674Y-109718919D01*
X38416040Y-109791907D01*
X38333537Y-109880687D01*
X38282793Y-109932412D01*
X38194032Y-110019882D01*
X38122759Y-110085472D01*
X38064397Y-110132995D01*
X38014371Y-110166262D01*
X37981675Y-110183192D01*
X37815036Y-110241398D01*
X37639068Y-110269200D01*
X37545805Y-110271028D01*
X37476342Y-110267471D01*
X37428288Y-110259287D01*
X37389200Y-110242865D01*
X37346636Y-110214591D01*
X37343503Y-110212293D01*
X37287241Y-110176628D01*
X37235816Y-110160386D01*
X37187344Y-110157260D01*
X37130960Y-110151623D01*
X37106653Y-110135971D01*
X37114792Y-110112191D01*
X37155748Y-110082173D01*
X37171012Y-110073988D01*
X37210508Y-110056347D01*
X37246547Y-110049160D01*
X37291964Y-110051395D01*
X37346927Y-110059827D01*
X37475392Y-110068656D01*
X37589430Y-110050099D01*
X37686239Y-110005836D01*
X37763021Y-109937547D01*
X37816976Y-109846911D01*
X37839450Y-109769187D01*
X37783347Y-109769187D01*
X37767769Y-109829379D01*
X37724954Y-109889447D01*
X37660779Y-109942169D01*
X37626979Y-109961333D01*
X37551060Y-109988411D01*
X37463556Y-110003286D01*
X37376594Y-110005210D01*
X37302301Y-109993434D01*
X37275346Y-109983023D01*
X37241025Y-109949710D01*
X37217036Y-109897667D01*
X37208543Y-109841635D01*
X37214279Y-109808715D01*
X37224229Y-109792607D01*
X37237578Y-109800260D01*
X37258892Y-109832244D01*
X37284156Y-109866644D01*
X37313272Y-109882319D01*
X37360345Y-109886301D01*
X37367369Y-109886327D01*
X37418733Y-109882694D01*
X37452936Y-109866410D01*
X37486370Y-109829397D01*
X37488460Y-109826668D01*
X37521949Y-109763384D01*
X37534448Y-109695417D01*
X37525157Y-109633643D01*
X37505153Y-109599793D01*
X37488607Y-109570892D01*
X36355957Y-109570892D01*
X36355516Y-109590387D01*
X36340964Y-109619667D01*
X36321184Y-109643652D01*
X36309791Y-109649260D01*
X36291754Y-109662231D01*
X36264166Y-109695171D01*
X36248964Y-109716852D01*
X36214749Y-109758208D01*
X36162234Y-109809981D01*
X36100831Y-109863126D01*
X36077990Y-109881138D01*
X35995300Y-109950174D01*
X35936966Y-110015198D01*
X35901579Y-110082148D01*
X35887732Y-110156961D01*
X35894018Y-110245576D01*
X35919028Y-110353932D01*
X35945457Y-110440217D01*
X35972576Y-110526658D01*
X35988739Y-110587334D01*
X35995077Y-110628116D01*
X35992724Y-110654875D01*
X35988775Y-110664583D01*
X35963524Y-110694645D01*
X35939761Y-110693023D01*
X35925928Y-110671447D01*
X35905994Y-110651153D01*
X35863572Y-110623867D01*
X35807579Y-110595273D01*
X35803693Y-110593510D01*
X35722196Y-110554257D01*
X35669002Y-110518858D01*
X35640442Y-110480001D01*
X35632847Y-110430370D01*
X35642547Y-110362652D01*
X35657349Y-110301778D01*
X35670481Y-110238669D01*
X35682880Y-110157488D01*
X35692200Y-110073993D01*
X35693392Y-110059652D01*
X35699738Y-109990609D01*
X35706769Y-109933705D01*
X35713293Y-109898016D01*
X35715422Y-109891848D01*
X35732820Y-109878890D01*
X35774674Y-109854524D01*
X35835554Y-109821473D01*
X35910028Y-109782455D01*
X35992668Y-109740193D01*
X36078044Y-109697406D01*
X36160725Y-109656817D01*
X36235281Y-109621145D01*
X36296283Y-109593112D01*
X36338300Y-109575438D01*
X36355903Y-109570845D01*
X36355957Y-109570892D01*
X37488607Y-109570892D01*
X37488320Y-109570392D01*
X37501958Y-109554147D01*
X37545098Y-109551619D01*
X37580269Y-109556148D01*
X37656357Y-109582871D01*
X37720212Y-109631156D01*
X37764832Y-109693658D01*
X37783218Y-109763034D01*
X37783347Y-109769187D01*
X37839450Y-109769187D01*
X37841115Y-109763432D01*
X37865386Y-109701647D01*
X37895297Y-109671869D01*
X37921549Y-109657104D01*
X37946202Y-109653681D01*
X37980376Y-109662448D01*
X38030054Y-109682117D01*
X38092628Y-109704522D01*
X38146941Y-109712911D01*
X38211879Y-109709814D01*
X38225576Y-109708299D01*
X38302003Y-109695113D01*
X38351335Y-109672564D01*
X38379163Y-109634188D01*
X38391079Y-109573519D01*
X38392946Y-109514793D01*
X38395410Y-109453692D01*
X38401914Y-109407634D01*
X38411133Y-109386019D01*
X38436380Y-109388167D01*
X38468973Y-109413073D01*
X38501486Y-109453022D01*
X38526491Y-109500296D01*
X38529693Y-109509204D01*
X38539450Y-109556867D01*
X38590241Y-109556867D01*
X38589499Y-109534664D01*
X38582867Y-109479112D01*
X38575822Y-109456658D01*
X38537913Y-109402876D01*
X38480886Y-109341276D01*
X38454648Y-109317471D01*
X37382293Y-109317471D01*
X37354753Y-109345557D01*
X37311469Y-109365781D01*
X37254368Y-109389779D01*
X37204729Y-109416833D01*
X37188256Y-109428580D01*
X37147200Y-109453909D01*
X37120553Y-109448977D01*
X37108614Y-109421461D01*
X37109424Y-109387092D01*
X37118440Y-109336833D01*
X37123515Y-109317031D01*
X37137725Y-109271872D01*
X37154557Y-109250241D01*
X37185536Y-109243533D01*
X37222514Y-109243110D01*
X37298286Y-109249571D01*
X37351728Y-109266263D01*
X37380508Y-109289968D01*
X37382293Y-109317471D01*
X38454648Y-109317471D01*
X38414769Y-109281292D01*
X38349588Y-109232358D01*
X38317082Y-109213221D01*
X38198962Y-109163848D01*
X38079850Y-109133220D01*
X38075481Y-109132803D01*
X37824410Y-109132803D01*
X37811940Y-109148160D01*
X37767819Y-109160772D01*
X37690977Y-109171843D01*
X37684359Y-109172590D01*
X37654942Y-109166248D01*
X37614685Y-109147411D01*
X37612230Y-109145980D01*
X37576261Y-109117793D01*
X37573587Y-109094476D01*
X37604426Y-109074775D01*
X37625767Y-109067749D01*
X37669805Y-109062337D01*
X37720070Y-109073509D01*
X37758682Y-109089041D01*
X37806301Y-109113497D01*
X37824410Y-109132803D01*
X38075481Y-109132803D01*
X37988782Y-109124528D01*
X37935399Y-109117291D01*
X37881392Y-109093718D01*
X37822130Y-109050571D01*
X37752980Y-108984612D01*
X37688823Y-108914820D01*
X37636985Y-108879051D01*
X37573636Y-108869555D01*
X37504587Y-108883501D01*
D12*
X112522000Y-70802500D03*
X111252000Y-70802500D03*
X109982000Y-70802500D03*
D13*
X108712000Y-70802500D03*
D14*
X57785000Y-60579000D03*
X73025000Y-60579000D03*
X75565000Y-60579000D03*
X78105000Y-60579000D03*
X80645000Y-60579000D03*
X83185000Y-60579000D03*
X85725000Y-60579000D03*
X88265000Y-60579000D03*
X90805000Y-60579000D03*
X93345000Y-60579000D03*
X95885000Y-60579000D03*
X98425000Y-60579000D03*
X100965000Y-60579000D03*
X103505000Y-60579000D03*
X106045000Y-60579000D03*
X108585000Y-60579000D03*
X111125000Y-60579000D03*
X113665000Y-60579000D03*
X70485000Y-60579000D03*
X60325000Y-60579000D03*
X62865000Y-60579000D03*
X65405000Y-60579000D03*
D15*
X55245000Y-60579000D03*
D14*
X67945000Y-60579000D03*
D16*
X98191900Y-76270400D03*
D17*
X96921900Y-65475400D03*
X96921900Y-104845400D03*
X46121900Y-104845400D03*
X46121900Y-65475400D03*
D18*
X98191900Y-78810400D03*
X98191900Y-81350400D03*
X98191900Y-83890400D03*
X98191900Y-86430400D03*
X98191900Y-88970400D03*
X98191900Y-91510400D03*
X98191900Y-94050400D03*
D19*
X43561000Y-59944000D03*
D20*
X51181000Y-59944000D03*
D21*
X107900000Y-90916000D03*
D22*
X110400000Y-90916000D03*
X112900000Y-90916000D03*
D23*
X104800000Y-83416000D03*
X116000000Y-83416000D03*
D22*
X107900000Y-76416000D03*
X112900000Y-76416000D03*
D24*
X90978300Y-30083000D03*
X90978300Y-27543000D03*
D25*
X90978300Y-25003000D03*
D26*
X26035000Y-88646000D03*
X23495000Y-88646000D03*
X26035000Y-91186000D03*
X23495000Y-91186000D03*
X26035000Y-93726000D03*
D27*
X23495000Y-93726000D03*
D28*
X54434700Y-91259700D03*
X87454700Y-98879700D03*
X56974700Y-91259700D03*
X84914700Y-98879700D03*
X59514700Y-91259700D03*
X82374700Y-98879700D03*
X62054700Y-91259700D03*
X79834700Y-98879700D03*
X64594700Y-91259700D03*
X77294700Y-98879700D03*
X67134700Y-91259700D03*
X74754700Y-98879700D03*
X69674700Y-91259700D03*
X72214700Y-98879700D03*
X72214700Y-91259700D03*
X69674700Y-98879700D03*
X74754700Y-91259700D03*
X67134700Y-98879700D03*
X77294700Y-91259700D03*
X64594700Y-98879700D03*
X79834700Y-91259700D03*
X62054700Y-98879700D03*
X82374700Y-91259700D03*
X59514700Y-98879700D03*
X84914700Y-91259700D03*
X56974700Y-98879700D03*
X87454700Y-91259700D03*
D29*
X54434700Y-98879700D03*
D18*
X44831000Y-76263500D03*
X44831000Y-78803500D03*
X44831000Y-81343500D03*
X44831000Y-83883500D03*
X44831000Y-86423500D03*
X44831000Y-88963500D03*
X44831000Y-91503500D03*
D17*
X46101000Y-69913500D03*
X46101000Y-100393500D03*
X96901000Y-100393500D03*
X96901000Y-69913500D03*
D16*
X44831000Y-94043500D03*
D28*
X81216500Y-70485000D03*
X88836500Y-78105000D03*
X83756500Y-70485000D03*
X86296500Y-78105000D03*
X86296500Y-70485000D03*
X83756500Y-78105000D03*
X88836500Y-70485000D03*
D29*
X81216500Y-78105000D03*
D14*
X57785000Y-37719000D03*
X57785000Y-35179000D03*
X55245000Y-35179000D03*
X73025000Y-35179000D03*
X73025000Y-37719000D03*
X75565000Y-35179000D03*
X75565000Y-37719000D03*
X78105000Y-35179000D03*
X78105000Y-37719000D03*
X80645000Y-35179000D03*
X80645000Y-37719000D03*
X83185000Y-35179000D03*
X83185000Y-37719000D03*
X85725000Y-35179000D03*
X85725000Y-37719000D03*
X88265000Y-35179000D03*
X88265000Y-37719000D03*
X90805000Y-35179000D03*
X90805000Y-37719000D03*
X93345000Y-35179000D03*
X93345000Y-37719000D03*
X95885000Y-35179000D03*
X95885000Y-37719000D03*
X98425000Y-35179000D03*
X98425000Y-37719000D03*
X100965000Y-35179000D03*
X100965000Y-37719000D03*
X103505000Y-35179000D03*
X103505000Y-37719000D03*
X106045000Y-35179000D03*
X106045000Y-37719000D03*
X108585000Y-35179000D03*
X108585000Y-37719000D03*
X111125000Y-35179000D03*
X111125000Y-37719000D03*
X113665000Y-35179000D03*
X113665000Y-37719000D03*
X70485000Y-35179000D03*
X70485000Y-37719000D03*
X60325000Y-37719000D03*
X62865000Y-35179000D03*
X62865000Y-37719000D03*
X65405000Y-35179000D03*
X65405000Y-37719000D03*
X60325000Y-35179000D03*
X55245000Y-37719000D03*
X67945000Y-35179000D03*
X67945000Y-37719000D03*
X57785000Y-42799000D03*
X57785000Y-40259000D03*
X55245000Y-40259000D03*
X73025000Y-40259000D03*
X73025000Y-42799000D03*
X75565000Y-40259000D03*
X75565000Y-42799000D03*
X78105000Y-40259000D03*
X78105000Y-42799000D03*
X80645000Y-40259000D03*
X80645000Y-42799000D03*
X83185000Y-40259000D03*
X83185000Y-42799000D03*
X85725000Y-40259000D03*
X85725000Y-42799000D03*
X88265000Y-40259000D03*
X88265000Y-42799000D03*
X90805000Y-40259000D03*
X90805000Y-42799000D03*
X93345000Y-40259000D03*
X93345000Y-42799000D03*
X95885000Y-40259000D03*
X95885000Y-42799000D03*
X98425000Y-40259000D03*
X98425000Y-42799000D03*
X100965000Y-40259000D03*
X100965000Y-42799000D03*
X103505000Y-40259000D03*
X103505000Y-42799000D03*
X106045000Y-40259000D03*
X106045000Y-42799000D03*
X108585000Y-40259000D03*
X108585000Y-42799000D03*
X111125000Y-40259000D03*
X111125000Y-42799000D03*
X113665000Y-40259000D03*
X113665000Y-42799000D03*
X70485000Y-40259000D03*
X70485000Y-42799000D03*
X60325000Y-42799000D03*
X62865000Y-40259000D03*
X62865000Y-42799000D03*
X65405000Y-40259000D03*
X65405000Y-42799000D03*
X60325000Y-40259000D03*
X55245000Y-42799000D03*
X67945000Y-40259000D03*
X67945000Y-42799000D03*
X57785000Y-47879000D03*
X57785000Y-45339000D03*
X55245000Y-45339000D03*
X73025000Y-45339000D03*
X73025000Y-47879000D03*
X75565000Y-45339000D03*
X75565000Y-47879000D03*
X78105000Y-45339000D03*
X78105000Y-47879000D03*
X80645000Y-45339000D03*
X80645000Y-47879000D03*
X83185000Y-45339000D03*
X83185000Y-47879000D03*
X85725000Y-45339000D03*
X85725000Y-47879000D03*
X88265000Y-45339000D03*
X88265000Y-47879000D03*
X90805000Y-45339000D03*
X90805000Y-47879000D03*
X93345000Y-45339000D03*
X93345000Y-47879000D03*
X95885000Y-45339000D03*
X95885000Y-47879000D03*
X98425000Y-45339000D03*
X98425000Y-47879000D03*
X100965000Y-45339000D03*
X100965000Y-47879000D03*
X103505000Y-45339000D03*
X103505000Y-47879000D03*
X106045000Y-45339000D03*
X106045000Y-47879000D03*
X108585000Y-45339000D03*
X108585000Y-47879000D03*
X111125000Y-45339000D03*
X111125000Y-47879000D03*
X113665000Y-45339000D03*
X113665000Y-47879000D03*
X70485000Y-45339000D03*
X70485000Y-47879000D03*
X60325000Y-47879000D03*
X62865000Y-45339000D03*
X62865000Y-47879000D03*
X65405000Y-45339000D03*
X65405000Y-47879000D03*
X60325000Y-45339000D03*
X55245000Y-47879000D03*
X67945000Y-45339000D03*
X67945000Y-47879000D03*
X57785000Y-52959000D03*
X57785000Y-50419000D03*
X55245000Y-50419000D03*
X73025000Y-50419000D03*
X73025000Y-52959000D03*
X75565000Y-50419000D03*
X75565000Y-52959000D03*
X78105000Y-50419000D03*
X78105000Y-52959000D03*
X80645000Y-50419000D03*
X80645000Y-52959000D03*
X83185000Y-50419000D03*
X83185000Y-52959000D03*
X85725000Y-50419000D03*
X85725000Y-52959000D03*
X88265000Y-50419000D03*
X88265000Y-52959000D03*
X90805000Y-50419000D03*
X90805000Y-52959000D03*
X93345000Y-50419000D03*
X93345000Y-52959000D03*
X95885000Y-50419000D03*
X95885000Y-52959000D03*
X98425000Y-50419000D03*
X98425000Y-52959000D03*
X100965000Y-50419000D03*
X100965000Y-52959000D03*
X103505000Y-50419000D03*
X103505000Y-52959000D03*
X106045000Y-50419000D03*
X106045000Y-52959000D03*
X108585000Y-50419000D03*
X108585000Y-52959000D03*
X111125000Y-50419000D03*
X111125000Y-52959000D03*
X113665000Y-50419000D03*
X113665000Y-52959000D03*
X70485000Y-50419000D03*
X70485000Y-52959000D03*
X60325000Y-52959000D03*
X62865000Y-50419000D03*
X62865000Y-52959000D03*
X65405000Y-50419000D03*
X65405000Y-52959000D03*
X60325000Y-50419000D03*
X55245000Y-52959000D03*
X67945000Y-50419000D03*
X67945000Y-52959000D03*
X113665000Y-58039000D03*
X113665000Y-55499000D03*
X111125000Y-58039000D03*
X111125000Y-55499000D03*
X108585000Y-58039000D03*
X108585000Y-55499000D03*
X106045000Y-58039000D03*
X106045000Y-55499000D03*
X103505000Y-58039000D03*
X103505000Y-55499000D03*
X100965000Y-58039000D03*
X100965000Y-55499000D03*
X98425000Y-58039000D03*
X98425000Y-55499000D03*
X95885000Y-58039000D03*
X95885000Y-55499000D03*
X93345000Y-58039000D03*
X93345000Y-55499000D03*
X90805000Y-58039000D03*
X90805000Y-55499000D03*
X88265000Y-58039000D03*
X88265000Y-55499000D03*
X85725000Y-58039000D03*
X85725000Y-55499000D03*
X83185000Y-58039000D03*
X83185000Y-55499000D03*
X80645000Y-58039000D03*
X80645000Y-55499000D03*
X78105000Y-58039000D03*
X78105000Y-55499000D03*
X75565000Y-58039000D03*
X75565000Y-55499000D03*
X73025000Y-58039000D03*
X73025000Y-55499000D03*
X70485000Y-58039000D03*
X70485000Y-55499000D03*
X67945000Y-58039000D03*
X67945000Y-55499000D03*
X65405000Y-58039000D03*
X65405000Y-55499000D03*
X62865000Y-58039000D03*
X62865000Y-55499000D03*
X60325000Y-58039000D03*
X60325000Y-55499000D03*
X57785000Y-58039000D03*
X57785000Y-55499000D03*
X55245000Y-58039000D03*
X55245000Y-55499000D03*
D30*
X78105000Y-76945500D03*
X78105000Y-71945500D03*
X92011500Y-71898500D03*
X92011500Y-76898500D03*
D31*
X28702000Y-75558000D03*
X28702000Y-78058000D03*
X28702000Y-80558000D03*
D32*
G36*
X29451504Y-82209204D02*
G01*
X29475773Y-82212804D01*
X29499571Y-82218765D01*
X29522671Y-82227030D01*
X29544849Y-82237520D01*
X29565893Y-82250133D01*
X29585598Y-82264747D01*
X29603777Y-82281223D01*
X29620253Y-82299402D01*
X29634867Y-82319107D01*
X29647480Y-82340151D01*
X29657970Y-82362329D01*
X29666235Y-82385429D01*
X29672196Y-82409227D01*
X29675796Y-82433496D01*
X29677000Y-82458000D01*
X29677000Y-83658000D01*
X29675796Y-83682504D01*
X29672196Y-83706773D01*
X29666235Y-83730571D01*
X29657970Y-83753671D01*
X29647480Y-83775849D01*
X29634867Y-83796893D01*
X29620253Y-83816598D01*
X29603777Y-83834777D01*
X29585598Y-83851253D01*
X29565893Y-83865867D01*
X29544849Y-83878480D01*
X29522671Y-83888970D01*
X29499571Y-83897235D01*
X29475773Y-83903196D01*
X29451504Y-83906796D01*
X29427000Y-83908000D01*
X27977000Y-83908000D01*
X27952496Y-83906796D01*
X27928227Y-83903196D01*
X27904429Y-83897235D01*
X27881329Y-83888970D01*
X27859151Y-83878480D01*
X27838107Y-83865867D01*
X27818402Y-83851253D01*
X27800223Y-83834777D01*
X27783747Y-83816598D01*
X27769133Y-83796893D01*
X27756520Y-83775849D01*
X27746030Y-83753671D01*
X27737765Y-83730571D01*
X27731804Y-83706773D01*
X27728204Y-83682504D01*
X27727000Y-83658000D01*
X27727000Y-82458000D01*
X27728204Y-82433496D01*
X27731804Y-82409227D01*
X27737765Y-82385429D01*
X27746030Y-82362329D01*
X27756520Y-82340151D01*
X27769133Y-82319107D01*
X27783747Y-82299402D01*
X27800223Y-82281223D01*
X27818402Y-82264747D01*
X27838107Y-82250133D01*
X27859151Y-82237520D01*
X27881329Y-82227030D01*
X27904429Y-82218765D01*
X27928227Y-82212804D01*
X27952496Y-82209204D01*
X27977000Y-82208000D01*
X29427000Y-82208000D01*
X29451504Y-82209204D01*
X29451504Y-82209204D01*
G37*
D33*
X28702000Y-83058000D03*
D14*
X77050200Y-103769000D03*
X81930200Y-103769000D03*
D19*
X33020000Y-75501500D03*
D20*
X40640000Y-75501500D03*
D24*
X45964400Y-30154100D03*
X45964400Y-27614100D03*
D25*
X45964400Y-25074100D03*
D24*
X68204600Y-30210000D03*
X68204600Y-27670000D03*
D25*
X68204600Y-25130000D03*
D34*
X26500000Y-56080000D03*
D35*
X26500000Y-51000000D03*
D34*
X26500000Y-44740000D03*
X26500000Y-39660000D03*
X26500000Y-34580000D03*
D35*
X26500000Y-29500000D03*
D19*
X105474000Y-114935000D03*
D20*
X105474000Y-107315000D03*
D26*
X100266500Y-114872000D03*
X97726500Y-114872000D03*
D27*
X95186500Y-114872000D03*
D26*
X100266500Y-109792000D03*
X97726500Y-109792000D03*
D27*
X95186500Y-109792000D03*
D30*
X50990500Y-77580500D03*
X50990500Y-72580500D03*
X37973000Y-49483000D03*
X37973000Y-54483000D03*
X72134700Y-102690000D03*
X67134700Y-102690000D03*
D36*
X36490200Y-24820100D03*
D37*
X39030200Y-24820100D03*
X37760200Y-24820100D03*
D36*
X34925000Y-31115000D03*
D37*
X37465000Y-31115000D03*
X36195000Y-31115000D03*
D38*
X53683400Y-114314000D03*
X53683400Y-109234000D03*
X61303400Y-114314000D03*
X61303400Y-109234000D03*
X67882000Y-114225000D03*
X67882000Y-109145000D03*
X75502000Y-114225000D03*
X75502000Y-109145000D03*
X81712300Y-114314000D03*
X81712300Y-109234000D03*
X89332300Y-114314000D03*
X89332300Y-109234000D03*
D19*
X33046000Y-85937600D03*
D20*
X40666000Y-85937600D03*
D19*
X33020600Y-78109300D03*
D20*
X40640600Y-78109300D03*
D19*
X33020600Y-80695000D03*
D20*
X40640600Y-80695000D03*
D19*
X33020600Y-83174100D03*
D20*
X40640600Y-83174100D03*
D19*
X46101000Y-42291000D03*
D20*
X38481000Y-42291000D03*
D19*
X38481000Y-37338000D03*
D20*
X46101000Y-37338000D03*
D19*
X40386000Y-46990000D03*
D20*
X48006000Y-46990000D03*
D19*
X38481000Y-39751000D03*
D20*
X46101000Y-39751000D03*
D39*
X27000000Y-70286000D03*
X27000000Y-61286000D03*
D40*
X28000000Y-65786000D03*
D41*
X34000000Y-65786000D03*
D28*
X48514000Y-57150000D03*
X40894000Y-49530000D03*
X45974000Y-57150000D03*
X43434000Y-49530000D03*
X43434000Y-57150000D03*
X45974000Y-49530000D03*
X40894000Y-57150000D03*
D29*
X48514000Y-49530000D03*
D30*
X40687000Y-70485000D03*
X35687000Y-70485000D03*
X50546000Y-41990000D03*
X50546000Y-46990000D03*
D28*
X54610000Y-70548500D03*
X72390000Y-78168500D03*
X57150000Y-70548500D03*
X69850000Y-78168500D03*
X59690000Y-70548500D03*
X67310000Y-78168500D03*
X62230000Y-70548500D03*
X64770000Y-78168500D03*
X64770000Y-70548500D03*
X62230000Y-78168500D03*
X67310000Y-70548500D03*
X59690000Y-78168500D03*
X69850000Y-70548500D03*
X57150000Y-78168500D03*
X72390000Y-70548500D03*
D29*
X54610000Y-78168500D03*
D19*
X105474000Y-103124000D03*
D20*
X105474000Y-95504000D03*
D19*
X116776000Y-27495500D03*
D20*
X116776000Y-35115500D03*
D19*
X112522000Y-30861000D03*
D20*
X112522000Y-23241000D03*
D19*
X42007100Y-24870900D03*
D20*
X42007100Y-32490900D03*
D19*
X40640000Y-59944000D03*
D20*
X40640000Y-67564000D03*
D19*
X51562000Y-57023000D03*
D20*
X51562000Y-49403000D03*
D42*
X80914900Y-65158300D03*
X63500000Y-74274000D03*
X68229000Y-92312800D03*
X76294500Y-80539900D03*
X90960100Y-98796100D03*
X83696800Y-63637000D03*
D43*
X51562000Y-57023000D02*
X45974000Y-51435000D01*
X45974000Y-51435000D02*
X45974000Y-49530000D01*
D44*
X90978300Y-30083000D02*
X90978300Y-31460800D01*
X62865000Y-60579000D02*
X61689600Y-61754400D01*
X61689600Y-61754400D02*
X54304700Y-61754400D01*
X54304700Y-61754400D02*
X53608000Y-61057700D01*
X53608000Y-61057700D02*
X53608000Y-33678000D01*
X53608000Y-33678000D02*
X55068100Y-32217900D01*
X55068100Y-32217900D02*
X90221200Y-32217900D01*
X90221200Y-32217900D02*
X90978300Y-31460800D01*
X98191900Y-88970400D02*
X99929600Y-87232700D01*
X99929600Y-87232700D02*
X99929600Y-85065100D01*
X99929600Y-85065100D02*
X103812300Y-81182400D01*
X103812300Y-81182400D02*
X105211600Y-81182400D01*
X105211600Y-81182400D02*
X109344900Y-77049100D01*
X109344900Y-77049100D02*
X109344900Y-75796000D01*
X109344900Y-75796000D02*
X107608100Y-74059200D01*
X107608100Y-74059200D02*
X88096500Y-74059200D01*
X88096500Y-74059200D02*
X84981800Y-70944500D01*
X84981800Y-70944500D02*
X84981800Y-70485000D01*
X82531200Y-70485000D02*
X82531200Y-69977200D01*
X82531200Y-69977200D02*
X80754300Y-68200300D01*
X80754300Y-68200300D02*
X65325700Y-68200300D01*
X65325700Y-68200300D02*
X63500000Y-70026000D01*
X63500000Y-70026000D02*
X63500000Y-71025500D01*
X63500000Y-71025500D02*
X57582300Y-76943200D01*
X57582300Y-76943200D02*
X56601000Y-76943200D01*
X56601000Y-76943200D02*
X55835300Y-77708900D01*
X55835300Y-77708900D02*
X55835300Y-78168500D01*
X67945000Y-60579000D02*
X65405000Y-60579000D01*
X54610000Y-78168500D02*
X55835300Y-78168500D01*
X83756500Y-70485000D02*
X82531200Y-70485000D01*
X78105000Y-71945500D02*
X81578500Y-71945500D01*
X81578500Y-71945500D02*
X82531200Y-70992800D01*
X82531200Y-70992800D02*
X82531200Y-70485000D01*
X83756500Y-70485000D02*
X84981800Y-70485000D01*
X33020600Y-78109300D02*
X31895300Y-78109300D01*
X28702000Y-78058000D02*
X31844000Y-78058000D01*
X31844000Y-78058000D02*
X31895300Y-78109300D01*
X33020600Y-80695000D02*
X31895300Y-80695000D01*
X28702000Y-80558000D02*
X31758300Y-80558000D01*
X31758300Y-80558000D02*
X31895300Y-80695000D01*
X33020600Y-83174100D02*
X31895300Y-83174100D01*
X28702000Y-83058000D02*
X31779200Y-83058000D01*
X31779200Y-83058000D02*
X31895300Y-83174100D01*
X86825400Y-70485000D02*
X86825400Y-69901600D01*
X86825400Y-69901600D02*
X81256800Y-64333000D01*
X81256800Y-64333000D02*
X53874500Y-64333000D01*
X53874500Y-64333000D02*
X47199300Y-57657800D01*
X47199300Y-57657800D02*
X47199300Y-57150000D01*
X45974000Y-57150000D02*
X47199300Y-57150000D01*
X86909200Y-70485000D02*
X87521800Y-70485000D01*
X86296500Y-70485000D02*
X86825400Y-70485000D01*
X86909200Y-70485000D02*
X86825400Y-70485000D01*
D43*
X37973000Y-54483000D02*
X43307000Y-54483000D01*
X43307000Y-54483000D02*
X45974000Y-57150000D01*
D44*
X57785000Y-60579000D02*
X60325000Y-60579000D01*
X111252000Y-70802500D02*
X111252000Y-72127800D01*
X92011500Y-71898500D02*
X92240800Y-72127800D01*
X92240800Y-72127800D02*
X111252000Y-72127800D01*
X87521800Y-70485000D02*
X87521800Y-70992800D01*
X87521800Y-70992800D02*
X88427500Y-71898500D01*
X88427500Y-71898500D02*
X92011500Y-71898500D01*
X55245000Y-60579000D02*
X57785000Y-60579000D01*
X40640000Y-67564000D02*
X78509200Y-67564000D01*
X78509200Y-67564000D02*
X80914900Y-65158300D01*
X40687000Y-70485000D02*
X43249100Y-73047100D01*
X43249100Y-73047100D02*
X44919000Y-73047100D01*
X44919000Y-73047100D02*
X47627900Y-75756000D01*
X47627900Y-75756000D02*
X47627900Y-75967200D01*
X47627900Y-75967200D02*
X59763500Y-88102800D01*
X59763500Y-88102800D02*
X63215600Y-88102800D01*
X63215600Y-88102800D02*
X65909400Y-90796600D01*
X65909400Y-90796600D02*
X65909400Y-91259700D01*
X67134700Y-91259700D02*
X65909400Y-91259700D01*
X114351000Y-61769800D02*
X116776000Y-59344800D01*
X116776000Y-59344800D02*
X116776000Y-35115500D01*
X65820000Y-98879700D02*
X65820000Y-99387500D01*
X65820000Y-99387500D02*
X67642200Y-101209700D01*
X67642200Y-101209700D02*
X93328000Y-101209700D01*
X93328000Y-101209700D02*
X96093500Y-98444200D01*
X96093500Y-98444200D02*
X107415900Y-98444200D01*
X107415900Y-98444200D02*
X114351000Y-91509100D01*
X114351000Y-91509100D02*
X114351000Y-61769800D01*
X114351000Y-61769800D02*
X89455800Y-61769800D01*
X89455800Y-61769800D02*
X88265000Y-60579000D01*
X64594700Y-98879700D02*
X65820000Y-98879700D01*
X40666000Y-85937600D02*
X40640600Y-85912200D01*
X40640600Y-85912200D02*
X40640600Y-83174100D01*
X40640000Y-75501500D02*
X41637500Y-74504000D01*
X41637500Y-74504000D02*
X45567600Y-74504000D01*
X45567600Y-74504000D02*
X46673100Y-75609500D01*
X46673100Y-75609500D02*
X46673100Y-75790800D01*
X46673100Y-75790800D02*
X60916700Y-90034400D01*
X60916700Y-90034400D02*
X62054700Y-90034400D01*
X62054700Y-91259700D02*
X62054700Y-90034400D01*
X40640600Y-78109300D02*
X43695500Y-75054400D01*
X43695500Y-75054400D02*
X45333700Y-75054400D01*
X45333700Y-75054400D02*
X46122700Y-75843400D01*
X46122700Y-75843400D02*
X46122700Y-76642400D01*
X46122700Y-76642400D02*
X59514700Y-90034400D01*
X59514700Y-91259700D02*
X59514700Y-90034400D01*
X87454700Y-91259700D02*
X87454700Y-90034400D01*
X64770000Y-78168500D02*
X65995300Y-78168500D01*
X65995300Y-78168500D02*
X65995300Y-78628100D01*
X65995300Y-78628100D02*
X66761000Y-79393800D01*
X66761000Y-79393800D02*
X76814100Y-79393800D01*
X76814100Y-79393800D02*
X87454700Y-90034400D01*
X81216500Y-79330300D02*
X88686100Y-86799900D01*
X88686100Y-86799900D02*
X88686100Y-91777100D01*
X88686100Y-91777100D02*
X87325100Y-93138100D01*
X87325100Y-93138100D02*
X57078900Y-93138100D01*
X57078900Y-93138100D02*
X55660000Y-91719200D01*
X55660000Y-91719200D02*
X55660000Y-91259700D01*
X81216500Y-78105000D02*
X81216500Y-79330300D01*
X54434700Y-91259700D02*
X55660000Y-91259700D01*
X79991200Y-70485000D02*
X78256800Y-68750600D01*
X78256800Y-68750600D02*
X67313900Y-68750600D01*
X67313900Y-68750600D02*
X66040000Y-70024500D01*
X66040000Y-70024500D02*
X66040000Y-71734000D01*
X66040000Y-71734000D02*
X63500000Y-74274000D01*
X81216500Y-70485000D02*
X79991200Y-70485000D01*
X83689400Y-91259700D02*
X83689400Y-90827500D01*
X83689400Y-90827500D02*
X75030100Y-82168200D01*
X75030100Y-82168200D02*
X64487400Y-82168200D01*
X64487400Y-82168200D02*
X60915300Y-78596100D01*
X60915300Y-78596100D02*
X60915300Y-78168500D01*
X84914700Y-91259700D02*
X83689400Y-91259700D01*
X59690000Y-78168500D02*
X60915300Y-78168500D01*
X54434700Y-98879700D02*
X55660000Y-98879700D01*
X100266500Y-109792000D02*
X97438200Y-106963700D01*
X97438200Y-106963700D02*
X65814100Y-106963700D01*
X65814100Y-106963700D02*
X58244700Y-99394300D01*
X58244700Y-99394300D02*
X58244700Y-98399700D01*
X58244700Y-98399700D02*
X57499400Y-97654400D01*
X57499400Y-97654400D02*
X56425700Y-97654400D01*
X56425700Y-97654400D02*
X55660000Y-98420100D01*
X55660000Y-98420100D02*
X55660000Y-98879700D01*
X54434700Y-98879700D02*
X53209400Y-98879700D01*
X53209400Y-98879700D02*
X51984100Y-97654400D01*
X51984100Y-97654400D02*
X37112600Y-97654400D01*
X37112600Y-97654400D02*
X26807000Y-87348800D01*
X26807000Y-87348800D02*
X24792200Y-87348800D01*
X24792200Y-87348800D02*
X23495000Y-88646000D01*
X53683400Y-114314000D02*
X44083000Y-114314000D01*
X44083000Y-114314000D02*
X23495000Y-93726000D01*
X79834700Y-91259700D02*
X78609400Y-91259700D01*
X68229000Y-92312800D02*
X68408200Y-92492000D01*
X68408200Y-92492000D02*
X77884900Y-92492000D01*
X77884900Y-92492000D02*
X78609400Y-91767500D01*
X78609400Y-91767500D02*
X78609400Y-91259700D01*
X81712300Y-114314000D02*
X80067100Y-112668800D01*
X80067100Y-112668800D02*
X69538500Y-112668800D01*
X69538500Y-112668800D02*
X56974700Y-100105000D01*
X89332300Y-114314000D02*
X81712300Y-114314000D01*
X56974700Y-98879700D02*
X56974700Y-100105000D01*
X75502000Y-114225000D02*
X67882000Y-114225000D01*
X63280000Y-98879700D02*
X63280000Y-98371900D01*
X63280000Y-98371900D02*
X65714100Y-95937800D01*
X65714100Y-95937800D02*
X94542900Y-95937800D01*
X94542900Y-95937800D02*
X97700300Y-92780400D01*
X97700300Y-92780400D02*
X98683500Y-92780400D01*
X98683500Y-92780400D02*
X112900000Y-78563900D01*
X112900000Y-78563900D02*
X112900000Y-76416000D01*
X62054700Y-98879700D02*
X63280000Y-98879700D01*
X35687000Y-70485000D02*
X36913900Y-69258100D01*
X36913900Y-69258100D02*
X41245100Y-69258100D01*
X41245100Y-69258100D02*
X44483800Y-72496800D01*
X44483800Y-72496800D02*
X50906800Y-72496800D01*
X50906800Y-72496800D02*
X50990500Y-72580500D01*
X110400000Y-90916000D02*
X110400000Y-90806700D01*
X110400000Y-90806700D02*
X109083900Y-89490600D01*
X109083900Y-89490600D02*
X102751700Y-89490600D01*
X102751700Y-89490600D02*
X98191900Y-94050400D01*
X107900000Y-76416000D02*
X106858200Y-77457800D01*
X106858200Y-77457800D02*
X92570800Y-77457800D01*
X92570800Y-77457800D02*
X92011500Y-76898500D01*
X84981800Y-78105000D02*
X84981800Y-77597200D01*
X84981800Y-77597200D02*
X85706700Y-76872300D01*
X85706700Y-76872300D02*
X91985300Y-76872300D01*
X91985300Y-76872300D02*
X92011500Y-76898500D01*
X33046000Y-85937600D02*
X34171300Y-85937600D01*
X44831000Y-94043500D02*
X42277200Y-94043500D01*
X42277200Y-94043500D02*
X34171300Y-85937600D01*
X33046000Y-85937600D02*
X33046000Y-84812300D01*
X33020000Y-75501500D02*
X33020000Y-76626800D01*
X33020000Y-76626800D02*
X33160700Y-76626800D01*
X33160700Y-76626800D02*
X34171200Y-77637300D01*
X34171200Y-77637300D02*
X34171200Y-83687100D01*
X34171200Y-83687100D02*
X33046000Y-84812300D01*
X81712300Y-109234000D02*
X89332300Y-109234000D01*
X75502000Y-109145000D02*
X75591000Y-109234000D01*
X75591000Y-109234000D02*
X81712300Y-109234000D01*
X78105000Y-76945500D02*
X74838300Y-76945500D01*
X74838300Y-76945500D02*
X73615300Y-78168500D01*
X111125000Y-60579000D02*
X108585000Y-60579000D01*
X113665000Y-60579000D02*
X111125000Y-60579000D01*
X83756500Y-78105000D02*
X84981800Y-78105000D01*
X61303400Y-109234000D02*
X53683400Y-109234000D01*
X75502000Y-109145000D02*
X67882000Y-109145000D01*
X72390000Y-78168500D02*
X73615300Y-78168500D01*
D45*
X36490200Y-24820100D02*
X36490200Y-29664900D01*
X36490200Y-29664900D02*
X37465000Y-30639700D01*
X37465000Y-30639700D02*
X37465000Y-31115000D01*
D43*
X51562000Y-49403000D02*
X51562000Y-48342000D01*
X51562000Y-48342000D02*
X52146000Y-47758000D01*
X52146000Y-47758000D02*
X52146000Y-43590000D01*
X52146000Y-43590000D02*
X50546000Y-41990000D01*
D44*
X44831000Y-76263500D02*
X43064500Y-78030000D01*
X43064500Y-78030000D02*
X43064500Y-88895600D01*
X43064500Y-88895600D02*
X44319800Y-90150900D01*
X44319800Y-90150900D02*
X45408400Y-90150900D01*
X45408400Y-90150900D02*
X50645000Y-95387500D01*
X50645000Y-95387500D02*
X94314800Y-95387500D01*
X94314800Y-95387500D02*
X98191900Y-91510400D01*
X44831000Y-88963500D02*
X45131500Y-88963500D01*
X45131500Y-88963500D02*
X50958500Y-94790500D01*
X50958500Y-94790500D02*
X89831800Y-94790500D01*
X89831800Y-94790500D02*
X98191900Y-86430400D01*
X89589600Y-85676200D02*
X89589600Y-91651900D01*
X89589600Y-91651900D02*
X87553100Y-93688400D01*
X87553100Y-93688400D02*
X52095900Y-93688400D01*
X52095900Y-93688400D02*
X44831000Y-86423500D01*
X69850000Y-70548500D02*
X71075300Y-70548500D01*
X71075300Y-70548500D02*
X71075300Y-71008000D01*
X71075300Y-71008000D02*
X75742300Y-75675000D01*
X75742300Y-75675000D02*
X81008000Y-75675000D01*
X81008000Y-75675000D02*
X82441900Y-77108900D01*
X82441900Y-77108900D02*
X82441900Y-78528500D01*
X82441900Y-78528500D02*
X89589600Y-85676200D01*
X89589600Y-85676200D02*
X91375400Y-83890400D01*
X91375400Y-83890400D02*
X98191900Y-83890400D01*
X62230000Y-78168500D02*
X63455300Y-78168500D01*
X63455300Y-78168500D02*
X63455300Y-78628000D01*
X63455300Y-78628000D02*
X65367200Y-80539900D01*
X65367200Y-80539900D02*
X76294500Y-80539900D01*
X98191900Y-78810400D02*
X99379600Y-79998100D01*
X99379600Y-79998100D02*
X99379600Y-84393500D01*
X99379600Y-84393500D02*
X98664900Y-85108200D01*
X98664900Y-85108200D02*
X96911700Y-85108200D01*
X96911700Y-85108200D02*
X87779800Y-94240100D01*
X87779800Y-94240100D02*
X51869200Y-94240100D01*
X51869200Y-94240100D02*
X45240000Y-87610900D01*
X45240000Y-87610900D02*
X44335800Y-87610900D01*
X44335800Y-87610900D02*
X43614900Y-86890000D01*
X43614900Y-86890000D02*
X43614900Y-80019600D01*
X43614900Y-80019600D02*
X44831000Y-78803500D01*
X98191900Y-76270400D02*
X97004600Y-76270400D01*
X67310000Y-78168500D02*
X67310000Y-76943200D01*
X67310000Y-76943200D02*
X68535300Y-75717900D01*
X68535300Y-75717900D02*
X68535300Y-70089400D01*
X68535300Y-70089400D02*
X69323800Y-69300900D01*
X69323800Y-69300900D02*
X72899900Y-69300900D01*
X72899900Y-69300900D02*
X78682100Y-75083100D01*
X78682100Y-75083100D02*
X95817300Y-75083100D01*
X95817300Y-75083100D02*
X97004600Y-76270400D01*
X77294700Y-91259700D02*
X76069400Y-91259700D01*
X67310000Y-70548500D02*
X67310000Y-71773800D01*
X67310000Y-71773800D02*
X63978300Y-75105500D01*
X63978300Y-75105500D02*
X60973800Y-75105500D01*
X60973800Y-75105500D02*
X58420000Y-77659300D01*
X58420000Y-77659300D02*
X58420000Y-78635100D01*
X58420000Y-78635100D02*
X68014500Y-88229600D01*
X68014500Y-88229600D02*
X73547100Y-88229600D01*
X73547100Y-88229600D02*
X76069400Y-90751900D01*
X76069400Y-90751900D02*
X76069400Y-91259700D01*
X82374700Y-98879700D02*
X83600000Y-98879700D01*
X83600000Y-98879700D02*
X83600000Y-99330200D01*
X83600000Y-99330200D02*
X84374900Y-100105100D01*
X84374900Y-100105100D02*
X89651100Y-100105100D01*
X89651100Y-100105100D02*
X90960100Y-98796100D01*
X107900000Y-90916000D02*
X106474700Y-90916000D01*
X79834700Y-98879700D02*
X81060000Y-98879700D01*
X81060000Y-98879700D02*
X81060000Y-98420200D01*
X81060000Y-98420200D02*
X82716900Y-96763300D01*
X82716900Y-96763300D02*
X95162500Y-96763300D01*
X95162500Y-96763300D02*
X95868300Y-96057500D01*
X95868300Y-96057500D02*
X101333200Y-96057500D01*
X101333200Y-96057500D02*
X106474700Y-90916000D01*
X68360000Y-98879700D02*
X68360000Y-99339200D01*
X68360000Y-99339200D02*
X69676500Y-100655700D01*
X69676500Y-100655700D02*
X93102000Y-100655700D01*
X93102000Y-100655700D02*
X95863800Y-97893900D01*
X95863800Y-97893900D02*
X105922100Y-97893900D01*
X105922100Y-97893900D02*
X112900000Y-90916000D01*
X67134700Y-98879700D02*
X68360000Y-98879700D01*
X105474000Y-114935000D02*
X104348700Y-114935000D01*
X100266500Y-114872000D02*
X104285700Y-114872000D01*
X104285700Y-114872000D02*
X104348700Y-114935000D01*
X72214700Y-91259700D02*
X70989400Y-91259700D01*
X38481000Y-42291000D02*
X32569500Y-48202500D01*
X32569500Y-48202500D02*
X32569500Y-67962600D01*
X32569500Y-67962600D02*
X33314600Y-68707700D01*
X33314600Y-68707700D02*
X42029300Y-68707700D01*
X42029300Y-68707700D02*
X45184500Y-71862900D01*
X45184500Y-71862900D02*
X47798900Y-71862900D01*
X47798900Y-71862900D02*
X48361400Y-71300400D01*
X48361400Y-71300400D02*
X51531100Y-71300400D01*
X51531100Y-71300400D02*
X53384600Y-73153900D01*
X53384600Y-73153900D02*
X53384600Y-79205000D01*
X53384600Y-79205000D02*
X58257400Y-84077800D01*
X58257400Y-84077800D02*
X61221200Y-84077800D01*
X61221200Y-84077800D02*
X66738000Y-89594600D01*
X66738000Y-89594600D02*
X69832100Y-89594600D01*
X69832100Y-89594600D02*
X70989400Y-90751900D01*
X70989400Y-90751900D02*
X70989400Y-91259700D01*
X108712000Y-69477200D02*
X101673100Y-62438300D01*
X101673100Y-62438300D02*
X85044300Y-62438300D01*
X85044300Y-62438300D02*
X83185000Y-60579000D01*
X108712000Y-70802500D02*
X108712000Y-69477200D01*
X86140000Y-98879700D02*
X86140000Y-98420200D01*
X86140000Y-98420200D02*
X86971500Y-97588700D01*
X86971500Y-97588700D02*
X95390700Y-97588700D01*
X95390700Y-97588700D02*
X95941000Y-97038400D01*
X95941000Y-97038400D02*
X103939600Y-97038400D01*
X103939600Y-97038400D02*
X105474000Y-95504000D01*
X84914700Y-98879700D02*
X86140000Y-98879700D01*
X88836500Y-70485000D02*
X88836500Y-67592100D01*
X88836500Y-67592100D02*
X83394500Y-62150100D01*
X83394500Y-62150100D02*
X72056100Y-62150100D01*
X72056100Y-62150100D02*
X70485000Y-60579000D01*
X26500000Y-39660000D02*
X27725400Y-40885400D01*
X27725400Y-40885400D02*
X38672800Y-40885400D01*
X38672800Y-40885400D02*
X42164000Y-44376600D01*
X42164000Y-44376600D02*
X42164000Y-49998900D01*
X42164000Y-49998900D02*
X47938000Y-55772900D01*
X47938000Y-55772900D02*
X49003200Y-55772900D01*
X49003200Y-55772900D02*
X50172200Y-56941900D01*
X50172200Y-56941900D02*
X50172200Y-57224600D01*
X50172200Y-57224600D02*
X52996800Y-60049200D01*
X52996800Y-60049200D02*
X52996800Y-61224900D01*
X52996800Y-61224900D02*
X55408900Y-63637000D01*
X55408900Y-63637000D02*
X83696800Y-63637000D01*
M02*
