M48
; DRILL file {KiCad (5.1.4-0-10_14)} date 2020 March 01, Sunday 11:47:26
; FORMAT={-:-/ absolute / inch / decimal}
; #@! TF.CreationDate,2020-03-01T11:47:26+01:00
; #@! TF.GenerationSoftware,Kicad,Pcbnew,(5.1.4-0-10_14)
; #@! TF.FileFunction,Plated,1,2,PTH
FMAT,2
INCH
T1C0.0157
T2C0.0276
T3C0.0295
T4C0.0300
T5C0.0315
T6C0.0320
T7C0.0354
T8C0.0374
T9C0.0394
T10C0.0433
T11C0.0512
T12C0.0591
T13C0.0787
%
G90
G05
T1
X2.5Y-2.9242
X2.6862Y-3.6344
X3.0037Y-3.1709
X3.1856Y-2.5653
X3.2951Y-2.5054
X3.5811Y-3.8896
T2
X1.6538Y-0.9792
X1.6538Y-1.2792
X1.3Y-3.177
X1.6Y-3.177
X4.43Y-0.915
X4.43Y-1.215
X1.59Y-1.85
X1.89Y-1.85
X1.3Y-3.0752
X1.6Y-3.0752
X4.5975Y-1.0825
X4.5975Y-1.3825
X1.515Y-1.47
X1.815Y-1.47
X4.1525Y-4.225
X4.1525Y-4.525
X2.03Y-1.945
X2.03Y-2.245
X1.6Y-3.2746
X1.6Y-2.36
X1.6Y-2.66
X1.301Y-3.3834
X1.601Y-3.3834
X1.515Y-1.665
X1.815Y-1.665
X1.3Y-2.9725
X1.6Y-2.9725
X1.715Y-2.36
X2.015Y-2.36
X1.3Y-3.2746
X1.515Y-1.565
X1.815Y-1.565
X4.1525Y-3.76
X4.1525Y-4.06
T3
X1.4366Y-0.9772
X1.4866Y-0.9772
X1.5366Y-0.9772
X1.375Y-1.225
X1.425Y-1.225
X1.475Y-1.225
T4
X1.765Y-3.0025
X1.765Y-3.1025
X1.765Y-3.2025
X1.765Y-3.3025
X1.765Y-3.4025
X1.765Y-3.5025
X1.765Y-3.6025
X1.765Y-3.7025
X3.8658Y-3.0028
X3.8658Y-3.1028
X3.8658Y-3.2028
X3.8658Y-3.3028
X3.8658Y-3.4028
X3.8658Y-3.5028
X3.8658Y-3.6028
X3.8658Y-3.7028
T5
X1.99Y-1.6531
X1.99Y-1.85
X3.075Y-2.8325
X3.075Y-3.0294
X2.15Y-2.7775
X2.15Y-3.0775
X2.25Y-2.7775
X2.25Y-3.0775
X2.35Y-2.7775
X2.35Y-3.0775
X2.45Y-2.7775
X2.45Y-3.0775
X2.55Y-2.7775
X2.55Y-3.0775
X2.65Y-2.7775
X2.65Y-3.0775
X2.75Y-2.7775
X2.75Y-3.0775
X2.85Y-2.7775
X2.85Y-3.0775
X3.0335Y-4.0854
X3.2256Y-4.0854
X2.0075Y-2.8575
X2.0075Y-3.0544
X2.175Y-1.385
X2.175Y-1.485
X2.175Y-1.585
X2.175Y-1.685
X2.175Y-1.785
X2.175Y-1.885
X2.175Y-1.985
X2.175Y-2.085
X2.175Y-2.185
X2.175Y-2.285
X2.275Y-1.385
X2.275Y-1.485
X2.275Y-1.585
X2.275Y-1.685
X2.275Y-1.785
X2.275Y-1.885
X2.275Y-1.985
X2.275Y-2.085
X2.275Y-2.185
X2.275Y-2.285
X2.375Y-1.385
X2.375Y-1.485
X2.375Y-1.585
X2.375Y-1.685
X2.375Y-1.785
X2.375Y-1.885
X2.375Y-1.985
X2.375Y-2.085
X2.375Y-2.185
X2.375Y-2.285
X2.475Y-1.385
X2.475Y-1.485
X2.475Y-1.585
X2.475Y-1.685
X2.475Y-1.785
X2.475Y-1.885
X2.475Y-1.985
X2.475Y-2.085
X2.475Y-2.185
X2.475Y-2.285
X2.575Y-1.385
X2.575Y-1.485
X2.575Y-1.585
X2.575Y-1.685
X2.575Y-1.785
X2.575Y-1.885
X2.575Y-1.985
X2.575Y-2.085
X2.575Y-2.185
X2.575Y-2.285
X2.675Y-1.385
X2.675Y-1.485
X2.675Y-1.585
X2.675Y-1.685
X2.675Y-1.785
X2.675Y-1.885
X2.675Y-1.985
X2.675Y-2.085
X2.675Y-2.185
X2.675Y-2.285
X2.775Y-1.385
X2.775Y-1.485
X2.775Y-1.585
X2.775Y-1.685
X2.775Y-1.785
X2.775Y-1.885
X2.775Y-1.985
X2.775Y-2.085
X2.775Y-2.185
X2.775Y-2.285
X2.875Y-1.385
X2.875Y-1.485
X2.875Y-1.585
X2.875Y-1.685
X2.875Y-1.785
X2.875Y-1.885
X2.875Y-1.985
X2.875Y-2.085
X2.875Y-2.185
X2.875Y-2.285
X2.975Y-1.385
X2.975Y-1.485
X2.975Y-1.585
X2.975Y-1.685
X2.975Y-1.785
X2.975Y-1.885
X2.975Y-1.985
X2.975Y-2.085
X2.975Y-2.185
X2.975Y-2.285
X3.075Y-1.385
X3.075Y-1.485
X3.075Y-1.585
X3.075Y-1.685
X3.075Y-1.785
X3.075Y-1.885
X3.075Y-1.985
X3.075Y-2.085
X3.075Y-2.185
X3.075Y-2.285
X3.175Y-1.385
X3.175Y-1.485
X3.175Y-1.585
X3.175Y-1.685
X3.175Y-1.785
X3.175Y-1.885
X3.175Y-1.985
X3.175Y-2.085
X3.175Y-2.185
X3.175Y-2.285
X3.275Y-1.385
X3.275Y-1.485
X3.275Y-1.585
X3.275Y-1.685
X3.275Y-1.785
X3.275Y-1.885
X3.275Y-1.985
X3.275Y-2.085
X3.275Y-2.185
X3.275Y-2.285
X3.375Y-1.385
X3.375Y-1.485
X3.375Y-1.585
X3.375Y-1.685
X3.375Y-1.785
X3.375Y-1.885
X3.375Y-1.985
X3.375Y-2.085
X3.375Y-2.185
X3.375Y-2.285
X3.475Y-1.385
X3.475Y-1.485
X3.475Y-1.585
X3.475Y-1.685
X3.475Y-1.785
X3.475Y-1.885
X3.475Y-1.985
X3.475Y-2.085
X3.475Y-2.185
X3.475Y-2.285
X3.575Y-1.385
X3.575Y-1.485
X3.575Y-1.585
X3.575Y-1.685
X3.575Y-1.785
X3.575Y-1.885
X3.575Y-1.985
X3.575Y-2.085
X3.575Y-2.185
X3.575Y-2.285
X3.675Y-1.385
X3.675Y-1.485
X3.675Y-1.585
X3.675Y-1.685
X3.675Y-1.785
X3.675Y-1.885
X3.675Y-1.985
X3.675Y-2.085
X3.675Y-2.185
X3.675Y-2.285
X3.775Y-1.385
X3.775Y-1.485
X3.775Y-1.585
X3.775Y-1.685
X3.775Y-1.785
X3.775Y-1.885
X3.775Y-1.985
X3.775Y-2.085
X3.775Y-2.185
X3.775Y-2.285
X3.875Y-1.385
X3.875Y-1.485
X3.875Y-1.585
X3.875Y-1.685
X3.875Y-1.785
X3.875Y-1.885
X3.875Y-1.985
X3.875Y-2.085
X3.875Y-2.185
X3.875Y-2.285
X3.975Y-1.385
X3.975Y-1.485
X3.975Y-1.585
X3.975Y-1.685
X3.975Y-1.785
X3.975Y-1.885
X3.975Y-1.985
X3.975Y-2.085
X3.975Y-2.185
X3.975Y-2.285
X4.075Y-1.385
X4.075Y-1.485
X4.075Y-1.585
X4.075Y-1.685
X4.075Y-1.785
X4.075Y-1.885
X4.075Y-1.985
X4.075Y-2.085
X4.075Y-2.185
X4.075Y-2.285
X4.175Y-1.385
X4.175Y-1.485
X4.175Y-1.585
X4.175Y-1.685
X4.175Y-1.785
X4.175Y-1.885
X4.175Y-1.985
X4.175Y-2.085
X4.175Y-2.185
X4.175Y-2.285
X4.275Y-1.385
X4.275Y-1.485
X4.275Y-1.585
X4.275Y-1.685
X4.275Y-1.785
X4.275Y-1.885
X4.275Y-1.985
X4.275Y-2.085
X4.275Y-2.185
X4.275Y-2.285
X4.375Y-1.385
X4.375Y-1.485
X4.375Y-1.585
X4.375Y-1.685
X4.375Y-1.785
X4.375Y-1.885
X4.375Y-1.985
X4.375Y-2.085
X4.375Y-2.185
X4.375Y-2.285
X4.475Y-1.385
X4.475Y-1.485
X4.475Y-1.585
X4.475Y-1.685
X4.475Y-1.785
X4.475Y-1.885
X4.475Y-1.985
X4.475Y-2.085
X4.475Y-2.185
X4.475Y-2.285
X2.1431Y-3.5929
X2.1431Y-3.8929
X2.2431Y-3.5929
X2.2431Y-3.8929
X2.3431Y-3.5929
X2.3431Y-3.8929
X2.4431Y-3.5929
X2.4431Y-3.8929
X2.5431Y-3.5929
X2.5431Y-3.8929
X2.6431Y-3.5929
X2.6431Y-3.8929
X1.6019Y-2.775
X3.4431Y-3.5929
X1.405Y-2.775
X2.7431Y-3.5929
X2.7431Y-3.8929
X2.8431Y-3.5929
X2.8431Y-3.8929
X2.9431Y-3.5929
X2.9431Y-3.8929
X3.0431Y-3.5929
X3.0431Y-3.8929
X3.1431Y-3.5929
X3.1431Y-3.8929
X3.2431Y-3.5929
X3.2431Y-3.8929
X3.3431Y-3.5929
X3.3431Y-3.8929
X3.4431Y-3.8929
X1.495Y-1.9481
X1.495Y-2.145
X2.175Y-2.385
X2.275Y-2.385
X2.375Y-2.385
X2.475Y-2.385
X2.575Y-2.385
X2.675Y-2.385
X2.775Y-2.385
X2.875Y-2.385
X2.975Y-2.385
X3.075Y-2.385
X3.175Y-2.385
X3.275Y-2.385
X3.375Y-2.385
X3.475Y-2.385
X3.575Y-2.385
X3.675Y-2.385
X3.775Y-2.385
X3.875Y-2.385
X3.975Y-2.385
X4.075Y-2.385
X3.3975Y-2.775
X1.61Y-2.25
X1.71Y-1.95
X1.71Y-2.25
X1.81Y-1.95
X1.91Y-1.95
X4.175Y-2.385
X4.275Y-2.385
X4.375Y-2.385
X1.61Y-1.95
X1.81Y-2.25
X2.6431Y-4.0429
X2.8399Y-4.0429
X3.1975Y-2.775
X3.2975Y-2.775
X3.4975Y-3.075
X1.91Y-2.25
X3.2975Y-3.075
X4.475Y-2.385
X3.6225Y-2.8306
X3.6225Y-3.0275
X3.1975Y-3.075
X3.3975Y-3.075
X3.4975Y-2.775
T6
X3.217Y-4.3006
X3.217Y-4.5006
X2.9725Y-4.297
X2.1135Y-4.3006
X3.517Y-4.5006
X3.517Y-4.3006
X2.6725Y-4.297
X2.6725Y-4.497
X2.4135Y-4.3006
X2.4135Y-4.5006
X2.9725Y-4.497
X2.1135Y-4.5006
T7
X4.28Y-2.7875
X4.33Y-2.7875
X4.38Y-2.7875
X4.43Y-2.7875
T8
X1.13Y-2.9747
X1.13Y-3.0731
X1.13Y-3.1716
X1.13Y-3.27
T9
X3.7475Y-4.3225
X3.8475Y-4.3225
X3.9475Y-4.3225
X0.925Y-3.49
X0.925Y-3.59
X0.925Y-3.69
X1.025Y-3.49
X1.025Y-3.59
X1.025Y-3.69
X3.7475Y-4.5225
X3.8475Y-4.5225
X3.9475Y-4.5225
X4.248Y-3.0085
X4.248Y-3.5794
X4.3465Y-3.5794
X4.4449Y-3.0085
X4.4449Y-3.5794
T10
X2.6852Y-0.9894
X2.6852Y-1.0894
X2.6852Y-1.1894
X3.5818Y-0.9844
X3.5818Y-1.0844
X3.5818Y-1.1844
X1.8096Y-0.9872
X1.8096Y-1.0872
X1.8096Y-1.1872
T11
X1.0433Y-2.0079
X1.0433Y-2.2079
X1.0433Y-1.1614
X1.0433Y-1.3614
X1.0433Y-1.5614
X1.0433Y-1.7614
T13
X1.815Y-2.7525
X1.815Y-3.9525
X3.815Y-2.7525
X3.815Y-3.9525
X1.8158Y-2.5778
X1.8158Y-4.1278
X3.8158Y-2.5778
X3.8158Y-4.1278
T9
G00X1.0925Y-2.4128
M15
G01X1.0335Y-2.4128
M16
G05
G00X1.0925Y-2.7672
M15
G01X1.0335Y-2.7672
M16
G05
G00X1.1024Y-2.5644
M15
G01X1.1024Y-2.6156
M16
G05
G00X1.3386Y-2.5506
M15
G01X1.3386Y-2.6294
M16
G05
T12
G00X4.126Y-3.3097
M15
G01X4.126Y-3.2585
M16
G05
G00X4.5669Y-3.3097
M15
G01X4.5669Y-3.2585
M16
G05
T0
M30
