G04 #@! TF.GenerationSoftware,KiCad,Pcbnew,(5.1.4-0-10_14)*
G04 #@! TF.CreationDate,2020-03-01T11:47:34+01:00*
G04 #@! TF.ProjectId,circuit,63697263-7569-4742-9e6b-696361645f70,rev?*
G04 #@! TF.SameCoordinates,Original*
G04 #@! TF.FileFunction,Soldermask,Top*
G04 #@! TF.FilePolarity,Negative*
%FSLAX46Y46*%
G04 Gerber Fmt 4.6, Leading zero omitted, Abs format (unit mm)*
G04 Created by KiCad (PCBNEW (5.1.4-0-10_14)) date 2020-03-01 11:47:34*
%MOMM*%
%LPD*%
G04 APERTURE LIST*
%ADD10O,1.070000X1.800000*%
%ADD11R,1.070000X1.800000*%
%ADD12C,1.500000*%
%ADD13R,1.500000X1.500000*%
%ADD14R,1.524000X1.524000*%
%ADD15C,3.048000*%
%ADD16C,1.524000*%
%ADD17O,1.400000X1.400000*%
%ADD18C,1.400000*%
%ADD19R,2.000000X2.000000*%
%ADD20C,2.000000*%
%ADD21R,2.000000X3.200000*%
%ADD22O,2.000000X1.905000*%
%ADD23R,2.000000X1.905000*%
%ADD24O,3.500000X3.500000*%
%ADD25O,1.700000X1.700000*%
%ADD26R,1.700000X1.700000*%
%ADD27O,1.600000X1.600000*%
%ADD28R,1.600000X1.600000*%
%ADD29C,1.600000*%
%ADD30O,1.950000X1.700000*%
%ADD31C,0.100000*%
%ADD32C,1.700000*%
%ADD33C,2.600000*%
%ADD34R,2.600000X2.600000*%
%ADD35R,1.050000X1.500000*%
%ADD36O,1.050000X1.500000*%
%ADD37C,1.397000*%
%ADD38O,3.500000X2.000000*%
%ADD39O,2.000000X3.300000*%
%ADD40R,2.000000X4.000000*%
G04 APERTURE END LIST*
D10*
X112522000Y-70802500D03*
X111252000Y-70802500D03*
X109982000Y-70802500D03*
D11*
X108712000Y-70802500D03*
D12*
X57785000Y-60579000D03*
X73025000Y-60579000D03*
X75565000Y-60579000D03*
X78105000Y-60579000D03*
X80645000Y-60579000D03*
X83185000Y-60579000D03*
X85725000Y-60579000D03*
X88265000Y-60579000D03*
X90805000Y-60579000D03*
X93345000Y-60579000D03*
X95885000Y-60579000D03*
X98425000Y-60579000D03*
X100965000Y-60579000D03*
X103505000Y-60579000D03*
X106045000Y-60579000D03*
X108585000Y-60579000D03*
X111125000Y-60579000D03*
X113665000Y-60579000D03*
X70485000Y-60579000D03*
X60325000Y-60579000D03*
X62865000Y-60579000D03*
X65405000Y-60579000D03*
D13*
X55245000Y-60579000D03*
D12*
X67945000Y-60579000D03*
D14*
X98191900Y-76270400D03*
D15*
X96921900Y-65475400D03*
X96921900Y-104845400D03*
X46121900Y-104845400D03*
X46121900Y-65475400D03*
D16*
X98191900Y-78810400D03*
X98191900Y-81350400D03*
X98191900Y-83890400D03*
X98191900Y-86430400D03*
X98191900Y-88970400D03*
X98191900Y-91510400D03*
X98191900Y-94050400D03*
D17*
X43561000Y-59944000D03*
D18*
X51181000Y-59944000D03*
D19*
X107900000Y-90916000D03*
D20*
X110400000Y-90916000D03*
X112900000Y-90916000D03*
D21*
X104800000Y-83416000D03*
X116000000Y-83416000D03*
D20*
X107900000Y-76416000D03*
X112900000Y-76416000D03*
D22*
X90978300Y-30083000D03*
X90978300Y-27543000D03*
D23*
X90978300Y-25003000D03*
D24*
X107638300Y-27543000D03*
D25*
X26035000Y-88646000D03*
X23495000Y-88646000D03*
X26035000Y-91186000D03*
X23495000Y-91186000D03*
X26035000Y-93726000D03*
D26*
X23495000Y-93726000D03*
D27*
X54434700Y-91259700D03*
X87454700Y-98879700D03*
X56974700Y-91259700D03*
X84914700Y-98879700D03*
X59514700Y-91259700D03*
X82374700Y-98879700D03*
X62054700Y-91259700D03*
X79834700Y-98879700D03*
X64594700Y-91259700D03*
X77294700Y-98879700D03*
X67134700Y-91259700D03*
X74754700Y-98879700D03*
X69674700Y-91259700D03*
X72214700Y-98879700D03*
X72214700Y-91259700D03*
X69674700Y-98879700D03*
X74754700Y-91259700D03*
X67134700Y-98879700D03*
X77294700Y-91259700D03*
X64594700Y-98879700D03*
X79834700Y-91259700D03*
X62054700Y-98879700D03*
X82374700Y-91259700D03*
X59514700Y-98879700D03*
X84914700Y-91259700D03*
X56974700Y-98879700D03*
X87454700Y-91259700D03*
D28*
X54434700Y-98879700D03*
D16*
X44831000Y-76263500D03*
X44831000Y-78803500D03*
X44831000Y-81343500D03*
X44831000Y-83883500D03*
X44831000Y-86423500D03*
X44831000Y-88963500D03*
X44831000Y-91503500D03*
D15*
X46101000Y-69913500D03*
X46101000Y-100393500D03*
X96901000Y-100393500D03*
X96901000Y-69913500D03*
D14*
X44831000Y-94043500D03*
D27*
X81216500Y-70485000D03*
X88836500Y-78105000D03*
X83756500Y-70485000D03*
X86296500Y-78105000D03*
X86296500Y-70485000D03*
X83756500Y-78105000D03*
X88836500Y-70485000D03*
D28*
X81216500Y-78105000D03*
D12*
X57785000Y-37719000D03*
X57785000Y-35179000D03*
X55245000Y-35179000D03*
X73025000Y-35179000D03*
X73025000Y-37719000D03*
X75565000Y-35179000D03*
X75565000Y-37719000D03*
X78105000Y-35179000D03*
X78105000Y-37719000D03*
X80645000Y-35179000D03*
X80645000Y-37719000D03*
X83185000Y-35179000D03*
X83185000Y-37719000D03*
X85725000Y-35179000D03*
X85725000Y-37719000D03*
X88265000Y-35179000D03*
X88265000Y-37719000D03*
X90805000Y-35179000D03*
X90805000Y-37719000D03*
X93345000Y-35179000D03*
X93345000Y-37719000D03*
X95885000Y-35179000D03*
X95885000Y-37719000D03*
X98425000Y-35179000D03*
X98425000Y-37719000D03*
X100965000Y-35179000D03*
X100965000Y-37719000D03*
X103505000Y-35179000D03*
X103505000Y-37719000D03*
X106045000Y-35179000D03*
X106045000Y-37719000D03*
X108585000Y-35179000D03*
X108585000Y-37719000D03*
X111125000Y-35179000D03*
X111125000Y-37719000D03*
X113665000Y-35179000D03*
X113665000Y-37719000D03*
X70485000Y-35179000D03*
X70485000Y-37719000D03*
X60325000Y-37719000D03*
X62865000Y-35179000D03*
X62865000Y-37719000D03*
X65405000Y-35179000D03*
X65405000Y-37719000D03*
X60325000Y-35179000D03*
X55245000Y-37719000D03*
X67945000Y-35179000D03*
X67945000Y-37719000D03*
X57785000Y-42799000D03*
X57785000Y-40259000D03*
X55245000Y-40259000D03*
X73025000Y-40259000D03*
X73025000Y-42799000D03*
X75565000Y-40259000D03*
X75565000Y-42799000D03*
X78105000Y-40259000D03*
X78105000Y-42799000D03*
X80645000Y-40259000D03*
X80645000Y-42799000D03*
X83185000Y-40259000D03*
X83185000Y-42799000D03*
X85725000Y-40259000D03*
X85725000Y-42799000D03*
X88265000Y-40259000D03*
X88265000Y-42799000D03*
X90805000Y-40259000D03*
X90805000Y-42799000D03*
X93345000Y-40259000D03*
X93345000Y-42799000D03*
X95885000Y-40259000D03*
X95885000Y-42799000D03*
X98425000Y-40259000D03*
X98425000Y-42799000D03*
X100965000Y-40259000D03*
X100965000Y-42799000D03*
X103505000Y-40259000D03*
X103505000Y-42799000D03*
X106045000Y-40259000D03*
X106045000Y-42799000D03*
X108585000Y-40259000D03*
X108585000Y-42799000D03*
X111125000Y-40259000D03*
X111125000Y-42799000D03*
X113665000Y-40259000D03*
X113665000Y-42799000D03*
X70485000Y-40259000D03*
X70485000Y-42799000D03*
X60325000Y-42799000D03*
X62865000Y-40259000D03*
X62865000Y-42799000D03*
X65405000Y-40259000D03*
X65405000Y-42799000D03*
X60325000Y-40259000D03*
X55245000Y-42799000D03*
X67945000Y-40259000D03*
X67945000Y-42799000D03*
X57785000Y-47879000D03*
X57785000Y-45339000D03*
X55245000Y-45339000D03*
X73025000Y-45339000D03*
X73025000Y-47879000D03*
X75565000Y-45339000D03*
X75565000Y-47879000D03*
X78105000Y-45339000D03*
X78105000Y-47879000D03*
X80645000Y-45339000D03*
X80645000Y-47879000D03*
X83185000Y-45339000D03*
X83185000Y-47879000D03*
X85725000Y-45339000D03*
X85725000Y-47879000D03*
X88265000Y-45339000D03*
X88265000Y-47879000D03*
X90805000Y-45339000D03*
X90805000Y-47879000D03*
X93345000Y-45339000D03*
X93345000Y-47879000D03*
X95885000Y-45339000D03*
X95885000Y-47879000D03*
X98425000Y-45339000D03*
X98425000Y-47879000D03*
X100965000Y-45339000D03*
X100965000Y-47879000D03*
X103505000Y-45339000D03*
X103505000Y-47879000D03*
X106045000Y-45339000D03*
X106045000Y-47879000D03*
X108585000Y-45339000D03*
X108585000Y-47879000D03*
X111125000Y-45339000D03*
X111125000Y-47879000D03*
X113665000Y-45339000D03*
X113665000Y-47879000D03*
X70485000Y-45339000D03*
X70485000Y-47879000D03*
X60325000Y-47879000D03*
X62865000Y-45339000D03*
X62865000Y-47879000D03*
X65405000Y-45339000D03*
X65405000Y-47879000D03*
X60325000Y-45339000D03*
X55245000Y-47879000D03*
X67945000Y-45339000D03*
X67945000Y-47879000D03*
X57785000Y-52959000D03*
X57785000Y-50419000D03*
X55245000Y-50419000D03*
X73025000Y-50419000D03*
X73025000Y-52959000D03*
X75565000Y-50419000D03*
X75565000Y-52959000D03*
X78105000Y-50419000D03*
X78105000Y-52959000D03*
X80645000Y-50419000D03*
X80645000Y-52959000D03*
X83185000Y-50419000D03*
X83185000Y-52959000D03*
X85725000Y-50419000D03*
X85725000Y-52959000D03*
X88265000Y-50419000D03*
X88265000Y-52959000D03*
X90805000Y-50419000D03*
X90805000Y-52959000D03*
X93345000Y-50419000D03*
X93345000Y-52959000D03*
X95885000Y-50419000D03*
X95885000Y-52959000D03*
X98425000Y-50419000D03*
X98425000Y-52959000D03*
X100965000Y-50419000D03*
X100965000Y-52959000D03*
X103505000Y-50419000D03*
X103505000Y-52959000D03*
X106045000Y-50419000D03*
X106045000Y-52959000D03*
X108585000Y-50419000D03*
X108585000Y-52959000D03*
X111125000Y-50419000D03*
X111125000Y-52959000D03*
X113665000Y-50419000D03*
X113665000Y-52959000D03*
X70485000Y-50419000D03*
X70485000Y-52959000D03*
X60325000Y-52959000D03*
X62865000Y-50419000D03*
X62865000Y-52959000D03*
X65405000Y-50419000D03*
X65405000Y-52959000D03*
X60325000Y-50419000D03*
X55245000Y-52959000D03*
X67945000Y-50419000D03*
X67945000Y-52959000D03*
X113665000Y-58039000D03*
X113665000Y-55499000D03*
X111125000Y-58039000D03*
X111125000Y-55499000D03*
X108585000Y-58039000D03*
X108585000Y-55499000D03*
X106045000Y-58039000D03*
X106045000Y-55499000D03*
X103505000Y-58039000D03*
X103505000Y-55499000D03*
X100965000Y-58039000D03*
X100965000Y-55499000D03*
X98425000Y-58039000D03*
X98425000Y-55499000D03*
X95885000Y-58039000D03*
X95885000Y-55499000D03*
X93345000Y-58039000D03*
X93345000Y-55499000D03*
X90805000Y-58039000D03*
X90805000Y-55499000D03*
X88265000Y-58039000D03*
X88265000Y-55499000D03*
X85725000Y-58039000D03*
X85725000Y-55499000D03*
X83185000Y-58039000D03*
X83185000Y-55499000D03*
X80645000Y-58039000D03*
X80645000Y-55499000D03*
X78105000Y-58039000D03*
X78105000Y-55499000D03*
X75565000Y-58039000D03*
X75565000Y-55499000D03*
X73025000Y-58039000D03*
X73025000Y-55499000D03*
X70485000Y-58039000D03*
X70485000Y-55499000D03*
X67945000Y-58039000D03*
X67945000Y-55499000D03*
X65405000Y-58039000D03*
X65405000Y-55499000D03*
X62865000Y-58039000D03*
X62865000Y-55499000D03*
X60325000Y-58039000D03*
X60325000Y-55499000D03*
X57785000Y-58039000D03*
X57785000Y-55499000D03*
X55245000Y-58039000D03*
X55245000Y-55499000D03*
D29*
X78105000Y-76945500D03*
X78105000Y-71945500D03*
X92011500Y-71898500D03*
X92011500Y-76898500D03*
D30*
X28702000Y-75558000D03*
X28702000Y-78058000D03*
X28702000Y-80558000D03*
D31*
G36*
X29451504Y-82209204D02*
G01*
X29475773Y-82212804D01*
X29499571Y-82218765D01*
X29522671Y-82227030D01*
X29544849Y-82237520D01*
X29565893Y-82250133D01*
X29585598Y-82264747D01*
X29603777Y-82281223D01*
X29620253Y-82299402D01*
X29634867Y-82319107D01*
X29647480Y-82340151D01*
X29657970Y-82362329D01*
X29666235Y-82385429D01*
X29672196Y-82409227D01*
X29675796Y-82433496D01*
X29677000Y-82458000D01*
X29677000Y-83658000D01*
X29675796Y-83682504D01*
X29672196Y-83706773D01*
X29666235Y-83730571D01*
X29657970Y-83753671D01*
X29647480Y-83775849D01*
X29634867Y-83796893D01*
X29620253Y-83816598D01*
X29603777Y-83834777D01*
X29585598Y-83851253D01*
X29565893Y-83865867D01*
X29544849Y-83878480D01*
X29522671Y-83888970D01*
X29499571Y-83897235D01*
X29475773Y-83903196D01*
X29451504Y-83906796D01*
X29427000Y-83908000D01*
X27977000Y-83908000D01*
X27952496Y-83906796D01*
X27928227Y-83903196D01*
X27904429Y-83897235D01*
X27881329Y-83888970D01*
X27859151Y-83878480D01*
X27838107Y-83865867D01*
X27818402Y-83851253D01*
X27800223Y-83834777D01*
X27783747Y-83816598D01*
X27769133Y-83796893D01*
X27756520Y-83775849D01*
X27746030Y-83753671D01*
X27737765Y-83730571D01*
X27731804Y-83706773D01*
X27728204Y-83682504D01*
X27727000Y-83658000D01*
X27727000Y-82458000D01*
X27728204Y-82433496D01*
X27731804Y-82409227D01*
X27737765Y-82385429D01*
X27746030Y-82362329D01*
X27756520Y-82340151D01*
X27769133Y-82319107D01*
X27783747Y-82299402D01*
X27800223Y-82281223D01*
X27818402Y-82264747D01*
X27838107Y-82250133D01*
X27859151Y-82237520D01*
X27881329Y-82227030D01*
X27904429Y-82218765D01*
X27928227Y-82212804D01*
X27952496Y-82209204D01*
X27977000Y-82208000D01*
X29427000Y-82208000D01*
X29451504Y-82209204D01*
X29451504Y-82209204D01*
G37*
D32*
X28702000Y-83058000D03*
D12*
X77050200Y-103769000D03*
X81930200Y-103769000D03*
D17*
X33020000Y-75501500D03*
D18*
X40640000Y-75501500D03*
D22*
X45964400Y-30154100D03*
X45964400Y-27614100D03*
D23*
X45964400Y-25074100D03*
D24*
X62624400Y-27614100D03*
D22*
X68204600Y-30210000D03*
X68204600Y-27670000D03*
D23*
X68204600Y-25130000D03*
D24*
X84864600Y-27670000D03*
D33*
X26500000Y-56080000D03*
D34*
X26500000Y-51000000D03*
D33*
X26500000Y-44740000D03*
X26500000Y-39660000D03*
X26500000Y-34580000D03*
D34*
X26500000Y-29500000D03*
D17*
X105474000Y-114935000D03*
D18*
X105474000Y-107315000D03*
D25*
X100266500Y-114872000D03*
X97726500Y-114872000D03*
D26*
X95186500Y-114872000D03*
D25*
X100266500Y-109792000D03*
X97726500Y-109792000D03*
D26*
X95186500Y-109792000D03*
D29*
X50990500Y-77580500D03*
X50990500Y-72580500D03*
X37973000Y-49483000D03*
X37973000Y-54483000D03*
X72134700Y-102690000D03*
X67134700Y-102690000D03*
D35*
X36490200Y-24820100D03*
D36*
X39030200Y-24820100D03*
X37760200Y-24820100D03*
D35*
X34925000Y-31115000D03*
D36*
X37465000Y-31115000D03*
X36195000Y-31115000D03*
D37*
X53683400Y-114314000D03*
X53683400Y-109234000D03*
X61303400Y-114314000D03*
X61303400Y-109234000D03*
X67882000Y-114225000D03*
X67882000Y-109145000D03*
X75502000Y-114225000D03*
X75502000Y-109145000D03*
X81712300Y-114314000D03*
X81712300Y-109234000D03*
X89332300Y-114314000D03*
X89332300Y-109234000D03*
D17*
X33046000Y-85937600D03*
D18*
X40666000Y-85937600D03*
D17*
X33020600Y-78109300D03*
D18*
X40640600Y-78109300D03*
D17*
X33020600Y-80695000D03*
D18*
X40640600Y-80695000D03*
D17*
X33020600Y-83174100D03*
D18*
X40640600Y-83174100D03*
D17*
X46101000Y-42291000D03*
D18*
X38481000Y-42291000D03*
D17*
X38481000Y-37338000D03*
D18*
X46101000Y-37338000D03*
D17*
X40386000Y-46990000D03*
D18*
X48006000Y-46990000D03*
D17*
X38481000Y-39751000D03*
D18*
X46101000Y-39751000D03*
D29*
X25000000Y-65786000D03*
D38*
X27000000Y-70286000D03*
X27000000Y-61286000D03*
D39*
X28000000Y-65786000D03*
D40*
X34000000Y-65786000D03*
D27*
X48514000Y-57150000D03*
X40894000Y-49530000D03*
X45974000Y-57150000D03*
X43434000Y-49530000D03*
X43434000Y-57150000D03*
X45974000Y-49530000D03*
X40894000Y-57150000D03*
D28*
X48514000Y-49530000D03*
D29*
X40687000Y-70485000D03*
X35687000Y-70485000D03*
X50546000Y-41990000D03*
X50546000Y-46990000D03*
D27*
X54610000Y-70548500D03*
X72390000Y-78168500D03*
X57150000Y-70548500D03*
X69850000Y-78168500D03*
X59690000Y-70548500D03*
X67310000Y-78168500D03*
X62230000Y-70548500D03*
X64770000Y-78168500D03*
X64770000Y-70548500D03*
X62230000Y-78168500D03*
X67310000Y-70548500D03*
X59690000Y-78168500D03*
X69850000Y-70548500D03*
X57150000Y-78168500D03*
X72390000Y-70548500D03*
D28*
X54610000Y-78168500D03*
D17*
X105474000Y-103124000D03*
D18*
X105474000Y-95504000D03*
D17*
X116776000Y-27495500D03*
D18*
X116776000Y-35115500D03*
D17*
X112522000Y-30861000D03*
D18*
X112522000Y-23241000D03*
D17*
X42007100Y-24870900D03*
D18*
X42007100Y-32490900D03*
D17*
X40640000Y-59944000D03*
D18*
X40640000Y-67564000D03*
D17*
X51562000Y-57023000D03*
D18*
X51562000Y-49403000D03*
M02*
